<svg width="320" height="90" viewBox="0 0 320 90" fill="none" xmlns="http://www.w3.org/2000/svg">
<path d="M15 85.6C14.64 85.6 14.4 85.16 14.08 84.8C13.44 84.08 13.08 83.56 12.48 82.84C12.16 82.48 11.96 82.24 12 82.04C12 81.76 12.28 81.68 12.68 81.6C13.2 81.48 13.84 81.36 14.04 81.32C16.88 80.56 20 79.36 22.24 77.36C24 75.8 25.16 73.76 25.16 71.04C25.16 68.44 24.6 66.52 21.6 66.52C20 66.52 17.68 67.08 16.16 67.56C14.92 67.92 13.76 68.4 12.6 68.96C12.28 69.12 11.44 69.56 11.12 69.56C10.8 69.56 10.68 69.24 10.56 69C10.32 68.52 9.72 67.28 9.4 66.44C9.32 66.16 9.24 65.92 9.24 65.68C9.24 65.48 9.48 65.32 9.72 65.28C9.96 65.2 10.24 65.12 10.44 65.08C14.36 64.16 17.44 62.6 21.72 62.6C24.16 62.6 26.32 63.52 27.84 65.48C29.16 67.16 29.44 69.36 29.44 71.4C29.44 72.72 29.28 74.04 28.8 75.24C26.72 80.56 22.16 83.32 17 85.08C16.56 85.24 15.32 85.56 15 85.6ZM25.84 61.24C25.68 61.24 25.48 61.2 25.24 61.16C24.84 61.12 24.4 61.04 24.04 60.96C22.28 60.68 19.96 60 18.72 59.6C17.32 59.16 15.72 58.36 14.4 57.68C14.16 57.56 13.76 57.4 13.72 57.12C13.72 56.92 13.8 56.8 13.96 56.44C14.28 55.72 14.84 54.68 14.96 54.36C15.08 54.12 15.28 53.64 15.6 53.64C15.84 53.64 16.36 54 16.56 54.12C17.68 54.76 18.88 55.28 20.12 55.64C21.84 56.16 23.68 56.44 25.48 56.6C25.68 56.6 26.28 56.68 26.72 56.72C27 56.76 27.36 56.76 27.4 57.08C27.4 57.24 27.24 57.52 27.12 57.84C26.88 58.64 26.52 59.6 26.36 60.24C26.24 60.72 26.12 61.24 25.84 61.24ZM60.52 84.52C59.92 84.52 59.88 84.4 59.68 83.88C59.36 83.16 59.04 82.24 58.76 81.48C58.64 81.12 58.6 80.88 58.6 80.76C58.6 80.32 58.92 80.4 59.24 80.36C60.2 80.24 61.76 80.08 62.12 80C66.48 79.28 70.04 77.08 70.04 72.24C70.04 68.12 67.72 65.64 63.68 65.32C62.64 68.84 61 72.52 58.72 75.44C59.2 76.08 59.72 76.72 60.24 77.32C60.44 77.56 60.68 77.76 60.68 78.12C60.68 78.4 60.44 78.52 60.08 78.8C59.56 79.24 58.8 79.84 58.24 80.2C57.92 80.4 57.72 80.56 57.52 80.56C57.24 80.56 57 80.24 56.72 79.92C56.36 79.48 56.04 78.92 55.84 78.64C54.48 79.84 52.76 80.92 50.92 80.92C47.28 80.92 45.68 77.84 45.68 74.56C45.68 70.92 47.56 67.92 50.4 65.72C50 63.8 49.48 60.64 49.48 58.72C49.48 58.08 49.52 57.84 50.28 57.8C51.16 57.76 52.76 57.68 53.2 57.68C53.84 57.68 53.8 57.92 53.84 58.28C53.88 58.6 53.8 58.96 53.8 59.4C53.84 60.64 53.88 62.24 54.12 63.6C56.08 62.68 58.12 62.12 60.24 61.84C60.52 60.28 60.92 58.2 60.92 56.64V55.84C60.92 55.32 61.08 55.28 61.76 55.28C62.08 55.28 63.72 55.44 64.72 55.56C65.16 55.6 65.56 55.56 65.56 56.08C65.56 56.24 65.52 56.6 65.44 57C65.24 57.96 64.92 59.32 64.84 59.8C64.72 60.4 64.64 61 64.48 61.68C70.52 62.4 74.24 66.36 74.24 72.44C74.24 79.68 67.96 83.64 61.4 84.44C61.12 84.48 60.8 84.52 60.52 84.52ZM50.96 76.84C51.96 76.84 53.16 75.84 53.84 75.12C52.96 73.36 52.24 71.52 51.68 69.6C50.36 70.92 49.52 72.52 49.52 74.48C49.52 75.4 49.72 76.84 50.96 76.84ZM56.64 72C57.88 70.16 58.8 67.88 59.44 65.64C57.92 65.96 56.36 66.52 55 67.28C55.32 68.76 56 70.6 56.64 72ZM86.08 86.04C85.96 86.04 85.64 85.84 85.24 85.68C84.36 85.28 83.08 84.72 82.68 84.52C82.48 84.44 81.76 84.16 81.76 83.88C81.76 83.56 82.4 82.92 82.6 82.68C83.8 81.28 84.56 79.6 85.08 77.84C85.76 75.4 86.12 72.8 86.2 70.24C86.28 67.84 86.48 65.4 86.48 62.96C86.48 61.08 86.24 59.24 86.24 57.36C86.24 56.52 85.92 55.76 85.92 54.92C85.92 54.6 86.24 54.52 86.52 54.52C86.72 54.52 86.92 54.56 87.12 54.56C88.56 54.64 90 54.68 91.44 54.68C97.08 54.68 102.72 54.64 108.4 54.6C109.92 54.6 111.56 54.52 113.12 54.52C113.64 54.52 113.84 54.52 113.88 54.96C113.88 55.4 113.64 56.24 113.52 56.84L112.84 61.6C112.8 61.88 112.72 62.64 112.64 63.16C112.52 63.8 112.56 63.88 111.88 63.84L109.68 63.72C106.52 63.6 103.36 63.56 100.2 63.56C97 63.56 93.8 63.56 90.6 63.6V63.96C90.6 70.16 90.24 79.36 87.12 84.8C86.92 85.12 86.48 86.04 86.08 86.04ZM116.84 85.92L116 85.88C114.8 85.68 113.6 85.64 112.4 85.56C108.44 85.24 104.44 85.28 100.48 85.28C98.12 85.28 96.68 85.36 94.32 85.44C93.4 85.48 92.48 85.56 91.56 85.64C91.28 85.68 90.6 85.76 90.32 85.76C89.8 85.76 89.92 85.44 89.92 84.92V82.64C89.92 82.16 89.8 81.8 90.36 81.8C90.92 81.8 91.72 81.92 92.28 81.92C93.36 82 94.44 82 95.52 82H101.04V80.08C99.12 80.04 97.16 80.04 95.24 80.12C94.76 80.12 94.2 80.24 93.72 80.24C93 80.24 93.2 79.96 93.2 79.36C93.16 78.64 93.16 77.72 93.16 77C93.16 76.72 93.16 76.56 93.44 76.56C93.68 76.56 93.96 76.64 94.2 76.64C95.6 76.72 97.08 76.72 98.48 76.72H101.04V74.96C98.6 74.96 96.16 75.04 93.76 75.04C93.32 75.04 91.76 75.2 91.68 74.56C91.64 73.88 92.08 73.64 92.88 72.88C94.56 71.36 96.56 69.64 97.92 68.44L95.68 68.48C94.84 68.52 94 68.64 93.16 68.64C92.76 68.64 92.6 68.6 92.6 68.16V65.48C92.6 65.16 92.8 65.12 93.08 65.12C93.48 65.12 93.92 65.2 94.32 65.24C96.64 65.28 98.96 65.28 101.24 65.28C104.64 65.28 108 65.28 111.36 65.2C112.12 65.16 112.92 65.04 113.68 65.04C113.88 65.04 114.04 65.08 114.04 65.32C114.04 65.52 113.96 65.8 113.96 66C113.84 66.68 113.72 67.36 113.68 68.04C113.64 68.52 113.68 68.76 113.16 68.76C112.68 68.76 112.04 68.6 111.56 68.6C108.68 68.52 105.8 68.4 102.92 68.4C102.52 68.76 102.24 68.96 101.44 69.6C100.48 70.36 99.64 71.16 98.72 71.96H103.56C104.8 71.96 106.2 72 107.44 71.96C107 71.56 106.48 71.08 106.04 70.72C105.92 70.64 105.52 70.4 105.52 70.28C105.52 70 105.68 69.96 105.92 69.88C106.12 69.8 107 69.44 107.72 69.2C108.24 69 108.64 68.88 108.72 68.88C108.84 68.88 109.24 69.08 109.68 69.44C110.88 70.36 112.88 72.24 113.84 73.52C114.16 73.96 114.28 74.32 114.28 74.56C114.28 75.12 113.28 75 112.92 75C110.32 75 107.68 75 105.08 74.96V76.72C106.88 76.72 108.64 76.68 110.44 76.6C111.12 76.56 111.84 76.4 112.56 76.4C112.72 76.4 112.88 76.44 112.88 76.68C112.88 77.32 112.6 78.52 112.52 79.2C112.44 79.92 112.52 80.28 112.12 80.28L110.52 80.16C108.72 80.08 106.88 80.08 105.08 80.08V82H110.16C111.52 82 112.88 81.96 114.28 81.92C115.08 81.88 115.92 81.8 116.76 81.76C117 81.72 117.28 81.64 117.52 81.64C117.8 81.64 117.92 81.8 117.92 82.08C117.92 82.36 117.76 82.64 117.72 82.92C117.64 83.72 117.48 84.44 117.32 85.2C117.24 85.56 117.28 85.92 116.84 85.92ZM90.6 60.48C96.6 60.48 102.72 60.44 108.72 60.48L109.04 58.04C102.92 57.96 96.68 58 90.56 58.04C90.6 58.84 90.6 59.68 90.6 60.48ZM139.96 83.56C139.4 83.56 139.32 83.4 139.04 82.96C138.52 82.16 138.2 81.4 137.72 80.52C137.56 80.2 137.36 79.92 137.4 79.76C137.4 79.32 138.12 79.32 138.44 79.28C140.44 79.04 143.24 78.48 145 77.6C148.28 75.96 150.08 74.12 150.08 70.24C150.08 65 146.72 61.92 141.52 61.92C140.36 61.92 139.16 62.04 138.04 62.24C138.72 62.4 139.64 62.56 140.4 62.76C141 62.96 141.44 63.12 141.44 63.56C141.44 64.16 141.2 64.96 141.12 65.56C140.12 70.16 138.6 76.48 135.12 79.84C134.16 80.76 132.96 81.6 131.6 81.6C130.84 81.6 130.12 81.36 129.48 81C126.36 79.24 125.56 75.68 125.56 72.36C125.56 69.8 126.48 66.72 128 64.6C131.12 60.24 136.12 58.52 141.32 58.52C143.68 58.52 146.16 58.84 148.28 60C152.2 62.12 154.28 65.72 154.28 70.16C154.28 75.88 151.4 79.28 146.4 81.72C144.84 82.48 141.68 83.56 139.96 83.56ZM131.52 76.96C132.12 77 132.72 76.2 133 75.84C134.96 73.32 136.6 68.16 137.04 64.4C137.12 63.72 137.16 63.08 137.16 62.52C132.6 63.84 129.64 67.72 129.64 72.48C129.64 73.6 129.68 75.28 130.32 76.2C130.56 76.56 130.92 76.96 131.52 76.96ZM180.6 83C179.56 83 178.52 83 177.48 82.92C175.48 82.76 172.92 82.52 170.92 81.6C169.08 80.76 167.72 79.32 167.72 76.92C167.72 74.76 168.64 72.68 170.16 71.16C170.36 70.96 170.56 70.68 170.88 70.68C171 70.68 171.2 70.72 171.48 70.88C172.08 71.2 172.72 71.48 173.28 71.84C173.64 72.12 173.92 72.32 173.92 72.48C173.92 72.84 173.44 73.12 173.2 73.36C172.36 74.2 171.64 75.24 171.64 76.44C171.64 77.36 172.6 77.92 173.88 78.24C175.8 78.72 178.4 78.84 179.36 78.84C181 78.84 182.64 78.64 184.24 78.4C186.12 78.12 187.92 77.64 189.72 77C190 76.88 190.32 76.68 190.64 76.68C190.96 76.68 191 77.32 191.04 77.56C191.12 78.68 191.2 79.84 191.2 81C191.2 81.64 190.88 81.84 190.28 81.96C187.92 82.44 182 83 180.6 83ZM188.48 64.56C188.2 64.56 187.76 64.48 187.44 64.44C186.36 64.32 185.4 64.28 184.36 64.2C183.08 64.12 181.76 64 180.44 64C177.88 64 175.2 64.04 172.64 64.32C172.28 64.36 171.92 64.44 171.56 64.44C171.16 64.44 171.04 64.24 171 63.84C170.92 62.88 170.72 61.28 170.72 60.88C170.72 60.44 171.04 60.36 171.44 60.28C173.32 59.92 178.76 59.84 179.6 59.84C181 59.84 182.4 59.84 183.8 59.88C185.16 59.92 187.12 59.88 188.44 60.08C189.08 60.2 189.2 60.32 189.2 60.96C189.2 61.84 189.08 62.64 188.96 63.68C188.96 64.04 188.92 64.52 188.48 64.56ZM210.16 84.8C209.76 84.8 207.92 84.24 206.68 83.92C206.28 83.84 206.04 83.6 206.04 83.44C206 83.2 206.12 83 206.28 82.64C206.48 82.12 206.76 81.52 206.84 81.24C208.68 76.08 210.32 70.36 211.6 65C210.16 65.24 208.72 65.36 207.28 65.56C206.92 65.64 206.56 65.68 206.24 65.68C205.76 65.68 205.8 65.36 205.8 64.96C205.76 64.08 205.76 62.36 205.76 62.04C205.76 61.48 205.92 61.36 206.24 61.36C206.48 61.32 206.84 61.4 207.2 61.4C209.12 61.4 210.56 61.2 212.44 60.96C212.84 59.16 213.12 57.36 213.48 55.52L213.64 54.52C213.64 54.2 213.64 53.64 214.08 53.64C214.28 53.64 214.52 53.64 214.84 53.72L217.36 54.16C217.84 54.28 218.2 54.32 218.24 54.72C218.24 54.84 218.12 55.2 218 55.68C217.6 57.08 216.92 59.56 216.76 60.32C217.48 60.2 218.04 60.04 218.64 59.88C219 59.76 219.36 59.6 219.72 59.48C219.96 59.4 220.44 59.12 220.68 59.16C221 59.2 221.08 59.52 221.08 59.88C221.12 60.64 221.24 61.88 221.24 62.64C221.24 63.48 220.8 63.56 220.32 63.72C218.96 64.08 217 64.32 215.76 64.52C214.12 70.36 212.68 76.24 211.28 82.16C211.24 82.4 211.04 83.32 210.84 84.04C210.76 84.48 210.68 84.8 210.16 84.8ZM230.12 82.6C229.52 82.6 228.88 82.56 228.28 82.52C225.76 82.32 223.36 81.8 221.56 80.56C220.08 79.52 219.04 78 218.64 75.76C218.56 75.4 218.52 75 218.52 74.64C218.52 74.08 218.68 74 219.16 73.8C219.56 73.6 220.64 73.08 221.4 72.8C221.72 72.64 221.96 72.56 222.08 72.56C222.4 72.56 222.48 72.88 222.48 73.24C222.48 73.6 222.44 74 222.44 74.2C222.44 74.6 222.48 74.96 222.56 75.36C222.68 76.16 222.88 76.6 223.56 77.16C224.76 78.12 226.84 78.28 228.36 78.28C229.36 78.28 230.36 78.2 231.4 78.04C231.84 78 232.36 77.8 232.88 77.72C233.12 77.64 233.36 77.64 233.6 77.64C233.92 77.64 233.96 77.84 233.96 78.08C233.96 78.6 233.88 79.24 233.8 79.8C233.72 80.48 233.68 80.92 233.56 81.64C233.48 82.16 233.28 82.4 232.92 82.44C232.16 82.56 230.52 82.6 230.12 82.6ZM232.84 67.68C232.72 67.68 232.48 67.6 232.16 67.48L230.84 66.96C228.2 66 225.56 65.44 222.84 64.92C222.56 64.84 222.28 64.76 222.28 64.56C222.28 64.44 222.36 64.2 222.44 63.92C222.68 63.28 223.28 62.12 223.4 61.84C223.6 61.44 223.8 61.4 224.16 61.36C224.4 61.36 224.84 61.4 225.4 61.48C226.64 61.64 228.48 61.96 230.2 62.36C231.72 62.68 233 63.04 233.96 63.44C234.28 63.56 234.64 63.76 234.64 64.16C234.64 64.28 234.56 64.6 234.4 64.96C234.08 65.76 233.6 66.8 233.44 67.16C233.32 67.4 233.12 67.68 232.84 67.68ZM231.32 60.12C231.16 60.12 231 59.88 230.76 59.6C230.28 59.04 229.56 58.28 229.12 57.84C228.56 57.28 228.24 56.96 227.76 56.56C227.44 56.28 227.16 56.2 227.12 56.04C227.12 55.92 227.2 55.8 227.36 55.68L228.12 54.96C228.32 54.8 228.44 54.64 228.6 54.64C228.76 54.6 229 54.8 229.28 55C229.72 55.36 230.24 55.76 230.72 56.2C231.32 56.72 231.8 57.08 232.24 57.56C232.48 57.84 232.84 58.16 232.84 58.4C232.84 58.52 232.68 58.68 232.52 58.84C232.32 59.12 232 59.44 231.72 59.8C231.6 59.96 231.44 60.12 231.32 60.12ZM234.8 57.64C234.64 57.64 234.48 57.4 234.24 57.12C233.76 56.6 233.04 55.8 232.6 55.36C232.04 54.84 231.72 54.48 231.24 54.08C230.92 53.8 230.64 53.76 230.6 53.56C230.6 53.44 230.68 53.32 230.84 53.2C231.04 52.96 231.4 52.68 231.6 52.48C231.76 52.32 231.92 52.16 232.08 52.16C232.32 52.16 232.48 52.32 232.76 52.52C233.2 52.88 233.72 53.28 234.2 53.72C234.8 54.28 235.32 54.68 235.76 55.16C235.96 55.4 236.32 55.68 236.32 55.92C236.32 56.08 236.2 56.2 236 56.4C235.8 56.64 235.48 56.96 235.2 57.32C235.08 57.48 234.92 57.64 234.8 57.64ZM255.24 85.6C254.44 85.6 253.28 85.6 252.44 85.56C251.92 85.52 251.6 85.52 251.6 85C251.6 84.76 251.68 84.48 251.72 84.16C251.84 83.44 252 82.68 252.08 82.08C252.48 79.6 252.6 77.12 252.72 74.64C251.08 76.44 249.72 78.48 248.44 80.56C248.24 80.84 248 81.44 247.6 81.44C247.44 81.44 247.16 81.24 246.84 81C246.24 80.48 245.44 79.8 244.92 79.2C244.68 78.88 244.52 78.76 244.52 78.48C244.52 78.24 244.8 77.92 245.12 77.56C245.52 77.08 246 76.6 246.16 76.4C248.76 73.44 251.04 70.16 253.2 66.88C253.2 66.32 253.24 65.72 253.24 65.16C251.84 65.48 250.68 65.84 249.28 66.2C248.92 66.28 248.32 66.48 247.96 66.6C247.68 66.68 247.44 66.8 247.12 66.8C246.8 66.8 246.6 66.12 246.52 65.84C246.44 65.52 246.08 64.44 245.88 63.6C245.8 63.16 245.72 62.8 245.72 62.68C245.72 62.56 245.72 62.44 245.8 62.36C245.92 62.24 246.48 62.24 246.68 62.24C248.96 62.08 251.24 61.72 253.48 61.32C253.56 60.04 253.64 58.76 253.64 57.48C253.64 56.64 253.68 55.6 253.52 54.8C253.48 54.6 253.4 54.2 253.44 53.92C253.48 53.68 253.92 53.64 254.32 53.64C255.12 53.6 256.92 53.6 257.48 53.6C257.96 53.6 258.08 53.8 258.08 54.28C258.08 54.72 257.92 55.6 257.84 56.52C257.68 57.84 257.56 59.12 257.44 60.44C257.68 60.4 257.92 60.4 258.16 60.32C258.36 60.24 258.6 60.04 258.8 60.04C259.08 60.04 259.32 60.24 259.52 60.44L260.72 61.48C261.04 61.76 261.28 62.04 261.32 62.36C261.36 62.64 260.68 63.12 260.44 63.36C259.2 64.48 258 65.52 256.72 66.68V67.56C257.48 67.2 258.32 66.88 259.12 66.56C261.44 65.6 263.6 64.96 266.12 64.96C270.84 64.96 274.8 67.96 274.8 72.92C274.8 77.72 271.36 81 267.2 82.8C266.24 83.2 264.28 83.92 262.88 84.2C262.52 84.24 262.04 84.36 261.72 84.36C261.36 84.36 261.16 84.12 260.88 83.8C260.28 83.08 259.92 82.6 259.32 81.92C258.88 81.4 258.56 81.2 258.56 80.88C258.6 80.56 259.28 80.56 259.52 80.52C261.28 80.24 263.24 79.8 264.8 79.28C267.72 78.28 270.6 76.16 270.6 72.76C270.6 70 268.6 68.64 266 68.64C262.64 68.64 259.28 70.08 256.4 71.76C256.16 74.84 256.12 77.96 256.12 81.08V83.4L256.16 85C256.16 85.52 255.88 85.6 255.24 85.6ZM297.089 85.96C296.809 85.96 296.609 85.72 296.249 85.36L294.289 83.36C294.089 83.12 293.649 82.88 293.649 82.48C293.689 82.2 294.249 82.16 294.409 82.12C295.369 81.76 296.209 81.48 297.089 81.08C298.809 80.32 300.289 78.96 301.409 77.44C303.489 74.6 303.809 71.96 303.809 68.56C303.809 65.4 303.809 62.2 303.609 59.08C303.569 58.4 303.529 57.72 303.449 57C303.409 56.6 303.289 56.16 303.289 55.76C303.289 55.28 303.689 55.24 304.089 55.2C305.169 55.16 306.449 55.08 307.529 55.08C308.049 55.08 308.329 55.08 308.329 55.6C308.329 56.48 308.049 57.4 308.009 58.28C307.969 59.52 307.849 60.72 307.849 61.96C307.849 64.64 307.929 67.32 307.929 70C307.929 72.64 307.649 75.04 306.569 77.52C305.249 80.56 302.489 83.48 299.489 85C299.129 85.16 298.449 85.56 297.849 85.76C297.569 85.88 297.329 85.96 297.089 85.96ZM294.729 78C294.369 78 293.929 77.88 293.489 77.72C293.089 77.56 292.249 77.24 291.649 76.84C291.329 76.6 291.009 76.36 290.929 76.2C290.809 76 290.769 75.56 290.729 75C290.649 73.64 290.569 71.6 290.569 70.88C290.569 66.72 290.849 62.56 291.169 58.4C291.209 58.08 291.169 56.92 291.209 56.32C291.249 55.96 291.249 55.72 291.729 55.72C292.689 55.72 294.169 55.84 295.169 55.96C295.569 56 295.849 56.08 295.849 56.36C295.849 56.6 295.809 57.04 295.729 57.24C295.489 58.48 295.249 59.72 295.129 60.96C294.849 63.8 294.449 66.68 294.449 69.52C294.449 69.92 294.449 70.32 294.489 70.76C294.729 70.44 295.329 69.32 295.809 68.64C296.009 68.36 296.209 68.16 296.369 68.16C296.449 68.16 296.689 68.24 296.929 68.4C297.289 68.6 297.729 68.92 298.049 69.2C298.209 69.36 298.489 69.48 298.489 69.72C298.489 69.88 298.249 70.28 298.169 70.44C297.009 72.56 296.169 74.76 295.489 77.08C295.289 77.64 295.209 78 294.729 78Z" fill="white"/>
<mask id="mask0_35_14" style="mask-type:luminance" maskUnits="userSpaceOnUse" x="0" y="0" width="80" height="40">
<path d="M80 0.000610352H0V39.9992H80V0.000610352Z" fill="white"/>
</mask>
<g mask="url(#mask0_35_14)">
<path d="M0 22.4305C0 22.4305 11.5318 21.1271 20.7603 18.9785C30.3872 16.7371 33.9136 8.76409 31.3703 3.86414C28.8244 -1.03855 21.1408 -2.05835 13.7432 5.45928C6.96862 12.3388 0 22.4305 0 22.4305Z" fill="#188F5A"/>
<path d="M5.8808 19.0115C5.8808 19.0115 14.5297 14.8642 24.7209 8.83262C30.0654 5.66687 29.2994 5.15152 29.2994 5.15152C29.2994 5.15152 29.0389 4.33077 23.9497 7.34382C13.7559 13.3781 5.8808 19.0115 5.8808 19.0115Z" fill="white"/>
<path d="M15.5638 33.1143C15.5638 33.1143 25.4997 26.731 33.0148 20.6176C40.8516 14.2425 40.8899 5.4242 36.6459 2.13029C32.3994 -1.16361 25.0324 1.38044 21.3017 11.5321C17.8876 20.8248 15.5638 33.1143 15.5638 33.1143Z" fill="#68B336"/>
<path d="M19.5397 27.3609C19.5397 27.3609 25.7372 19.6987 32.5858 9.63159C36.1786 4.35262 35.2772 4.22992 35.2772 4.22992C35.2772 4.22992 34.718 3.60549 31.2988 8.63361C24.4476 18.7007 19.5397 27.3609 19.5397 27.3609Z" fill="white"/>
<path d="M80 22.4308C80 22.4308 68.4682 21.1274 59.2397 18.9787C49.6128 16.7373 46.0864 8.76433 48.6297 3.86438C51.1756 -1.0383 58.8592 -2.0581 66.2568 5.45952C73.0314 12.3391 80 22.4308 80 22.4308Z" fill="#188F5A"/>
<path d="M74.1217 19.0115C74.1217 19.0115 65.4729 14.8642 55.2817 8.83262C49.9371 5.66687 50.7032 5.15152 50.7032 5.15152C50.7032 5.15152 50.9636 4.33077 56.0529 7.34382C66.2466 13.3781 74.1217 19.0115 74.1217 19.0115Z" fill="white"/>
<path d="M64.4387 33.1143C64.4387 33.1143 54.5029 26.731 46.9878 20.6176C39.151 14.2425 39.1127 5.4242 43.3566 2.13029C47.6032 -1.16361 54.9702 1.38044 58.7009 11.5321C62.115 20.8248 64.4387 33.1143 64.4387 33.1143Z" fill="#68B336"/>
<path d="M60.4628 27.3609C60.4628 27.3609 54.2654 19.6987 47.4168 9.63159C43.8239 4.35262 44.7253 4.22992 44.7253 4.22992C44.7253 4.22992 45.2846 3.60549 48.7037 8.63361C55.5549 18.7007 60.4628 27.3609 60.4628 27.3609Z" fill="white"/>
<path d="M39.9502 39.9993C39.9502 39.9993 44.4751 28.5988 47.1895 18.9379C50.0188 8.85989 45.1977 1.69946 39.9502 1.69946C34.7027 1.69946 30.142 8.38271 32.7109 18.9379C35.0653 28.5988 39.9502 39.9993 39.9502 39.9993Z" fill="#188F5A"/>
<path d="M40.0013 32.8498C40.0013 32.8498 40.798 22.7636 40.798 10.3187C40.798 3.79363 40.0013 4.25717 40.0013 4.25717C40.0013 4.25717 39.2046 4.10448 39.2046 10.3187C39.2046 22.7636 40.0013 32.8498 40.0013 32.8498Z" fill="white"/>
</g>
</svg>
