<svg width="269" height="47" viewBox="0 0 269 47" fill="none" xmlns="http://www.w3.org/2000/svg">
<path d="M64.88 37.352C63.26 37.352 60.92 36.236 59.516 34.688C58.724 33.824 58.184 32.852 58.184 31.88C58.184 30.98 58.76 30.08 59.552 29.288C60.632 28.208 62 27.308 62.9 26.732C63.512 26.336 64.196 26.048 64.88 25.724V20C64.232 20.036 63.692 20.072 63.008 20.072C62.072 20.036 59.984 19.928 58.904 19.712C58.616 19.64 58.544 19.568 58.544 19.28C58.544 18.704 58.688 17.012 58.796 16.436C58.832 16.256 58.94 16.22 59.12 16.22C59.336 16.22 59.552 16.292 59.768 16.292C61.1 16.472 62.432 16.652 63.764 16.652C64.124 16.652 64.484 16.616 64.844 16.616C64.844 15.428 64.808 14.24 64.808 13.016C64.808 12.62 64.772 12.188 64.772 11.756C64.736 11.504 64.664 11.288 64.664 11.036C64.664 10.64 64.844 10.568 65.204 10.568H68.048C68.372 10.568 68.696 10.568 68.696 11C68.696 11.144 68.696 11.324 68.66 11.504C68.552 12.44 68.516 13.412 68.444 14.384C68.372 14.996 68.408 15.608 68.336 16.22C69.704 16.004 70.82 15.572 72.08 15.032C72.296 14.924 72.62 14.744 72.872 14.78C73.088 14.78 73.088 15.14 73.16 15.5L73.376 17.696C73.412 17.876 73.412 18.056 73.412 18.2C73.412 18.596 73.232 18.668 72.908 18.776C71.72 19.172 68.696 19.676 68.192 19.748V24.5C70.568 23.636 73.016 22.952 75.536 22.952C79.82 22.952 83.24 25.292 83.24 29.864C83.24 31.736 82.772 33.536 81.332 34.832C79.964 36.092 78.38 36.776 76.472 36.776C74.78 36.776 73.232 36.272 72.008 35.048C70.964 34.004 70.532 32.816 70.136 31.448C70.064 31.196 70.028 30.728 70.028 30.476C70.028 30.188 70.496 30.008 70.748 29.864C71.108 29.648 71.828 29.324 72.44 29.072C72.764 28.928 73.052 28.82 73.196 28.82C73.448 28.82 73.52 29.108 73.52 29.396C73.592 31.34 74.348 33.176 76.616 33.176C78.488 33.176 79.712 31.844 79.712 29.972C79.712 27.38 78.164 26.012 75.608 26.012C73.304 26.012 70.424 26.948 68.336 27.848C68.336 28.892 68.444 29.9 68.444 30.944C68.48 31.916 68.48 32.888 68.48 33.86C68.48 36.092 67.076 37.352 64.88 37.352ZM64.34 33.5C64.772 33.5 64.916 33.176 64.952 32.816C64.988 32.492 64.988 32.168 64.988 31.916C64.988 31.088 64.952 30.188 64.952 29.288C64.448 29.504 63.404 30.08 62.72 30.764C62.36 31.124 62.072 31.484 62.072 31.844C62.072 32.24 62.396 32.636 62.792 32.924C63.296 33.284 63.908 33.5 64.34 33.5ZM82.988 22.7C82.844 22.7 82.52 22.52 82.376 22.448C80.936 21.728 80 21.044 78.524 20.396C77.516 19.964 76.436 19.568 75.356 19.28C75.248 19.244 74.996 19.172 74.78 19.136C74.564 19.064 74.384 18.992 74.384 18.884C74.384 18.812 74.456 18.596 74.6 18.308C74.924 17.624 75.392 16.832 75.572 16.508C75.68 16.328 75.788 16.076 75.968 16.076C76.076 16.076 76.22 16.112 76.472 16.184C78.236 16.616 82.628 18.38 84.104 19.316C84.428 19.496 84.608 19.676 84.608 19.784C84.608 19.856 84.536 20.108 84.392 20.432C84.14 21.008 83.744 21.764 83.384 22.304C83.24 22.556 83.132 22.7 82.988 22.7ZM93.428 39.548C92.996 39.548 92.852 39.224 92.384 38.828C91.736 38.288 91.16 37.82 90.872 37.604C90.656 37.424 90.224 37.136 90.224 36.812C90.224 36.632 90.62 36.308 90.764 36.128C91.16 35.624 91.592 35.048 91.916 34.472C93.752 30.98 93.968 26.732 94.004 24.068C94.004 22.304 93.968 20.54 93.968 18.776C93.968 16.688 93.788 14.564 93.68 12.476C93.68 12.044 93.572 11.612 93.572 11.18C93.572 10.82 93.824 10.82 94.112 10.82C94.652 10.82 95.228 10.892 95.768 10.892C97.1 10.928 98.432 10.928 99.764 10.928H103.472C104.012 10.892 104.696 10.784 105.272 10.784C105.668 10.784 105.776 10.928 105.776 11.324C105.776 11.9 105.668 12.476 105.632 13.052C105.452 15.356 105.38 17.696 105.344 20.036C105.344 20.72 105.308 21.512 105.308 22.16C105.344 22.988 105.092 23.348 104.3 23.348C103.508 23.312 102.68 23.276 101.888 23.276H97.28C97.28 24.824 97.244 26.372 97.136 28.028C96.848 31.736 96.092 35.3 94.292 38.576C94.148 38.792 93.716 39.548 93.428 39.548ZM100.988 36.704C100.304 36.704 100.376 36.164 100.376 35.696C100.34 34.328 100.232 32.132 100.124 30.764C100.016 29.612 99.908 28.496 99.836 27.344C99.8 27.056 99.692 26.732 99.692 26.444C99.692 26.12 99.944 26.084 100.196 26.084C100.592 26.084 100.952 26.156 101.312 26.156C102.248 26.192 103.184 26.264 104.156 26.264C105.776 26.3 107.36 26.3 108.98 26.3C110.384 26.3 111.716 26.12 113.228 26.12C113.66 26.084 114.452 25.976 114.452 26.444C114.488 26.732 114.416 27.092 114.38 27.524L114.092 29.144C113.732 31.448 113.588 33.392 113.372 35.732C113.3 36.38 113.3 36.704 112.616 36.668C112.004 36.668 111.284 36.632 110.78 36.596C109.556 36.488 108.476 36.416 107.036 36.416C105.776 36.416 103.832 36.452 102.608 36.524C102.068 36.56 101.492 36.704 100.988 36.704ZM103.4 32.96C105.74 32.924 108.08 32.816 110.42 32.924L110.744 29.684C108.152 29.612 105.704 29.648 103.22 29.648L103.4 32.96ZM97.28 20.252H102.176C102.176 19.676 102.212 19.064 102.212 18.488H97.28V20.252ZM97.28 15.752H102.32V14.132H97.28V15.752ZM117.836 39.404C117.26 39.404 116.792 39.548 116.684 39.116C116.648 38.864 116.756 38.36 116.756 38.072C116.756 36.308 116.684 34.508 116.684 32.744C116.684 29.576 116.612 26.408 116.612 23.276H110.78L108.98 23.312C108.404 23.312 108.332 23.204 108.296 22.844C108.26 22.376 108.332 21.62 108.332 21.044C108.332 20.216 108.332 19.388 108.296 18.56C108.26 16.688 108.152 14.816 108.008 12.944C107.972 12.44 107.828 11.576 107.828 11.144C107.828 10.748 108.116 10.748 108.404 10.748C108.764 10.748 109.088 10.784 109.448 10.784C111.14 10.856 112.868 10.856 114.596 10.856C115.82 10.856 117.008 10.82 118.232 10.82C118.772 10.82 119.312 10.712 119.852 10.712C120.176 10.712 120.248 10.856 120.248 11.18C120.248 11.828 120.176 12.476 120.176 13.124C120.068 15.644 120.032 18.164 120.032 20.684C120.032 26.696 120.32 32.06 121.112 37.856C121.184 38.216 121.292 38.54 121.292 38.936C121.292 39.404 120.788 39.404 120.428 39.404H117.836ZM111.392 20.216H116.612V18.488H111.392V20.216ZM111.32 15.752H116.612V14.132C114.812 14.132 113.012 14.096 111.212 14.132L111.32 15.752ZM137.672 36.776C136.268 36.776 135.224 35.984 134.432 34.976C131.912 31.808 131.588 26.948 131.588 23.06C131.588 20.54 131.84 18.02 132.056 15.536C132.092 15.32 132.092 14.852 132.2 14.42C132.272 14.096 132.38 13.808 132.668 13.808C132.776 13.808 133.064 13.844 133.388 13.952L135.872 14.6C136.124 14.672 136.664 14.816 136.664 15.14C136.664 15.428 136.412 16.04 136.34 16.328C136.088 17.228 135.8 18.2 135.656 19.136C135.44 20.612 135.296 22.124 135.296 23.6C135.296 24.932 135.584 29.792 136.88 31.772C137.24 32.312 137.672 32.636 138.212 32.636C138.536 32.636 139.004 32.42 139.472 32.132C140.696 31.34 142.1 29.9 142.64 29.252C142.856 28.964 143.072 28.568 143.468 28.568C143.612 28.568 143.792 28.856 143.972 29.324C144.224 30.008 144.44 30.8 144.62 31.448C144.728 31.88 144.764 32.24 144.764 32.384C144.764 32.636 144.62 32.924 144.332 33.248C143.216 34.58 140.084 36.236 139.148 36.524C138.68 36.668 138.176 36.776 137.672 36.776ZM152.828 31.628C152.468 31.592 152.468 31.124 152.324 30.692C151.712 28.604 151.316 26.732 150.344 24.716C149.372 22.7 148.148 20.828 146.78 19.028C146.6 18.848 146.312 18.488 146.312 18.236C146.312 18.056 146.528 17.912 146.924 17.768C147.608 17.516 148.22 17.336 148.796 17.192C149.12 17.12 149.408 17.012 149.552 17.012C149.912 17.012 150.02 17.156 150.236 17.408C150.596 17.804 151.028 18.416 151.208 18.668C153.476 21.8 155.42 25.22 156.356 29C156.428 29.18 156.5 29.612 156.5 29.828C156.5 30.188 156.248 30.26 155.78 30.548C155.456 30.728 154.484 31.124 153.8 31.412C153.476 31.52 153.008 31.628 152.828 31.628ZM165.608 25.436C165.5 25.436 165.14 25.148 164.708 24.788C163.952 24.212 163.34 23.636 162.692 23.204C162.368 23.024 161.972 22.7 161.972 22.376C161.972 22.268 162.332 22.124 162.764 21.98L164.024 21.44C167.012 20.252 170.18 18.344 172.484 16.076C173.96 14.636 175.436 12.8 176.444 11.036C176.84 10.352 177.02 10.064 177.272 9.596C177.56 8.804 177.596 8.696 177.956 8.696C178.316 8.696 178.352 8.696 178.676 8.84C179.324 9.092 180.476 9.632 180.8 9.74C181.196 9.92 181.52 10.064 181.484 10.388C181.448 10.64 181.052 11.036 180.908 11.216C180.584 11.756 180.296 12.224 179.972 12.692C181.232 13.412 182.492 14.204 183.716 14.888C186.164 16.256 188.54 17.66 190.916 19.136C192.032 19.82 193.256 20.396 194.48 20.936C194.732 21.044 196.424 21.62 196.424 21.908C196.424 22.376 195.74 22.628 195.416 22.844C194.984 23.096 193.76 23.924 192.788 24.644C192.392 24.932 192.212 25.112 191.888 25.076C191.564 25.04 191.024 24.5 190.808 24.32C189.548 23.24 188.18 22.16 186.776 21.08C186.704 21.8 186.56 23.06 186.452 23.78C186.416 24.176 186.452 24.464 185.984 24.464C185.552 24.464 185.084 24.392 184.652 24.356C183.248 24.248 180.44 24.212 179.036 24.212C176.444 24.212 175.436 24.14 172.844 24.356C172.484 24.356 172.016 24.428 171.692 24.428C171.404 24.428 171.476 23.924 171.44 23.744V21.656C170 22.808 168.452 23.996 166.976 24.788C166.58 25.004 166.04 25.436 165.608 25.436ZM187.1 38.576C186.812 38.576 186.524 38.504 186.236 38.468C183.536 38.36 181.34 38.252 178.928 38.252C176.768 38.252 174.104 38.216 171.98 38.396C171.548 38.432 171.152 38.54 170.72 38.54C169.928 38.54 170 38 169.964 37.352C169.856 35.444 169.856 33.86 169.676 31.952C169.568 30.764 169.46 29.612 169.316 28.424C169.28 28.136 169.208 27.884 169.208 27.596C169.208 27.02 169.172 26.912 169.676 26.84C169.928 26.804 171.656 26.948 172.052 26.948C174.356 26.948 176.624 27.02 178.928 27.02C181.34 27.02 183.968 27.164 186.416 26.948C186.812 26.912 187.676 26.84 188.108 26.84C188.576 26.84 188.756 26.912 188.756 27.272C188.756 27.668 188.576 28.244 188.54 28.64C188.396 30.116 188.216 31.628 188.144 33.104C188.072 34.832 187.856 36.236 187.856 37.964C187.856 38.504 187.604 38.576 187.1 38.576ZM173.384 34.652C177.02 34.58 180.692 34.652 184.328 34.652C184.436 33.212 184.616 32.06 184.616 30.62C180.8 30.476 177.02 30.548 173.096 30.62C173.204 32.06 173.24 33.248 173.384 34.652ZM178.964 20.684C181.088 20.684 183.212 20.684 185.336 20.612L186.02 20.504C184.688 19.532 183.32 18.596 181.952 17.768C180.548 16.94 179.324 16.148 177.92 15.356C177.236 16.22 176.552 17.156 175.832 17.84C174.968 18.596 173.888 19.604 172.628 20.648C174.716 20.792 176.84 20.684 178.964 20.684ZM210.716 38.54C209.996 38.54 208.952 38.54 208.196 38.504C207.728 38.468 207.44 38.468 207.44 38C207.44 37.784 207.512 37.532 207.548 37.244C207.656 36.596 207.8 35.912 207.872 35.372C208.232 33.14 208.34 30.908 208.448 28.676C206.972 30.296 205.748 32.132 204.596 34.004C204.416 34.256 204.2 34.796 203.84 34.796C203.696 34.796 203.444 34.616 203.156 34.4C202.616 33.932 201.896 33.32 201.428 32.78C201.212 32.492 201.068 32.384 201.068 32.132C201.068 31.916 201.32 31.628 201.608 31.304C201.968 30.872 202.4 30.44 202.544 30.26C204.884 27.596 206.936 24.644 208.88 21.692C208.88 21.188 208.916 20.648 208.916 20.144C207.656 20.432 206.612 20.756 205.352 21.08C205.028 21.152 204.488 21.332 204.164 21.44C203.912 21.512 203.696 21.62 203.408 21.62C203.12 21.62 202.94 21.008 202.868 20.756C202.796 20.468 202.472 19.496 202.292 18.74C202.22 18.344 202.148 18.02 202.148 17.912C202.148 17.804 202.148 17.696 202.22 17.624C202.328 17.516 202.832 17.516 203.012 17.516C205.064 17.372 207.116 17.048 209.132 16.688C209.204 15.536 209.276 14.384 209.276 13.232C209.276 12.476 209.312 11.54 209.168 10.82C209.132 10.64 209.06 10.28 209.096 10.028C209.132 9.812 209.528 9.776 209.888 9.776C210.608 9.74 212.228 9.74 212.732 9.74C213.164 9.74 213.272 9.92 213.272 10.352C213.272 10.748 213.128 11.54 213.056 12.368C212.912 13.556 212.804 14.708 212.696 15.896C212.912 15.86 213.128 15.86 213.344 15.788C213.524 15.716 213.74 15.536 213.92 15.536C214.172 15.536 214.388 15.716 214.568 15.896L215.648 16.832C215.936 17.084 216.152 17.336 216.188 17.624C216.224 17.876 215.612 18.308 215.396 18.524C214.28 19.532 213.2 20.468 212.048 21.512V22.304C212.732 21.98 213.488 21.692 214.208 21.404C216.296 20.54 218.24 19.964 220.508 19.964C224.756 19.964 228.32 22.664 228.32 27.128C228.32 31.448 225.224 34.4 221.48 36.02C220.616 36.38 218.852 37.028 217.592 37.28C217.268 37.316 216.836 37.424 216.548 37.424C216.224 37.424 216.044 37.208 215.792 36.92C215.252 36.272 214.928 35.84 214.388 35.228C213.992 34.76 213.704 34.58 213.704 34.292C213.74 34.004 214.352 34.004 214.568 33.968C216.152 33.716 217.916 33.32 219.32 32.852C221.948 31.952 224.54 30.044 224.54 26.984C224.54 24.5 222.74 23.276 220.4 23.276C217.376 23.276 214.352 24.572 211.76 26.084C211.544 28.856 211.508 31.664 211.508 34.472V36.56L211.544 38C211.544 38.468 211.292 38.54 210.716 38.54ZM253.34 36.236C251.432 36.236 249.416 36.02 247.472 35.408C245.996 34.94 244.736 33.932 244.016 32.384C243.584 31.448 243.44 30.26 243.368 29C243.26 27.236 243.368 25.436 243.332 23.672C241.46 23.852 239.552 23.888 237.716 24.176C236.996 24.284 236.24 24.536 235.52 24.536C235.52 24.536 235.448 24.536 235.448 24.5C235.088 24.428 235.124 24.104 235.088 23.816C235.016 22.88 235.016 21.908 235.016 20.972C235.016 20.54 235.124 20.324 235.592 20.324C236.132 20.324 236.708 20.432 237.284 20.432C239.336 20.432 241.352 20.216 243.404 20.072C243.44 18.884 243.44 17.66 243.368 16.436C243.332 15.788 243.188 15.14 243.188 14.528C243.188 14.096 243.296 13.952 243.728 13.952C244.088 13.952 245.564 13.952 246.608 14.06C246.896 14.06 247.364 14.096 247.364 14.456C247.364 14.96 247.22 15.536 247.184 16.04C247.076 17.336 247.04 18.596 246.968 19.892C249.092 19.712 251.216 19.604 253.304 19.46C253.34 17.768 253.304 16.04 253.304 14.312C253.304 13.844 253.232 13.34 253.196 12.872C253.196 12.548 253.088 12.26 253.088 11.972C253.088 11.468 253.304 11.396 253.736 11.396C254.528 11.396 255.5 11.432 256.508 11.504C256.868 11.504 257.264 11.612 257.264 12.044C257.264 12.368 257.228 12.692 257.192 13.016C257.12 13.556 257.12 14.096 257.084 14.636C256.976 16.184 256.904 17.732 256.868 19.28C258.02 19.244 259.172 19.244 260.324 19.208C261.296 19.136 262.304 19.1 263.24 18.956C263.672 18.884 264.104 18.74 264.536 18.74C264.932 18.74 264.968 19.064 264.968 19.424C264.968 19.784 264.932 20.9 264.824 21.764C264.716 22.7 264.824 22.88 263.852 22.88C262.16 22.88 260.504 22.736 258.812 22.736H256.832C256.832 23.528 256.868 24.428 256.76 25.256C256.544 26.876 256.112 28.424 254.528 29.216C253.736 29.612 251.648 30.152 250.748 30.152C250.568 30.152 250.388 30.116 250.208 30.044C249.884 29.936 249.776 29.504 249.596 29.216C249.452 28.928 248.984 28.208 248.66 27.56C248.48 27.128 248.3 26.912 248.336 26.66C248.372 26.48 248.552 26.372 248.696 26.408C248.984 26.408 249.668 26.444 250.172 26.444C250.604 26.444 251.324 26.48 251.936 26.336C252.512 26.228 252.98 25.976 253.124 25.508C253.268 25.076 253.304 24.356 253.304 23.888C253.304 23.564 253.268 23.204 253.268 22.844C251.108 22.988 248.948 23.06 246.788 23.24C246.788 24.572 246.752 25.94 246.752 27.272C246.752 28.496 246.68 29.936 247.328 31.052C247.724 31.736 248.516 32.096 249.452 32.312C250.604 32.564 251.864 32.6 252.728 32.6C254.888 32.6 257.588 32.384 259.64 31.736C259.928 31.628 261.224 31.124 261.368 31.124C261.728 31.124 261.764 31.556 261.764 31.808C261.728 32.6 261.692 33.608 261.692 34.616C261.656 35.408 261.44 35.624 261.044 35.732C259.316 36.2 254.636 36.236 253.34 36.236Z" fill="black"/>
<g clip-path="url(#clip0_49_22)">
<path d="M43 36.8663C43 42.4631 33.3743 46.9999 21.5 46.9999C9.62569 46.9999 0 42.4631 0 36.8663V34.6655H43V36.8663Z" fill="#3B322E"/>
<path d="M21.5 44.799C33.3741 44.799 43 40.262 43 34.6653C43 29.0687 33.3741 24.5317 21.5 24.5317C9.62588 24.5317 0 29.0687 0 34.6653C0 40.262 9.62588 44.799 21.5 44.799Z" fill="#54433B"/>
<path d="M28.9302 36.1563C28.9302 37.4298 25.5684 38.4631 21.4221 38.4631C17.2757 38.4631 13.9139 37.4307 13.9139 36.1563V34.7642H28.9202L28.9302 36.1563Z" fill="#2B5380"/>
<path d="M21.5 20.2672C33.3741 20.2672 43 15.7302 43 10.1336C43 4.53697 33.3741 0 21.5 0C9.62588 0 0 4.53697 0 10.1336C0 15.7302 9.62588 20.2672 21.5 20.2672Z" fill="#3A70AC"/>
<path d="M21.5 20.7814C32.769 20.7814 41.9043 16.4757 41.9043 11.1644C41.9043 5.85304 32.769 1.54736 21.5 1.54736C10.231 1.54736 1.0957 5.85304 1.0957 11.1644C1.0957 16.4757 10.231 20.7814 21.5 20.7814Z" fill="#2B5380"/>
<path d="M21.5 7.28111C11.9465 7.28111 4.20197 11.3347 4.20197 16.3348C4.20197 16.3681 4.20611 16.4007 4.20694 16.4332C7.29994 19.467 13.8816 21.5618 21.5008 21.5618C29.1201 21.5618 35.7009 19.467 38.7947 16.4332C38.7947 16.3999 38.7997 16.3673 38.7997 16.3339C38.7997 11.3339 31.0552 7.28027 21.5017 7.28027L21.5 7.28111Z" fill="#5E941C"/>
<path d="M21.5 20.2674C9.62569 20.2674 0 15.7306 0 10.1338C0 23.3696 3.28377 35.8734 21.5 35.8734C39.7162 35.8734 43 23.3696 43 10.1338C43 15.7306 33.3743 20.2674 21.5 20.2674Z" fill="#3A70AC"/>
<path d="M42.8698 14.3374C41.6364 15.9123 38.5434 19.2264 33.823 20.0644C33.823 20.0644 34.718 28.6181 29.4146 34.8767C39.2625 32.085 42.2635 23.7382 42.8698 14.3374Z" fill="#346499"/>
<path d="M9.663 25.0086C10.1312 25.0086 10.5107 24.6268 10.5107 24.1557C10.5107 23.6846 10.1312 23.3027 9.663 23.3027C9.19483 23.3027 8.81531 23.6846 8.81531 24.1557C8.81531 24.6268 9.19483 25.0086 9.663 25.0086Z" fill="#F2F2F2"/>
<path d="M11.9224 27.0692C12.3906 27.0692 12.7701 26.6873 12.7701 26.2162C12.7701 25.7452 12.3906 25.3633 11.9224 25.3633C11.4542 25.3633 11.0747 25.7452 11.0747 26.2162C11.0747 26.6873 11.4542 27.0692 11.9224 27.0692Z" fill="#F2F2F2"/>
<path d="M9.73685 28.847C10.205 28.847 10.5845 28.4651 10.5845 27.9941C10.5845 27.523 10.205 27.1411 9.73685 27.1411C9.26868 27.1411 8.88916 27.523 8.88916 27.9941C8.88916 28.4651 9.26868 28.847 9.73685 28.847Z" fill="#F2F2F2"/>
<path d="M7.66239 27.0931C8.13056 27.0931 8.51008 26.7112 8.51008 26.2402C8.51008 25.7691 8.13056 25.3872 7.66239 25.3872C7.19422 25.3872 6.8147 25.7691 6.8147 26.2402C6.8147 26.7112 7.19422 27.0931 7.66239 27.0931Z" fill="#F2F2F2"/>
</g>
<defs>
<clipPath id="clip0_49_22">
<rect width="43" height="47" fill="white"/>
</clipPath>
</defs>
</svg>
