<svg width="187" height="38" viewBox="0 0 187 38" fill="none" xmlns="http://www.w3.org/2000/svg">
<path d="M57.88 31.352C56.26 31.352 53.92 30.236 52.516 28.688C51.724 27.824 51.184 26.852 51.184 25.88C51.184 24.98 51.76 24.08 52.552 23.288C53.632 22.208 55 21.308 55.9 20.732C56.512 20.336 57.196 20.048 57.88 19.724V14C57.232 14.036 56.692 14.072 56.008 14.072C55.072 14.036 52.984 13.928 51.904 13.712C51.616 13.64 51.544 13.568 51.544 13.28C51.544 12.704 51.688 11.012 51.796 10.436C51.832 10.256 51.94 10.22 52.12 10.22C52.336 10.22 52.552 10.292 52.768 10.292C54.1 10.472 55.432 10.652 56.764 10.652C57.124 10.652 57.484 10.616 57.844 10.616C57.844 9.428 57.808 8.24 57.808 7.016C57.808 6.62 57.772 6.188 57.772 5.756C57.736 5.504 57.664 5.288 57.664 5.036C57.664 4.64 57.844 4.568 58.204 4.568H61.048C61.372 4.568 61.696 4.568 61.696 5C61.696 5.144 61.696 5.324 61.66 5.504C61.552 6.44 61.516 7.412 61.444 8.384C61.372 8.996 61.408 9.608 61.336 10.22C62.704 10.004 63.82 9.572 65.08 9.032C65.296 8.924 65.62 8.744 65.872 8.78C66.088 8.78 66.088 9.14 66.16 9.5L66.376 11.696C66.412 11.876 66.412 12.056 66.412 12.2C66.412 12.596 66.232 12.668 65.908 12.776C64.72 13.172 61.696 13.676 61.192 13.748V18.5C63.568 17.636 66.016 16.952 68.536 16.952C72.82 16.952 76.24 19.292 76.24 23.864C76.24 25.736 75.772 27.536 74.332 28.832C72.964 30.092 71.38 30.776 69.472 30.776C67.78 30.776 66.232 30.272 65.008 29.048C63.964 28.004 63.532 26.816 63.136 25.448C63.064 25.196 63.028 24.728 63.028 24.476C63.028 24.188 63.496 24.008 63.748 23.864C64.108 23.648 64.828 23.324 65.44 23.072C65.764 22.928 66.052 22.82 66.196 22.82C66.448 22.82 66.52 23.108 66.52 23.396C66.592 25.34 67.348 27.176 69.616 27.176C71.488 27.176 72.712 25.844 72.712 23.972C72.712 21.38 71.164 20.012 68.608 20.012C66.304 20.012 63.424 20.948 61.336 21.848C61.336 22.892 61.444 23.9 61.444 24.944C61.48 25.916 61.48 26.888 61.48 27.86C61.48 30.092 60.076 31.352 57.88 31.352ZM57.34 27.5C57.772 27.5 57.916 27.176 57.952 26.816C57.988 26.492 57.988 26.168 57.988 25.916C57.988 25.088 57.952 24.188 57.952 23.288C57.448 23.504 56.404 24.08 55.72 24.764C55.36 25.124 55.072 25.484 55.072 25.844C55.072 26.24 55.396 26.636 55.792 26.924C56.296 27.284 56.908 27.5 57.34 27.5ZM75.988 16.7C75.844 16.7 75.52 16.52 75.376 16.448C73.936 15.728 73 15.044 71.524 14.396C70.516 13.964 69.436 13.568 68.356 13.28C68.248 13.244 67.996 13.172 67.78 13.136C67.564 13.064 67.384 12.992 67.384 12.884C67.384 12.812 67.456 12.596 67.6 12.308C67.924 11.624 68.392 10.832 68.572 10.508C68.68 10.328 68.788 10.076 68.968 10.076C69.076 10.076 69.22 10.112 69.472 10.184C71.236 10.616 75.628 12.38 77.104 13.316C77.428 13.496 77.608 13.676 77.608 13.784C77.608 13.856 77.536 14.108 77.392 14.432C77.14 15.008 76.744 15.764 76.384 16.304C76.24 16.556 76.132 16.7 75.988 16.7ZM89.2 33.8C88.84 33.8 88.516 33.548 88.048 33.296C87.364 32.936 86.752 32.648 85.924 32.252C85.384 32 84.808 31.856 84.808 31.604C84.808 31.316 85.996 30.668 86.284 30.452C87.76 29.192 89.02 28.076 89.992 26.564C91.252 24.584 91.864 22.892 92.224 20.912L92.44 19.688C91.18 19.688 89.956 19.688 88.732 19.724C87.688 19.76 86.68 19.796 85.636 19.904C85.276 19.94 84.88 20.012 84.556 20.012C84.16 20.012 84.052 19.904 84.052 19.58V16.808C84.052 16.412 84.052 15.872 84.448 15.872C84.772 15.872 85.276 15.944 85.636 15.98C86.68 16.088 87.724 16.088 88.768 16.088H92.728C92.8 14.252 92.8 12.452 92.764 10.832H90.352C90.136 12.02 89.884 13.064 89.596 13.748C89.488 14.036 89.344 14.36 88.948 14.36C88.732 14.36 88.3 14.216 87.832 14.144C87.22 14.036 86.428 13.856 86.068 13.784C85.564 13.712 85.06 13.784 85.06 13.424C85.06 13.172 85.456 12.56 85.564 12.272C85.996 11.372 86.32 10.4 86.536 9.464C86.86 7.988 87.112 6.476 87.112 4.964C87.112 4.532 87.004 4.136 87.004 3.704C87.004 3.38 87.328 3.308 87.688 3.308C88.624 3.308 89.452 3.416 90.46 3.524C91 3.56 91.432 3.596 91.432 3.92C91.432 4.316 91.288 4.928 91.252 5.36L90.964 7.232C93.088 7.232 95.608 7.196 97.408 7.196C98.596 7.196 99.388 7.16 100.576 7.052C100.792 7.052 101.044 7.016 101.26 7.016C101.548 7.016 101.656 7.088 101.656 7.304C101.656 7.52 101.62 7.736 101.584 7.916C101.44 8.672 101.296 9.428 101.188 10.184C101.116 10.724 101.116 11.012 100.756 11.048C100.432 11.048 100.108 10.976 99.82 10.94C98.74 10.796 97.624 10.832 96.544 10.832C96.544 12.56 96.58 14.324 96.508 16.052H99.46C99.748 16.052 101.62 15.872 101.764 15.872C101.872 15.872 101.944 15.944 101.944 16.232C101.944 16.484 101.836 17.132 101.836 17.384C101.8 18.176 101.692 18.212 101.656 19.04C101.656 19.652 101.44 19.868 100.936 19.796C100.684 19.724 99.568 19.688 99.28 19.688H96.256L96.04 21.2L95.824 22.244C98.092 23.972 100.792 25.772 103.24 27.176C103.456 27.284 104.032 27.572 104.032 27.752C104.032 28.04 103.492 28.364 103.24 28.58C102.7 29.084 102.124 29.768 101.476 30.416C101.044 30.884 100.936 31.1 100.648 31.1C100.36 31.1 99.928 30.56 99.676 30.344C98.884 29.696 98.272 29.084 97.588 28.508C96.544 27.644 95.716 26.96 94.6 25.952C93.916 27.5 93.016 29.012 91.936 30.704C91.504 31.316 90.64 32.54 89.992 33.224C89.776 33.404 89.416 33.8 89.2 33.8ZM103.6 25.196C102.772 25.196 102.952 24.764 102.952 24.224C102.952 23.108 102.808 21.668 102.772 20.552C102.7 18.644 102.52 16.88 102.376 14.864C102.34 14.288 102.232 13.64 102.232 13.064C102.232 12.704 102.592 12.776 103.096 12.776C103.996 12.776 104.932 12.812 105.868 12.812C108.028 12.812 110.152 12.776 112.276 12.776C113.248 12.776 114.148 12.704 115.084 12.704C115.408 12.704 115.624 12.704 115.624 13.1C115.624 14.036 115.48 15.044 115.408 15.98C115.192 18.644 114.976 21.344 114.976 24.008C114.976 24.62 114.94 25.196 114.364 25.16C114.04 25.16 113.644 25.124 113.32 25.124C111.952 25.052 110.62 25.016 109.252 25.016C108.1 25.016 106.984 25.052 105.832 25.052C105.076 25.052 104.356 25.196 103.6 25.196ZM106.48 21.74C108.028 21.704 109.756 21.668 111.34 21.704C111.412 19.868 111.52 18.104 111.628 16.268C109.9 16.196 107.992 16.16 106.264 16.232L106.48 21.74ZM129.736 32.144C129.124 32.144 129.016 32 128.764 31.46C128.44 30.776 128.152 29.984 127.864 29.336C127.684 28.976 127.576 28.616 127.576 28.508C127.576 28.256 127.648 28.22 127.864 28.22C128.44 28.22 129.052 28.256 129.628 28.256C131.572 28.256 133.768 28.004 135.64 27.68C137.116 27.428 139.024 26.888 140.32 25.844C141.22 25.124 141.832 24.152 141.832 22.892C141.832 20.732 140.392 20.048 138.448 20.048C135.136 20.048 132.508 21.524 129.772 23.144C128.62 23.828 128.008 24.584 127.324 25.736C127.18 25.952 127.036 26.312 126.82 26.312C126.532 26.312 126.316 26.168 125.92 26.024C125.344 25.808 124.732 25.52 124.264 25.304C124.012 25.196 123.652 25.016 123.652 24.728C123.652 24.548 123.832 24.404 124.048 24.044C124.624 23.108 125.164 21.74 125.272 21.272C125.596 19.832 125.776 18.356 125.956 16.88C126.136 15.368 126.388 13.784 126.388 12.236C126.388 11.912 126.352 11.588 126.352 11.264C126.352 11.048 126.28 10.832 126.28 10.616C126.28 10.22 126.676 10.184 126.964 10.184C127.612 10.112 128.296 10.076 128.944 10.076C129.196 10.076 129.664 10.004 130.06 10.076C130.384 10.148 130.672 10.22 130.672 10.508C130.672 10.796 130.6 10.94 130.528 11.228C130.456 11.624 130.348 12.092 130.312 12.344C130.024 13.712 129.844 15.08 129.628 16.448C129.448 17.528 129.232 18.644 129.088 19.724C132.148 17.96 134.848 16.772 138.448 16.772C141.58 16.772 143.596 17.492 145.144 20.3C145.54 21.02 145.72 22.352 145.72 23.18C145.72 25.268 144.856 26.852 143.56 28.076C141.472 30.02 138.268 31.028 135.568 31.532C133.66 31.892 131.644 32.144 129.736 32.144ZM136.54 11.624C136.216 11.624 135.748 11.228 135.532 11.12C133.228 9.752 130.924 8.528 128.476 7.52C128.26 7.412 127.864 7.34 127.864 7.088C127.864 6.98 127.936 6.764 128.116 6.512C128.512 5.936 129.088 5.144 129.556 4.604C129.736 4.388 129.844 4.28 130.096 4.28C130.384 4.28 130.492 4.352 130.78 4.46C132.58 5.036 136.828 7.052 138.124 7.952C138.304 8.06 138.628 8.204 138.592 8.42C138.592 8.744 138.52 8.816 138.376 9.068C138.016 9.716 137.584 10.472 137.26 10.904C137.08 11.192 136.864 11.588 136.54 11.624ZM170.74 30.236C168.832 30.236 166.816 30.02 164.872 29.408C163.396 28.94 162.136 27.932 161.416 26.384C160.984 25.448 160.84 24.26 160.768 23C160.66 21.236 160.768 19.436 160.732 17.672C158.86 17.852 156.952 17.888 155.116 18.176C154.396 18.284 153.64 18.536 152.92 18.536C152.92 18.536 152.848 18.536 152.848 18.5C152.488 18.428 152.524 18.104 152.488 17.816C152.416 16.88 152.416 15.908 152.416 14.972C152.416 14.54 152.524 14.324 152.992 14.324C153.532 14.324 154.108 14.432 154.684 14.432C156.736 14.432 158.752 14.216 160.804 14.072C160.84 12.884 160.84 11.66 160.768 10.436C160.732 9.788 160.588 9.14 160.588 8.528C160.588 8.096 160.696 7.952 161.128 7.952C161.488 7.952 162.964 7.952 164.008 8.06C164.296 8.06 164.764 8.096 164.764 8.456C164.764 8.96 164.62 9.536 164.584 10.04C164.476 11.336 164.44 12.596 164.368 13.892C166.492 13.712 168.616 13.604 170.704 13.46C170.74 11.768 170.704 10.04 170.704 8.312C170.704 7.844 170.632 7.34 170.596 6.872C170.596 6.548 170.488 6.26 170.488 5.972C170.488 5.468 170.704 5.396 171.136 5.396C171.928 5.396 172.9 5.432 173.908 5.504C174.268 5.504 174.664 5.612 174.664 6.044C174.664 6.368 174.628 6.692 174.592 7.016C174.52 7.556 174.52 8.096 174.484 8.636C174.376 10.184 174.304 11.732 174.268 13.28C175.42 13.244 176.572 13.244 177.724 13.208C178.696 13.136 179.704 13.1 180.64 12.956C181.072 12.884 181.504 12.74 181.936 12.74C182.332 12.74 182.368 13.064 182.368 13.424C182.368 13.784 182.332 14.9 182.224 15.764C182.116 16.7 182.224 16.88 181.252 16.88C179.56 16.88 177.904 16.736 176.212 16.736H174.232C174.232 17.528 174.268 18.428 174.16 19.256C173.944 20.876 173.512 22.424 171.928 23.216C171.136 23.612 169.048 24.152 168.148 24.152C167.968 24.152 167.788 24.116 167.608 24.044C167.284 23.936 167.176 23.504 166.996 23.216C166.852 22.928 166.384 22.208 166.06 21.56C165.88 21.128 165.7 20.912 165.736 20.66C165.772 20.48 165.952 20.372 166.096 20.408C166.384 20.408 167.068 20.444 167.572 20.444C168.004 20.444 168.724 20.48 169.336 20.336C169.912 20.228 170.38 19.976 170.524 19.508C170.668 19.076 170.704 18.356 170.704 17.888C170.704 17.564 170.668 17.204 170.668 16.844C168.508 16.988 166.348 17.06 164.188 17.24C164.188 18.572 164.152 19.94 164.152 21.272C164.152 22.496 164.08 23.936 164.728 25.052C165.124 25.736 165.916 26.096 166.852 26.312C168.004 26.564 169.264 26.6 170.128 26.6C172.288 26.6 174.988 26.384 177.04 25.736C177.328 25.628 178.624 25.124 178.768 25.124C179.128 25.124 179.164 25.556 179.164 25.808C179.128 26.6 179.092 27.608 179.092 28.616C179.056 29.408 178.84 29.624 178.444 29.732C176.716 30.2 172.036 30.236 170.74 30.236Z" fill="black"/>
<g clip-path="url(#clip0_35_12)">
<path d="M35.2008 20.741C31.001 19.734 28.83 21.3644 28.0899 22.1114C27.1311 22.5393 24.6265 24.1531 24.0305 28.4801C23.2722 33.9874 25.1697 35.7672 25.5452 36.2136C27.3827 35.0608 29.2328 31.9272 29.2328 31.9272C29.2328 31.9272 32.4811 37.0435 38.8301 38.0008C41.0375 34.7952 36.7174 26.7482 36.7174 26.7482C36.7174 26.7482 39.4918 26.8091 42.0018 24.8263C40.9956 23.7087 39.6813 21.7665 35.2026 20.7429" fill="#008842"/>
<path d="M36.6645 24.1476C30.6091 22.5209 29.1399 22.8935 28.7862 23.1351C28.7789 23.1388 28.7698 23.1461 28.7644 23.1498H28.7607L28.7534 23.1535C28.7534 23.1535 28.7498 23.159 28.7461 23.1627H28.7425C28.3907 23.4117 27.5139 24.6622 26.8176 30.9626C28.4071 27.3458 28.9302 25.4 29.0578 24.3413C29.6302 25.5162 31.1286 27.8198 34.9766 32.333C32.2095 27.0396 30.6109 24.8024 29.7286 23.8507C30.7403 24.1181 32.7217 24.3376 36.6682 24.1476" fill="white"/>
<path d="M31.2235 10.389C31.2235 10.389 33.4711 6.59875 27.226 2.28658C22.5286 -0.959533 18.7827 -0.0447193 16.9562 0.796319C15.1279 -0.0447193 11.3819 -0.959533 6.68449 2.28658C0.439452 6.59875 2.68701 10.389 2.68701 10.389C2.68701 10.389 -2.05784 12.8733 1.06286 20.3228C4.0031 27.337 7.93131 26.0736 7.93131 26.0736C7.93131 26.0736 7.91855 26.3004 7.99876 26.6453C8.08808 27.6044 8.97033 30.5185 16.4841 30.5185C16.6499 30.5185 16.7921 30.5075 16.9525 30.5056C17.1148 30.5093 17.2551 30.5185 17.421 30.5185C24.9384 30.5185 25.8188 27.6044 25.9081 26.6435C25.9883 26.3004 25.9756 26.0736 25.9756 26.0736C25.9756 26.0736 29.9056 27.337 32.844 20.3228C35.9666 12.8733 31.2235 10.389 31.2235 10.389Z" fill="#CA67A4"/>
<path d="M16.956 1.91364L15.217 13.0353C13.6184 12.4321 8.42698 10.6191 3.58188 10.6191C3.58188 10.6191 11.0737 13.7546 13.3997 16.3699C13.3997 16.3699 9.91259 20.813 8.74962 25.127C8.74962 25.127 12.8291 21.3442 16.956 18.1792C21.0811 21.3442 25.1606 25.127 25.1606 25.127C23.9977 20.813 20.5106 16.3699 20.5106 16.3699C22.8365 13.7546 30.3284 10.6191 30.3284 10.6191C25.4815 10.6191 20.29 12.4321 18.6932 13.0353L16.956 1.91364Z" fill="white"/>
<path d="M16.956 16.9988C17.9823 16.9988 18.8153 16.2389 18.8153 15.3001C18.8153 14.3613 17.9823 13.6014 16.956 13.6014C15.9298 13.6014 15.0949 14.3613 15.0949 15.3001C15.0949 16.2389 15.9279 16.9988 16.956 16.9988Z" fill="#FCC800"/>
</g>
<defs>
<clipPath id="clip0_35_12">
<rect width="42" height="38" fill="white"/>
</clipPath>
</defs>
</svg>
