<svg width="282" height="96" viewBox="0 0 282 96" fill="none" xmlns="http://www.w3.org/2000/svg">
<rect width="222" height="42" fill="white"/>
<path d="M11.73 33.74C11.43 33.74 11.25 33.74 11.25 33.41C11.25 33.17 11.31 32.96 11.34 32.72C11.4 32.21 11.43 31.67 11.46 31.13C11.55 28.97 11.67 26.81 11.67 24.68C11.67 22.25 11.67 19.82 11.7 17.39C10.92 18.2 10.26 18.89 9.75 19.34C9.42 19.64 9.18 19.79 9.06 19.79C8.79 19.79 8.73 19.7 8.52 19.52L6.63 18.08C6.51 17.99 6.24 17.84 6.24 17.66C6.24 17.48 6.57 17.27 6.69 17.15C7.14 16.82 7.56 16.49 8.01 16.13C9.57 14.84 11.46 12.77 12.75 11.18C13.65 10.13 14.34 9.05 15 7.82C15.12 7.64 15.21 7.31 15.45 7.31C15.54 7.31 15.78 7.43 16.08 7.64C16.65 8 17.43 8.57 17.52 8.66C17.79 8.84 18.27 9.02 18.27 9.38C18.27 9.5 18.18 9.68 18.03 9.92C17.85 10.22 17.55 10.61 17.22 11.03C17.01 11.3 15.93 12.59 14.64 14.09C14.64 17 14.7 19.91 14.73 22.82C14.79 25.55 14.82 28.31 14.97 31.01C15 31.64 14.97 32.24 15.06 32.84C15.09 33.02 15.12 33.2 15.12 33.38C15.12 33.74 14.82 33.71 14.52 33.71C13.68 33.74 12.54 33.74 11.73 33.74ZM17.91 31.16C17.67 31.16 17.16 31.22 17.16 30.77C17.16 30.53 17.28 30.29 17.37 30.08C18.39 27.95 19.65 26.03 20.82 24.02C21.39 23.03 21.99 22.07 22.62 21.05L20.1 21.14C19.11 21.2 18.18 21.23 17.19 21.32C16.92 21.35 16.59 21.44 16.35 21.41C16.14 21.41 16.14 21.23 16.14 20.84C16.17 20.12 16.11 19.07 16.11 18.62C16.11 18.26 16.11 18.11 16.38 18.11H16.98C17.31 18.14 17.64 18.17 17.97 18.17C18.66 18.2 19.35 18.23 20.04 18.23L25.68 18.2C27.27 18.2 28.86 18.23 30.45 18.23C31.26 18.23 32.07 18.14 32.88 18.08C33.27 18.05 33.63 18.02 34.11 17.96C34.26 17.93 34.41 17.93 34.62 17.93C34.74 17.93 34.77 18.05 34.77 18.23C34.77 18.5 34.53 19.85 34.44 20.75C34.44 20.9 34.38 21.26 34.14 21.29C33.81 21.32 33.3 21.23 32.64 21.2C30.51 21.02 28.32 20.99 26.25 20.99C24.72 23.3 23.13 25.67 21.81 28.01C22.83 28.01 23.94 27.98 24.93 27.98C26.19 27.98 26.82 28.04 28.11 27.98C27.48 26.66 26.31 24.77 25.56 23.57C25.32 23.24 25.17 23.18 25.17 22.97C25.14 22.76 25.44 22.7 25.68 22.64C26.13 22.49 26.55 22.37 27.06 22.25C27.39 22.16 27.66 22.13 27.75 22.13C28.08 22.13 28.2 22.4 28.35 22.58C29.22 23.75 31.08 27.08 31.44 27.74C31.83 28.43 32.16 29.15 32.52 29.9C32.61 30.11 32.73 30.47 32.73 30.71C32.67 31.16 32.31 31.13 31.98 31.13C31.53 31.13 30.78 31.07 30.33 31.04C28.5 30.92 26.61 30.92 24.72 30.92C23.28 30.92 21.84 30.98 20.4 31.04C19.56 31.04 18.75 31.16 17.91 31.16ZM18.63 14.69C18.39 14.69 18.39 14.36 18.39 14.21V11.99C18.39 11.72 18.33 11.42 18.6 11.42C18.75 11.42 18.9 11.45 19.05 11.45C19.68 11.51 20.31 11.51 20.91 11.51H24.42C25.8 11.51 27.21 11.54 28.62 11.51C29.37 11.48 30.12 11.42 30.87 11.39C31.23 11.39 31.62 11.33 32.01 11.33C32.1 11.33 32.19 11.36 32.19 11.51C32.19 11.57 32.19 11.81 32.13 12.11C32.04 12.71 31.98 13.49 31.89 14.06C31.86 14.24 31.83 14.66 31.53 14.66L30.33 14.57C29.01 14.48 26.67 14.51 25.41 14.51C23.1 14.51 21.93 14.48 19.56 14.63C19.26 14.66 18.93 14.69 18.63 14.69ZM51.09 33.74C50.91 33.74 50.58 33.62 50.19 33.44C49.62 33.17 48.96 32.87 48.66 32.78C48.42 32.69 47.91 32.51 47.91 32.21C47.91 32 48.18 31.67 48.27 31.49C49.14 30.05 49.92 28.22 50.49 26.66C51 25.28 51.51 23.75 51.96 22.22C51.48 22.25 50.97 22.25 50.49 22.31C50.25 22.34 50.01 22.37 49.77 22.37C49.62 22.37 49.2 22.37 49.2 22.01C49.2 21.8 49.29 21.47 49.5 21.05C50.07 19.91 51.09 18.32 52.14 16.58C52.65 15.74 53.13 15.05 53.52 14.45C53.07 14.45 52.62 14.48 52.17 14.48C51.45 14.51 50.94 14.6 50.13 14.66C49.86 14.66 49.56 14.75 49.29 14.75C49.11 14.75 49.11 14.48 49.11 14.36V12.47C49.11 12.14 49.08 11.57 49.32 11.57C49.47 11.57 50.01 11.66 50.19 11.66C50.61 11.66 50.97 11.69 51.33 11.69C53.01 11.69 54.27 11.63 55.92 11.63C57.18 11.63 58.44 11.54 59.7 11.54C60.3 11.54 60.84 11.42 61.41 11.36C61.74 11.36 61.95 11.3 62.31 11.33C62.46 11.33 62.73 11.21 62.88 11.21C63 11.21 63.03 11.3 63.03 11.48C63.03 11.69 62.79 13.46 62.76 13.88C62.73 14.15 62.7 14.69 62.46 14.72C62.28 14.75 62.04 14.69 61.86 14.66C61.65 14.66 61.41 14.6 61.2 14.6C60.36 14.57 59.67 14.57 58.83 14.48C58.17 14.42 57.45 14.42 56.76 14.42C55.59 16.1 54.63 17.69 53.58 19.49C55.35 19.43 56.55 19.46 58.26 19.46C57.93 18.74 57.39 17.96 56.88 17.18C56.64 16.82 56.49 16.76 56.49 16.55C56.49 16.34 56.7 16.22 57.03 16.16C57.48 16.07 57.69 15.89 58.2 15.8C58.5 15.74 58.8 15.74 58.89 15.74C59.01 15.74 59.1 15.77 59.22 15.83C59.31 15.89 59.49 16.19 59.76 16.58C60.48 17.72 61.65 19.79 61.92 20.27C62.1 20.6 62.43 21.23 62.4 21.68C62.37 22.13 62.16 22.22 61.86 22.22C61.53 22.22 61.14 22.19 60.81 22.19C60.39 22.16 59.73 22.13 59.04 22.13C58.89 23.45 58.68 24.92 58.53 26.09C58.5 26.42 58.44 26.96 58.44 27.29C58.44 27.71 58.77 27.68 59.1 27.68C59.88 27.74 61.26 27.77 61.65 27.77C62.31 27.77 63.21 27.68 63.87 27.62C64.14 27.59 64.38 27.56 64.62 27.56C64.86 27.56 64.98 27.59 64.98 27.86C64.98 28.07 64.74 28.94 64.59 29.72C64.5 30.17 64.44 30.59 64.38 30.83C64.32 31.07 64.26 31.22 63.96 31.22L62.07 31.04C61.38 30.98 60.72 30.92 59.91 30.83C58.71 30.71 58.17 30.65 56.94 30.5C56.7 30.47 56.04 30.41 55.47 30.32C55.05 30.23 55.02 30.2 55.05 29.87C55.05 29.51 55.26 28.64 55.32 28.19C55.56 26.33 55.92 24.05 56.16 22.1H54.99C54 25.46 53.01 28.76 51.96 31.88C51.84 32.24 51.69 32.66 51.6 33.02C51.48 33.41 51.42 33.74 51.09 33.74ZM40.41 30.08C40.23 30.08 39.9 29.93 39.54 29.66C38.97 29.24 38.28 28.64 37.83 28.1C37.53 27.77 37.35 27.44 37.35 27.29C37.35 26.99 37.8 26.87 38.01 26.78C38.91 26.27 39.81 25.67 40.65 25.07C40.8 24.95 41.19 24.59 41.34 24.59C41.55 24.59 41.52 25.07 41.52 25.19C41.52 25.67 41.37 27.86 41.01 29.15C40.83 29.69 40.65 30.08 40.41 30.08ZM47.19 29C46.98 29 46.89 28.85 46.83 28.7C46.59 28.13 45.99 25.07 45.99 24.47C45.99 24.38 46.02 24.23 46.14 24.23C46.26 24.23 46.65 24.41 47.1 24.68C47.79 25.13 48.6 25.73 49.14 26.27C49.32 26.45 49.56 26.69 49.56 26.96C49.56 27.11 49.44 27.35 49.26 27.56C48.96 27.92 48.36 28.4 47.76 28.79C47.52 28.94 47.31 29 47.19 29ZM42.78 33.11C42.45 33.11 42.09 33.17 42.09 32.75C42.09 32.51 42.15 32.24 42.15 32C42.21 30.65 42.27 29.24 42.3 27.89C42.33 26.87 42.33 25.82 42.33 24.8C42.33 24.35 42.33 23.9 42.36 23.45C41.31 23.48 40.26 23.54 39.24 23.63C39.03 23.63 38.82 23.66 38.61 23.66C38.28 23.66 37.86 23.69 37.86 23.27C37.86 22.94 38.13 22.61 38.31 22.37C38.76 21.86 39.15 21.29 39.57 20.81C40.14 20.18 40.68 19.58 41.22 18.95C40.44 17.96 39.66 16.94 38.85 15.98C38.7 15.8 38.31 15.44 38.31 15.2C38.31 14.78 38.82 14.48 39.09 14.24C40.47 13.01 41.79 11.54 42.9 10.1C43.2 9.71 43.5 9.29 43.77 8.87C43.86 8.72 43.98 8.24 44.22 8.24C44.37 8.24 44.61 8.36 44.85 8.57C45.33 8.99 45.87 9.62 46.14 9.86C46.32 10.01 46.68 10.19 46.68 10.46C46.68 10.79 46.35 10.94 46.14 11.15C44.7 12.59 43.08 13.85 41.64 15.38C42.03 15.86 42.51 16.37 42.96 16.88C43.68 15.98 44.37 15.05 45.06 14.15C45.42 13.67 45.75 13.19 46.02 12.71C46.11 12.56 46.26 12.23 46.44 12.23C46.56 12.23 46.77 12.38 47.04 12.62C47.49 12.98 48.06 13.52 48.39 13.94C48.6 14.21 48.75 14.42 48.75 14.51C48.75 14.75 48.42 14.96 48.27 15.11C47.97 15.44 47.64 15.71 47.34 16.04C45.81 17.6 44.34 19.19 42.84 20.75H46.02C45.84 20.12 45.75 19.79 45.54 19.19C45.42 18.8 45.3 18.47 45.3 18.32C45.36 18.08 45.66 18.05 45.84 18.02C46.23 17.96 46.98 17.81 47.34 17.81C47.49 17.81 47.61 17.93 47.7 18.05C47.88 18.29 49.32 22.64 49.32 23C49.32 23.36 49.02 23.45 48.72 23.45C47.55 23.45 46.41 23.39 45.27 23.39C45.3 24.92 45.3 26.36 45.3 27.92C45.3 29.42 45.42 31.01 45.42 32.51C45.42 33.11 45.18 33.11 44.64 33.11H42.78ZM54.54 10.7C54.3 10.7 53.16 10.7 53.04 10.55C52.98 10.49 52.98 10.4 52.98 10.31C52.98 9.98 53.28 8.54 53.58 7.61C53.73 7.13 53.91 6.8 54.03 6.8C54.15 6.8 54.51 6.95 54.96 7.16C56.04 7.67 57.69 8.54 58.56 9.17C58.92 9.41 59.16 9.62 59.16 9.74C59.16 9.92 58.77 10.07 58.62 10.13C57.39 10.61 55.86 10.7 54.54 10.7ZM80.97 30.92C80.55 30.92 80.49 30.8 80.28 30.47C79.89 29.87 79.65 29.3 79.29 28.64C79.17 28.4 79.02 28.19 79.05 28.07C79.05 27.74 79.59 27.74 79.83 27.71C81.33 27.53 83.43 27.11 84.75 26.45C87.21 25.22 88.56 23.84 88.56 20.93C88.56 17 86.04 14.69 82.14 14.69C81.27 14.69 80.37 14.78 79.53 14.93C80.04 15.05 80.73 15.17 81.3 15.32C81.75 15.47 82.08 15.59 82.08 15.92C82.08 16.37 81.9 16.97 81.84 17.42C81.09 20.87 79.95 25.61 77.34 28.13C76.62 28.82 75.72 29.45 74.7 29.45C74.13 29.45 73.59 29.27 73.11 29C70.77 27.68 70.17 25.01 70.17 22.52C70.17 20.6 70.86 18.29 72 16.7C74.34 13.43 78.09 12.14 81.99 12.14C83.76 12.14 85.62 12.38 87.21 13.25C90.15 14.84 91.71 17.54 91.71 20.87C91.71 25.16 89.55 27.71 85.8 29.54C84.63 30.11 82.26 30.92 80.97 30.92ZM74.64 25.97C75.09 26 75.54 25.4 75.75 25.13C77.22 23.24 78.45 19.37 78.78 16.55C78.84 16.04 78.87 15.56 78.87 15.14C75.45 16.13 73.23 19.04 73.23 22.61C73.23 23.45 73.26 24.71 73.74 25.4C73.92 25.67 74.19 25.97 74.64 25.97ZM103.86 33.71C103.47 33.71 103.38 33.53 103.38 33.2C103.38 33.05 103.41 32.93 103.44 32.81C103.56 31.01 103.68 29.21 103.74 27.41C103.77 26.15 103.8 24.92 103.86 23.69C103.86 23.18 103.89 22.7 103.92 22.19C102.45 23.84 100.83 25.58 99.54 27.29C99.45 27.41 99.09 28.07 98.82 28.07C98.46 28.07 98.4 27.89 98.16 27.56C97.8 27.05 97.44 26.66 97.11 26.18C96.9 25.85 96.75 25.58 96.75 25.43C96.75 25.19 97.35 24.8 97.56 24.62C98.13 24.11 98.73 23.57 99.24 23C100.71 21.44 102.03 20.12 103.41 18.53C102.57 18.53 101.73 18.56 100.92 18.62C100.35 18.68 99.84 18.65 99.27 18.74C98.91 18.77 98.49 18.89 98.13 18.89C97.83 18.89 97.89 18.44 97.89 18.23L97.92 16.46C97.92 16.13 97.83 15.59 98.16 15.59C98.61 15.59 99.15 15.74 99.57 15.74H103.86V12.83C103.08 13.07 102.33 13.28 101.58 13.55C101.34 13.64 101.04 13.76 100.77 13.76C100.53 13.76 100.44 13.34 100.35 13.13C100.08 12.44 99.99 12.23 99.75 11.69C99.63 11.36 99.48 11.18 99.51 10.94C99.51 10.7 100.11 10.64 100.35 10.58C101.46 10.34 102.66 10.01 103.71 9.62C104.73 9.23 105.72 8.75 106.68 8.24C107.31 7.88 107.64 7.49 107.94 7.49C108.3 7.49 108.3 7.82 108.57 8.21C108.84 8.66 109.08 9.11 109.29 9.56C109.53 9.98 109.71 10.31 109.71 10.43C109.71 10.7 108.99 10.85 108.78 10.94L106.74 11.75V15.74L108.99 15.65C109.41 15.62 109.83 15.59 110.25 15.53C110.49 15.47 110.73 15.41 110.97 15.41C111.18 15.41 111.3 15.47 111.3 15.68C111.3 15.86 111.24 16.07 111.21 16.28C111.12 16.88 111.06 17.48 111 18.08C110.94 18.41 111 18.71 110.55 18.71C110.1 18.71 109.65 18.62 109.2 18.59C108.27 18.56 107.52 18.56 106.74 18.53V19.88C108.09 21.23 109.32 22.4 110.97 23.54C111.18 23.69 111.57 23.84 111.57 24.11C111.57 24.38 111.39 24.56 111.21 24.77C110.97 25.04 110.01 26.39 109.68 26.39C109.38 26.39 108.99 25.82 108.81 25.64C108.48 25.28 108.12 24.98 107.82 24.62L106.74 23.3V32.27C106.74 32.57 106.8 32.87 106.8 33.14C106.8 33.71 106.5 33.71 106.05 33.71H103.86ZM113.52 25.58C112.8 25.58 112.92 25.22 112.95 24.8C112.95 23.93 112.89 22.76 112.86 21.86C112.8 20.33 112.65 18.8 112.5 17.27C112.44 16.76 112.38 16.31 112.38 15.86C112.38 15.59 112.53 15.53 112.71 15.53C113.34 15.53 114.6 15.65 115.23 15.65C117.39 15.65 119.55 15.68 121.71 15.59C122.34 15.59 122.97 15.53 123.6 15.53C124.05 15.53 124.08 15.62 124.08 15.98C124.08 16.7 123.93 17.48 123.87 18.17C123.69 20.33 123.51 22.73 123.45 24.89C123.42 25.37 123.36 25.58 123 25.58L121.98 25.55C120.81 25.49 119.64 25.46 118.44 25.46C117.45 25.46 116.46 25.46 115.47 25.49C114.81 25.52 114.18 25.58 113.52 25.58ZM115.77 22.79C117.33 22.79 119.04 22.76 120.54 22.79C120.63 21.32 120.72 19.88 120.87 18.41C119.07 18.38 117.21 18.38 115.59 18.38L115.77 22.79ZM139.8 33.26C139.5 33.26 139.29 33.26 139.29 33.02C139.29 32.75 139.41 32.15 139.44 31.85L139.53 30.92C139.62 30.2 139.68 29.45 139.74 28.7L139.77 28.34C137.13 29.54 134.43 30.65 131.61 31.55C131.34 31.64 130.59 31.94 129.99 32.12C129.63 32.24 129.3 32.33 129.21 32.33C129.06 32.33 128.85 32.09 128.67 31.88C128.31 31.46 127.98 30.95 127.77 30.74C127.62 30.56 127.23 30.23 127.23 29.99C127.23 29.78 127.68 29.75 127.8 29.72C128.28 29.66 128.73 29.57 129.21 29.45C130.68 29.12 132.18 28.76 133.59 28.31C135.45 27.71 137.28 26.96 139.05 26.21C137.94 26.21 136.83 26.21 135.72 26.27C133.89 26.33 132.03 26.39 130.2 26.51C129.87 26.54 129.57 26.63 129.24 26.63C129.03 26.63 128.94 26.57 128.94 26.33C128.94 25.61 128.97 24.89 128.97 24.2C128.97 23.9 129.09 23.87 129.33 23.87C129.69 23.87 130.05 23.93 130.41 23.93H139.77V22.79H134.88C134.31 22.79 133.74 22.85 133.14 22.85C132.66 22.85 132.81 22.28 132.78 21.89C132.6 19.82 132.39 17.72 132.09 15.65C132.03 15.41 131.91 15.11 131.91 14.87C131.91 14.57 132.21 14.6 132.42 14.6C132.81 14.6 133.2 14.63 133.59 14.66C136.08 14.72 138.54 14.69 141.03 14.69C143.04 14.69 145.05 14.69 147.03 14.63C147.9 14.63 148.74 14.57 149.61 14.57C149.79 14.57 150.09 14.51 150.09 14.81C150.09 15.08 150 15.38 149.94 15.65C149.7 17.57 149.49 19.55 149.31 21.5C149.31 21.71 149.25 22.64 149.1 22.76C149.01 22.82 148.89 22.82 148.8 22.82C148.23 22.82 147.63 22.79 147.06 22.76C146.16 22.76 143.94 22.79 142.41 22.79V23.93C144.75 23.93 147.09 23.93 149.46 23.87L151.62 23.78C152.04 23.75 152.49 23.63 152.91 23.63C153.06 23.63 153.12 23.75 153.12 23.9C153.12 24.05 153 24.71 152.91 25.34C152.79 26.03 152.79 26.63 152.55 26.63C152.28 26.66 151.95 26.57 151.71 26.54C151.38 26.54 151.05 26.51 150.72 26.48C148.2 26.42 145.65 26.24 143.1 26.21C144.9 26.99 146.76 27.71 148.62 28.28C150.06 28.73 151.56 29.12 153.03 29.45L154.41 29.72C154.56 29.72 155.01 29.75 155.01 29.96C155.01 30.2 154.56 30.59 154.41 30.77C154.23 30.98 153.9 31.46 153.6 31.88C153.39 32.18 153.33 32.42 153.12 32.45C152.94 32.45 152.31 32.27 152.13 32.21C151.53 32.03 150.93 31.85 150.33 31.64C148.95 31.16 147.54 30.65 146.19 30.05C144.9 29.51 143.64 28.88 142.41 28.25C142.44 28.49 142.44 28.79 142.47 28.97C142.53 29.81 142.62 30.62 142.71 31.52C142.74 32 142.83 32.48 142.83 32.96C142.83 33.23 142.5 33.26 142.29 33.26H139.8ZM139.86 20.78V19.79H135.12C135.12 20.12 135.15 20.42 135.18 20.75C136.71 20.78 138.27 20.78 139.86 20.78ZM134.97 17.81H139.86V16.76C138.21 16.76 136.56 16.79 134.88 16.82L134.97 17.81ZM142.32 20.78C143.82 20.78 145.35 20.78 146.82 20.75L146.91 19.79H142.32V20.78ZM142.32 17.81H147.09C147.12 17.51 147.15 17.18 147.21 16.82C145.56 16.82 143.94 16.79 142.32 16.79V17.81ZM137.4 14.24C136.98 14.24 137.07 13.88 137.01 13.58L136.83 12.47C135.75 12.47 134.67 12.5 133.59 12.53C132.72 12.56 131.88 12.62 131.01 12.71C130.68 12.77 130.29 12.89 129.93 12.86C129.66 12.86 129.63 12.74 129.63 12.32V10.34C129.63 10.07 129.66 9.83 129.93 9.83C130.26 9.83 130.74 9.95 131.07 9.98C131.7 10.01 132.33 10.04 132.96 10.04C134.1 10.04 135.24 10.07 136.38 10.07C136.35 9.8 136.29 9.53 136.26 9.26C136.2 8.96 136.05 8.63 136.05 8.3C136.05 8.09 136.23 8.09 136.41 8.06C137.13 8 138.45 7.88 138.72 7.88C139.05 7.88 139.08 8.09 139.14 8.78C139.17 9.2 139.23 9.65 139.32 10.07C140.49 10.07 141.63 10.1 142.8 10.1C142.89 9.47 142.95 8.96 143.01 8.33C143.04 8.03 142.95 7.85 143.34 7.85C143.52 7.85 143.82 7.91 144.15 7.94C144.57 8 145.08 8.06 145.41 8.15C145.83 8.21 146.1 8.24 146.1 8.45C146.1 8.72 145.95 9.38 145.83 10.07C147.3 10.04 148.77 10.01 150.24 10.01C150.78 10.01 151.38 9.92 151.95 9.92C152.1 9.92 152.31 9.89 152.31 10.1C152.31 10.22 152.22 10.52 152.13 10.85C152.04 11.3 151.95 11.81 151.89 12.05C151.83 12.53 151.77 12.68 151.53 12.68C151.26 12.68 150.03 12.56 149.4 12.53C148.08 12.47 146.76 12.44 145.41 12.44C145.35 12.8 145.29 13.13 145.2 13.49C145.11 13.82 145.08 14.21 144.84 14.21C144.57 14.24 144.33 14.15 144.09 14.12C143.64 14.06 143.16 14.03 142.74 13.94C142.53 13.91 142.17 14 142.17 13.7C142.17 13.52 142.26 13.34 142.29 13.16C142.35 12.92 142.41 12.68 142.44 12.44C141.72 12.41 140.46 12.5 139.65 12.44L139.74 13.13C139.77 13.25 139.83 13.67 139.8 13.79C139.8 14.09 139.47 14.09 139.05 14.15C138.51 14.21 137.91 14.24 137.4 14.24ZM165.9 33.23C165.48 33.23 165.39 32.87 165.21 32.57C164.82 32 164.31 31.19 164.19 31.01C163.92 30.65 163.74 30.5 163.74 30.2C163.74 29.96 164.43 29.93 164.64 29.9C165.78 29.78 166.92 29.6 168.06 29.33C170.22 28.82 171.18 27.14 171.18 24.86C171.21 24.26 171.15 23.42 171.06 22.76C168.84 22.76 166.62 22.7 164.4 22.76C163.29 22.79 162.21 22.91 161.1 22.97C160.62 23 159.96 23.15 159.48 23.12C159 23.12 159 22.79 159 22.43V20.3C159 19.88 159.09 19.64 159.42 19.64C159.66 19.64 160.11 19.7 160.35 19.73C161.16 19.79 161.97 19.82 162.75 19.82C165.27 19.82 167.82 19.79 170.34 19.79C169.92 18.68 169.32 17.66 168.45 16.94C168.27 16.79 167.73 16.43 167.73 16.16C167.73 15.92 168 15.74 168.15 15.59C168.33 15.44 168.84 15.05 169.29 14.75C169.59 14.54 169.89 14.33 170.01 14.33C170.25 14.33 170.64 14.72 170.85 14.93C171.03 15.14 171.24 15.35 171.39 15.56C172.53 14.72 173.61 13.82 174.51 12.68C172.08 12.71 169.47 12.74 167.07 12.74C166.02 12.74 165.03 12.8 163.95 12.92C163.68 12.95 163.23 13.04 162.99 13.04C162.72 13.04 162.69 12.86 162.66 12.44V9.98C162.69 9.44 162.78 9.32 163.02 9.32C163.38 9.32 163.74 9.41 163.92 9.41C166.17 9.62 168.36 9.56 170.61 9.56C172.05 9.56 173.46 9.53 174.9 9.53C176.28 9.53 177.66 9.44 179.04 9.44C179.49 9.44 180.06 9.47 180.06 10.07C180.06 10.31 179.82 10.76 179.46 11.3C178.44 12.8 176.4 14.99 175.83 15.56C174.96 16.43 174 17.27 173.01 18.05C173.28 18.62 173.52 19.19 173.7 19.79C175.2 19.76 176.7 19.67 178.2 19.67C179.28 19.67 180.36 19.58 181.44 19.52C181.98 19.49 182.52 19.37 183.06 19.37C183.3 19.37 183.54 19.31 183.54 19.61C183.54 19.85 183.39 20.18 183.36 20.39C183.24 20.96 183.06 21.86 183 22.37C182.94 22.67 182.91 23.06 182.7 23.09C182.55 23.09 182.31 23 182.16 23L181.23 22.91C180.21 22.82 179.19 22.7 178.14 22.73C176.85 22.76 175.59 22.76 174.33 22.76C174.42 23.42 174.45 24.11 174.45 24.8C174.45 29.03 172.98 31.25 168.75 32.6C168.18 32.78 167.34 33.02 166.62 33.14C166.35 33.2 166.11 33.23 165.9 33.23ZM207.24 30.59C206.55 30.59 205.35 30.29 204.63 30.14C200.34 29.24 196.02 27.23 196.02 22.1C196.02 19.4 197.91 17.09 200.25 15.47C200.82 15.08 201.42 14.72 202.02 14.39C199.68 14.57 197.34 14.81 195 15.02C193.95 15.11 192.93 15.23 191.91 15.44C191.58 15.53 191.19 15.65 190.83 15.65C190.5 15.65 190.41 15.44 190.41 15.14V12.8C190.41 12.44 190.44 12.08 190.86 12.08C191.19 12.08 191.52 12.14 191.85 12.17C192.3 12.17 192.75 12.2 193.23 12.2C195.54 12.2 197.82 11.99 200.13 11.84C202.53 11.69 204.93 11.54 207.36 11.33C208.08 11.27 208.77 11.18 209.52 11.03C209.73 11 210.03 10.94 210.24 10.94C210.54 10.94 210.63 11.3 210.75 11.66C210.87 12.11 211.05 12.89 211.26 13.55C211.35 13.85 211.41 14.15 211.41 14.33C211.41 14.63 211.08 14.75 210.66 14.72C210.27 14.72 209.79 14.72 209.58 14.75C209.07 14.75 208.56 14.78 208.05 14.84C205.59 15.14 202.92 16.58 201 18.17C199.74 19.22 198.96 20.48 198.96 22.16C198.96 23.51 199.53 24.41 200.64 25.16C202.17 26.18 204.45 26.66 206.25 26.84C206.43 26.87 207.06 26.9 207.6 26.93C208.02 26.96 208.14 26.93 208.41 26.96C208.5 26.99 208.56 27.2 208.56 27.29C208.56 27.41 208.47 27.65 208.41 27.89C208.23 28.55 208.08 29.39 207.9 30.05C207.78 30.5 207.78 30.59 207.24 30.59ZM207.87 21.47C207.75 21.47 207.63 21.29 207.45 21.08C207.09 20.66 206.58 20.09 206.25 19.76C205.83 19.34 205.56 19.1 205.2 18.8C204.96 18.59 204.75 18.56 204.75 18.41C204.72 18.32 204.81 18.23 204.9 18.14C205.08 17.96 205.35 17.75 205.47 17.6C205.62 17.48 205.71 17.36 205.86 17.36C205.95 17.33 206.13 17.48 206.34 17.63C206.67 17.9 207.06 18.2 207.42 18.53C207.87 18.92 208.23 19.22 208.56 19.58C208.74 19.76 209.01 20 209.01 20.18C209.01 20.27 208.92 20.39 208.8 20.54C208.62 20.72 208.41 20.96 208.2 21.23C208.08 21.35 207.96 21.47 207.87 21.47ZM210.48 19.61C210.36 19.61 210.24 19.43 210.06 19.22C209.7 18.83 209.19 18.23 208.86 17.9C208.44 17.48 208.17 17.24 207.81 16.94C207.57 16.73 207.36 16.7 207.36 16.55C207.33 16.46 207.42 16.37 207.51 16.28C207.69 16.1 207.96 15.89 208.08 15.74C208.23 15.62 208.32 15.5 208.47 15.5C208.56 15.47 208.74 15.62 208.95 15.77C209.28 16.04 209.67 16.34 210.03 16.67C210.48 17.06 210.87 17.39 211.2 17.75C211.35 17.93 211.62 18.14 211.62 18.32C211.62 18.44 211.53 18.53 211.41 18.68C211.23 18.86 211.02 19.13 210.81 19.37C210.69 19.52 210.57 19.61 210.48 19.61Z" fill="black"/>
<rect width="282" height="42" transform="translate(0 54)" fill="white"/>
<path d="M22.5 86.96C22.14 86.96 21.93 86.39 21.75 86.12C19.86 83.21 17.85 80.42 15.72 77.69C15.36 77.27 15.03 76.82 14.76 76.34C14.52 75.86 14.37 75.35 14.37 74.81C14.37 74.18 14.55 73.67 14.85 73.16C15.12 72.65 15.48 72.17 15.81 71.72C17.31 69.62 18.87 67.49 20.16 65.24C20.43 64.76 20.73 64.25 20.97 63.74C21.09 63.44 21.15 63.11 21.27 62.81C21.36 62.63 21.45 62.45 21.6 62.45C21.78 62.45 21.99 62.57 22.32 62.75C23.01 63.11 23.67 63.53 23.88 63.65C24.15 63.8 24.48 64.01 24.6 64.1C24.78 64.25 24.9 64.4 24.9 64.61C24.93 64.73 24.81 64.94 24.69 65.12C24.51 65.42 24.24 65.69 24.15 65.81C22.23 68.27 20.34 70.76 18.48 73.28C18.15 73.73 17.76 74.15 17.76 74.75C17.76 75.26 18.33 75.89 18.63 76.25C19.62 77.48 20.61 78.71 21.63 79.91C22.68 81.2 23.79 82.46 24.84 83.75C24.99 83.9 25.38 84.35 25.38 84.56C25.38 84.71 25.11 84.92 24.72 85.28C24.24 85.73 23.58 86.27 23.1 86.6C22.8 86.81 22.59 86.96 22.5 86.96ZM46.71 83.99C46.29 83.99 46.11 83.78 45.9 83.39C45.63 82.91 45.27 82.13 44.88 81.44C44.76 81.2 44.67 81.02 44.67 80.93C44.67 80.72 44.82 80.66 45.03 80.66C45.48 80.63 46.29 80.66 46.5 80.66C48.24 80.66 50.46 80.51 52.5 80.03C54.33 79.61 56.04 78.89 57.15 77.66C57.9 76.82 58.32 75.8 58.32 74.66C58.32 71.57 56.16 70.64 53.4 70.64C50.85 70.64 48.3 71.51 45.93 72.41C44.58 72.92 43.23 73.43 41.94 74C41.73 74.09 41.46 74.27 41.22 74.27C40.92 74.27 40.77 73.91 40.65 73.67C40.47 73.4 40.05 72.5 39.78 71.81C39.63 71.48 39.54 71.27 39.54 71C39.54 70.67 39.72 70.64 40.02 70.58C41.07 70.37 42.42 70.07 43.35 69.8C46.65 68.84 50.04 67.76 53.46 67.76C57.81 67.76 61.65 69.71 61.65 74.57C61.65 77.93 60 80.09 57.66 81.47C55.44 82.79 52.59 83.45 49.98 83.75C48.96 83.87 47.73 83.99 46.71 83.99ZM78.21 86.06C77.64 86.06 77.52 86.06 77.34 85.64C77.07 85.04 76.8 84.23 76.56 83.66C76.41 83.3 76.26 83.03 76.26 82.88C76.26 82.7 76.41 82.64 76.56 82.64C76.74 82.64 76.89 82.7 77.07 82.73C77.67 82.79 78.27 82.82 78.9 82.82C80.76 82.82 83.34 82.46 84.93 81.5C86.22 80.72 87.33 79.64 87.33 78.05C87.33 75.71 85.41 74.87 83.34 74.87C81.21 74.87 79.02 75.38 77.07 76.37C75.6 77.12 74.31 78.2 73.35 79.58C73.2 79.82 72.99 80.3 72.63 80.3C72.3 80.3 72.18 80.12 71.88 79.88C71.4 79.52 70.77 78.95 70.53 78.74C70.35 78.56 70.08 78.41 70.08 78.14C70.08 77.9 70.44 77.6 70.62 77.42C72.39 75.65 74.13 73.88 75.87 72.05C77.43 70.43 78.96 68.78 80.52 67.13C79.44 67.22 78.39 67.31 77.34 67.43C76.5 67.49 75.66 67.61 74.82 67.67C74.37 67.7 73.8 67.82 73.38 67.79C72.96 67.79 73.08 67.37 73.08 67.01C73.08 66.44 73.14 65.87 73.17 65.27C73.17 65.03 73.2 64.58 73.41 64.55C73.65 64.55 73.83 64.58 74.01 64.61C74.4 64.67 74.82 64.67 75.21 64.67C76.77 64.67 78.39 64.52 79.92 64.52C80.85 64.52 81.81 64.46 82.71 64.31C82.95 64.25 83.19 64.16 83.43 64.01C83.67 63.86 83.91 63.68 84.12 63.68C84.24 63.68 84.48 63.8 84.75 64.01C85.23 64.43 85.74 64.97 86.19 65.45C86.43 65.72 86.55 65.93 86.55 66.08C86.55 66.32 86.31 66.47 86.01 66.59C85.74 66.71 85.41 66.83 85.23 66.92C84.39 67.4 83.61 68.18 82.86 68.84C81.42 70.1 80.13 71.57 78.81 72.95C80.34 72.53 81.93 72.23 83.52 72.23C87.27 72.23 90.36 74.36 90.36 78.38C90.36 82.58 86.37 84.65 82.77 85.55C81.69 85.82 80.58 85.91 79.47 86C79.05 86.03 78.63 86.06 78.21 86.06ZM112.53 86.63C111.15 86.63 109.26 86.42 107.49 85.94C105.87 85.49 104.37 84.77 103.44 83.75C102.75 82.94 102.45 81.95 102.45 80.9C102.45 79.34 103.17 78.29 104.22 77.6C105.48 76.82 107.19 76.52 108.69 76.52C110.31 76.52 111.87 76.85 113.37 77.42C112.74 76.52 112.2 75.5 111.75 74.48C109.38 74.87 106.95 75.05 104.58 75.05C104.22 75.05 102.75 75.05 101.97 74.96C101.67 74.93 101.43 74.99 101.4 74.63C101.4 74.42 101.4 74.09 101.43 73.73C101.46 73.25 101.52 72.74 101.58 72.32C101.58 72.11 101.58 71.66 101.88 71.66C101.97 71.66 102.09 71.69 102.24 71.72C102.6 71.78 103.05 71.9 103.32 71.93C104.37 72.05 105.39 72.08 106.44 72.08C107.82 72.08 109.2 71.99 110.58 71.84L109.86 69.95C108.69 70.1 107.46 70.16 106.29 70.16C105.99 70.16 104.58 70.16 103.98 70.04C103.68 70.01 103.62 69.92 103.62 69.62C103.62 69.17 103.68 68.09 103.71 67.61C103.74 67.34 103.77 67.07 104.04 67.07C104.22 67.07 104.46 67.13 104.64 67.16C105.48 67.31 106.32 67.4 107.19 67.4C107.79 67.4 108.39 67.34 108.99 67.31C108.63 66.26 108.3 65.21 107.88 64.19C107.82 64.01 107.52 63.41 107.52 63.29C107.52 63.08 107.7 62.99 107.88 62.93C108.24 62.81 110.16 62.27 110.43 62.27C110.52 62.27 110.58 62.27 110.64 62.3C110.76 62.39 110.82 62.72 110.85 62.87C111.18 64.22 111.42 65.54 111.84 66.86C113.25 66.56 114.63 66.17 115.92 65.51C116.07 65.45 116.4 65.24 116.7 65.09C116.85 65 117.06 64.94 117.12 64.94C117.36 64.94 117.42 65.3 117.45 65.51L117.69 66.92C117.75 67.19 117.81 67.49 117.84 67.79C117.84 68.09 117.6 68.12 117.27 68.24C116.1 68.69 113.19 69.35 112.68 69.47L113.4 71.36C115.44 70.91 116.76 70.61 118.65 69.83C118.98 69.71 119.28 69.56 119.58 69.41C119.82 69.26 120.03 69.14 120.21 69.14C120.45 69.14 120.48 69.59 120.51 69.83L120.75 71.03C120.81 71.36 120.87 71.66 120.87 71.87C120.87 72.29 120.66 72.35 120.33 72.47C119.19 72.89 116.07 73.64 114.57 73.97C115.32 75.44 116.16 76.88 117.39 78.02C117.51 78.14 117.84 78.41 118.14 78.62C118.38 78.8 118.68 79.01 118.68 79.16C118.68 79.34 118.5 79.52 118.29 79.76C117.96 80.12 117.45 80.69 117.09 81.02C116.97 81.14 116.61 81.47 116.46 81.47C116.28 81.47 116.07 81.35 115.89 81.2C115.65 81.02 115.41 80.84 115.2 80.72C113.43 79.73 110.25 79.07 108.27 79.07C107.55 79.07 106.65 79.19 106.02 79.61C105.6 79.91 105.3 80.33 105.3 80.99C105.3 81.77 105.96 82.31 106.86 82.7C108.33 83.3 110.43 83.45 111.39 83.45C112.38 83.45 113.34 83.39 114.3 83.27C114.63 83.24 115.14 83.12 115.56 83.03C115.83 82.97 116.1 82.91 116.28 82.91C116.58 82.91 116.61 83.03 116.61 83.3C116.61 83.57 116.46 84.83 116.4 85.61C116.37 86.18 116.16 86.27 115.59 86.39C114.63 86.57 112.95 86.63 112.53 86.63ZM120.03 66.35C119.91 66.35 119.79 66.17 119.61 65.93C119.25 65.54 118.71 64.94 118.38 64.61C117.96 64.22 117.72 63.95 117.36 63.68C117.12 63.44 116.91 63.41 116.88 63.26C116.88 63.2 116.94 63.11 117.06 62.99C117.21 62.84 117.48 62.6 117.63 62.48C117.78 62.33 117.87 62.24 117.99 62.21C118.11 62.18 118.29 62.33 118.5 62.51C118.83 62.75 119.22 63.08 119.58 63.38C120.03 63.77 120.39 64.07 120.72 64.43C120.9 64.61 121.17 64.85 121.17 65.03C121.17 65.15 121.05 65.27 120.93 65.39L120.33 66.08C120.24 66.23 120.12 66.32 120.03 66.35ZM122.64 64.49C122.52 64.49 122.4 64.31 122.22 64.1C121.86 63.68 121.32 63.08 120.99 62.78C120.57 62.36 120.33 62.12 119.97 61.82C119.73 61.58 119.52 61.55 119.49 61.43C119.49 61.34 119.55 61.25 119.67 61.13C119.82 60.98 120.09 60.74 120.24 60.62C120.36 60.47 120.48 60.38 120.6 60.35C120.72 60.35 120.9 60.5 121.11 60.65C121.44 60.89 121.83 61.22 122.19 61.52C122.64 61.94 123.03 62.24 123.36 62.6C123.51 62.78 123.78 63.02 123.78 63.2C123.78 63.29 123.69 63.38 123.54 63.53L122.94 64.22C122.85 64.37 122.73 64.46 122.64 64.49ZM140.97 84.92C140.55 84.92 140.49 84.8 140.28 84.47C139.89 83.87 139.65 83.3 139.29 82.64C139.17 82.4 139.02 82.19 139.05 82.07C139.05 81.74 139.59 81.74 139.83 81.71C141.33 81.53 143.43 81.11 144.75 80.45C147.21 79.22 148.56 77.84 148.56 74.93C148.56 71 146.04 68.69 142.14 68.69C141.27 68.69 140.37 68.78 139.53 68.93C140.04 69.05 140.73 69.17 141.3 69.32C141.75 69.47 142.08 69.59 142.08 69.92C142.08 70.37 141.9 70.97 141.84 71.42C141.09 74.87 139.95 79.61 137.34 82.13C136.62 82.82 135.72 83.45 134.7 83.45C134.13 83.45 133.59 83.27 133.11 83C130.77 81.68 130.17 79.01 130.17 76.52C130.17 74.6 130.86 72.29 132 70.7C134.34 67.43 138.09 66.14 141.99 66.14C143.76 66.14 145.62 66.38 147.21 67.25C150.15 68.84 151.71 71.54 151.71 74.87C151.71 79.16 149.55 81.71 145.8 83.54C144.63 84.11 142.26 84.92 140.97 84.92ZM134.64 79.97C135.09 80 135.54 79.4 135.75 79.13C137.22 77.24 138.45 73.37 138.78 70.55C138.84 70.04 138.87 69.56 138.87 69.14C135.45 70.13 133.23 73.04 133.23 76.61C133.23 77.45 133.26 78.71 133.74 79.4C133.92 79.67 134.19 79.97 134.64 79.97ZM168.42 85.19C163.77 85.19 161.73 82.55 161.73 78.41C161.73 75.92 162.6 73.58 163.95 71.48C164.43 70.73 165.15 70.01 165.75 69.26C164.67 69.41 163.35 69.5 162.27 69.56C161.79 69.59 161.1 69.71 160.8 69.71C160.53 69.71 160.44 69.65 160.44 69.38C160.44 69.14 160.47 68.9 160.5 68.69C160.53 68.12 160.56 67.52 160.62 66.95C160.65 66.68 160.62 66.26 161.01 66.26C161.16 66.26 161.34 66.29 161.49 66.32C162.18 66.47 162.9 66.44 163.62 66.44C164.85 66.44 166.14 66.38 167.4 66.23C167.94 66.14 168.54 66.02 169.08 65.84C169.41 65.72 169.86 65.45 170.22 65.45C170.43 65.45 170.55 65.84 170.64 65.99L171.51 68.03C171.63 68.33 171.72 68.54 171.69 68.72C171.69 68.99 171.33 69.05 171.06 69.14L170.19 69.44C168.99 69.86 168 70.61 167.19 71.57C165.78 73.25 164.52 76.22 164.52 78.47C164.52 81.32 166.2 82.07 168.75 82.07C170.16 82.07 171.36 81.32 172.32 80.33C174.09 78.53 174.39 75.14 174.39 72.71C174.39 70.91 174.18 69.14 173.91 67.4C173.85 67.01 173.7 66.59 173.7 66.23C173.7 65.9 174.06 65.87 174.3 65.84C175.11 65.75 175.98 65.6 176.76 65.6C177.36 65.6 177.45 65.69 177.45 66.29C177.45 66.8 177.39 67.31 177.39 67.79C177.39 69.77 177.87 71.54 178.77 73.07C179.64 74.57 180.93 75.83 182.52 76.85C182.73 76.97 183.21 77.18 183.21 77.39C183.18 77.63 183 77.78 182.79 78.05C182.43 78.53 181.95 79.13 181.5 79.64C181.26 79.91 181.14 80.15 180.96 80.15C180.72 80.12 180.57 79.94 180.33 79.73C179.25 78.8 177.51 76.19 177.09 75.59C176.58 80.69 174.12 85.19 168.42 85.19ZM201.03 85.07C198.69 85.07 196.23 84.8 194.55 83.6C193.41 82.79 192.69 81.47 192.69 79.49C192.69 76.67 195.18 74.48 197.46 73.22C197.31 71.66 197.25 70.07 197.22 68.48C197.19 67.28 197.13 66.05 197.04 64.97C197.01 64.34 196.83 63.56 196.83 63.11C196.86 62.75 197.1 62.72 197.49 62.69C198.33 62.66 199.17 62.6 200.01 62.6C200.34 62.6 200.61 62.6 200.61 62.99C200.61 63.47 200.52 63.95 200.46 64.4C200.28 65.78 200.25 67.16 200.25 68.57C200.25 69.71 200.34 70.88 200.43 72.05L203.61 71.06C204.51 70.82 205.41 70.58 206.28 70.28C206.49 70.19 206.79 70.1 207 70.1C207.3 70.1 207.39 70.4 207.54 70.64C207.63 70.82 207.99 71.6 208.23 72.2C208.38 72.59 208.47 72.89 208.47 73.01C208.47 73.43 208.02 73.46 207.69 73.49C206.64 73.58 205.62 73.76 204.57 73.97C203.7 74.15 202.83 74.3 201.99 74.54C200.73 74.9 198.81 75.62 197.4 76.67C196.41 77.42 195.69 78.35 195.69 79.46C195.69 80.42 196.26 81.35 197.22 81.62C198.24 81.92 199.35 82.04 200.43 82.04C202.38 82.04 204.96 81.65 206.79 81.05C207 80.96 207.21 80.87 207.42 80.87C207.66 80.87 207.69 81.14 207.75 81.35C207.84 81.71 207.93 82.25 207.99 82.7C208.08 83.21 208.17 83.75 208.17 83.9C208.17 84.23 207.96 84.29 207.6 84.41C206.07 84.92 201.84 85.07 201.03 85.07ZM235.14 87.65C234.9 87.65 234.6 87.5 234.39 87.38C233.79 87.02 233.13 86.57 232.59 86.06C232.17 85.73 231.99 85.64 232.02 85.37C232.08 85.16 232.47 85.13 232.65 85.1C233.61 84.89 234.57 84.68 235.59 84.26C236.04 84.08 236.43 83.87 236.58 83.66C236.7 83.45 236.7 83.06 236.7 82.82V78.98C235.77 78.98 234.87 79.01 233.88 79.01C232.32 79.01 231.24 79.04 230.04 79.1C229.71 79.1 229.35 79.16 229.05 79.16C228.69 79.16 228.72 78.74 228.72 78.47V76.73C228.72 76.55 228.66 76.04 228.93 76.04C229.17 76.04 229.44 76.13 229.68 76.13H236.7V73.52C234.72 73.49 232.74 73.52 230.76 73.73C230.19 73.79 229.23 73.97 228.78 73.97C228.42 73.97 228.42 73.7 228.42 73.37V71.45C228.42 71.21 228.39 70.79 228.72 70.79C228.99 70.79 229.23 70.85 229.5 70.88C230.19 70.91 230.91 70.88 231.6 70.88C232.47 70.88 233.37 70.88 234.24 70.85C234.24 70.07 234.24 69.44 234.21 68.66C233.49 68.66 232.77 68.66 232.02 68.69C231.45 68.72 230.88 68.75 230.31 68.84C230.16 68.84 230.04 68.87 229.92 68.87C229.59 68.87 229.59 68.63 229.59 68.36V66.17C229.59 65.9 229.62 65.69 229.92 65.69C230.16 65.69 230.37 65.75 230.61 65.78C231.21 65.84 231.81 65.81 232.41 65.81H234.24C234.24 65.21 234.21 64.64 234.21 64.04C234.18 63.68 234.15 63.32 234.09 62.99C234.09 62.81 234.03 62.63 234.03 62.45C234.03 62.12 234.27 62.09 234.51 62.09H236.88C237.21 62.09 237.57 62.09 237.57 62.39C237.57 63.14 237.42 63.86 237.39 64.58C237.39 65 237.36 65.42 237.36 65.81C238.47 65.81 239.61 65.81 240.69 65.72C241.11 65.66 241.56 65.51 241.98 65.51C242.28 65.51 242.28 65.66 242.28 65.93C242.28 66.14 242.13 67.19 242.01 67.94C241.95 68.3 242.04 68.75 241.59 68.75C241.2 68.75 240.81 68.69 240.42 68.66H237.33V70.79C238.83 70.76 240.33 70.79 241.86 70.73C242.4 70.73 242.97 70.67 243.51 70.58C243.63 70.55 243.75 70.52 243.87 70.52C244.02 70.52 244.05 70.64 244.05 70.79C244.05 71.12 243.81 72.2 243.66 73.01C243.6 73.31 243.6 73.79 243.33 73.79C242.79 73.85 241.92 73.67 241.32 73.67L239.58 73.58C239.61 74.42 239.58 75.26 239.58 76.07H241.65C242.37 76.07 243.09 75.92 243.81 75.92C243.93 75.92 244.02 76.01 244.02 76.13C244.02 76.25 243.96 76.37 243.96 76.49C243.9 76.76 243.81 77.66 243.69 78.32C243.6 78.86 243.66 79.19 243.18 79.16C242.85 79.16 242.4 79.1 242.07 79.07C241.26 79.04 240.42 79.01 239.61 79.01C239.64 80.66 239.73 82.31 239.73 83.99C239.73 84.65 239.58 85.16 239.04 85.64C238.53 86.09 237.27 86.9 236.25 87.35C235.8 87.5 235.41 87.65 235.14 87.65ZM224.88 76.55C224.91 75.41 224.91 74.27 224.94 73.13H221.85C221.88 74.24 221.88 75.38 221.88 76.52C222.69 76.52 223.89 76.52 224.88 76.55ZM231.12 84.23C230.94 84.23 230.73 84.02 230.52 83.75C230.19 83.33 229.86 82.7 229.62 82.16C229.47 81.74 229.32 81.38 229.35 81.2C229.38 80.84 229.62 80.78 230.01 80.75C231.15 80.72 232.56 80.63 233.67 80.42C234.33 80.3 234.57 80.09 235.02 80.09C235.14 80.09 235.32 80.15 235.29 80.3C235.29 80.54 235.14 80.84 234.93 81.14C234.21 82.19 232.89 83.42 231.9 83.93C231.69 84.05 231.39 84.23 231.12 84.23ZM219.66 79.43C219.18 79.43 219.21 79.07 219.21 78.71C219.21 78.26 219.3 77.81 219.3 77.36C219.3 74.84 219.24 72.32 219.18 69.83C219.15 68.81 219.15 67.79 219.09 66.8C219.06 66.26 218.97 65.72 218.97 65.21C218.97 64.82 219.27 64.82 219.57 64.82C221.16 64.82 222.72 64.91 224.28 64.91C225.33 64.91 226.38 64.88 227.43 64.88C227.7 64.88 227.91 64.88 227.91 65.21C227.91 65.42 227.88 65.66 227.85 65.87C227.76 67.07 227.73 68.27 227.67 69.47C227.52 72.44 227.43 75.44 227.43 78.41C227.43 78.95 227.49 79.37 226.8 79.37C225.51 79.37 224.19 79.25 222.87 79.25C221.97 79.25 221.07 79.31 220.17 79.37C219.99 79.4 219.84 79.43 219.66 79.43ZM221.82 70.43H225C225 69.47 225.03 68.48 225.06 67.49C224.07 67.43 222.81 67.46 221.79 67.46L221.82 70.43ZM261.15 86C259.47 86 257.28 85.85 255.69 85.04C254.49 84.41 253.65 83.39 253.65 81.68C253.65 80.27 254.58 79.13 255.81 78.2C257.04 77.3 258.54 76.58 259.62 76.01C259.53 75.5 259.53 74.54 258.84 74.54C258.24 74.54 257.61 74.78 257.01 75.14C255.96 75.77 254.94 76.76 254.22 77.45C254.07 77.6 253.77 77.96 253.59 77.99C253.35 78.02 253.11 77.69 252.93 77.54C252.72 77.33 252.15 76.73 251.76 76.25C251.58 76.01 251.4 75.83 251.4 75.62C251.4 75.44 251.67 75.32 252.09 75.02C252.51 74.72 252.93 74.36 253.32 74.06C254.43 73.16 255.39 72.14 256.08 70.88C254.58 71.03 253.05 71.09 251.55 71.09C251.22 71.09 250.71 71.15 250.71 70.73V70.07C250.74 69.56 250.8 68.99 250.83 68.66C250.83 68.24 250.83 67.88 251.1 67.88C251.4 67.88 251.82 68 252.12 68.03C252.54 68.09 252.99 68.12 253.44 68.12C254.61 68.12 256.02 68.03 257.19 67.91C257.52 66.68 257.73 65.57 257.94 64.31C257.97 64.16 258.06 63.56 258.09 63.2C258.12 62.87 258.15 62.66 258.36 62.66C258.54 62.66 258.81 62.72 258.99 62.75C259.53 62.81 260.34 62.96 260.85 63.05C261.18 63.11 261.42 63.17 261.42 63.35C261.42 63.56 261.3 63.95 261.18 64.34C260.88 65.39 260.37 67.04 260.25 67.52C261.57 67.28 262.92 67.07 264.18 66.56C264.39 66.5 264.66 66.32 264.93 66.35C265.11 66.38 265.11 66.86 265.11 67.07C265.14 67.85 265.23 68.9 265.23 69.2C265.23 69.62 265.02 69.68 264.66 69.8C263.31 70.19 259.89 70.49 259.23 70.55L258.42 71.99C258.72 71.93 259.05 71.9 259.35 71.9C261.27 71.9 261.9 73.16 262.29 74.81C264.24 73.79 266.31 72.74 268.17 71.54C268.32 71.45 268.74 71.15 269.1 70.91C269.37 70.73 269.58 70.61 269.67 70.61C269.91 70.61 270.09 71.03 270.18 71.21C270.33 71.51 270.69 72.14 270.96 72.71C271.11 73.04 271.23 73.34 271.23 73.49C271.23 73.79 270.84 73.91 270.6 74C267.93 75.05 265.35 76.34 262.77 77.57C262.86 78.59 262.89 79.61 262.89 80.63C262.89 80.84 262.89 81.2 262.74 81.38C262.47 81.71 261.03 81.62 260.58 81.62C260.25 81.62 259.89 81.59 259.89 81.17C259.89 80.6 259.95 80.03 259.95 79.46V78.77C259.29 79.07 257.97 79.73 257.13 80.51C256.71 80.9 256.41 81.38 256.41 81.77C256.41 82.25 256.68 82.46 257.1 82.64C257.97 82.97 259.38 83 260.31 83C262.23 83 264.24 82.79 266.1 82.31C266.37 82.25 267.36 81.89 268.08 81.62C268.47 81.5 268.8 81.38 268.83 81.38C269.19 81.38 269.13 81.95 269.13 82.19C269.13 82.43 269.07 83.54 269.07 84.23C269.07 84.74 269.07 84.95 268.68 85.13C268.44 85.25 267.81 85.37 267.45 85.43C265.41 85.85 262.05 86 261.15 86Z" fill="black"/>
</svg>
