<svg width="218" height="60" viewBox="0 0 218 60" fill="none" xmlns="http://www.w3.org/2000/svg">
<path d="M82.28 55.332C81.776 55.332 81.848 54.828 81.776 54.18C81.596 52.632 81.524 51.048 81.272 49.464C81.164 48.636 81.092 47.808 80.948 46.98C80.912 46.656 80.804 46.332 80.804 46.008C80.804 45.504 81.272 45.468 81.668 45.468C82.172 45.468 82.676 45.54 83.144 45.54C84.08 45.576 85.016 45.576 85.952 45.576C87.356 45.576 88.724 45.612 90.092 45.612C90.236 44.928 90.344 44.28 90.416 43.632C89.264 43.632 88.112 43.668 86.96 43.704C86.204 43.74 85.448 43.884 84.692 43.884C84.332 43.884 84.332 43.704 84.26 43.272C84.224 42.804 84.152 42.156 84.152 41.976C84.044 40.284 83.9 38.088 83.648 36.432C83.576 36.18 83.504 35.892 83.504 35.64C83.504 35.244 83.828 35.172 84.152 35.172C84.548 35.172 84.908 35.244 85.268 35.244C87.932 35.316 90.596 35.28 93.26 35.28C95.24 35.28 97.184 35.352 99.308 35.244C99.524 35.208 99.776 35.172 99.992 35.172C100.352 35.172 100.676 35.208 100.676 35.64C100.676 35.964 100.352 37.296 100.28 37.764L99.56 42.876C99.488 43.524 99.56 43.884 99.164 43.884C98.696 43.884 97.544 43.776 96.752 43.74C95.888 43.704 94.988 43.668 94.124 43.668C93.98 44.316 93.872 44.964 93.728 45.612H100.928C101.576 45.612 102.224 45.54 102.872 45.54C103.304 45.54 103.592 45.54 103.592 46.044C103.592 46.26 103.52 46.584 103.448 46.944C103.304 47.52 103.124 48.204 103.088 48.564C102.944 49.32 102.764 50.076 102.62 50.832C102.44 51.984 102.224 53.028 102.044 54.144C101.972 54.9 102.008 55.332 101.036 55.332C100.136 55.332 99.272 55.224 98.372 55.152C95.996 55.044 94.448 54.936 92.036 54.936C90.092 54.936 87.428 55.008 85.412 55.116C84.476 55.152 83.396 55.332 82.28 55.332ZM85.304 51.696C87.14 51.66 90.164 51.66 92 51.66H98.732C98.804 50.724 99.056 49.716 99.2 48.744C96.5 48.708 94.664 48.708 92 48.708L85.016 48.744C85.16 49.68 85.232 50.76 85.304 51.696ZM87.284 40.68C90.344 40.644 93.404 40.644 96.5 40.68C96.536 39.96 96.752 38.88 96.824 38.16H87.068C87.176 38.844 87.212 39.996 87.284 40.68ZM78.464 39.528C78.176 39.528 77.672 39.492 77.672 39.096C77.672 38.844 77.708 38.628 77.708 38.412C77.708 36.756 77.852 35.136 77.852 33.516C77.852 33.012 77.816 32.508 77.78 32.004C77.78 31.68 77.708 31.356 77.708 30.996C77.708 30.6 77.924 30.42 78.32 30.42C79.364 30.42 80.408 30.528 81.452 30.528C82.244 30.528 83.036 30.492 83.828 30.492C83.576 29.628 83.324 28.764 83.072 28.008C83 27.792 82.82 27.324 82.64 26.928C82.424 26.532 82.28 26.352 82.28 26.136C82.28 25.848 82.964 25.74 83.288 25.668C84.008 25.56 85.304 25.272 86.024 25.272C86.168 25.272 86.312 25.308 86.42 25.416C86.492 25.452 86.6 26.028 86.78 26.82C87.032 27.864 87.32 29.304 87.536 30.42C88.544 30.42 89.516 30.384 90.488 30.384C90.272 29.448 90.056 28.548 89.732 27.684C89.66 27.468 89.516 27 89.336 26.604C89.192 26.28 89.048 26.028 89.048 25.92C89.048 25.488 89.804 25.452 90.092 25.38C90.812 25.272 92.144 24.984 92.828 24.984C92.972 24.984 93.116 25.02 93.224 25.092C93.296 25.164 93.404 25.74 93.548 26.604C93.764 27.684 94.016 29.232 94.196 30.348C94.916 30.348 95.672 30.312 96.392 30.312C96.752 29.16 97.04 27.972 97.328 26.748C97.364 26.568 97.4 26.172 97.436 25.812C97.472 25.56 97.508 25.344 97.58 25.236C97.688 25.128 97.868 25.092 98.012 25.092C98.768 25.092 100.028 25.524 100.82 25.704C101.18 25.776 101.648 25.848 101.648 26.352C101.648 26.46 101.36 26.928 101.108 27.576L99.992 30.312C101.504 30.312 102.98 30.276 104.492 30.204C104.816 30.204 105.14 30.168 105.464 30.168C106.148 30.168 106.256 30.456 106.256 31.068C106.256 31.32 106.22 31.572 106.22 31.824C106.112 34.236 106.256 36.612 106.256 39.024C106.256 39.672 105.968 39.528 105.464 39.528H103.052C102.44 39.528 102.368 39.456 102.368 38.772C102.368 37.476 102.404 37.008 102.44 35.64V33.552C95.456 33.588 88.472 33.588 81.488 33.624V35.424C81.524 36.648 81.524 37.872 81.524 39.06C81.524 39.492 80.876 39.528 80.48 39.528H78.464ZM126.308 56.088C126.092 56.088 125.84 56.088 125.84 55.836C125.84 55.62 125.912 55.44 125.912 55.26C125.984 54.756 126.02 54.288 126.056 53.784C126.2 52.452 126.236 51.084 126.308 49.716C123.032 51.12 119.72 52.38 116.264 53.352C115.688 53.532 113.636 54.252 113.24 54.252C113.024 54.252 112.736 53.892 112.448 53.568L111.512 52.416C111.368 52.236 110.792 51.804 110.792 51.552C110.792 51.3 111.368 51.3 111.512 51.3C112.088 51.192 112.664 51.084 113.24 50.94C115.076 50.472 116.948 50.076 118.712 49.572C121.088 48.888 123.464 48.168 125.732 47.268C123.896 47.268 122.024 47.304 120.152 47.34C119 47.376 117.848 47.412 116.696 47.52C116.192 47.556 115.508 47.7 115.004 47.7C114.716 47.7 114.788 47.52 114.788 47.232L114.752 45.288C114.752 44.928 114.752 44.64 115.184 44.64C115.364 44.64 115.544 44.64 115.724 44.676C117.848 44.856 120.044 44.784 122.204 44.784C123.536 44.784 124.868 44.784 126.2 44.748V43.272C124.328 43.308 122.348 43.344 120.548 43.416C120.08 43.416 119.396 43.488 118.928 43.56C118.604 43.596 118.064 43.668 117.776 43.668C117.416 43.668 117.488 43.38 117.524 43.092V41.22C117.524 40.896 117.632 40.752 117.92 40.752C118.424 40.752 118.928 40.86 119.432 40.86H126.2V39.24C124.004 39.24 121.772 39.276 119.576 39.348C118.964 39.384 118.388 39.42 117.776 39.492C117.416 39.564 117.02 39.672 116.624 39.672C116.3 39.672 116.264 39.492 116.228 39.204V37.296C116.228 36.792 116.228 36.54 116.552 36.54C116.804 36.54 117.38 36.612 117.668 36.648C118.964 36.648 120.26 36.684 121.52 36.684C121.232 35.928 120.872 35.208 120.512 34.452C118.784 34.488 117.128 34.524 115.652 34.632C114.932 34.668 113.852 34.848 113.456 34.848C113.06 34.848 113.204 34.524 113.168 34.092C113.132 33.48 113.168 32.796 113.168 32.184C113.168 31.86 113.168 31.464 113.492 31.464C113.816 31.464 114.644 31.572 115.148 31.572C117.992 31.752 120.836 31.68 123.68 31.68C123.572 30.06 123.5 28.476 123.248 26.856C123.212 26.568 122.96 25.344 122.996 25.02C123.032 24.66 123.5 24.66 123.824 24.66C124.544 24.66 125.264 24.588 126.02 24.588C126.596 24.588 126.956 24.588 126.956 25.092C126.956 25.884 126.884 26.712 126.884 27.54C126.884 28.908 126.956 30.312 126.956 31.68H128.972C129.224 29.592 129.332 27.504 129.332 25.416C129.332 24.984 129.26 24.588 129.836 24.588C130.628 24.588 131.78 24.66 132.716 24.768C133.112 24.804 133.256 24.804 133.292 25.236C133.328 25.488 133.184 26.208 133.076 27.144C132.86 28.692 132.68 30.024 132.428 31.644C134.876 31.644 137.252 31.608 139.592 31.572C140.636 31.536 142.292 31.32 142.724 31.32C142.904 31.32 143.048 31.32 143.048 31.572C143.048 31.824 142.976 32.112 142.94 32.364L142.688 33.912C142.616 34.524 142.616 34.776 142.22 34.776C141.572 34.776 140.744 34.668 140.06 34.668L137.036 34.524C136.028 34.488 135.452 34.452 134.876 34.452C134.66 34.956 134.192 35.892 133.796 36.684C134.66 36.684 135.56 36.648 136.424 36.612C137.324 36.576 138.224 36.432 139.124 36.432C139.412 36.432 139.556 36.432 139.556 36.792C139.556 36.972 139.412 37.584 139.304 38.196C139.268 38.484 139.232 38.808 139.16 39.024C139.124 39.276 139.052 39.456 138.656 39.456C137.288 39.456 135.92 39.276 134.588 39.276C133.004 39.276 131.42 39.24 129.836 39.24V40.824H133.724C134.588 40.824 135.488 40.788 136.352 40.752C136.856 40.716 137.36 40.644 137.828 40.644C138.08 40.644 138.332 40.608 138.332 40.932C138.332 41.148 138.188 41.832 138.08 42.444L137.972 43.236C137.9 43.452 137.828 43.596 137.54 43.596C136.964 43.596 136.424 43.488 135.848 43.452C134.984 43.416 134.156 43.344 133.292 43.308C131.996 43.272 131.204 43.272 129.872 43.272V44.748C131.168 44.784 132.428 44.82 133.652 44.82C135.452 44.82 137.216 44.748 139.016 44.64C139.664 44.604 140.276 44.424 140.924 44.424C141.176 44.424 141.248 44.532 141.212 44.784C141.212 45.072 141.068 45.972 140.96 46.692C140.852 47.232 140.852 47.556 140.564 47.592C140.384 47.592 139.736 47.52 138.836 47.484C137.54 47.412 135.776 47.34 134.624 47.34C133.328 47.304 132.032 47.304 130.772 47.268C133.004 48.204 135.128 48.96 137.432 49.608C139.232 50.148 141.104 50.58 142.904 50.94C143.48 51.084 144.056 51.192 144.632 51.264C144.776 51.3 145.352 51.3 145.352 51.552C145.352 51.876 144.848 52.272 144.632 52.488C144.416 52.74 143.984 53.28 143.624 53.748C143.372 54.036 143.192 54.54 142.94 54.504C142.724 54.504 142.364 54.432 141.86 54.288C141.032 54.036 140.42 53.892 139.556 53.604C137.792 53.064 136.1 52.38 134.408 51.696C132.824 51.084 131.312 50.4 129.8 49.68C129.836 50.868 129.908 52.056 129.944 53.208C129.98 54.072 130.16 54.972 130.16 55.8C130.16 56.088 129.728 56.088 129.548 56.088H126.308ZM118.856 31.104C118.604 31.068 118.496 30.744 118.424 30.528C117.992 29.52 117.524 28.368 117.092 27.432C116.912 27.072 116.66 26.748 116.624 26.532C116.624 26.388 116.696 26.244 117.056 26.136C117.632 25.992 118.28 25.776 118.856 25.668C119.216 25.596 119.396 25.56 119.612 25.56C119.792 25.524 119.972 25.74 120.116 26.028C120.224 26.316 120.44 26.712 120.512 26.928C120.656 27.288 121.304 28.512 121.628 29.376C121.772 29.7 121.844 30.024 121.844 30.132C121.844 30.528 121.448 30.564 121.16 30.6C120.836 30.672 120.152 30.852 119.648 30.96C119.36 31.032 119 31.14 118.856 31.104ZM129.836 36.72C130.232 35.928 130.556 35.208 130.844 34.416C128.828 34.416 126.596 34.38 124.364 34.416C124.688 35.136 125.048 36 125.3 36.684C126.812 36.684 128.324 36.684 129.836 36.72ZM136.928 31.068C136.712 31.068 136.316 30.996 135.992 30.924C135.38 30.78 134.66 30.6 134.444 30.564C134.264 30.528 133.76 30.492 133.76 30.24C133.76 30.024 133.94 29.736 134.048 29.592C134.624 28.548 134.912 27.864 135.344 26.892C135.416 26.676 135.56 26.352 135.668 26.064C135.74 25.74 135.812 25.524 135.956 25.524C136.064 25.524 136.352 25.596 136.748 25.668C137.432 25.848 138.332 26.136 138.62 26.208C138.908 26.316 139.376 26.424 139.34 26.712C139.304 27 139.124 27.288 138.944 27.648C138.692 28.08 138.08 29.448 137.54 30.456C137.396 30.672 137.216 31.104 136.928 31.068ZM162.56 56.52C162.128 56.52 161.876 56.52 161.876 56.088C161.876 55.656 162.02 54.828 162.056 54.216C162.128 53.712 162.128 53.172 162.164 52.668C162.236 51.876 162.236 51.12 162.272 50.328C158.996 51.876 155.72 53.28 152.264 54.396C151.868 54.504 150.788 54.936 149.996 55.188C149.636 55.296 149.348 55.404 149.24 55.404C149.024 55.404 148.772 55.116 148.52 54.756C148.124 54.252 147.656 53.568 147.44 53.316C147.08 52.812 146.792 52.632 146.792 52.344C146.792 52.128 147.368 52.092 147.512 52.056C148.088 51.984 148.664 51.84 149.24 51.732C151.076 51.3 152.948 50.796 154.712 50.256C157.232 49.5 159.716 48.492 162.128 47.412C160.292 47.412 158.42 47.484 156.584 47.556C155.612 47.592 154.568 47.628 153.56 47.736C153.308 47.772 152.588 47.916 152.3 47.916C152.048 47.916 152.012 47.592 152.012 47.376C151.976 46.692 152.012 45.936 152.012 45.252C152.012 45.036 151.94 44.388 152.264 44.388C152.48 44.388 152.804 44.46 153.056 44.496C153.776 44.532 154.46 44.568 155.18 44.568C157.52 44.568 159.86 44.604 162.164 44.604V43.632C162.164 43.308 162.02 42.444 162.056 42.192C162.092 41.94 162.776 42.012 162.956 42.012C163.892 41.976 164.972 42.012 165.476 42.012C165.656 42.012 165.98 42.012 165.98 42.264C165.98 42.66 165.872 43.38 165.872 43.848V44.604C167.852 44.568 169.796 44.604 171.776 44.46C172.82 44.388 173.9 44.352 174.944 44.244C175.268 44.208 175.556 44.1 175.88 44.1C176.132 44.1 176.168 44.136 176.168 44.352C176.168 44.424 176.06 44.712 176.024 45.108L175.808 46.872C175.772 47.232 175.808 47.52 175.7 47.664C175.592 47.808 175.304 47.772 175.124 47.772C174.116 47.664 173.18 47.52 172.1 47.52C170.156 47.52 168.248 47.448 166.304 47.412C168.608 48.456 170.984 49.428 173.432 50.22C175.232 50.796 177.068 51.3 178.904 51.732C179.48 51.84 179.948 51.948 180.524 52.02C180.704 52.056 181.28 52.092 181.28 52.38C181.28 52.668 180.812 53.1 180.632 53.316C180.308 53.712 179.948 54.108 179.624 54.648C179.372 54.972 179.156 55.476 178.904 55.476C178.58 55.476 178.076 55.296 177.788 55.224C175.268 54.432 172.82 53.568 170.408 52.524C168.824 51.84 167.312 51.048 165.8 50.256L165.944 53.604C165.98 54.324 166.016 54.972 166.088 55.656L166.124 56.16C166.16 56.376 165.836 56.52 165.476 56.52H162.56ZM163.964 38.484C164.54 38.052 165.116 37.584 165.584 37.044C163.964 37.044 162.308 37.044 160.652 37.08L159.968 37.872C161.336 38.088 162.668 38.268 163.964 38.484ZM154.136 43.92C153.884 43.92 153.848 43.596 153.704 43.308C153.488 42.912 153.236 42.3 153.02 41.832C152.876 41.544 152.696 41.292 152.696 41.22C152.696 40.932 153.38 41.04 153.596 41.04C155.936 41.04 158.708 40.68 161.048 39.852C159.5 39.78 157.16 39.636 156.476 39.6C155.324 39.6 154.82 39.6 154.82 39.42C154.82 39.276 155.072 38.988 155.144 38.916C155.756 38.304 156.26 37.764 156.728 37.188C155.972 37.224 155.252 37.224 154.496 37.26C153.272 37.332 152.084 37.368 150.896 37.512C150.356 37.548 149.996 37.656 149.636 37.656C149.348 37.656 149.312 37.548 149.312 37.26V34.74C149.312 34.38 149.42 34.308 149.78 34.308C150.428 34.308 151.112 34.416 151.832 34.416H158.816C158.996 34.128 159.212 33.804 159.392 33.48C159.572 33.192 159.788 32.724 159.968 32.436C160.256 31.968 160.256 31.428 160.616 31.428C160.724 31.428 160.976 31.5 161.3 31.572C161.948 31.716 162.704 31.932 162.992 31.968C163.244 32.04 164.036 32.184 164.072 32.4C164.108 32.58 163.712 33.084 163.64 33.192L162.776 34.38H167.456C167.636 34.02 167.816 33.624 167.96 33.192C168.068 32.832 168.14 32.472 168.392 32.436C168.608 32.436 168.968 32.508 169.22 32.544L171.056 32.76C171.488 32.796 171.776 32.868 171.776 33.12C171.776 33.3 171.704 33.48 171.524 33.768C171.452 33.984 171.344 34.164 171.236 34.38C173.144 34.344 175.052 34.308 176.96 34.164C177.464 34.164 178.004 33.984 178.508 33.984C178.724 33.984 178.796 34.164 178.796 34.344C178.796 34.452 178.724 34.74 178.688 35.064C178.616 35.712 178.436 36.504 178.4 37.152C178.364 37.404 178.256 37.656 178.004 37.692C177.716 37.692 177.392 37.62 177.104 37.584C176.672 37.548 176.276 37.476 175.88 37.476C173.72 37.476 171.596 37.26 169.472 37.152C168.896 37.872 168.248 38.52 167.564 39.096C168.392 39.24 169.22 39.384 170.084 39.6C170.84 39.78 171.56 39.924 172.316 40.14C172.964 40.284 173.576 40.428 174.224 40.608C174.476 40.644 175.34 40.788 175.34 40.968C175.376 41.22 175.052 41.472 174.8 41.796C174.476 42.156 174.224 42.48 173.864 42.948C173.684 43.164 173.324 43.704 173.108 43.704C172.856 43.668 172.568 43.488 172.316 43.38C171.596 43.056 171.38 42.948 170.696 42.696C169.04 42.012 167.384 41.4 165.656 40.86C165.512 40.824 165.332 40.752 165.116 40.716C162.596 42.12 159.716 42.84 156.836 43.452C156.152 43.596 155.468 43.776 154.784 43.848C154.496 43.884 154.316 43.92 154.136 43.92ZM152.48 33.408C152.192 33.408 151.94 33.372 151.904 33.012C151.904 32.724 152.048 31.5 152.048 30.744C152.048 30.24 152.084 29.7 152.012 29.196C152.012 28.944 151.94 28.656 151.94 28.44C151.94 28.08 152.192 28.08 152.48 28.08C153.236 28.08 154.028 28.224 154.784 28.224C156.512 28.224 158.24 28.296 159.968 28.296C163.136 28.296 166.304 28.332 169.472 28.26C171.092 28.224 172.712 28.152 174.332 28.116C174.62 28.08 175.052 28.044 175.376 28.044C175.808 28.044 175.988 28.008 175.988 28.512L175.952 29.592C175.952 30.168 175.988 30.744 175.988 31.32C175.988 31.86 176.06 32.436 176.06 33.012C176.06 33.372 175.412 33.372 175.16 33.372C174.08 33.372 173.576 33.336 173.252 33.372C172.604 33.408 172.46 33.264 172.496 32.868V31.284C166.628 31.356 161.12 31.284 155.432 31.284V33.012C155.432 33.48 155.144 33.408 154.82 33.408H152.48ZM162.236 27.432L160.976 27.36C160.724 27.36 160.328 27.396 160.328 27.072C160.328 26.964 160.328 26.748 160.4 26.496C160.508 25.74 160.832 24.516 161.12 23.724C161.192 23.58 161.444 23.004 161.624 23.004C161.804 23.004 162.02 23.076 162.416 23.256C163.676 23.76 165.944 24.732 167.168 25.524C167.672 25.848 167.996 26.064 167.996 26.28C167.996 26.604 167.6 26.712 167.492 26.748C165.764 27.324 164.036 27.432 162.236 27.432ZM189.884 54.612C189.632 54.612 187.508 54.54 186.824 54.468C186.356 54.396 186.068 54.468 186.068 54.036C186.068 53.856 186.14 53.604 186.212 53.208C186.356 52.452 186.428 51.48 186.464 51.192C186.716 49.248 186.968 47.052 187.04 44.856C187.112 42.228 187.076 35.316 186.86 32.904C186.824 32.472 186.752 32.184 186.716 31.86C186.68 31.644 186.608 31.392 186.608 31.248C186.572 30.744 186.824 30.78 187.22 30.78C187.508 30.78 187.868 30.78 188.048 30.816C188.588 30.888 188.912 30.888 189.308 30.888C190.532 30.96 191.828 31.104 193.844 31.104H197.84C197.912 29.916 197.948 28.728 197.948 27.792C197.948 26.856 197.804 25.992 197.804 25.236C197.804 24.696 197.876 24.588 198.38 24.588C198.812 24.588 200.432 24.624 201.296 24.732C201.62 24.768 202.052 24.768 202.052 25.272C202.052 25.74 201.98 26.568 201.944 27.108C201.872 28.368 201.8 29.7 201.692 31.104C204.14 31.104 207.128 31.032 209.324 31.032C209.9 31.032 210.62 30.96 211.268 30.96C211.592 30.96 212.348 30.888 212.636 30.888C213.068 30.888 213.104 31.104 213.104 31.5C213.104 31.716 213.032 32.544 212.96 32.868C212.924 33.48 212.924 34.92 212.924 35.604C212.924 37.476 212.996 43.236 213.068 45.108L213.248 50.94C213.284 51.876 213.392 52.992 213.392 53.244C213.392 54.36 213.356 54.612 212.564 54.612C212.096 54.648 211.34 54.684 210.872 54.684C210.548 54.684 210.116 54.648 209.864 54.612C209.108 54.504 209.036 54.288 209.036 53.388C209.072 52.596 209.108 51.768 209.108 51.048C209.144 50.148 209.18 49.212 209.144 48.024C209.072 46.008 209.144 43.884 209.144 41.76L209.108 34.776C206.768 34.776 204.176 34.776 201.224 34.812C201.116 35.352 200.972 35.892 200.864 36.396C203.276 38.52 203.852 38.916 206.732 41.112C207.2 41.472 207.344 41.58 207.92 41.94C208.136 42.048 208.712 42.192 208.676 42.624C208.64 42.948 208.424 43.056 208.244 43.2C208.028 43.38 207.776 43.524 207.668 43.632C206.912 44.136 206.516 44.532 205.904 44.928C205.58 45.18 205.256 45.576 204.824 45.576C204.644 45.576 204.392 45.36 204.104 45.072C203.852 44.784 203.528 44.424 203.204 44.028C202.052 42.768 201.548 42.192 201.044 41.616C200.648 41.184 200.216 40.752 199.46 40.032C198.812 41.328 197.984 42.588 196.796 43.776C196.544 44.028 195.716 44.712 195.068 45.18C194.744 45.396 194.528 45.648 194.348 45.648C193.88 45.648 193.7 45.216 193.376 45C192.836 44.532 192.368 44.136 191.864 43.74C191.612 43.524 191.144 43.344 191.144 42.948C191.144 42.804 191.324 42.66 191.648 42.48L192.584 41.94C193.556 41.328 194.456 40.5 195.212 39.636C196.256 38.412 196.976 36.72 197.372 34.848C194.78 34.848 192.368 34.812 190.928 34.848C190.892 36.108 190.892 41.004 190.892 41.76C190.892 44.892 190.856 47.988 190.82 51.084C190.784 51.732 190.784 53.064 190.784 53.676C190.784 54.396 190.82 54.612 189.884 54.612Z" fill="black"/>
<g clip-path="url(#clip0_35_16)">
<path d="M65.4877 41.5276C64.1948 36.4895 60.8979 33.8435 59.6645 32.782C58.3886 31.6849 57.4775 30.4042 55.8437 27.4008C54.2605 24.491 45.3979 23.7539 40.3402 23.6612V23.647C40.1084 23.647 39.8554 23.6488 39.5908 23.6505C39.3262 23.6479 39.0731 23.647 38.8414 23.647V23.6612C33.7836 23.7539 24.6831 24.3724 23.3378 27.4008C21.8461 30.7598 19.3945 33.6635 18.1025 34.6509C16.8097 35.6384 14.9858 36.4886 13.6939 41.5276C12.4028 46.5604 8.46567 60.001 39.6449 60.001C67.8167 60.001 66.7787 46.5604 65.4877 41.5276Z" fill="#00536E"/>
<path d="M58.9399 11.471C57.5246 3.93659 51.6082 0.298603 40.3126 0.0143018C40.3126 0.0143018 39.8358 -0.00263152 39.5899 4.21544e-05C39.3448 -0.00263152 38.8671 0.0143018 38.8671 0.0143018C27.5715 0.298603 21.6561 3.93659 20.2398 11.471C18.7631 19.3245 23.4879 28.8089 23.4879 28.8089L25.1119 27.9943C25.1119 27.9943 20.4706 16.9512 22.6763 11.1751C25.6758 3.31808 34.6866 2.6657 39.5899 2.655C44.494 2.6657 53.5048 3.31808 56.5043 11.1742C58.71 16.9503 54.0687 27.9934 54.0687 27.9934L55.6927 28.808C55.6927 28.808 60.4175 19.3245 58.9408 11.4701L58.9399 11.471Z" fill="#00536E"/>
<path d="M39.5899 25.5488C41.5877 25.5488 43.2073 23.9232 43.2073 21.918C43.2073 19.9127 41.5877 18.2871 39.5899 18.2871C37.592 18.2871 35.9724 19.9127 35.9724 21.918C35.9724 23.9232 37.592 25.5488 39.5899 25.5488Z" fill="#00536E"/>
<path d="M16.1419 37.4028C15.3303 37.1061 12.8201 35.7728 11.7866 34.7354C10.753 33.698 9.49832 32.2908 9.42463 31.5493C9.35093 30.8078 9.27723 30.4379 8.09626 30.4379C6.9153 30.4379 2.17101 30.1322 2.02361 31.0956C1.87621 32.0591 2.19054 32.8826 3.29781 33.3273C4.40508 33.772 4.92186 36.5874 5.06926 37.4768C5.21666 38.3663 4.62617 47.3311 13.1895 48.0717L16.1419 37.4028Z" fill="#00536E"/>
<path d="M8.12112 30.5592C8.12112 30.5592 5.40934 30.4443 4.32694 30.5334C3.24453 30.6225 2.2012 30.8524 2.40454 31.3132C2.60788 31.774 3.41058 32.3996 5.05239 32.4246C6.6942 32.4495 8.96112 32.0413 8.97355 31.4148C8.98598 30.7883 8.48962 30.5583 8.12024 30.5583L8.12112 30.5592Z" fill="#33758B"/>
<path d="M40.191 33.0333C30.611 33.0333 25.6234 30.5334 25.4165 30.4274C24.9797 30.2037 24.8065 29.6663 25.0294 29.2287C25.2514 28.7911 25.7868 28.6155 26.2228 28.8392C26.2903 28.8731 31.102 31.2509 40.191 31.2509C49.3271 31.2509 53.5874 28.882 53.6301 28.8579C54.0563 28.6164 54.5979 28.7652 54.8403 29.193C55.0818 29.6208 54.9327 30.1645 54.5065 30.4078C54.3191 30.5147 49.7906 33.0333 40.191 33.0333Z" fill="#33758B"/>
<path d="M14.2293 48.693C13.9274 48.693 13.6326 48.5379 13.4666 48.259C13.2153 47.8365 13.3529 47.2893 13.7729 47.0362C18.9248 43.9463 16.1686 39.0152 16.0487 38.8075C15.8036 38.3824 15.9475 37.8379 16.3701 37.5901C16.7928 37.3441 17.3345 37.4849 17.5822 37.9092C18.915 40.1943 20.0249 45.3625 14.6839 48.5665C14.541 48.652 14.3838 48.693 14.2293 48.693Z" fill="#33758B"/>
<path d="M40.92 52.6929C27.8886 52.6929 18.2828 48.432 18.1372 48.366C17.6905 48.1628 17.4925 47.6352 17.6941 47.1869C17.8956 46.7396 18.4213 46.5381 18.8688 46.7422C19.0837 46.8403 40.6341 56.3737 62.7226 46.2984C63.1657 46.0943 63.6949 46.2922 63.8982 46.7413C64.1016 47.1887 63.9036 47.7172 63.4569 47.9213C55.5826 51.5139 47.7758 52.6938 40.9191 52.6938L40.92 52.6929Z" fill="#33758B"/>
<path d="M22.3931 39.9232C22.9742 39.9232 23.4453 39.4504 23.4453 38.8671C23.4453 38.2839 22.9742 37.811 22.3931 37.811C21.8119 37.811 21.3409 38.2839 21.3409 38.8671C21.3409 39.4504 21.8119 39.9232 22.3931 39.9232Z" fill="#33758B"/>
<path d="M37.0965 37.7782C37.6776 37.7782 38.1487 37.3054 38.1487 36.7221C38.1487 36.1388 37.6776 35.666 37.0965 35.666C36.5154 35.666 36.0443 36.1388 36.0443 36.7221C36.0443 37.3054 36.5154 37.7782 37.0965 37.7782Z" fill="#33758B"/>
<path d="M33.7605 43.2753C34.3416 43.2753 34.8127 42.8025 34.8127 42.2192C34.8127 41.6359 34.3416 41.1631 33.7605 41.1631C33.1794 41.1631 32.7083 41.6359 32.7083 42.2192C32.7083 42.8025 33.1794 43.2753 33.7605 43.2753Z" fill="#33758B"/>
<path d="M30.0001 46.9123C30.5812 46.9123 31.0523 46.4394 31.0523 45.8561C31.0523 45.2729 30.5812 44.8 30.0001 44.8C29.419 44.8 28.9479 45.2729 28.9479 45.8561C28.9479 46.4394 29.419 46.9123 30.0001 46.9123Z" fill="#33758B"/>
<path d="M31.2032 37.8236C31.7844 37.8236 32.2555 37.3508 32.2555 36.7675C32.2555 36.1843 31.7844 35.7114 31.2032 35.7114C30.6221 35.7114 30.151 36.1843 30.151 36.7675C30.151 37.3508 30.6221 37.8236 31.2032 37.8236Z" fill="#33758B"/>
<path d="M23.2197 45.7565C23.8008 45.7565 24.2719 45.2837 24.2719 44.7004C24.2719 44.1171 23.8008 43.6443 23.2197 43.6443C22.6386 43.6443 22.1675 44.1171 22.1675 44.7004C22.1675 45.2837 22.6386 45.7565 23.2197 45.7565Z" fill="#33758B"/>
<path d="M26.8701 41.4972C27.4512 41.4972 27.9223 41.0244 27.9223 40.4411C27.9223 39.8578 27.4512 39.385 26.8701 39.385C26.289 39.385 25.8179 39.8578 25.8179 40.4411C25.8179 41.0244 26.289 41.4972 26.8701 41.4972Z" fill="#33758B"/>
<path d="M25.5905 35.8656C26.1717 35.8656 26.6428 35.3928 26.6428 34.8095C26.6428 34.2262 26.1717 33.7534 25.5905 33.7534C25.0094 33.7534 24.5383 34.2262 24.5383 34.8095C24.5383 35.3928 25.0094 35.8656 25.5905 35.8656Z" fill="#33758B"/>
<path d="M35.3073 49.0441C35.8884 49.0441 36.3595 48.5713 36.3595 47.988C36.3595 47.4047 35.8884 46.9319 35.3073 46.9319C34.7262 46.9319 34.2551 47.4047 34.2551 47.988C34.2551 48.5713 34.7262 49.0441 35.3073 49.0441Z" fill="#33758B"/>
<path d="M39.7941 43.5221C40.3752 43.5221 40.8463 43.0493 40.8463 42.466C40.8463 41.8827 40.3752 41.4099 39.7941 41.4099C39.213 41.4099 38.7419 41.8827 38.7419 42.466C38.7419 43.0493 39.213 43.5221 39.7941 43.5221Z" fill="#33758B"/>
<path d="M54.7586 35.4093C55.3398 35.4093 55.8108 34.9365 55.8108 34.3532C55.8108 33.77 55.3398 33.2971 54.7586 33.2971C54.1775 33.2971 53.7064 33.77 53.7064 34.3532C53.7064 34.9365 54.1775 35.4093 54.7586 35.4093Z" fill="#33758B"/>
<path d="M52.4029 41.3947C52.984 41.3947 53.4551 40.9218 53.4551 40.3386C53.4551 39.7553 52.984 39.2825 52.4029 39.2825C51.8218 39.2825 51.3507 39.7553 51.3507 40.3386C51.3507 40.9218 51.8218 41.3947 52.4029 41.3947Z" fill="#33758B"/>
<path d="M47.275 48.0165C47.8561 48.0165 48.3272 47.5437 48.3272 46.9604C48.3272 46.3771 47.8561 45.9043 47.275 45.9043C46.6939 45.9043 46.2228 46.3771 46.2228 46.9604C46.2228 47.5437 46.6939 48.0165 47.275 48.0165Z" fill="#33758B"/>
<path d="M52.5157 46.0094C53.0968 46.0094 53.5679 45.5366 53.5679 44.9533C53.5679 44.37 53.0968 43.8972 52.5157 43.8972C51.9346 43.8972 51.4635 44.37 51.4635 44.9533C51.4635 45.5366 51.9346 46.0094 52.5157 46.0094Z" fill="#33758B"/>
<path d="M48.702 37.2987C49.2831 37.2987 49.7542 36.8259 49.7542 36.2426C49.7542 35.6594 49.2831 35.1865 48.702 35.1865C48.1208 35.1865 47.6497 35.6594 47.6497 36.2426C47.6497 36.8259 48.1208 37.2987 48.702 37.2987Z" fill="#33758B"/>
<path d="M46.7032 42.4848C47.2843 42.4848 47.7554 42.0119 47.7554 41.4287C47.7554 40.8454 47.2843 40.3726 46.7032 40.3726C46.1221 40.3726 45.651 40.8454 45.651 41.4287C45.651 42.0119 46.1221 42.4848 46.7032 42.4848Z" fill="#33758B"/>
<path d="M42.9179 39.0731C43.499 39.0731 43.9701 38.6003 43.9701 38.017C43.9701 37.4338 43.499 36.9609 42.9179 36.9609C42.3368 36.9609 41.8657 37.4338 41.8657 38.017C41.8657 38.6003 42.3368 39.0731 42.9179 39.0731Z" fill="#33758B"/>
<path d="M57.3683 40.017C57.9494 40.017 58.4205 39.5442 58.4205 38.9609C58.4205 38.3776 57.9494 37.9048 57.3683 37.9048C56.7872 37.9048 56.3161 38.3776 56.3161 38.9609C56.3161 39.5442 56.7872 40.017 57.3683 40.017Z" fill="#33758B"/>
<path d="M57.727 45.9428C58.3081 45.9428 58.7792 45.4699 58.7792 44.8867C58.7792 44.3034 58.3081 43.8306 57.727 43.8306C57.1459 43.8306 56.6748 44.3034 56.6748 44.8867C56.6748 45.4699 57.1459 45.9428 57.727 45.9428Z" fill="#33758B"/>
<path d="M62.0451 42.6381C62.6262 42.6381 63.0973 42.1653 63.0973 41.582C63.0973 40.9987 62.6262 40.5259 62.0451 40.5259C61.464 40.5259 60.9929 40.9987 60.9929 41.582C60.9929 42.1653 61.464 42.6381 62.0451 42.6381Z" fill="#33758B"/>
<path d="M40.9484 48.619C41.5295 48.619 42.0006 48.1462 42.0006 47.5629C42.0006 46.9797 41.5295 46.5068 40.9484 46.5068C40.3673 46.5068 39.8962 46.9797 39.8962 47.5629C39.8962 48.1462 40.3673 48.619 40.9484 48.619Z" fill="#33758B"/>
</g>
<defs>
<clipPath id="clip0_35_16">
<rect width="66" height="60" fill="white"/>
</clipPath>
</defs>
</svg>
