<svg width="159" height="452" viewBox="0 0 159 452" fill="none" xmlns="http://www.w3.org/2000/svg">
<rect width="65" height="356" transform="translate(94)" fill="white"/>
<path d="M111.668 54.784C111.188 54.784 110.9 54.784 110.9 54.256C110.9 53.872 110.996 53.536 111.044 53.152C111.14 52.336 111.188 51.472 111.236 50.608C111.38 47.152 111.572 43.696 111.572 40.288C111.572 36.4 111.572 32.512 111.62 28.624C110.372 29.92 109.316 31.024 108.5 31.744C107.972 32.224 107.588 32.464 107.396 32.464C106.964 32.464 106.868 32.32 106.532 32.032L103.508 29.728C103.316 29.584 102.884 29.344 102.884 29.056C102.884 28.768 103.412 28.432 103.604 28.24C104.324 27.712 104.996 27.184 105.716 26.608C108.212 24.544 111.236 21.232 113.3 18.688C114.74 17.008 115.844 15.28 116.9 13.312C117.092 13.024 117.236 12.496 117.62 12.496C117.764 12.496 118.148 12.688 118.628 13.024C119.54 13.6 120.788 14.512 120.932 14.656C121.364 14.944 122.132 15.232 122.132 15.808C122.132 16 121.988 16.288 121.748 16.672C121.46 17.152 120.98 17.776 120.452 18.448C120.116 18.88 118.388 20.944 116.324 23.344C116.324 28 116.42 32.656 116.468 37.312C116.564 41.68 116.612 46.096 116.852 50.416C116.9 51.424 116.852 52.384 116.996 53.344C117.044 53.632 117.092 53.92 117.092 54.208C117.092 54.784 116.612 54.736 116.132 54.736C114.788 54.784 112.964 54.784 111.668 54.784ZM121.556 50.656C121.172 50.656 120.356 50.752 120.356 50.032C120.356 49.648 120.548 49.264 120.692 48.928C122.324 45.52 124.34 42.448 126.212 39.232C127.124 37.648 128.084 36.112 129.092 34.48L125.06 34.624C123.476 34.72 121.988 34.768 120.404 34.912C119.972 34.96 119.444 35.104 119.06 35.056C118.724 35.056 118.724 34.768 118.724 34.144C118.772 32.992 118.676 31.312 118.676 30.592C118.676 30.016 118.676 29.776 119.108 29.776H120.068C120.596 29.824 121.124 29.872 121.652 29.872C122.756 29.92 123.86 29.968 124.964 29.968L133.988 29.92C136.532 29.92 139.076 29.968 141.62 29.968C142.916 29.968 144.212 29.824 145.508 29.728C146.132 29.68 146.708 29.632 147.476 29.536C147.716 29.488 147.956 29.488 148.292 29.488C148.484 29.488 148.532 29.68 148.532 29.968C148.532 30.4 148.148 32.56 148.004 34C148.004 34.24 147.908 34.816 147.524 34.864C146.996 34.912 146.18 34.768 145.124 34.72C141.716 34.432 138.212 34.384 134.9 34.384C132.452 38.08 129.908 41.872 127.796 45.616C129.428 45.616 131.204 45.568 132.788 45.568C134.804 45.568 135.812 45.664 137.876 45.568C136.868 43.456 134.996 40.432 133.796 38.512C133.412 37.984 133.172 37.888 133.172 37.552C133.124 37.216 133.604 37.12 133.988 37.024C134.708 36.784 135.38 36.592 136.196 36.4C136.724 36.256 137.156 36.208 137.3 36.208C137.828 36.208 138.02 36.64 138.26 36.928C139.652 38.8 142.628 44.128 143.204 45.184C143.828 46.288 144.356 47.44 144.932 48.64C145.076 48.976 145.268 49.552 145.268 49.936C145.172 50.656 144.596 50.608 144.068 50.608C143.348 50.608 142.148 50.512 141.428 50.464C138.5 50.272 135.476 50.272 132.452 50.272C130.148 50.272 127.844 50.368 125.54 50.464C124.196 50.464 122.9 50.656 121.556 50.656ZM122.708 24.304C122.324 24.304 122.324 23.776 122.324 23.536V19.984C122.324 19.552 122.228 19.072 122.66 19.072C122.9 19.072 123.14 19.12 123.38 19.12C124.388 19.216 125.396 19.216 126.356 19.216H131.972C134.18 19.216 136.436 19.264 138.692 19.216C139.892 19.168 141.092 19.072 142.292 19.024C142.868 19.024 143.492 18.928 144.116 18.928C144.26 18.928 144.404 18.976 144.404 19.216C144.404 19.312 144.404 19.696 144.308 20.176C144.164 21.136 144.068 22.384 143.924 23.296C143.876 23.584 143.828 24.256 143.348 24.256L141.428 24.112C139.316 23.968 135.572 24.016 133.556 24.016C129.86 24.016 127.988 23.968 124.196 24.208C123.716 24.256 123.188 24.304 122.708 24.304ZM126.644 102.784C126.356 102.784 125.828 102.592 125.204 102.304C124.292 101.872 123.236 101.392 122.756 101.248C122.372 101.104 121.556 100.816 121.556 100.336C121.556 100 121.988 99.472 122.132 99.184C123.524 96.88 124.772 93.952 125.684 91.456C126.5 89.248 127.316 86.8 128.036 84.352C127.268 84.4 126.452 84.4 125.684 84.496C125.3 84.544 124.916 84.592 124.532 84.592C124.292 84.592 123.62 84.592 123.62 84.016C123.62 83.68 123.764 83.152 124.1 82.48C125.012 80.656 126.644 78.112 128.324 75.328C129.14 73.984 129.908 72.88 130.532 71.92C129.812 71.92 129.092 71.968 128.372 71.968C127.22 72.016 126.404 72.16 125.108 72.256C124.676 72.256 124.196 72.4 123.764 72.4C123.476 72.4 123.476 71.968 123.476 71.776V68.752C123.476 68.224 123.428 67.312 123.812 67.312C124.052 67.312 124.916 67.456 125.204 67.456C125.876 67.456 126.452 67.504 127.028 67.504C129.716 67.504 131.732 67.408 134.372 67.408C136.388 67.408 138.404 67.264 140.42 67.264C141.38 67.264 142.244 67.072 143.156 66.976C143.684 66.976 144.02 66.88 144.596 66.928C144.836 66.928 145.268 66.736 145.508 66.736C145.7 66.736 145.748 66.88 145.748 67.168C145.748 67.504 145.364 70.336 145.316 71.008C145.268 71.44 145.22 72.304 144.836 72.352C144.548 72.4 144.164 72.304 143.876 72.256C143.54 72.256 143.156 72.16 142.82 72.16C141.476 72.112 140.372 72.112 139.028 71.968C137.972 71.872 136.82 71.872 135.716 71.872C133.844 74.56 132.308 77.104 130.628 79.984C133.46 79.888 135.38 79.936 138.116 79.936C137.588 78.784 136.724 77.536 135.908 76.288C135.524 75.712 135.284 75.616 135.284 75.28C135.284 74.944 135.62 74.752 136.148 74.656C136.868 74.512 137.204 74.224 138.02 74.08C138.5 73.984 138.98 73.984 139.124 73.984C139.316 73.984 139.46 74.032 139.652 74.128C139.796 74.224 140.084 74.704 140.516 75.328C141.668 77.152 143.54 80.464 143.972 81.232C144.26 81.76 144.788 82.768 144.74 83.488C144.692 84.208 144.356 84.352 143.876 84.352C143.348 84.352 142.724 84.304 142.196 84.304C141.524 84.256 140.468 84.208 139.364 84.208C139.124 86.32 138.788 88.672 138.548 90.544C138.5 91.072 138.404 91.936 138.404 92.464C138.404 93.136 138.932 93.088 139.46 93.088C140.708 93.184 142.916 93.232 143.54 93.232C144.596 93.232 146.036 93.088 147.092 92.992C147.524 92.944 147.908 92.896 148.292 92.896C148.676 92.896 148.868 92.944 148.868 93.376C148.868 93.712 148.484 95.104 148.244 96.352C148.1 97.072 148.004 97.744 147.908 98.128C147.812 98.512 147.716 98.752 147.236 98.752L144.212 98.464C143.108 98.368 142.052 98.272 140.756 98.128C138.836 97.936 137.972 97.84 136.004 97.6C135.62 97.552 134.564 97.456 133.652 97.312C132.98 97.168 132.932 97.12 132.98 96.592C132.98 96.016 133.316 94.624 133.412 93.904C133.796 90.928 134.372 87.28 134.756 84.16H132.884C131.3 89.536 129.716 94.816 128.036 99.808C127.844 100.384 127.604 101.056 127.46 101.632C127.268 102.256 127.172 102.784 126.644 102.784ZM109.556 96.928C109.268 96.928 108.74 96.688 108.164 96.256C107.252 95.584 106.148 94.624 105.428 93.76C104.948 93.232 104.66 92.704 104.66 92.464C104.66 91.984 105.38 91.792 105.716 91.648C107.156 90.832 108.596 89.872 109.94 88.912C110.18 88.72 110.804 88.144 111.044 88.144C111.38 88.144 111.332 88.912 111.332 89.104C111.332 89.872 111.092 93.376 110.516 95.44C110.228 96.304 109.94 96.928 109.556 96.928ZM120.404 95.2C120.068 95.2 119.924 94.96 119.828 94.72C119.444 93.808 118.484 88.912 118.484 87.952C118.484 87.808 118.532 87.568 118.724 87.568C118.916 87.568 119.54 87.856 120.26 88.288C121.364 89.008 122.66 89.968 123.524 90.832C123.812 91.12 124.196 91.504 124.196 91.936C124.196 92.176 124.004 92.56 123.716 92.896C123.236 93.472 122.276 94.24 121.316 94.864C120.932 95.104 120.596 95.2 120.404 95.2ZM113.348 101.776C112.82 101.776 112.244 101.872 112.244 101.2C112.244 100.816 112.34 100.384 112.34 100C112.436 97.84 112.532 95.584 112.58 93.424C112.628 91.792 112.628 90.112 112.628 88.48C112.628 87.76 112.628 87.04 112.676 86.32C110.996 86.368 109.316 86.464 107.684 86.608C107.348 86.608 107.012 86.656 106.676 86.656C106.148 86.656 105.476 86.704 105.476 86.032C105.476 85.504 105.908 84.976 106.196 84.592C106.916 83.776 107.54 82.864 108.212 82.096C109.124 81.088 109.988 80.128 110.852 79.12C109.604 77.536 108.356 75.904 107.06 74.368C106.82 74.08 106.196 73.504 106.196 73.12C106.196 72.448 107.012 71.968 107.444 71.584C109.652 69.616 111.764 67.264 113.54 64.96C114.02 64.336 114.5 63.664 114.932 62.992C115.076 62.752 115.268 61.984 115.652 61.984C115.892 61.984 116.276 62.176 116.66 62.512C117.428 63.184 118.292 64.192 118.724 64.576C119.012 64.816 119.588 65.104 119.588 65.536C119.588 66.064 119.06 66.304 118.724 66.64C116.42 68.944 113.828 70.96 111.524 73.408C112.148 74.176 112.916 74.992 113.636 75.808C114.788 74.368 115.892 72.88 116.996 71.44C117.572 70.672 118.1 69.904 118.532 69.136C118.676 68.896 118.916 68.368 119.204 68.368C119.396 68.368 119.732 68.608 120.164 68.992C120.884 69.568 121.796 70.432 122.324 71.104C122.66 71.536 122.9 71.872 122.9 72.016C122.9 72.4 122.372 72.736 122.132 72.976C121.652 73.504 121.124 73.936 120.644 74.464C118.196 76.96 115.844 79.504 113.444 82H118.532C118.244 80.992 118.1 80.464 117.764 79.504C117.572 78.88 117.38 78.352 117.38 78.112C117.476 77.728 117.956 77.68 118.244 77.632C118.868 77.536 120.068 77.296 120.644 77.296C120.884 77.296 121.076 77.488 121.22 77.68C121.508 78.064 123.812 85.024 123.812 85.6C123.812 86.176 123.332 86.32 122.852 86.32C120.98 86.32 119.156 86.224 117.332 86.224C117.38 88.672 117.38 90.976 117.38 93.472C117.38 95.872 117.572 98.416 117.572 100.816C117.572 101.776 117.188 101.776 116.324 101.776H113.348ZM132.164 65.92C131.78 65.92 129.956 65.92 129.764 65.68C129.668 65.584 129.668 65.44 129.668 65.296C129.668 64.768 130.148 62.464 130.628 60.976C130.868 60.208 131.156 59.68 131.348 59.68C131.54 59.68 132.116 59.92 132.836 60.256C134.564 61.072 137.204 62.464 138.596 63.472C139.172 63.856 139.556 64.192 139.556 64.384C139.556 64.672 138.932 64.912 138.692 65.008C136.724 65.776 134.276 65.92 132.164 65.92ZM126.452 146.272C125.78 146.272 125.684 146.08 125.348 145.552C124.724 144.592 124.34 143.68 123.764 142.624C123.572 142.24 123.332 141.904 123.38 141.712C123.38 141.184 124.244 141.184 124.628 141.136C127.028 140.848 130.388 140.176 132.5 139.12C136.436 137.152 138.596 134.944 138.596 130.288C138.596 124 134.564 120.304 128.324 120.304C126.932 120.304 125.492 120.448 124.148 120.688C124.964 120.88 126.068 121.072 126.98 121.312C127.7 121.552 128.228 121.744 128.228 122.272C128.228 122.992 127.94 123.952 127.844 124.672C126.644 130.192 124.82 137.776 120.644 141.808C119.492 142.912 118.052 143.92 116.42 143.92C115.508 143.92 114.644 143.632 113.876 143.2C110.132 141.088 109.172 136.816 109.172 132.832C109.172 129.76 110.276 126.064 112.1 123.52C115.844 118.288 121.844 116.224 128.084 116.224C130.916 116.224 133.892 116.608 136.436 118C141.14 120.544 143.636 124.864 143.636 130.192C143.636 137.056 140.18 141.136 134.18 144.064C132.308 144.976 128.516 146.272 126.452 146.272ZM116.324 138.352C117.044 138.4 117.764 137.44 118.1 137.008C120.452 133.984 122.42 127.792 122.948 123.28C123.044 122.464 123.092 121.696 123.092 121.024C117.62 122.608 114.068 127.264 114.068 132.976C114.068 134.32 114.116 136.336 114.884 137.44C115.172 137.872 115.604 138.352 116.324 138.352ZM115.076 198.736C114.452 198.736 114.308 198.448 114.308 197.92C114.308 197.68 114.356 197.488 114.404 197.296C114.596 194.416 114.788 191.536 114.884 188.656C114.932 186.64 114.98 184.672 115.076 182.704C115.076 181.888 115.124 181.12 115.172 180.304C112.82 182.944 110.228 185.728 108.164 188.464C108.02 188.656 107.444 189.712 107.012 189.712C106.436 189.712 106.34 189.424 105.956 188.896C105.38 188.08 104.804 187.456 104.276 186.688C103.94 186.16 103.7 185.728 103.7 185.488C103.7 185.104 104.66 184.48 104.996 184.192C105.908 183.376 106.868 182.512 107.684 181.6C110.036 179.104 112.148 176.992 114.356 174.448C113.012 174.448 111.668 174.496 110.372 174.592C109.46 174.688 108.644 174.64 107.732 174.784C107.156 174.832 106.484 175.024 105.908 175.024C105.428 175.024 105.524 174.304 105.524 173.968L105.572 171.136C105.572 170.608 105.428 169.744 105.956 169.744C106.676 169.744 107.54 169.984 108.212 169.984H115.076V165.328C113.828 165.712 112.628 166.048 111.428 166.48C111.044 166.624 110.564 166.816 110.132 166.816C109.748 166.816 109.604 166.144 109.46 165.808C109.028 164.704 108.884 164.368 108.5 163.504C108.308 162.976 108.068 162.688 108.116 162.304C108.116 161.92 109.076 161.824 109.46 161.728C111.236 161.344 113.156 160.816 114.836 160.192C116.468 159.568 118.052 158.8 119.588 157.984C120.596 157.408 121.124 156.784 121.604 156.784C122.18 156.784 122.18 157.312 122.612 157.936C123.044 158.656 123.428 159.376 123.764 160.096C124.148 160.768 124.436 161.296 124.436 161.488C124.436 161.92 123.284 162.16 122.948 162.304L119.684 163.6V169.984L123.284 169.84C123.956 169.792 124.628 169.744 125.3 169.648C125.684 169.552 126.068 169.456 126.452 169.456C126.788 169.456 126.98 169.552 126.98 169.888C126.98 170.176 126.884 170.512 126.836 170.848C126.692 171.808 126.596 172.768 126.5 173.728C126.404 174.256 126.5 174.736 125.78 174.736C125.06 174.736 124.34 174.592 123.62 174.544C122.132 174.496 120.932 174.496 119.684 174.448V176.608C121.844 178.768 123.812 180.64 126.452 182.464C126.788 182.704 127.412 182.944 127.412 183.376C127.412 183.808 127.124 184.096 126.836 184.432C126.452 184.864 124.916 187.024 124.388 187.024C123.908 187.024 123.284 186.112 122.996 185.824C122.468 185.248 121.892 184.768 121.412 184.192L119.684 182.08V196.432C119.684 196.912 119.78 197.392 119.78 197.824C119.78 198.736 119.3 198.736 118.58 198.736H115.076ZM130.532 185.728C129.38 185.728 129.572 185.152 129.62 184.48C129.62 183.088 129.524 181.216 129.476 179.776C129.38 177.328 129.14 174.88 128.9 172.432C128.804 171.616 128.708 170.896 128.708 170.176C128.708 169.744 128.948 169.648 129.236 169.648C130.244 169.648 132.26 169.84 133.268 169.84C136.724 169.84 140.18 169.888 143.636 169.744C144.644 169.744 145.652 169.648 146.66 169.648C147.38 169.648 147.428 169.792 147.428 170.368C147.428 171.52 147.188 172.768 147.092 173.872C146.804 177.328 146.516 181.168 146.42 184.624C146.372 185.392 146.276 185.728 145.7 185.728L144.068 185.68C142.196 185.584 140.324 185.536 138.404 185.536C136.82 185.536 135.236 185.536 133.652 185.584C132.596 185.632 131.588 185.728 130.532 185.728ZM134.132 181.264C136.628 181.264 139.364 181.216 141.764 181.264C141.908 178.912 142.052 176.608 142.292 174.256C139.412 174.208 136.436 174.208 133.844 174.208L134.132 181.264ZM124.58 246.016C124.1 246.016 123.764 246.016 123.764 245.632C123.764 245.2 123.956 244.24 124.004 243.76L124.148 242.272C124.292 241.12 124.388 239.92 124.484 238.72L124.532 238.144C120.308 240.064 115.988 241.84 111.476 243.28C111.044 243.424 109.844 243.904 108.884 244.192C108.308 244.384 107.78 244.528 107.636 244.528C107.396 244.528 107.06 244.144 106.772 243.808C106.196 243.136 105.668 242.32 105.332 241.984C105.092 241.696 104.468 241.168 104.468 240.784C104.468 240.448 105.188 240.4 105.38 240.352C106.148 240.256 106.868 240.112 107.636 239.92C109.988 239.392 112.388 238.816 114.644 238.096C117.62 237.136 120.548 235.936 123.38 234.736C121.604 234.736 119.828 234.736 118.052 234.832C115.124 234.928 112.148 235.024 109.22 235.216C108.692 235.264 108.212 235.408 107.684 235.408C107.348 235.408 107.204 235.312 107.204 234.928C107.204 233.776 107.252 232.624 107.252 231.52C107.252 231.04 107.444 230.992 107.828 230.992C108.404 230.992 108.98 231.088 109.556 231.088H124.532V229.264H116.708C115.796 229.264 114.884 229.36 113.924 229.36C113.156 229.36 113.396 228.448 113.348 227.824C113.06 224.512 112.724 221.152 112.244 217.84C112.148 217.456 111.956 216.976 111.956 216.592C111.956 216.112 112.436 216.16 112.772 216.16C113.396 216.16 114.02 216.208 114.644 216.256C118.628 216.352 122.564 216.304 126.548 216.304C129.764 216.304 132.98 216.304 136.148 216.208C137.54 216.208 138.884 216.112 140.276 216.112C140.564 216.112 141.044 216.016 141.044 216.496C141.044 216.928 140.9 217.408 140.804 217.84C140.42 220.912 140.084 224.08 139.796 227.2C139.796 227.536 139.7 229.024 139.46 229.216C139.316 229.312 139.124 229.312 138.98 229.312C138.068 229.312 137.108 229.264 136.196 229.216C134.756 229.216 131.204 229.264 128.756 229.264V231.088C132.5 231.088 136.244 231.088 140.036 230.992L143.492 230.848C144.164 230.8 144.884 230.608 145.556 230.608C145.796 230.608 145.892 230.8 145.892 231.04C145.892 231.28 145.7 232.336 145.556 233.344C145.364 234.448 145.364 235.408 144.98 235.408C144.548 235.456 144.02 235.312 143.636 235.264C143.108 235.264 142.58 235.216 142.052 235.168C138.02 235.072 133.94 234.784 129.86 234.736C132.74 235.984 135.716 237.136 138.692 238.048C140.996 238.768 143.396 239.392 145.748 239.92L147.956 240.352C148.196 240.352 148.916 240.4 148.916 240.736C148.916 241.12 148.196 241.744 147.956 242.032C147.668 242.368 147.14 243.136 146.66 243.808C146.324 244.288 146.228 244.672 145.892 244.72C145.604 244.72 144.596 244.432 144.308 244.336C143.348 244.048 142.388 243.76 141.428 243.424C139.22 242.656 136.964 241.84 134.804 240.88C132.74 240.016 130.724 239.008 128.756 238C128.804 238.384 128.804 238.864 128.852 239.152C128.948 240.496 129.092 241.792 129.236 243.232C129.284 244 129.428 244.768 129.428 245.536C129.428 245.968 128.9 246.016 128.564 246.016H124.58ZM124.676 226.048V224.464H117.092C117.092 224.992 117.14 225.472 117.188 226C119.636 226.048 122.132 226.048 124.676 226.048ZM116.852 221.296H124.676V219.616C122.036 219.616 119.396 219.664 116.708 219.712L116.852 221.296ZM128.612 226.048C131.012 226.048 133.46 226.048 135.812 226L135.956 224.464H128.612V226.048ZM128.612 221.296H136.244C136.292 220.816 136.34 220.288 136.436 219.712C133.796 219.712 131.204 219.664 128.612 219.664V221.296ZM120.74 215.584C120.068 215.584 120.212 215.008 120.116 214.528L119.828 212.752C118.1 212.752 116.372 212.8 114.644 212.848C113.252 212.896 111.908 212.992 110.516 213.136C109.988 213.232 109.364 213.424 108.788 213.376C108.356 213.376 108.308 213.184 108.308 212.512V209.344C108.308 208.912 108.356 208.528 108.788 208.528C109.316 208.528 110.084 208.72 110.612 208.768C111.62 208.816 112.628 208.864 113.636 208.864C115.46 208.864 117.284 208.912 119.108 208.912C119.06 208.48 118.964 208.048 118.916 207.616C118.82 207.136 118.58 206.608 118.58 206.08C118.58 205.744 118.868 205.744 119.156 205.696C120.308 205.6 122.42 205.408 122.852 205.408C123.38 205.408 123.428 205.744 123.524 206.848C123.572 207.52 123.668 208.24 123.812 208.912C125.684 208.912 127.508 208.96 129.38 208.96C129.524 207.952 129.62 207.136 129.716 206.128C129.764 205.648 129.62 205.36 130.244 205.36C130.532 205.36 131.012 205.456 131.54 205.504C132.212 205.6 133.028 205.696 133.556 205.84C134.228 205.936 134.66 205.984 134.66 206.32C134.66 206.752 134.42 207.808 134.228 208.912C136.58 208.864 138.932 208.816 141.284 208.816C142.148 208.816 143.108 208.672 144.02 208.672C144.26 208.672 144.596 208.624 144.596 208.96C144.596 209.152 144.452 209.632 144.308 210.16C144.164 210.88 144.02 211.696 143.924 212.08C143.828 212.848 143.732 213.088 143.348 213.088C142.916 213.088 140.948 212.896 139.94 212.848C137.828 212.752 135.716 212.704 133.556 212.704C133.46 213.28 133.364 213.808 133.22 214.384C133.076 214.912 133.028 215.536 132.644 215.536C132.212 215.584 131.828 215.44 131.444 215.392C130.724 215.296 129.956 215.248 129.284 215.104C128.948 215.056 128.372 215.2 128.372 214.72C128.372 214.432 128.516 214.144 128.564 213.856C128.66 213.472 128.756 213.088 128.804 212.704C127.652 212.656 125.636 212.8 124.34 212.704L124.484 213.808C124.532 214 124.628 214.672 124.58 214.864C124.58 215.344 124.052 215.344 123.38 215.44C122.516 215.536 121.556 215.584 120.74 215.584ZM118.34 293.968C117.668 293.968 117.524 293.392 117.236 292.912C116.612 292 115.796 290.704 115.604 290.416C115.172 289.84 114.884 289.6 114.884 289.12C114.884 288.736 115.988 288.688 116.324 288.64C118.148 288.448 119.972 288.16 121.796 287.728C125.252 286.912 126.788 284.224 126.788 280.576C126.836 279.616 126.74 278.272 126.596 277.216C123.044 277.216 119.492 277.12 115.94 277.216C114.164 277.264 112.436 277.456 110.66 277.552C109.892 277.6 108.836 277.84 108.068 277.792C107.3 277.792 107.3 277.264 107.3 276.688V273.28C107.3 272.608 107.444 272.224 107.972 272.224C108.356 272.224 109.076 272.32 109.46 272.368C110.756 272.464 112.052 272.512 113.3 272.512C117.332 272.512 121.412 272.464 125.444 272.464C124.772 270.688 123.812 269.056 122.42 267.904C122.132 267.664 121.268 267.088 121.268 266.656C121.268 266.272 121.7 265.984 121.94 265.744C122.228 265.504 123.044 264.88 123.764 264.4C124.244 264.064 124.724 263.728 124.916 263.728C125.3 263.728 125.924 264.352 126.26 264.688C126.548 265.024 126.884 265.36 127.124 265.696C128.948 264.352 130.676 262.912 132.116 261.088C128.228 261.136 124.052 261.184 120.212 261.184C118.532 261.184 116.948 261.28 115.22 261.472C114.788 261.52 114.068 261.664 113.684 261.664C113.252 261.664 113.204 261.376 113.156 260.704V256.768C113.204 255.904 113.348 255.712 113.732 255.712C114.308 255.712 114.884 255.856 115.172 255.856C118.772 256.192 122.276 256.096 125.876 256.096C128.18 256.096 130.436 256.048 132.74 256.048C134.948 256.048 137.156 255.904 139.364 255.904C140.084 255.904 140.996 255.952 140.996 256.912C140.996 257.296 140.612 258.016 140.036 258.88C138.404 261.28 135.14 264.784 134.228 265.696C132.836 267.088 131.3 268.432 129.716 269.68C130.148 270.592 130.532 271.504 130.82 272.464C133.22 272.416 135.62 272.272 138.02 272.272C139.748 272.272 141.476 272.128 143.204 272.032C144.068 271.984 144.932 271.792 145.796 271.792C146.18 271.792 146.564 271.696 146.564 272.176C146.564 272.56 146.324 273.088 146.276 273.424C146.084 274.336 145.796 275.776 145.7 276.592C145.604 277.072 145.556 277.696 145.22 277.744C144.98 277.744 144.596 277.6 144.356 277.6L142.868 277.456C141.236 277.312 139.604 277.12 137.924 277.168C135.86 277.216 133.844 277.216 131.828 277.216C131.972 278.272 132.02 279.376 132.02 280.48C132.02 287.248 129.668 290.8 122.9 292.96C121.988 293.248 120.644 293.632 119.492 293.824C119.06 293.92 118.676 293.968 118.34 293.968ZM136.484 337.744C135.38 337.744 133.46 337.264 132.308 337.024C125.444 335.584 118.532 332.368 118.532 324.16C118.532 319.84 121.556 316.144 125.3 313.552C126.212 312.928 127.172 312.352 128.132 311.824C124.388 312.112 120.644 312.496 116.9 312.832C115.22 312.976 113.588 313.168 111.956 313.504C111.428 313.648 110.804 313.84 110.228 313.84C109.7 313.84 109.556 313.504 109.556 313.024V309.28C109.556 308.704 109.604 308.128 110.276 308.128C110.804 308.128 111.332 308.224 111.86 308.272C112.58 308.272 113.3 308.32 114.068 308.32C117.764 308.32 121.412 307.984 125.108 307.744C128.948 307.504 132.788 307.264 136.676 306.928C137.828 306.832 138.932 306.688 140.132 306.448C140.468 306.4 140.948 306.304 141.284 306.304C141.764 306.304 141.908 306.88 142.1 307.456C142.292 308.176 142.58 309.424 142.916 310.48C143.06 310.96 143.156 311.44 143.156 311.728C143.156 312.208 142.628 312.4 141.956 312.352C141.332 312.352 140.564 312.352 140.228 312.4C139.412 312.4 138.596 312.448 137.78 312.544C133.844 313.024 129.572 315.328 126.5 317.872C124.484 319.552 123.236 321.568 123.236 324.256C123.236 326.416 124.148 327.856 125.924 329.056C128.372 330.688 132.02 331.456 134.9 331.744C135.188 331.792 136.196 331.84 137.06 331.888C137.732 331.936 137.924 331.888 138.356 331.936C138.5 331.984 138.596 332.32 138.596 332.464C138.596 332.656 138.452 333.04 138.356 333.424C138.068 334.48 137.828 335.824 137.54 336.88C137.348 337.6 137.348 337.744 136.484 337.744ZM137.492 323.152C137.3 323.152 137.108 322.864 136.82 322.528C136.244 321.856 135.428 320.944 134.9 320.416C134.228 319.744 133.796 319.36 133.22 318.88C132.836 318.544 132.5 318.496 132.5 318.256C132.452 318.112 132.596 317.968 132.74 317.824C133.028 317.536 133.46 317.2 133.652 316.96C133.892 316.768 134.036 316.576 134.276 316.576C134.42 316.528 134.708 316.768 135.044 317.008C135.572 317.44 136.196 317.92 136.772 318.448C137.492 319.072 138.068 319.552 138.596 320.128C138.884 320.416 139.316 320.8 139.316 321.088C139.316 321.232 139.172 321.424 138.98 321.664C138.692 321.952 138.356 322.336 138.02 322.768C137.828 322.96 137.636 323.152 137.492 323.152ZM141.668 320.176C141.476 320.176 141.284 319.888 140.996 319.552C140.42 318.928 139.604 317.968 139.076 317.44C138.404 316.768 137.972 316.384 137.396 315.904C137.012 315.568 136.676 315.52 136.676 315.28C136.628 315.136 136.772 314.992 136.916 314.848C137.204 314.56 137.636 314.224 137.828 313.984C138.068 313.792 138.212 313.6 138.452 313.6C138.596 313.552 138.884 313.792 139.22 314.032C139.748 314.464 140.372 314.944 140.948 315.472C141.668 316.096 142.292 316.624 142.82 317.2C143.06 317.488 143.492 317.824 143.492 318.112C143.492 318.304 143.348 318.448 143.156 318.688C142.868 318.976 142.532 319.408 142.196 319.792C142.004 320.032 141.812 320.176 141.668 320.176Z" fill="black"/>
<rect width="69" height="452" fill="white"/>
<path d="M36.9 53.536C36.324 53.536 35.988 52.624 35.7 52.192C32.676 47.536 29.46 43.072 26.052 38.704C25.476 38.032 24.948 37.312 24.516 36.544C24.132 35.776 23.892 34.96 23.892 34.096C23.892 33.088 24.18 32.272 24.66 31.456C25.092 30.64 25.668 29.872 26.196 29.152C28.596 25.792 31.092 22.384 33.156 18.784C33.588 18.016 34.068 17.2 34.452 16.384C34.644 15.904 34.74 15.376 34.932 14.896C35.076 14.608 35.22 14.32 35.46 14.32C35.748 14.32 36.084 14.512 36.612 14.8C37.716 15.376 38.772 16.048 39.108 16.24C39.54 16.48 40.068 16.816 40.26 16.96C40.548 17.2 40.74 17.44 40.74 17.776C40.788 17.968 40.596 18.304 40.404 18.592C40.116 19.072 39.684 19.504 39.54 19.696C36.468 23.632 33.444 27.616 30.468 31.648C29.94 32.368 29.316 33.04 29.316 34C29.316 34.816 30.228 35.824 30.708 36.4C32.292 38.368 33.876 40.336 35.508 42.256C37.188 44.32 38.964 46.336 40.644 48.4C40.884 48.64 41.508 49.36 41.508 49.696C41.508 49.936 41.076 50.272 40.452 50.848C39.684 51.568 38.628 52.432 37.86 52.96C37.38 53.296 37.044 53.536 36.9 53.536ZM27.636 96.784C26.964 96.784 26.676 96.448 26.34 95.824C25.908 95.056 25.332 93.808 24.708 92.704C24.516 92.32 24.372 92.032 24.372 91.888C24.372 91.552 24.612 91.456 24.948 91.456C25.668 91.408 26.964 91.456 27.3 91.456C30.084 91.456 33.636 91.216 36.9 90.448C39.828 89.776 42.564 88.624 44.34 86.656C45.54 85.312 46.212 83.68 46.212 81.856C46.212 76.912 42.756 75.424 38.34 75.424C34.26 75.424 30.18 76.816 26.388 78.256C24.228 79.072 22.068 79.888 20.004 80.8C19.668 80.944 19.236 81.232 18.852 81.232C18.372 81.232 18.132 80.656 17.94 80.272C17.652 79.84 16.98 78.4 16.548 77.296C16.308 76.768 16.164 76.432 16.164 76C16.164 75.472 16.452 75.424 16.932 75.328C18.612 74.992 20.772 74.512 22.26 74.08C27.54 72.544 32.964 70.816 38.436 70.816C45.396 70.816 51.54 73.936 51.54 81.712C51.54 87.088 48.9 90.544 45.156 92.752C41.604 94.864 37.044 95.92 32.868 96.4C31.236 96.592 29.268 96.784 27.636 96.784ZM30.036 148.096C29.124 148.096 28.932 148.096 28.644 147.424C28.212 146.464 27.78 145.168 27.396 144.256C27.156 143.68 26.916 143.248 26.916 143.008C26.916 142.72 27.156 142.624 27.396 142.624C27.684 142.624 27.924 142.72 28.212 142.768C29.172 142.864 30.132 142.912 31.14 142.912C34.116 142.912 38.244 142.336 40.788 140.8C42.852 139.552 44.628 137.824 44.628 135.28C44.628 131.536 41.556 130.192 38.244 130.192C34.836 130.192 31.332 131.008 28.212 132.592C25.86 133.792 23.796 135.52 22.26 137.728C22.02 138.112 21.684 138.88 21.108 138.88C20.58 138.88 20.388 138.592 19.908 138.208C19.14 137.632 18.132 136.72 17.748 136.384C17.46 136.096 17.028 135.856 17.028 135.424C17.028 135.04 17.604 134.56 17.892 134.272C20.724 131.44 23.508 128.608 26.292 125.68C28.788 123.088 31.236 120.448 33.732 117.808C32.004 117.952 30.324 118.096 28.644 118.288C27.3 118.384 25.956 118.576 24.612 118.672C23.892 118.72 22.98 118.912 22.308 118.864C21.636 118.864 21.828 118.192 21.828 117.616C21.828 116.704 21.924 115.792 21.972 114.832C21.972 114.448 22.02 113.728 22.356 113.68C22.74 113.68 23.028 113.728 23.316 113.776C23.94 113.872 24.612 113.872 25.236 113.872C27.732 113.872 30.324 113.632 32.772 113.632C34.26 113.632 35.796 113.536 37.236 113.296C37.62 113.2 38.004 113.056 38.388 112.816C38.772 112.576 39.156 112.288 39.492 112.288C39.684 112.288 40.068 112.48 40.5 112.816C41.268 113.488 42.084 114.352 42.804 115.12C43.188 115.552 43.38 115.888 43.38 116.128C43.38 116.512 42.996 116.752 42.516 116.944C42.084 117.136 41.556 117.328 41.268 117.472C39.924 118.24 38.676 119.488 37.476 120.544C35.172 122.56 33.108 124.912 30.996 127.12C33.444 126.448 35.988 125.968 38.532 125.968C44.532 125.968 49.476 129.376 49.476 135.808C49.476 142.528 43.092 145.84 37.332 147.28C35.604 147.712 33.828 147.856 32.052 148C31.38 148.048 30.708 148.096 30.036 148.096ZM36.948 197.008C34.74 197.008 31.716 196.672 28.884 195.904C26.292 195.184 23.892 194.032 22.404 192.4C21.3 191.104 20.82 189.52 20.82 187.84C20.82 185.344 21.972 183.664 23.652 182.56C25.668 181.312 28.404 180.832 30.804 180.832C33.396 180.832 35.892 181.36 38.292 182.272C37.284 180.832 36.42 179.2 35.7 177.568C31.908 178.192 28.02 178.48 24.228 178.48C23.652 178.48 21.3 178.48 20.052 178.336C19.572 178.288 19.188 178.384 19.14 177.808C19.14 177.472 19.14 176.944 19.188 176.368C19.236 175.6 19.332 174.784 19.428 174.112C19.428 173.776 19.428 173.056 19.908 173.056C20.052 173.056 20.244 173.104 20.484 173.152C21.06 173.248 21.78 173.44 22.212 173.488C23.892 173.68 25.524 173.728 27.204 173.728C29.412 173.728 31.62 173.584 33.828 173.344L32.676 170.32C30.804 170.56 28.836 170.656 26.964 170.656C26.484 170.656 24.228 170.656 23.268 170.464C22.788 170.416 22.692 170.272 22.692 169.792C22.692 169.072 22.788 167.344 22.836 166.576C22.884 166.144 22.932 165.712 23.364 165.712C23.652 165.712 24.036 165.808 24.324 165.856C25.668 166.096 27.012 166.24 28.404 166.24C29.364 166.24 30.324 166.144 31.284 166.096C30.708 164.416 30.18 162.736 29.508 161.104C29.412 160.816 28.932 159.856 28.932 159.664C28.932 159.328 29.22 159.184 29.508 159.088C30.084 158.896 33.156 158.032 33.588 158.032C33.732 158.032 33.828 158.032 33.924 158.08C34.116 158.224 34.212 158.752 34.26 158.992C34.788 161.152 35.172 163.264 35.844 165.376C38.1 164.896 40.308 164.272 42.372 163.216C42.612 163.12 43.14 162.784 43.62 162.544C43.86 162.4 44.196 162.304 44.292 162.304C44.676 162.304 44.772 162.88 44.82 163.216L45.204 165.472C45.3 165.904 45.396 166.384 45.444 166.864C45.444 167.344 45.06 167.392 44.532 167.584C42.66 168.304 38.004 169.36 37.188 169.552L38.34 172.576C41.604 171.856 43.716 171.376 46.74 170.128C47.268 169.936 47.748 169.696 48.228 169.456C48.612 169.216 48.948 169.024 49.236 169.024C49.62 169.024 49.668 169.744 49.716 170.128L50.1 172.048C50.196 172.576 50.292 173.056 50.292 173.392C50.292 174.064 49.956 174.16 49.428 174.352C47.604 175.024 42.612 176.224 40.212 176.752C41.412 179.104 42.756 181.408 44.724 183.232C44.916 183.424 45.444 183.856 45.924 184.192C46.308 184.48 46.788 184.816 46.788 185.056C46.788 185.344 46.5 185.632 46.164 186.016C45.636 186.592 44.82 187.504 44.244 188.032C44.052 188.224 43.476 188.752 43.236 188.752C42.948 188.752 42.612 188.56 42.324 188.32C41.94 188.032 41.556 187.744 41.22 187.552C38.388 185.968 33.3 184.912 30.132 184.912C28.98 184.912 27.54 185.104 26.532 185.776C25.86 186.256 25.38 186.928 25.38 187.984C25.38 189.232 26.436 190.096 27.876 190.72C30.228 191.68 33.588 191.92 35.124 191.92C36.708 191.92 38.244 191.824 39.78 191.632C40.308 191.584 41.124 191.392 41.796 191.248C42.228 191.152 42.66 191.056 42.948 191.056C43.428 191.056 43.476 191.248 43.476 191.68C43.476 192.112 43.236 194.128 43.14 195.376C43.092 196.288 42.756 196.432 41.844 196.624C40.308 196.912 37.62 197.008 36.948 197.008ZM48.948 164.56C48.756 164.56 48.564 164.272 48.276 163.888C47.7 163.264 46.836 162.304 46.308 161.776C45.636 161.152 45.252 160.72 44.676 160.288C44.292 159.904 43.956 159.856 43.908 159.616C43.908 159.52 44.004 159.376 44.196 159.184C44.436 158.944 44.868 158.56 45.108 158.368C45.348 158.128 45.492 157.984 45.684 157.936C45.876 157.888 46.164 158.128 46.5 158.416C47.028 158.8 47.652 159.328 48.228 159.808C48.948 160.432 49.524 160.912 50.052 161.488C50.34 161.776 50.772 162.16 50.772 162.448C50.772 162.64 50.58 162.832 50.388 163.024L49.428 164.128C49.284 164.368 49.092 164.512 48.948 164.56ZM53.124 161.584C52.932 161.584 52.74 161.296 52.452 160.96C51.876 160.288 51.012 159.328 50.484 158.848C49.812 158.176 49.428 157.792 48.852 157.312C48.468 156.928 48.132 156.88 48.084 156.688C48.084 156.544 48.18 156.4 48.372 156.208C48.612 155.968 49.044 155.584 49.284 155.392C49.476 155.152 49.668 155.008 49.86 154.96C50.052 154.96 50.34 155.2 50.676 155.44C51.204 155.824 51.828 156.352 52.404 156.832C53.124 157.504 53.748 157.984 54.276 158.56C54.516 158.848 54.948 159.232 54.948 159.52C54.948 159.664 54.804 159.808 54.564 160.048L53.604 161.152C53.46 161.392 53.268 161.536 53.124 161.584ZM34.452 242.272C33.78 242.272 33.684 242.08 33.348 241.552C32.724 240.592 32.34 239.68 31.764 238.624C31.572 238.24 31.332 237.904 31.38 237.712C31.38 237.184 32.244 237.184 32.628 237.136C35.028 236.848 38.388 236.176 40.5 235.12C44.436 233.152 46.596 230.944 46.596 226.288C46.596 220 42.564 216.304 36.324 216.304C34.932 216.304 33.492 216.448 32.148 216.688C32.964 216.88 34.068 217.072 34.98 217.312C35.7 217.552 36.228 217.744 36.228 218.272C36.228 218.992 35.94 219.952 35.844 220.672C34.644 226.192 32.82 233.776 28.644 237.808C27.492 238.912 26.052 239.92 24.42 239.92C23.508 239.92 22.644 239.632 21.876 239.2C18.132 237.088 17.172 232.816 17.172 228.832C17.172 225.76 18.276 222.064 20.1 219.52C23.844 214.288 29.844 212.224 36.084 212.224C38.916 212.224 41.892 212.608 44.436 214C49.14 216.544 51.636 220.864 51.636 226.192C51.636 233.056 48.18 237.136 42.18 240.064C40.308 240.976 36.516 242.272 34.452 242.272ZM24.324 234.352C25.044 234.4 25.764 233.44 26.1 233.008C28.452 229.984 30.42 223.792 30.948 219.28C31.044 218.464 31.092 217.696 31.092 217.024C25.62 218.608 22.068 223.264 22.068 228.976C22.068 230.32 22.116 232.336 22.884 233.44C23.172 233.872 23.604 234.352 24.324 234.352ZM30.372 290.704C22.932 290.704 19.668 286.48 19.668 279.856C19.668 275.872 21.06 272.128 23.22 268.768C23.988 267.568 25.14 266.416 26.1 265.216C24.372 265.456 22.26 265.6 20.532 265.696C19.764 265.744 18.66 265.936 18.18 265.936C17.748 265.936 17.604 265.84 17.604 265.408C17.604 265.024 17.652 264.64 17.7 264.304C17.748 263.392 17.796 262.432 17.892 261.52C17.94 261.088 17.892 260.416 18.516 260.416C18.756 260.416 19.044 260.464 19.284 260.512C20.388 260.752 21.54 260.704 22.692 260.704C24.66 260.704 26.724 260.608 28.74 260.368C29.604 260.224 30.564 260.032 31.428 259.744C31.956 259.552 32.676 259.12 33.252 259.12C33.588 259.12 33.78 259.744 33.924 259.984L35.316 263.248C35.508 263.728 35.652 264.064 35.604 264.352C35.604 264.784 35.028 264.88 34.596 265.024L33.204 265.504C31.284 266.176 29.7 267.376 28.404 268.912C26.148 271.6 24.132 276.352 24.132 279.952C24.132 284.512 26.82 285.712 30.9 285.712C33.156 285.712 35.076 284.512 36.612 282.928C39.444 280.048 39.924 274.624 39.924 270.736C39.924 267.856 39.588 265.024 39.156 262.24C39.06 261.616 38.82 260.944 38.82 260.368C38.82 259.84 39.396 259.792 39.78 259.744C41.076 259.6 42.468 259.36 43.716 259.36C44.676 259.36 44.82 259.504 44.82 260.464C44.82 261.28 44.724 262.096 44.724 262.864C44.724 266.032 45.492 268.864 46.932 271.312C48.324 273.712 50.388 275.728 52.932 277.36C53.268 277.552 54.036 277.888 54.036 278.224C53.988 278.608 53.7 278.848 53.364 279.28C52.788 280.048 52.02 281.008 51.3 281.824C50.916 282.256 50.724 282.64 50.436 282.64C50.052 282.592 49.812 282.304 49.428 281.968C47.7 280.48 44.916 276.304 44.244 275.344C43.428 283.504 39.492 290.704 30.372 290.704ZM34.548 338.512C30.804 338.512 26.868 338.08 24.18 336.16C22.356 334.864 21.204 332.752 21.204 329.584C21.204 325.072 25.188 321.568 28.836 319.552C28.596 317.056 28.5 314.512 28.452 311.968C28.404 310.048 28.308 308.08 28.164 306.352C28.116 305.344 27.828 304.096 27.828 303.376C27.876 302.8 28.26 302.752 28.884 302.704C30.228 302.656 31.572 302.56 32.916 302.56C33.444 302.56 33.876 302.56 33.876 303.184C33.876 303.952 33.732 304.72 33.636 305.44C33.348 307.648 33.3 309.856 33.3 312.112C33.3 313.936 33.444 315.808 33.588 317.68L38.676 316.096C40.116 315.712 41.556 315.328 42.948 314.848C43.284 314.704 43.764 314.56 44.1 314.56C44.58 314.56 44.724 315.04 44.964 315.424C45.108 315.712 45.684 316.96 46.068 317.92C46.308 318.544 46.452 319.024 46.452 319.216C46.452 319.888 45.732 319.936 45.204 319.984C43.524 320.128 41.892 320.416 40.212 320.752C38.82 321.04 37.428 321.28 36.084 321.664C34.068 322.24 30.996 323.392 28.74 325.072C27.156 326.272 26.004 327.76 26.004 329.536C26.004 331.072 26.916 332.56 28.452 332.992C30.084 333.472 31.86 333.664 33.588 333.664C36.708 333.664 40.836 333.04 43.764 332.08C44.1 331.936 44.436 331.792 44.772 331.792C45.156 331.792 45.204 332.224 45.3 332.56C45.444 333.136 45.588 334 45.684 334.72C45.828 335.536 45.972 336.4 45.972 336.64C45.972 337.168 45.636 337.264 45.06 337.456C42.612 338.272 35.844 338.512 34.548 338.512ZM41.124 390.64C40.74 390.64 40.26 390.4 39.924 390.208C38.964 389.632 37.908 388.912 37.044 388.096C36.372 387.568 36.084 387.424 36.132 386.992C36.228 386.656 36.852 386.608 37.14 386.56C38.676 386.224 40.212 385.888 41.844 385.216C42.564 384.928 43.188 384.592 43.428 384.256C43.62 383.92 43.62 383.296 43.62 382.912V376.768C42.132 376.768 40.692 376.816 39.108 376.816C36.612 376.816 34.884 376.864 32.964 376.96C32.436 376.96 31.86 377.056 31.38 377.056C30.804 377.056 30.852 376.384 30.852 375.952V373.168C30.852 372.88 30.756 372.064 31.188 372.064C31.572 372.064 32.004 372.208 32.388 372.208H43.62V368.032C40.452 367.984 37.284 368.032 34.116 368.368C33.204 368.464 31.668 368.752 30.948 368.752C30.372 368.752 30.372 368.32 30.372 367.792V364.72C30.372 364.336 30.324 363.664 30.852 363.664C31.284 363.664 31.668 363.76 32.1 363.808C33.204 363.856 34.356 363.808 35.46 363.808C36.852 363.808 38.292 363.808 39.684 363.76C39.684 362.512 39.684 361.504 39.636 360.256C38.484 360.256 37.332 360.256 36.132 360.304C35.22 360.352 34.308 360.4 33.396 360.544C33.156 360.544 32.964 360.592 32.772 360.592C32.244 360.592 32.244 360.208 32.244 359.776V356.272C32.244 355.84 32.292 355.504 32.772 355.504C33.156 355.504 33.492 355.6 33.876 355.648C34.836 355.744 35.796 355.696 36.756 355.696H39.684C39.684 354.736 39.636 353.824 39.636 352.864C39.588 352.288 39.54 351.712 39.444 351.184C39.444 350.896 39.348 350.608 39.348 350.32C39.348 349.792 39.732 349.744 40.116 349.744H43.908C44.436 349.744 45.012 349.744 45.012 350.224C45.012 351.424 44.772 352.576 44.724 353.728C44.724 354.4 44.676 355.072 44.676 355.696C46.452 355.696 48.276 355.696 50.004 355.552C50.676 355.456 51.396 355.216 52.068 355.216C52.548 355.216 52.548 355.456 52.548 355.888C52.548 356.224 52.308 357.904 52.116 359.104C52.02 359.68 52.164 360.4 51.444 360.4C50.82 360.4 50.196 360.304 49.572 360.256H44.628V363.664C47.028 363.616 49.428 363.664 51.876 363.568C52.74 363.568 53.652 363.472 54.516 363.328C54.708 363.28 54.9 363.232 55.092 363.232C55.332 363.232 55.38 363.424 55.38 363.664C55.38 364.192 54.996 365.92 54.756 367.216C54.66 367.696 54.66 368.464 54.228 368.464C53.364 368.56 51.972 368.272 51.012 368.272L48.228 368.128C48.276 369.472 48.228 370.816 48.228 372.112H51.54C52.692 372.112 53.844 371.872 54.996 371.872C55.188 371.872 55.332 372.016 55.332 372.208C55.332 372.4 55.236 372.592 55.236 372.784C55.14 373.216 54.996 374.656 54.804 375.712C54.66 376.576 54.756 377.104 53.988 377.056C53.46 377.056 52.74 376.96 52.212 376.912C50.916 376.864 49.572 376.816 48.276 376.816C48.324 379.456 48.468 382.096 48.468 384.784C48.468 385.84 48.228 386.656 47.364 387.424C46.548 388.144 44.532 389.44 42.9 390.16C42.18 390.4 41.556 390.64 41.124 390.64ZM24.708 372.88C24.756 371.056 24.756 369.232 24.804 367.408H19.86C19.908 369.184 19.908 371.008 19.908 372.832C21.204 372.832 23.124 372.832 24.708 372.88ZM34.692 385.168C34.404 385.168 34.068 384.832 33.732 384.4C33.204 383.728 32.676 382.72 32.292 381.856C32.052 381.184 31.812 380.608 31.86 380.32C31.908 379.744 32.292 379.648 32.916 379.6C34.74 379.552 36.996 379.408 38.772 379.072C39.828 378.88 40.212 378.544 40.932 378.544C41.124 378.544 41.412 378.64 41.364 378.88C41.364 379.264 41.124 379.744 40.788 380.224C39.636 381.904 37.524 383.872 35.94 384.688C35.604 384.88 35.124 385.168 34.692 385.168ZM16.356 377.488C15.588 377.488 15.636 376.912 15.636 376.336C15.636 375.616 15.78 374.896 15.78 374.176C15.78 370.144 15.684 366.112 15.588 362.128C15.54 360.496 15.54 358.864 15.444 357.28C15.396 356.416 15.252 355.552 15.252 354.736C15.252 354.112 15.732 354.112 16.212 354.112C18.756 354.112 21.252 354.256 23.748 354.256C25.428 354.256 27.108 354.208 28.788 354.208C29.22 354.208 29.556 354.208 29.556 354.736C29.556 355.072 29.508 355.456 29.46 355.792C29.316 357.712 29.268 359.632 29.172 361.552C28.932 366.304 28.788 371.104 28.788 375.856C28.788 376.72 28.884 377.392 27.78 377.392C25.716 377.392 23.604 377.2 21.492 377.2C20.052 377.2 18.612 377.296 17.172 377.392C16.884 377.44 16.644 377.488 16.356 377.488ZM19.812 363.088H24.9C24.9 361.552 24.948 359.968 24.996 358.384C23.412 358.288 21.396 358.336 19.764 358.336L19.812 363.088ZM34.74 436C32.052 436 28.548 435.76 26.004 434.464C24.084 433.456 22.74 431.824 22.74 429.088C22.74 426.832 24.228 425.008 26.196 423.52C28.164 422.08 30.564 420.928 32.292 420.016C32.148 419.2 32.148 417.664 31.044 417.664C30.084 417.664 29.076 418.048 28.116 418.624C26.436 419.632 24.804 421.216 23.652 422.32C23.412 422.56 22.932 423.136 22.644 423.184C22.26 423.232 21.876 422.704 21.588 422.464C21.252 422.128 20.34 421.168 19.716 420.4C19.428 420.016 19.14 419.728 19.14 419.392C19.14 419.104 19.572 418.912 20.244 418.432C20.916 417.952 21.588 417.376 22.212 416.896C23.988 415.456 25.524 413.824 26.628 411.808C24.228 412.048 21.78 412.144 19.38 412.144C18.852 412.144 18.036 412.24 18.036 411.568V410.512C18.084 409.696 18.18 408.784 18.228 408.256C18.228 407.584 18.228 407.008 18.66 407.008C19.14 407.008 19.812 407.2 20.292 407.248C20.964 407.344 21.684 407.392 22.404 407.392C24.276 407.392 26.532 407.248 28.404 407.056C28.932 405.088 29.268 403.312 29.604 401.296C29.652 401.056 29.796 400.096 29.844 399.52C29.892 398.992 29.94 398.656 30.276 398.656C30.564 398.656 30.996 398.752 31.284 398.8C32.148 398.896 33.444 399.136 34.26 399.28C34.788 399.376 35.172 399.472 35.172 399.76C35.172 400.096 34.98 400.72 34.788 401.344C34.308 403.024 33.492 405.664 33.3 406.432C35.412 406.048 37.572 405.712 39.588 404.896C39.924 404.8 40.356 404.512 40.788 404.56C41.076 404.608 41.076 405.376 41.076 405.712C41.124 406.96 41.268 408.64 41.268 409.12C41.268 409.792 40.932 409.888 40.356 410.08C38.196 410.704 32.724 411.184 31.668 411.28L30.372 413.584C30.852 413.488 31.38 413.44 31.86 413.44C34.932 413.44 35.94 415.456 36.564 418.096C39.684 416.464 42.996 414.784 45.972 412.864C46.212 412.72 46.884 412.24 47.46 411.856C47.892 411.568 48.228 411.376 48.372 411.376C48.756 411.376 49.044 412.048 49.188 412.336C49.428 412.816 50.004 413.824 50.436 414.736C50.676 415.264 50.868 415.744 50.868 415.984C50.868 416.464 50.244 416.656 49.86 416.8C45.588 418.48 41.46 420.544 37.332 422.512C37.476 424.144 37.524 425.776 37.524 427.408C37.524 427.744 37.524 428.32 37.284 428.608C36.852 429.136 34.548 428.992 33.828 428.992C33.3 428.992 32.724 428.944 32.724 428.272C32.724 427.36 32.82 426.448 32.82 425.536V424.432C31.764 424.912 29.652 425.968 28.308 427.216C27.636 427.84 27.156 428.608 27.156 429.232C27.156 430 27.588 430.336 28.26 430.624C29.652 431.152 31.908 431.2 33.396 431.2C36.468 431.2 39.684 430.864 42.66 430.096C43.092 430 44.676 429.424 45.828 428.992C46.452 428.8 46.98 428.608 47.028 428.608C47.604 428.608 47.508 429.52 47.508 429.904C47.508 430.288 47.412 432.064 47.412 433.168C47.412 433.984 47.412 434.32 46.788 434.608C46.404 434.8 45.396 434.992 44.82 435.088C41.556 435.76 36.18 436 34.74 436Z" fill="black"/>
</svg>
