<svg width="77" height="248" viewBox="0 0 77 248" fill="none" xmlns="http://www.w3.org/2000/svg">
<path d="M20.6 72C19.56 72 18.52 72 17.48 71.92C15.48 71.76 12.92 71.52 10.92 70.6C9.08 69.76 7.72 68.32 7.72 65.92C7.72 63.76 8.64 61.68 10.16 60.16C10.36 59.96 10.56 59.68 10.88 59.68C11 59.68 11.2 59.72 11.48 59.88C12.08 60.2 12.72 60.48 13.28 60.84C13.64 61.12 13.92 61.32 13.92 61.48C13.92 61.84 13.44 62.12 13.2 62.36C12.36 63.2 11.64 64.24 11.64 65.44C11.64 66.36 12.6 66.92 13.88 67.24C15.8 67.72 18.4 67.84 19.36 67.84C21 67.84 22.64 67.64 24.24 67.4C26.12 67.12 27.92 66.64 29.72 66C30 65.88 30.32 65.68 30.64 65.68C30.96 65.68 31 66.32 31.04 66.56C31.12 67.68 31.2 68.84 31.2 70C31.2 70.64 30.88 70.84 30.28 70.96C27.92 71.44 22 72 20.6 72ZM28.48 53.56C28.2 53.56 27.76 53.48 27.44 53.44C26.36 53.32 25.4 53.28 24.36 53.2C23.08 53.12 21.76 53 20.44 53C17.88 53 15.2 53.04 12.64 53.32C12.28 53.36 11.92 53.44 11.56 53.44C11.16 53.44 11.04 53.24 11 52.84C10.92 51.88 10.72 50.28 10.72 49.88C10.72 49.44 11.04 49.36 11.44 49.28C13.32 48.92 18.76 48.84 19.6 48.84C21 48.84 22.4 48.84 23.8 48.88C25.16 48.92 27.12 48.88 28.44 49.08C29.08 49.2 29.2 49.32 29.2 49.96C29.2 50.84 29.08 51.64 28.96 52.68C28.96 53.04 28.92 53.52 28.48 53.56ZM33.24 50.4C33.08 50.4 32.92 50.16 32.68 49.88C32.2 49.32 31.52 48.56 31.08 48.12C30.48 47.52 30.16 47.24 29.68 46.84C29.36 46.56 29.08 46.48 29.08 46.32C29.04 46.2 29.16 46.08 29.28 45.96L30.04 45.24C30.24 45.04 30.36 44.92 30.52 44.88C30.68 44.88 30.92 45.08 31.2 45.28C31.64 45.6 32.16 46.04 32.64 46.48C33.24 47 33.72 47.4 34.16 47.84C34.4 48.12 34.76 48.4 34.76 48.68C34.76 48.8 34.64 48.96 34.48 49.12C34.24 49.4 33.96 49.72 33.68 50.08C33.52 50.24 33.36 50.4 33.24 50.4ZM36.72 47.92C36.56 47.92 36.4 47.68 36.16 47.4C35.68 46.84 35 46.08 34.56 45.64C33.96 45.04 33.64 44.76 33.16 44.36C32.84 44.08 32.56 44.04 32.56 43.84C32.52 43.72 32.6 43.6 32.76 43.48L33.52 42.76C33.72 42.6 33.84 42.44 34 42.44C34.24 42.44 34.4 42.6 34.68 42.8C35.12 43.16 35.64 43.56 36.12 44C36.72 44.52 37.24 44.96 37.68 45.44C37.88 45.68 38.24 45.96 38.24 46.2C38.24 46.32 38.12 46.48 37.96 46.68C37.72 46.92 37.44 47.24 37.12 47.6C37 47.76 36.84 47.92 36.72 47.92ZM23.36 116.8C23 116.8 22.92 116.72 22.68 116.44C22.48 116.16 21.68 115.2 21.12 114.4C20.8 113.92 20.48 113.64 20.52 113.36C20.56 113.16 20.88 113.08 21.36 112.96C21.92 112.84 22.68 112.72 22.92 112.64C26.12 111.56 30.12 109.72 30.12 105.76C30.12 102.68 28.32 100.36 25.2 99.92C23.92 102.52 22.24 105.32 20.32 107.48C19.68 108.2 19.04 108.88 18.36 109.56C18.52 110.32 18.64 111.12 18.8 111.88C19 112.76 19.12 112.92 19.12 113.4C19.12 113.72 18.76 113.8 18.52 113.92C17.8 114.2 16.96 114.48 16.28 114.72C15.92 114.84 15.68 114.88 15.44 114.88C15.28 114.88 15.24 114.52 15.12 114.04C14.96 113.32 14.84 112.4 14.8 112.2C13.32 113.04 11.64 113.72 9.92 113.72C7.12 113.72 5.76 111.04 5.76 108.56C5.76 106.08 6.92 104.12 8.56 102.36C10.2 100.6 12.36 99.56 14.48 98.6L14.72 94.4C13.04 94.4 10.92 94.24 9.28 93.88C8.92 93.8 8.6 93.76 8.6 93.32C8.6 92.48 8.8 91.56 8.92 90.72C8.96 90.48 9 89.92 9.32 89.92C9.56 89.92 9.88 90 10.12 90.08C10.68 90.24 11.08 90.36 11.4 90.4C12.64 90.6 13.88 90.72 15.16 90.68C15.28 89.24 15.44 87.84 15.52 86.36C15.56 86 15.56 85.68 15.56 85.32C15.56 84.84 15.68 84.72 16.12 84.72C16.56 84.72 18.28 84.96 19.28 85.12C19.56 85.16 19.92 85.24 19.92 85.6C19.92 85.84 19.84 86 19.76 86.28C19.64 86.72 19.52 87.24 19.44 87.68C19.24 88.56 19.12 89.44 19 90.36C20.52 90.24 21.96 90 23.44 89.68C23.8 89.6 25.2 89.16 26.04 88.88C26.16 88.84 26.52 88.64 26.76 88.64C27 88.68 27 88.96 27.04 89.4C27.08 90.24 27.12 91 27.12 91.8C27.16 92.32 27.2 92.64 26.52 92.88C25.68 93.24 24 93.48 22.4 93.72C20.68 93.96 19 94.16 18.48 94.2C18.4 95.24 18.28 96.32 18.2 97.36C19.64 97 21.08 96.84 22.56 96.68C22.6 96.44 22.8 95.6 22.92 94.96C23 94.52 23.08 94.2 23.12 94.16C23.24 94.08 23.36 94 23.48 94C23.68 94 23.92 94.04 24.2 94.08C24.8 94.2 25.88 94.44 26.36 94.56C26.68 94.64 27 94.76 27 95C27 95.16 26.92 95.36 26.84 95.64C26.72 96.08 26.52 96.6 26.44 96.8C31.2 97.72 34.16 101 34.16 105.92C34.16 111.4 29.76 114.48 25.16 116.32C24.68 116.48 23.84 116.8 23.36 116.8ZM10.6 109.76C11.08 109.76 11.68 109.52 12.28 109.24C13.08 108.8 13.92 108.24 14.4 107.88C14.36 106.8 14.32 105.76 14.32 104.68C14.32 103.88 14.32 103.08 14.4 102.32C12.16 103.48 9.52 105.72 9.52 108.44C9.52 109.24 9.72 109.76 10.6 109.76ZM17.8 105.6C19.32 103.88 20.6 101.84 21.56 99.76C20.32 100.04 19.04 100.32 17.84 100.72C17.76 101.68 17.76 102.64 17.76 103.6C17.76 104.28 17.76 104.96 17.8 105.6ZM14.08 156.64C12.52 156.64 11.36 155.76 10.48 154.64C7.68 151.12 7.32 145.72 7.32 141.4C7.32 138.6 7.6 135.8 7.84 133.04C7.88 132.8 7.88 132.28 8 131.8C8.08 131.44 8.2 131.12 8.52 131.12C8.64 131.12 8.96 131.16 9.32 131.28L12.08 132C12.36 132.08 12.96 132.24 12.96 132.6C12.96 132.92 12.68 133.6 12.6 133.92C12.32 134.92 12 136 11.84 137.04C11.6 138.68 11.44 140.36 11.44 142C11.44 143.48 11.76 148.88 13.2 151.08C13.6 151.68 14.08 152.04 14.68 152.04C15.04 152.04 15.56 151.8 16.08 151.48C17.44 150.6 19 149 19.6 148.28C19.84 147.96 20.08 147.52 20.52 147.52C20.68 147.52 20.88 147.84 21.08 148.36C21.36 149.12 21.6 150 21.8 150.72C21.92 151.2 21.96 151.6 21.96 151.76C21.96 152.04 21.8 152.36 21.48 152.72C20.24 154.2 16.76 156.04 15.72 156.36C15.2 156.52 14.64 156.64 14.08 156.64ZM30.92 150.92C30.52 150.88 30.52 150.36 30.36 149.88C29.68 147.56 29.24 145.48 28.16 143.24C27.08 141 25.72 138.92 24.2 136.92C24 136.72 23.68 136.32 23.68 136.04C23.68 135.84 23.92 135.68 24.36 135.52C25.12 135.24 25.8 135.04 26.44 134.88C26.8 134.8 27.12 134.68 27.28 134.68C27.68 134.68 27.8 134.84 28.04 135.12C28.44 135.56 28.92 136.24 29.12 136.52C31.64 140 33.8 143.8 34.84 148C34.92 148.2 35 148.68 35 148.92C35 149.32 34.72 149.4 34.2 149.72C33.84 149.92 32.76 150.36 32 150.68C31.64 150.8 31.12 150.92 30.92 150.92ZM23.76 200.32C22.2 200.32 20.68 200.32 19.16 200.16C16.2 199.84 12.84 198.72 10.96 196.84C9.76 195.64 9.04 194.16 9.04 192.12C9.04 189.64 10.2 187.92 11.88 186.96C13.6 185.96 15.84 185.6 17.92 185.6C19.8 185.6 21.68 186.12 23.44 186.84C22.68 185.88 21.96 184.84 21.36 183.84C20.76 182.84 20.32 181.72 19.8 180.68C17.84 180.96 15.84 181.04 13.88 181.2C12.92 181.28 11.96 181.32 11 181.32C10.08 181.32 8.76 181.36 7.84 181.24C7.48 181.2 7.28 181.2 7.28 180.68L7.32 177.88C7.32 177.4 7.32 176.96 7.68 176.96C8.12 176.96 8.8 177.16 9.24 177.2C10.36 177.32 11.52 177.36 12.68 177.36C14.6 177.36 16.48 177.2 18.4 177.04C17.96 175.52 17.36 174.08 16.96 172.56C16.84 172.12 16.72 171.64 16.56 171.16C16.52 170.92 16.4 170.6 16.4 170.32C16.4 169.84 17.16 169.76 17.48 169.68L19.6 169.12C20 169.04 20.44 168.92 20.6 168.92C21.16 168.92 21.16 169.52 21.24 169.96C21.48 172.12 21.84 174.2 22.44 176.28C24.8 175.92 27.12 175.4 29.4 174.68C29.6 174.6 30.28 174.36 30.8 174.12C31 174 31.4 173.8 31.68 173.8C31.96 173.84 31.92 174.16 31.96 174.48C32.04 175.44 32 176.28 32.08 177.16C32.08 177.36 32.12 177.6 32.12 177.84C32.12 178.4 31.52 178.52 31.08 178.64C29.16 179.16 24.44 179.76 23.44 179.96C24.52 182.8 27.2 186.36 29.64 188.16L30.44 188.76C30.72 188.96 31 189.04 31.04 189.36C31.08 189.76 30.6 190.12 30.4 190.36C29.96 190.96 29.48 191.52 28.68 192.24C28.4 192.48 28.44 192.64 28.04 192.64C27.72 192.68 27.48 192.44 27.16 192.2C26.32 191.6 25.56 191.08 25.2 190.92C23.2 189.76 20.04 188.88 17.72 188.88C16.8 188.88 15.76 189 14.84 189.36C13.76 189.8 12.88 190.56 12.88 191.96C12.88 192.92 13.48 193.76 14.36 194.4C15.4 195.16 16.8 195.64 17.8 195.8C18.92 195.96 20.04 196.04 21.2 196.04C22.84 196.04 24.48 195.84 26.2 195.64C26.52 195.6 26.84 195.48 27.16 195.48C27.52 195.48 27.72 195.56 27.72 195.92C27.72 196.24 27.64 196.56 27.56 196.92C27.44 197.72 27.36 198.56 27.16 199.36C27 200.12 26.8 200.08 26.16 200.2C25.48 200.32 24.16 200.32 23.76 200.32ZM14.28 239.32C13.72 239.32 13.48 239.04 13.2 238.52C12.84 237.88 12.36 236.84 11.84 235.92C11.68 235.6 11.56 235.36 11.56 235.24C11.56 234.96 11.76 234.88 12.04 234.88C12.64 234.84 13.72 234.88 14 234.88C16.32 234.88 19.28 234.68 22 234.04C24.44 233.48 26.72 232.52 28.2 230.88C29.2 229.76 29.76 228.4 29.76 226.88C29.76 222.76 26.88 221.52 23.2 221.52C19.8 221.52 16.4 222.68 13.24 223.88C11.44 224.56 9.64 225.24 7.92 226C7.64 226.12 7.28 226.36 6.96 226.36C6.56 226.36 6.36 225.88 6.2 225.56C5.96 225.2 5.4 224 5.04 223.08C4.84 222.64 4.72 222.36 4.72 222C4.72 221.56 4.96 221.52 5.36 221.44C6.76 221.16 8.56 220.76 9.8 220.4C14.2 219.12 18.72 217.68 23.28 217.68C29.08 217.68 34.2 220.28 34.2 226.76C34.2 231.24 32 234.12 28.88 235.96C25.92 237.72 22.12 238.6 18.64 239C17.28 239.16 15.64 239.32 14.28 239.32Z" fill="black"/>
<g style="mix-blend-mode:multiply" clip-path="url(#clip0_35_13)">
<path d="M56.3438 15.2667C56.3438 10.8905 52.7988 7.3432 48.4253 7.3432C47.7625 7.3432 47.1346 7.45447 46.5285 7.61372C46.3563 3.39018 42.9355 0 38.6732 0C34.4109 0 30.9879 3.39018 30.8157 7.61372C30.2096 7.45447 29.5817 7.3432 28.9189 7.3432C24.5454 7.3432 21.0004 10.8905 21.0004 15.2667C21.0004 18.6852 23.1915 21.5344 26.222 22.6448C25.4022 23.8927 24.8048 25.302 24.8048 26.9076C24.8048 31.2839 28.3499 34.8311 32.7234 34.8311C35.1347 34.8311 37.2212 33.6945 38.6732 31.9929C40.1252 33.6945 42.2095 34.8311 44.6208 34.8311C48.9943 34.8311 52.5393 31.2839 52.5393 26.9076C52.5393 25.2933 51.9768 23.8643 51.1353 22.6426C54.1614 21.5279 56.3438 18.6809 56.3438 15.2667Z" fill="#F19EC2"/>
<path d="M38.6756 16.5124C39.0681 16.5124 39.9467 15.2166 40.071 13.7331C40.2476 11.6366 39.7788 10.6178 38.6756 10.6178C37.6269 10.6178 37.0732 11.665 37.2803 13.7331C37.4264 15.1948 38.2745 16.5124 38.6756 16.5124Z" fill="white"/>
<path d="M37.7206 19.1804C37.4023 18.9492 35.9329 19.4815 34.9583 20.6094C33.5848 22.1998 33.3667 23.2993 34.2585 23.9494C35.1066 24.5646 36.1705 24.0454 37.217 22.2499C37.9583 20.9803 38.0455 19.4161 37.7206 19.1804Z" fill="white"/>
<path d="M39.6414 19.1804C39.3231 19.4117 39.3755 20.9759 40.1451 22.2499C41.233 24.0497 42.2119 24.5973 43.1036 23.9494C43.9517 23.332 43.786 22.1583 42.4038 20.6094C41.4249 19.512 39.9663 18.9448 39.6414 19.1804Z" fill="white"/>
<path d="M37.1364 17.625C37.2585 17.2519 36.297 16.015 34.9257 15.439C32.9897 14.6231 31.8756 14.754 31.5333 15.8034C31.2106 16.8004 32.0347 17.6534 34.0623 18.094C35.4991 18.406 37.0121 18.0068 37.1364 17.625Z" fill="white"/>
<path d="M40.2017 17.6163C40.3238 17.9894 41.826 18.4257 43.2758 18.0854C45.3208 17.6054 46.145 16.8441 45.8048 15.7947C45.48 14.7977 44.3136 14.5927 42.4124 15.4304C41.0672 16.0216 40.0774 17.2346 40.2017 17.6163Z" fill="white"/>
<path d="M46.1603 27.3941L49.2518 31.91L62.8476 23.2534L73.3519 21.8289L73.6615 20.0378L65.6667 20.3018L76.9994 11.2547L76.4435 9.89343L46.1603 27.3941Z" fill="#7F5B2E"/>
<path d="M66.0744 32.5536C66.0744 29.3227 63.4559 26.7026 60.227 26.7026C59.7387 26.7026 59.2743 26.7855 58.8273 26.9033C58.7009 23.7836 56.174 21.2814 53.0258 21.2814C49.8775 21.2814 47.3529 23.7836 47.2264 26.9033C46.7773 26.7855 46.3151 26.7026 45.8245 26.7026C42.5956 26.7026 39.9794 29.3227 39.9794 32.5536C39.9794 35.0777 41.5949 37.1807 43.834 38.001C43.2279 38.9238 42.7875 39.9623 42.7875 41.149C42.7875 44.38 45.4059 47 48.6348 47C50.4161 47 51.9553 46.1601 53.0258 44.9035C54.0984 46.1601 55.6377 47 57.4189 47C60.6478 47 63.2641 44.38 63.2641 41.149C63.2641 39.9557 62.8498 38.902 62.2285 37.9988C64.4632 37.1764 66.0744 35.0733 66.0744 32.5536Z" fill="#EB6D8E"/>
<path d="M53.0301 33.472C53.3201 33.472 53.9676 32.5143 54.0613 31.4191C54.1921 29.8724 53.8455 29.1198 53.0301 29.1198C52.2561 29.1198 51.8462 29.8942 51.9989 31.4191C52.1079 32.499 52.7336 33.472 53.0301 33.472Z" fill="white"/>
<path d="M52.3237 35.4442C52.0883 35.274 51.0025 35.6667 50.2852 36.4979C49.2693 37.6738 49.1079 38.4853 49.7663 38.9652C50.3942 39.4212 51.1791 39.0351 51.9509 37.7108C52.4982 36.7728 52.5636 35.6187 52.3237 35.4442Z" fill="white"/>
<path d="M53.7431 35.442C53.5076 35.6122 53.5468 36.7684 54.1159 37.7087C54.9182 39.0372 55.6398 39.4408 56.3004 38.9631C56.9262 38.5071 56.8019 37.641 55.7816 36.4957C55.0599 35.6863 53.9829 35.2675 53.7431 35.442Z" fill="white"/>
<path d="M51.8943 34.2945C51.9836 34.0174 51.2751 33.1055 50.2613 32.6801C48.8311 32.078 48.0091 32.174 47.7584 32.9506C47.5186 33.6858 48.1268 34.3141 49.6247 34.6413C50.6842 34.8726 51.8027 34.5759 51.8943 34.2945Z" fill="white"/>
<path d="M54.1573 34.2858C54.2467 34.5629 55.3564 34.8836 56.4269 34.6327C57.9378 34.2793 58.5461 33.7164 58.2932 32.942C58.0533 32.2046 57.1921 32.0541 55.7903 32.6715C54.7961 33.1078 54.0657 34.0044 54.1573 34.2858Z" fill="white"/>
</g>
<defs>
<clipPath id="clip0_35_13">
<rect width="56" height="47" fill="white" transform="translate(21)"/>
</clipPath>
</defs>
</svg>
