<svg width="94" height="29" viewBox="0 0 94 29" fill="none" xmlns="http://www.w3.org/2000/svg">
<path d="M8.384 28.824C7.968 28.824 7.872 28.632 7.872 28.28C7.872 28.12 7.904 27.992 7.936 27.864C8.064 25.944 8.192 24.024 8.256 22.104C8.288 20.76 8.32 19.448 8.384 18.136C8.384 17.592 8.416 17.08 8.448 16.536C6.88 18.296 5.152 20.152 3.776 21.976C3.68 22.104 3.296 22.808 3.008 22.808C2.624 22.808 2.56 22.616 2.304 22.264C1.92 21.72 1.536 21.304 1.184 20.792C0.96 20.44 0.8 20.152 0.8 19.992C0.8 19.736 1.44 19.32 1.664 19.128C2.272 18.584 2.912 18.008 3.456 17.4C5.024 15.736 6.432 14.328 7.904 12.632C7.008 12.632 6.112 12.664 5.248 12.728C4.64 12.792 4.096 12.76 3.488 12.856C3.104 12.888 2.656 13.016 2.272 13.016C1.952 13.016 2.016 12.536 2.016 12.312L2.048 10.424C2.048 10.072 1.952 9.496 2.304 9.496C2.784 9.496 3.36 9.656 3.808 9.656H8.384V6.552C7.552 6.808 6.752 7.032 5.952 7.32C5.696 7.416 5.376 7.544 5.088 7.544C4.832 7.544 4.736 7.096 4.64 6.872C4.352 6.136 4.256 5.912 4 5.336C3.872 4.984 3.712 4.792 3.744 4.536C3.744 4.28 4.384 4.216 4.64 4.152C5.824 3.896 7.104 3.544 8.224 3.128C9.312 2.712 10.368 2.2 11.392 1.656C12.064 1.272 12.416 0.855999 12.736 0.855999C13.12 0.855999 13.12 1.208 13.408 1.624C13.696 2.104 13.952 2.584 14.176 3.064C14.432 3.512 14.624 3.864 14.624 3.992C14.624 4.28 13.856 4.44 13.632 4.536L11.456 5.4V9.656L13.856 9.56C14.304 9.528 14.752 9.496 15.2 9.432C15.456 9.368 15.712 9.304 15.968 9.304C16.192 9.304 16.32 9.368 16.32 9.592C16.32 9.784 16.256 10.008 16.224 10.232C16.128 10.872 16.064 11.512 16 12.152C15.936 12.504 16 12.824 15.52 12.824C15.04 12.824 14.56 12.728 14.08 12.696C13.088 12.664 12.288 12.664 11.456 12.632V14.072C12.896 15.512 14.208 16.76 15.968 17.976C16.192 18.136 16.608 18.296 16.608 18.584C16.608 18.872 16.416 19.064 16.224 19.288C15.968 19.576 14.944 21.016 14.592 21.016C14.272 21.016 13.856 20.408 13.664 20.216C13.312 19.832 12.928 19.512 12.608 19.128L11.456 17.72V27.288C11.456 27.608 11.52 27.928 11.52 28.216C11.52 28.824 11.2 28.824 10.72 28.824H8.384ZM18.688 20.152C17.92 20.152 18.048 19.768 18.08 19.32C18.08 18.392 18.016 17.144 17.984 16.184C17.92 14.552 17.76 12.92 17.6 11.288C17.536 10.744 17.472 10.264 17.472 9.784C17.472 9.496 17.632 9.432 17.824 9.432C18.496 9.432 19.84 9.56 20.512 9.56C22.816 9.56 25.12 9.592 27.424 9.496C28.096 9.496 28.768 9.432 29.44 9.432C29.92 9.432 29.952 9.528 29.952 9.912C29.952 10.68 29.792 11.512 29.728 12.248C29.536 14.552 29.344 17.112 29.28 19.416C29.248 19.928 29.184 20.152 28.8 20.152L27.712 20.12C26.464 20.056 25.216 20.024 23.936 20.024C22.88 20.024 21.824 20.024 20.768 20.056C20.064 20.088 19.392 20.152 18.688 20.152ZM21.088 17.176C22.752 17.176 24.576 17.144 26.176 17.176C26.272 15.608 26.368 14.072 26.528 12.504C24.608 12.472 22.624 12.472 20.896 12.472L21.088 17.176ZM46.72 28.344C46.4 28.344 46.176 28.344 46.176 28.088C46.176 27.8 46.304 27.16 46.336 26.84L46.432 25.848C46.528 25.08 46.592 24.28 46.656 23.48L46.688 23.096C43.872 24.376 40.992 25.56 37.984 26.52C37.696 26.616 36.896 26.936 36.256 27.128C35.872 27.256 35.52 27.352 35.424 27.352C35.264 27.352 35.04 27.096 34.848 26.872C34.464 26.424 34.112 25.88 33.888 25.656C33.728 25.464 33.312 25.112 33.312 24.856C33.312 24.632 33.792 24.6 33.92 24.568C34.432 24.504 34.912 24.408 35.424 24.28C36.992 23.928 38.592 23.544 40.096 23.064C42.08 22.424 44.032 21.624 45.92 20.824C44.736 20.824 43.552 20.824 42.368 20.888C40.416 20.952 38.432 21.016 36.48 21.144C36.128 21.176 35.808 21.272 35.456 21.272C35.232 21.272 35.136 21.208 35.136 20.952C35.136 20.184 35.168 19.416 35.168 18.68C35.168 18.36 35.296 18.328 35.552 18.328C35.936 18.328 36.32 18.392 36.704 18.392H46.688V17.176H41.472C40.864 17.176 40.256 17.24 39.616 17.24C39.104 17.24 39.264 16.632 39.232 16.216C39.04 14.008 38.816 11.768 38.496 9.56C38.432 9.304 38.304 8.984 38.304 8.728C38.304 8.408 38.624 8.44 38.848 8.44C39.264 8.44 39.68 8.472 40.096 8.504C42.752 8.568 45.376 8.536 48.032 8.536C50.176 8.536 52.32 8.536 54.432 8.472C55.36 8.472 56.256 8.408 57.184 8.408C57.376 8.408 57.696 8.344 57.696 8.664C57.696 8.952 57.6 9.272 57.536 9.56C57.28 11.608 57.056 13.72 56.864 15.8C56.864 16.024 56.8 17.016 56.64 17.144C56.544 17.208 56.416 17.208 56.32 17.208C55.712 17.208 55.072 17.176 54.464 17.144C53.504 17.144 51.136 17.176 49.504 17.176V18.392C52 18.392 54.496 18.392 57.024 18.328L59.328 18.232C59.776 18.2 60.256 18.072 60.704 18.072C60.864 18.072 60.928 18.2 60.928 18.36C60.928 18.52 60.8 19.224 60.704 19.896C60.576 20.632 60.576 21.272 60.32 21.272C60.032 21.304 59.68 21.208 59.424 21.176C59.072 21.176 58.72 21.144 58.368 21.112C55.68 21.048 52.96 20.856 50.24 20.824C52.16 21.656 54.144 22.424 56.128 23.032C57.664 23.512 59.264 23.928 60.832 24.28L62.304 24.568C62.464 24.568 62.944 24.6 62.944 24.824C62.944 25.08 62.464 25.496 62.304 25.688C62.112 25.912 61.76 26.424 61.44 26.872C61.216 27.192 61.152 27.448 60.928 27.48C60.736 27.48 60.064 27.288 59.872 27.224C59.232 27.032 58.592 26.84 57.952 26.616C56.48 26.104 54.976 25.56 53.536 24.92C52.16 24.344 50.816 23.672 49.504 23C49.536 23.256 49.536 23.576 49.568 23.768C49.632 24.664 49.728 25.528 49.824 26.488C49.856 27 49.952 27.512 49.952 28.024C49.952 28.312 49.6 28.344 49.376 28.344H46.72ZM46.784 15.032V13.976H41.728C41.728 14.328 41.76 14.648 41.792 15C43.424 15.032 45.088 15.032 46.784 15.032ZM41.568 11.864H46.784V10.744C45.024 10.744 43.264 10.776 41.472 10.808L41.568 11.864ZM49.408 15.032C51.008 15.032 52.64 15.032 54.208 15L54.304 13.976H49.408V15.032ZM49.408 11.864H54.496C54.528 11.544 54.56 11.192 54.624 10.808C52.864 10.808 51.136 10.776 49.408 10.776V11.864ZM44.16 8.056C43.712 8.056 43.808 7.672 43.744 7.352L43.552 6.168C42.4 6.168 41.248 6.2 40.096 6.232C39.168 6.264 38.272 6.328 37.344 6.424C36.992 6.488 36.576 6.616 36.192 6.584C35.904 6.584 35.872 6.456 35.872 6.008V3.896C35.872 3.608 35.904 3.352 36.192 3.352C36.544 3.352 37.056 3.48 37.408 3.512C38.08 3.544 38.752 3.576 39.424 3.576C40.64 3.576 41.856 3.608 43.072 3.608C43.04 3.32 42.976 3.032 42.944 2.744C42.88 2.424 42.72 2.072 42.72 1.72C42.72 1.496 42.912 1.496 43.104 1.464C43.872 1.4 45.28 1.272 45.568 1.272C45.92 1.272 45.952 1.496 46.016 2.232C46.048 2.68 46.112 3.16 46.208 3.608C47.456 3.608 48.672 3.64 49.92 3.64C50.016 2.968 50.08 2.424 50.144 1.752C50.176 1.432 50.08 1.24 50.496 1.24C50.688 1.24 51.008 1.304 51.36 1.336C51.808 1.4 52.352 1.464 52.704 1.56C53.152 1.624 53.44 1.656 53.44 1.88C53.44 2.168 53.28 2.872 53.152 3.608C54.72 3.576 56.288 3.544 57.856 3.544C58.432 3.544 59.072 3.448 59.68 3.448C59.84 3.448 60.064 3.416 60.064 3.64C60.064 3.768 59.968 4.088 59.872 4.44C59.776 4.92 59.68 5.464 59.616 5.72C59.552 6.232 59.488 6.392 59.232 6.392C58.944 6.392 57.632 6.264 56.96 6.232C55.552 6.168 54.144 6.136 52.704 6.136C52.64 6.52 52.576 6.872 52.48 7.256C52.384 7.608 52.352 8.024 52.096 8.024C51.808 8.056 51.552 7.96 51.296 7.928C50.816 7.864 50.304 7.832 49.856 7.736C49.632 7.704 49.248 7.8 49.248 7.48C49.248 7.288 49.344 7.096 49.376 6.904C49.44 6.648 49.504 6.392 49.536 6.136C48.768 6.104 47.424 6.2 46.56 6.136L46.656 6.872C46.688 7 46.752 7.448 46.72 7.576C46.72 7.896 46.368 7.896 45.92 7.96C45.344 8.024 44.704 8.056 44.16 8.056ZM74.56 28.312C74.112 28.312 74.016 27.928 73.824 27.608C73.408 27 72.864 26.136 72.736 25.944C72.448 25.56 72.256 25.4 72.256 25.08C72.256 24.824 72.992 24.792 73.216 24.76C74.432 24.632 75.648 24.44 76.864 24.152C79.168 23.608 80.192 21.816 80.192 19.384C80.224 18.744 80.16 17.848 80.064 17.144C77.696 17.144 75.328 17.08 72.96 17.144C71.776 17.176 70.624 17.304 69.44 17.368C68.928 17.4 68.224 17.56 67.712 17.528C67.2 17.528 67.2 17.176 67.2 16.792V14.52C67.2 14.072 67.296 13.816 67.648 13.816C67.904 13.816 68.384 13.88 68.64 13.912C69.504 13.976 70.368 14.008 71.2 14.008C73.888 14.008 76.608 13.976 79.296 13.976C78.848 12.792 78.208 11.704 77.28 10.936C77.088 10.776 76.512 10.392 76.512 10.104C76.512 9.848 76.8 9.656 76.96 9.496C77.152 9.336 77.696 8.92 78.176 8.6C78.496 8.376 78.816 8.152 78.944 8.152C79.2 8.152 79.616 8.568 79.84 8.792C80.032 9.016 80.256 9.24 80.416 9.464C81.632 8.568 82.784 7.608 83.744 6.392C81.152 6.424 78.368 6.456 75.808 6.456C74.688 6.456 73.632 6.52 72.48 6.648C72.192 6.68 71.712 6.776 71.456 6.776C71.168 6.776 71.136 6.584 71.104 6.136V3.512C71.136 2.936 71.232 2.808 71.488 2.808C71.872 2.808 72.256 2.904 72.448 2.904C74.848 3.128 77.184 3.064 79.584 3.064C81.12 3.064 82.624 3.032 84.16 3.032C85.632 3.032 87.104 2.936 88.576 2.936C89.056 2.936 89.664 2.968 89.664 3.608C89.664 3.864 89.408 4.344 89.024 4.92C87.936 6.52 85.76 8.856 85.152 9.464C84.224 10.392 83.2 11.288 82.144 12.12C82.432 12.728 82.688 13.336 82.88 13.976C84.48 13.944 86.08 13.848 87.68 13.848C88.832 13.848 89.984 13.752 91.136 13.688C91.712 13.656 92.288 13.528 92.864 13.528C93.12 13.528 93.376 13.464 93.376 13.784C93.376 14.04 93.216 14.392 93.184 14.616C93.056 15.224 92.864 16.184 92.8 16.728C92.736 17.048 92.704 17.464 92.48 17.496C92.32 17.496 92.064 17.4 91.904 17.4L90.912 17.304C89.824 17.208 88.736 17.08 87.616 17.112C86.24 17.144 84.896 17.144 83.552 17.144C83.648 17.848 83.68 18.584 83.68 19.32C83.68 23.832 82.112 26.2 77.6 27.64C76.992 27.832 76.096 28.088 75.328 28.216C75.04 28.28 74.784 28.312 74.56 28.312Z" fill="black"/>
</svg>
