<svg width="94" height="29" viewBox="0 0 94 29" fill="none" xmlns="http://www.w3.org/2000/svg">
<path d="M17.088 27.216C16.704 27.216 16.384 26.832 16.096 26.576C15.648 26.224 15.136 25.872 14.688 25.52C14.496 25.36 14.048 25.168 14.016 24.848C14.016 24.592 14.272 24.592 14.56 24.4C15.872 23.504 16.768 22.8 17.856 21.584C19.168 20.112 19.712 18.256 19.968 16.464C20.128 15.28 20.224 14.064 20.224 12.848C20.224 12.336 20.192 11.792 20.192 11.28C20.192 10.832 20.32 10.736 20.736 10.736C21.024 10.736 22.08 10.8 22.912 10.864C23.424 10.928 23.84 11.024 23.904 11.12C23.936 11.184 23.936 11.28 23.936 11.312V11.376C24.096 11.216 24.256 11.088 24.32 10.992C24.864 10.384 25.376 9.712 25.824 8.976H20.48C19.968 10.384 19.328 11.728 18.624 12.912C18.464 13.168 17.984 14 17.632 14C17.472 14 17.184 13.808 16.832 13.552C16.352 13.2 15.744 12.816 15.52 12.656C15.2 12.464 14.816 12.272 14.816 11.952C14.848 11.664 15.584 11.024 15.776 10.736C16.544 9.616 17.216 8.144 17.728 6.576C18.24 4.88 18.464 3.248 18.56 1.776C18.592 1.488 18.528 1.136 18.528 0.848C18.528 0.591999 18.592 0.463999 18.848 0.463999C19.104 0.463999 19.328 0.527998 19.584 0.559999C20.064 0.623999 20.864 0.719999 21.568 0.848C21.952 0.943998 22.464 1.072 22.432 1.36C22.4 1.68 22.336 2.064 22.272 2.384C22.08 3.472 21.824 4.624 21.504 5.808H24.448C25.568 5.808 26.528 5.776 27.552 5.744L29.28 5.712C29.984 5.712 30.4 5.872 30.4 6.576C30.432 6.832 30.24 7.376 29.984 7.952C29.248 9.488 27.808 11.824 26.848 12.912C26.528 13.296 26.272 13.52 26.112 13.52C26.048 13.52 25.728 13.296 25.376 13.072C24.896 12.784 24.384 12.496 24.192 12.368C24.096 12.336 23.968 12.272 23.84 12.176L23.744 13.008C23.584 14.704 23.424 16.4 23.104 18.096L25.952 20.656C26.944 21.584 28 22.384 29.088 23.216C29.504 23.568 30.016 23.92 30.496 24.208C30.848 24.432 31.296 24.592 31.296 24.784C31.296 25.104 30.72 25.36 30.464 25.488C29.792 25.84 29.12 26.256 28.448 26.64C28.16 26.8 27.68 27.216 27.328 27.216C27.232 27.216 27.008 26.992 26.784 26.736C26.464 26.384 26.144 25.968 26.016 25.872L23.36 22.832C22.944 22.352 22.496 21.872 22.048 21.424C21.344 22.896 20.416 24.272 19.296 25.456C19.072 25.712 18.432 26.352 17.888 26.768C17.568 27.024 17.248 27.216 17.088 27.216ZM7.232 17.712H11.456C11.488 17.36 11.52 16.976 11.52 16.624H7.232V17.712ZM4.96 28.048C4.736 28.048 4.544 27.76 4.416 27.376C4.192 26.704 3.904 25.584 3.776 25.264C3.68 25.072 3.584 24.848 3.584 24.592C3.584 24.528 3.584 24.432 3.648 24.336C3.744 24.208 4.16 24.112 4.576 24.048C4.544 21.904 4.608 19.792 4.608 17.648C4.608 15.952 4.544 14.288 4.544 12.592C4.544 12.208 4.48 11.824 4.448 11.44L3.84 11.984C3.552 12.208 3.328 12.336 3.2 12.336C3.104 12.336 2.944 12.144 2.688 11.888C2.208 11.44 1.856 11.056 1.472 10.768C1.12 10.448 0.864 10.288 0.864 10.064C0.864 9.776 1.152 9.744 1.408 9.552C2.176 8.976 2.944 8.464 3.648 7.792C4.352 7.12 5.024 6.352 5.6 5.52C6.432 4.304 7.2 2.928 7.712 1.52L7.968 0.815998C8.064 0.559999 8.16 0.335999 8.256 0.335999C8.448 0.335999 8.608 0.335999 8.832 0.4C9.504 0.591999 10.304 0.815998 11.04 1.008C11.232 1.072 11.584 1.168 11.584 1.424C11.584 1.52 11.456 1.744 11.328 2.032C11.168 2.352 10.912 2.8 10.592 3.312C12.096 4.176 13.536 4.88 15.008 5.68C15.328 5.872 15.648 6.032 15.968 6.16C16.128 6.224 16.672 6.32 16.672 6.576C16.672 6.832 16.384 6.992 16.224 7.152C15.872 7.536 15.2 8.272 14.88 8.656C14.592 8.944 14.528 9.2 14.272 9.2C14.08 9.2 13.76 8.944 13.632 8.816C12.672 8.048 11.744 7.312 10.752 6.608C10.176 6.224 9.728 5.936 9.184 5.552L8.288 6.896C8.544 6.928 8.864 7.152 9.344 7.312C9.92 7.568 10.496 7.792 11.072 7.952C11.616 8.112 12.224 8.272 12.224 8.528C12.256 8.784 11.936 8.976 11.744 9.072C10.688 9.712 9.312 10 8.064 10C7.744 10 7.456 10 7.456 9.552C7.456 8.912 7.68 8.208 7.84 7.568C7.616 7.856 7.488 8.08 7.392 8.208C7.136 8.528 6.208 9.616 5.28 10.608C5.728 10.672 6.304 10.704 6.88 10.704C7.712 10.736 8.608 10.704 9.28 10.704C9.92 10.704 10.56 10.704 11.232 10.672C12.192 10.64 13.184 10.448 14.144 10.448C14.528 10.448 14.72 10.544 14.72 10.96C14.72 11.216 14.656 11.472 14.656 11.728C14.56 12.752 14.464 13.776 14.4 14.8C14.336 15.952 14.176 17.872 14.112 19.056C14.08 19.888 13.856 20.144 13.248 20.144C13.76 20.624 14.368 21.264 14.72 21.84C14.912 22.16 15.008 22.448 15.008 22.64C15.008 22.864 14.912 23.024 14.72 23.024C14.4 23.024 14.048 22.864 13.76 22.832L10.88 22.416C10.496 22.352 10.176 22.384 10.144 21.936C10.144 21.776 10.24 21.488 10.4 21.136C10.56 20.816 10.752 20.464 10.944 20.176L7.232 20.144L7.2 23.76C7.872 23.664 8.512 23.6 9.152 23.536C10.112 23.44 11.072 23.408 12.032 23.344C12.448 23.312 12.864 23.312 13.28 23.248C13.44 23.216 13.6 23.184 13.792 23.184C13.984 23.184 14.048 23.28 14.048 23.472C14.048 23.632 14.016 23.792 13.984 23.952C13.952 24.176 13.856 25.008 13.76 25.552C13.696 25.968 13.696 26.16 13.504 26.192C13.408 26.224 13.344 26.224 13.248 26.224C12.832 26.224 12.416 26.192 12 26.192C10.784 26.192 8.896 26.288 7.776 26.64C7.2 26.8 6.208 27.216 5.568 27.632C5.44 27.728 5.152 28.048 4.96 28.048ZM7.232 14.48H11.616L11.712 13.296C10.208 13.296 8.704 13.264 7.2 13.296L7.232 14.48ZM49.792 26.256C49.6 26.256 49.312 26.096 48.96 25.872C48.48 25.584 47.968 25.168 47.712 25.008C47.52 24.88 47.072 24.656 47.072 24.368V24.304C47.136 24.08 47.456 23.984 47.616 23.888C48.288 23.536 48.896 23.12 49.504 22.64C51.264 21.232 52.352 19.376 53.024 17.232C50.656 16.816 48.32 16.528 45.888 16.528C45.44 17.616 44.928 18.672 44.384 19.728C43.328 21.84 42.144 23.376 39.584 23.376C37.056 23.376 35.392 21.84 35.392 19.28C35.392 17.744 36.096 16.624 37.152 15.792C38.944 14.384 41.76 13.808 43.776 13.648C44.672 11.408 45.568 9.136 46.528 6.896C44.928 7.056 43.328 7.248 41.728 7.504C41.248 7.568 40.672 7.76 40.192 7.76C39.872 7.76 39.776 7.472 39.776 7.216C39.776 6.864 39.84 5.552 39.904 4.688C39.936 4.272 39.968 3.952 40.288 3.952C40.48 3.92 40.768 3.984 40.992 4.016C41.312 4.08 41.664 4.112 42.048 4.112C43.136 4.112 44.256 4.016 45.344 3.92C46.016 3.856 46.976 3.856 47.616 3.696C47.968 3.6 48.352 2.992 48.64 2.992C48.832 2.992 49.152 3.152 49.472 3.344C50.016 3.664 50.528 4.048 51.04 4.496C51.36 4.784 51.552 5.072 51.552 5.296C51.552 5.712 50.816 6.096 50.528 6.352C50.24 6.672 49.824 7.312 49.472 8.112C48.608 9.968 47.552 12.528 47.136 13.552C49.344 13.648 51.552 13.872 53.728 14.256C53.888 13.296 54.112 11.44 54.112 10.544C54.112 10.32 54.08 10.096 54.08 9.872C54.08 9.616 54.24 9.424 54.528 9.424C54.656 9.424 54.816 9.488 55.072 9.52C55.584 9.584 56.32 9.648 56.864 9.776C57.152 9.84 57.728 9.904 57.728 10.288C57.728 10.512 57.664 10.768 57.6 10.992C57.344 12.304 57.12 13.616 56.896 14.928C57.344 15.024 59.872 15.76 61.184 16.24C61.568 16.368 62.048 16.432 62.048 16.912C62.048 17.008 61.984 17.296 61.92 17.648C61.792 18.224 61.6 18.96 61.536 19.152C61.44 19.408 61.312 19.888 60.992 19.888C60.672 19.888 58.944 18.992 58.496 18.832C57.696 18.512 56.896 18.224 56.128 17.936C55.328 20.592 54.016 22.768 52.064 24.752C51.584 25.232 51.04 25.648 50.464 25.968C50.304 26.064 49.952 26.256 49.792 26.256ZM39.776 20.048C41.152 20.048 41.952 17.744 42.336 16.688C41.664 16.784 40.384 17.104 39.488 17.648C38.944 18 38.56 18.416 38.56 18.96C38.56 19.632 39.136 20.048 39.776 20.048ZM90.368 27.504C89.952 27.504 89.856 27.344 89.344 27.152C88.8 26.928 88.448 26.8 88.096 26.64C87.552 26.384 86.944 26.288 86.912 25.968C86.88 25.712 87.072 25.392 87.2 25.072C87.424 24.496 87.84 23.696 87.904 23.504C89.088 20.016 89.664 16.016 90.016 12.4C90.144 10.96 90.272 9.616 90.24 8.176H89.216C89.024 10 88.896 11.12 88.512 13.2C87.712 17.68 86.496 21.68 85.248 24.944C85.184 25.136 84.768 26.224 84.576 26.224C84.16 26.224 84.16 26.032 83.648 25.84C83.136 25.584 82.72 25.424 82.368 25.232C81.856 24.976 81.376 24.944 81.376 24.624C81.376 24.368 81.6 24.048 81.76 23.728C82.048 23.152 82.528 22.384 82.624 22.192C84.16 18.736 85.184 15.504 85.952 11.6C86.176 10.384 86.272 9.296 86.4 8.176H85.376C84.864 10.544 84.192 12.944 82.848 16.432C81.824 19.12 80.8 21.232 79.968 22.8C79.872 22.96 79.616 23.6 79.36 23.6C79.008 23.632 78.848 23.472 78.4 23.312C77.568 23.024 77.312 22.992 76.928 22.768C76.512 22.512 76.416 22.704 76.416 22.32C76.416 22.16 76.736 21.648 76.992 21.296C77.312 20.848 77.664 20.272 77.76 20.112C78.784 18.352 79.68 16.4 80.544 14.288C81.536 11.888 82.016 10.288 82.56 8.176L81.248 8.144C80.864 9.424 80.48 10.64 80.16 11.408C80 11.76 79.968 11.984 79.552 11.984C79.456 11.984 79.2 11.888 78.88 11.824C78.336 11.728 77.6 11.568 77.12 11.472C76.896 11.408 76.576 11.344 76.608 11.056C76.64 10.8 76.896 10.48 76.992 10.256C77.504 9.2 78.112 7.632 78.4 6.672C78.912 4.784 79.36 2.832 79.52 0.879999C79.552 0.527998 79.616 0.495998 79.968 0.495998C80.256 0.495998 81.632 0.719999 82.4 0.848C82.624 0.911999 83.008 0.943998 82.976 1.232C82.944 1.744 82.688 2.608 82.592 3.152L82.144 4.976H87.424C88.544 4.976 89.696 4.944 90.816 4.912C91.488 4.88 92.16 4.816 92.8 4.816C93.216 4.816 93.344 4.88 93.344 5.264C93.344 5.776 93.344 6.288 93.312 6.8C93.216 9.168 93.088 11.6 92.928 13.968C92.64 18.448 91.872 22.928 90.944 26.224C90.912 26.416 90.56 27.504 90.368 27.504ZM71.584 27.184C71.36 27.184 71.232 27.184 71.232 26.928C71.232 26.768 71.232 26.608 71.264 26.448C71.488 23.504 71.552 20.528 71.616 17.584L68.32 18.832C67.968 18.96 67.104 19.408 66.784 19.408C66.464 19.408 66.272 18.896 66.144 18.64C65.952 18.16 65.344 16.88 65.344 16.304C65.344 15.92 66.56 15.728 66.848 15.664C68.48 15.216 70.08 14.64 71.648 14.064C71.648 12.272 71.68 10.48 71.648 8.656H69.664C69.632 8.976 69.408 10.512 69.216 11.344C69.152 11.6 69.152 11.92 68.832 11.92C68.672 11.92 68.48 11.888 68.288 11.856C67.68 11.76 66.88 11.568 66.368 11.472C65.856 11.344 65.632 11.376 65.632 11.152C65.632 10.928 65.824 10.448 65.92 10.192C66.208 9.264 66.464 8.304 66.624 7.344C66.848 5.936 66.912 4.432 66.912 3.024C66.912 2.768 66.848 2.48 66.848 2.224C66.848 1.968 66.976 1.968 67.232 1.936C67.584 1.936 68.832 2.128 69.632 2.224C69.92 2.256 70.272 2.32 70.272 2.672C70.272 2.864 70.24 3.088 70.24 3.312C70.176 4.08 70.08 4.912 69.984 5.648L71.648 5.68C71.648 4.816 71.68 3.952 71.68 3.056C71.68 2.544 71.68 2.032 71.648 1.52C71.616 1.296 71.584 1.072 71.584 0.848C71.584 0.463999 71.808 0.463999 72.096 0.463999H74.592C74.88 0.463999 75.072 0.463999 75.072 0.848C75.072 1.008 75.04 1.2 75.04 1.36C74.944 2.768 74.848 4.208 74.816 5.616L76.608 5.52C76.896 5.488 77.184 5.424 77.472 5.424C77.664 5.424 77.728 5.488 77.728 5.68C77.728 6.384 77.568 7.056 77.504 7.76C77.472 8.08 77.568 8.752 77.056 8.752C76.672 8.752 76.256 8.688 75.84 8.688H74.816L74.784 12.688C75.008 12.592 75.808 12.176 76.256 11.888C76.576 11.696 76.832 11.536 77.024 11.568C77.28 11.6 77.376 12.176 77.44 12.368C77.536 12.752 78.048 14.256 78.048 14.544C78.048 14.864 77.664 14.992 77.44 15.088C76.576 15.536 75.712 15.92 74.784 16.272L74.816 25.84C74.816 26.16 74.88 26.48 74.88 26.8C74.88 27.12 74.688 27.152 74.4 27.152C73.472 27.152 72.512 27.184 71.584 27.184Z" fill="black"/>
</svg>
