<svg width="66" height="60" viewBox="0 0 66 60" fill="none" xmlns="http://www.w3.org/2000/svg">
<g clip-path="url(#clip0_20_69)">
<path d="M65.4877 41.5276C64.1948 36.4895 60.8979 33.8435 59.6645 32.782C58.3886 31.6849 57.4775 30.4042 55.8437 27.4008C54.2605 24.491 45.3979 23.7539 40.3402 23.6612V23.647C40.1084 23.647 39.8554 23.6488 39.5908 23.6505C39.3262 23.6479 39.0731 23.647 38.8414 23.647V23.6612C33.7836 23.7539 24.6831 24.3724 23.3378 27.4008C21.8461 30.7598 19.3945 33.6635 18.1025 34.6509C16.8097 35.6384 14.9858 36.4886 13.6939 41.5276C12.4028 46.5604 8.46567 60.001 39.6449 60.001C67.8167 60.001 66.7787 46.5604 65.4877 41.5276Z" fill="#00536E"/>
<path d="M58.9399 11.471C57.5246 3.93659 51.6082 0.298603 40.3126 0.0143018C40.3126 0.0143018 39.8358 -0.00263152 39.5899 4.21544e-05C39.3448 -0.00263152 38.8671 0.0143018 38.8671 0.0143018C27.5715 0.298603 21.6561 3.93659 20.2398 11.471C18.7631 19.3245 23.4879 28.8089 23.4879 28.8089L25.1119 27.9943C25.1119 27.9943 20.4706 16.9512 22.6763 11.1751C25.6758 3.31808 34.6866 2.6657 39.5899 2.655C44.494 2.6657 53.5048 3.31808 56.5043 11.1742C58.71 16.9503 54.0687 27.9934 54.0687 27.9934L55.6927 28.808C55.6927 28.808 60.4175 19.3245 58.9408 11.4701L58.9399 11.471Z" fill="#00536E"/>
<path d="M39.5899 25.5488C41.5877 25.5488 43.2073 23.9232 43.2073 21.918C43.2073 19.9127 41.5877 18.2871 39.5899 18.2871C37.592 18.2871 35.9724 19.9127 35.9724 21.918C35.9724 23.9232 37.592 25.5488 39.5899 25.5488Z" fill="#00536E"/>
<path d="M16.1419 37.4028C15.3303 37.1061 12.8201 35.7728 11.7866 34.7354C10.753 33.698 9.49832 32.2908 9.42463 31.5493C9.35093 30.8078 9.27723 30.4379 8.09626 30.4379C6.9153 30.4379 2.17101 30.1322 2.02361 31.0956C1.87621 32.0591 2.19054 32.8826 3.29781 33.3273C4.40508 33.772 4.92186 36.5874 5.06926 37.4768C5.21666 38.3663 4.62617 47.3311 13.1895 48.0717L16.1419 37.4028Z" fill="#00536E"/>
<path d="M8.12112 30.5592C8.12112 30.5592 5.40934 30.4443 4.32694 30.5334C3.24453 30.6225 2.2012 30.8524 2.40454 31.3132C2.60788 31.774 3.41058 32.3996 5.05239 32.4246C6.6942 32.4495 8.96112 32.0413 8.97355 31.4148C8.98598 30.7883 8.48962 30.5583 8.12024 30.5583L8.12112 30.5592Z" fill="#33758B"/>
<path d="M40.191 33.0333C30.611 33.0333 25.6234 30.5334 25.4165 30.4274C24.9797 30.2037 24.8065 29.6663 25.0294 29.2287C25.2514 28.7911 25.7868 28.6155 26.2228 28.8392C26.2903 28.8731 31.102 31.2509 40.191 31.2509C49.3271 31.2509 53.5874 28.882 53.6301 28.8579C54.0563 28.6164 54.5979 28.7652 54.8403 29.193C55.0818 29.6208 54.9327 30.1645 54.5065 30.4078C54.3191 30.5147 49.7906 33.0333 40.191 33.0333Z" fill="#33758B"/>
<path d="M14.2293 48.693C13.9274 48.693 13.6326 48.5379 13.4666 48.259C13.2153 47.8365 13.3529 47.2893 13.7729 47.0362C18.9248 43.9463 16.1686 39.0152 16.0487 38.8075C15.8036 38.3824 15.9475 37.8379 16.3701 37.5901C16.7928 37.3441 17.3345 37.4849 17.5822 37.9092C18.915 40.1943 20.0249 45.3625 14.6839 48.5665C14.541 48.652 14.3838 48.693 14.2293 48.693Z" fill="#33758B"/>
<path d="M40.92 52.6929C27.8886 52.6929 18.2828 48.432 18.1372 48.366C17.6905 48.1628 17.4925 47.6352 17.6941 47.1869C17.8956 46.7396 18.4213 46.5381 18.8688 46.7422C19.0837 46.8403 40.6341 56.3737 62.7226 46.2984C63.1657 46.0943 63.6949 46.2922 63.8982 46.7413C64.1016 47.1887 63.9036 47.7172 63.4569 47.9213C55.5826 51.5139 47.7758 52.6938 40.9191 52.6938L40.92 52.6929Z" fill="#33758B"/>
<path d="M22.3931 39.9232C22.9742 39.9232 23.4453 39.4504 23.4453 38.8671C23.4453 38.2839 22.9742 37.811 22.3931 37.811C21.8119 37.811 21.3409 38.2839 21.3409 38.8671C21.3409 39.4504 21.8119 39.9232 22.3931 39.9232Z" fill="#33758B"/>
<path d="M37.0965 37.7782C37.6776 37.7782 38.1487 37.3054 38.1487 36.7221C38.1487 36.1388 37.6776 35.666 37.0965 35.666C36.5154 35.666 36.0443 36.1388 36.0443 36.7221C36.0443 37.3054 36.5154 37.7782 37.0965 37.7782Z" fill="#33758B"/>
<path d="M33.7605 43.2753C34.3416 43.2753 34.8127 42.8025 34.8127 42.2192C34.8127 41.6359 34.3416 41.1631 33.7605 41.1631C33.1794 41.1631 32.7083 41.6359 32.7083 42.2192C32.7083 42.8025 33.1794 43.2753 33.7605 43.2753Z" fill="#33758B"/>
<path d="M30.0001 46.9123C30.5812 46.9123 31.0523 46.4394 31.0523 45.8561C31.0523 45.2729 30.5812 44.8 30.0001 44.8C29.419 44.8 28.9479 45.2729 28.9479 45.8561C28.9479 46.4394 29.419 46.9123 30.0001 46.9123Z" fill="#33758B"/>
<path d="M31.2032 37.8236C31.7844 37.8236 32.2555 37.3508 32.2555 36.7675C32.2555 36.1843 31.7844 35.7114 31.2032 35.7114C30.6221 35.7114 30.151 36.1843 30.151 36.7675C30.151 37.3508 30.6221 37.8236 31.2032 37.8236Z" fill="#33758B"/>
<path d="M23.2197 45.7565C23.8008 45.7565 24.2719 45.2837 24.2719 44.7004C24.2719 44.1171 23.8008 43.6443 23.2197 43.6443C22.6386 43.6443 22.1675 44.1171 22.1675 44.7004C22.1675 45.2837 22.6386 45.7565 23.2197 45.7565Z" fill="#33758B"/>
<path d="M26.8701 41.4972C27.4512 41.4972 27.9223 41.0244 27.9223 40.4411C27.9223 39.8578 27.4512 39.385 26.8701 39.385C26.289 39.385 25.8179 39.8578 25.8179 40.4411C25.8179 41.0244 26.289 41.4972 26.8701 41.4972Z" fill="#33758B"/>
<path d="M25.5905 35.8656C26.1717 35.8656 26.6428 35.3928 26.6428 34.8095C26.6428 34.2262 26.1717 33.7534 25.5905 33.7534C25.0094 33.7534 24.5383 34.2262 24.5383 34.8095C24.5383 35.3928 25.0094 35.8656 25.5905 35.8656Z" fill="#33758B"/>
<path d="M35.3073 49.0441C35.8884 49.0441 36.3595 48.5713 36.3595 47.988C36.3595 47.4047 35.8884 46.9319 35.3073 46.9319C34.7262 46.9319 34.2551 47.4047 34.2551 47.988C34.2551 48.5713 34.7262 49.0441 35.3073 49.0441Z" fill="#33758B"/>
<path d="M39.7941 43.5221C40.3752 43.5221 40.8463 43.0493 40.8463 42.466C40.8463 41.8827 40.3752 41.4099 39.7941 41.4099C39.213 41.4099 38.7419 41.8827 38.7419 42.466C38.7419 43.0493 39.213 43.5221 39.7941 43.5221Z" fill="#33758B"/>
<path d="M54.7586 35.4093C55.3398 35.4093 55.8108 34.9365 55.8108 34.3532C55.8108 33.77 55.3398 33.2971 54.7586 33.2971C54.1775 33.2971 53.7064 33.77 53.7064 34.3532C53.7064 34.9365 54.1775 35.4093 54.7586 35.4093Z" fill="#33758B"/>
<path d="M52.4029 41.3947C52.984 41.3947 53.4551 40.9218 53.4551 40.3386C53.4551 39.7553 52.984 39.2825 52.4029 39.2825C51.8218 39.2825 51.3507 39.7553 51.3507 40.3386C51.3507 40.9218 51.8218 41.3947 52.4029 41.3947Z" fill="#33758B"/>
<path d="M47.275 48.0165C47.8561 48.0165 48.3272 47.5437 48.3272 46.9604C48.3272 46.3771 47.8561 45.9043 47.275 45.9043C46.6939 45.9043 46.2228 46.3771 46.2228 46.9604C46.2228 47.5437 46.6939 48.0165 47.275 48.0165Z" fill="#33758B"/>
<path d="M52.5157 46.0094C53.0968 46.0094 53.5679 45.5366 53.5679 44.9533C53.5679 44.37 53.0968 43.8972 52.5157 43.8972C51.9346 43.8972 51.4635 44.37 51.4635 44.9533C51.4635 45.5366 51.9346 46.0094 52.5157 46.0094Z" fill="#33758B"/>
<path d="M48.702 37.2987C49.2831 37.2987 49.7542 36.8259 49.7542 36.2426C49.7542 35.6594 49.2831 35.1865 48.702 35.1865C48.1208 35.1865 47.6497 35.6594 47.6497 36.2426C47.6497 36.8259 48.1208 37.2987 48.702 37.2987Z" fill="#33758B"/>
<path d="M46.7032 42.4848C47.2843 42.4848 47.7554 42.0119 47.7554 41.4287C47.7554 40.8454 47.2843 40.3726 46.7032 40.3726C46.1221 40.3726 45.651 40.8454 45.651 41.4287C45.651 42.0119 46.1221 42.4848 46.7032 42.4848Z" fill="#33758B"/>
<path d="M42.9179 39.0731C43.499 39.0731 43.9701 38.6003 43.9701 38.017C43.9701 37.4338 43.499 36.9609 42.9179 36.9609C42.3368 36.9609 41.8657 37.4338 41.8657 38.017C41.8657 38.6003 42.3368 39.0731 42.9179 39.0731Z" fill="#33758B"/>
<path d="M57.3683 40.017C57.9494 40.017 58.4205 39.5442 58.4205 38.9609C58.4205 38.3776 57.9494 37.9048 57.3683 37.9048C56.7872 37.9048 56.3161 38.3776 56.3161 38.9609C56.3161 39.5442 56.7872 40.017 57.3683 40.017Z" fill="#33758B"/>
<path d="M57.727 45.9428C58.3081 45.9428 58.7792 45.4699 58.7792 44.8867C58.7792 44.3034 58.3081 43.8306 57.727 43.8306C57.1459 43.8306 56.6748 44.3034 56.6748 44.8867C56.6748 45.4699 57.1459 45.9428 57.727 45.9428Z" fill="#33758B"/>
<path d="M62.0451 42.6381C62.6262 42.6381 63.0973 42.1653 63.0973 41.582C63.0973 40.9987 62.6262 40.5259 62.0451 40.5259C61.464 40.5259 60.9929 40.9987 60.9929 41.582C60.9929 42.1653 61.464 42.6381 62.0451 42.6381Z" fill="#33758B"/>
<path d="M40.9484 48.619C41.5295 48.619 42.0006 48.1462 42.0006 47.5629C42.0006 46.9797 41.5295 46.5068 40.9484 46.5068C40.3673 46.5068 39.8962 46.9797 39.8962 47.5629C39.8962 48.1462 40.3673 48.619 40.9484 48.619Z" fill="#33758B"/>
</g>
<defs>
<clipPath id="clip0_20_69">
<rect width="66" height="60" fill="white"/>
</clipPath>
</defs>
</svg>
