<svg width="53" height="48" viewBox="0 0 53 48" fill="none" xmlns="http://www.w3.org/2000/svg">
<g clip-path="url(#clip0_6_204)">
<path d="M18.16 14.3129C18.16 14.3129 14.7197 9.87968 10.6538 7.18004C7.70966 5.22547 4.85777 3.72291 1.74661 3.73533C-0.564319 3.74278 -0.853497 0.0223852 2.56179 0.258325C5.97709 0.496747 15.6296 7.98472 19.8651 12.8376C18.9776 13.7317 18.16 14.3129 18.16 14.3129Z" fill="#B82901"/>
<path d="M23.5496 0C20.3338 3.73281 19.0798 10.5452 18.6585 13.6423C15.525 13.6249 8.5772 13.9155 4.41902 16.5679C6.90944 19.4215 13.6029 20.7229 13.6029 20.7229C13.6029 20.7229 3.86061 29.1596 3.52905 36.1285C6.65018 36.7668 16.2479 30.1257 16.2479 30.1257C16.2479 30.1257 12.678 40.7331 17.3074 48C23.2505 44.5205 26.0625 32.0629 26.0625 32.0629C26.0625 32.0629 35.8696 43.7903 45.395 44.2846C46.1653 35.5002 35.9394 23.5095 35.9394 23.5095C35.9394 23.5095 48.7131 22.4689 52.9984 17.0895C46.4196 11.5114 35.3785 13.5578 35.3785 13.5578C35.3785 13.5578 43.3159 5.01185 43.1165 1.84529C36.1438 1.20205 26.4015 9.63874 26.4015 9.63874C26.4015 9.63874 26.0401 2.85362 23.5496 0Z" fill="#E94709"/>
<path d="M24.1953 16.8734C22.201 14.3426 23.3128 3.36523 23.3128 3.36523C20.8199 7.94991 22.4254 17.2136 22.5949 18.1524C21.6875 17.8519 12.703 14.9809 7.79944 16.8014C7.79944 16.8014 18.863 17.231 21.1016 19.5532C21.1016 19.5532 10.412 25.1884 6.0918 32.9769C6.0918 32.9769 14.9716 23.7976 21.3235 21.2768C19.2968 24.0981 17.3199 39.228 17.7312 43.1322C17.7312 43.1322 21.3933 23.5616 23.5596 20.4075C23.5596 20.4075 42.2365 41.719 42.7626 41.2645C43.2861 40.8101 24.7039 19.4166 24.7039 19.4166C28.1391 17.7178 48.1024 16.8287 48.1024 16.8287C44.2807 15.88 28.9643 15.7235 25.878 17.3328C29.2684 11.4145 39.629 3.93397 39.629 3.93397C31.2852 7.11294 24.1953 16.8734 24.1953 16.8734Z" fill="#B82901"/>
</g>
<defs>
<clipPath id="clip0_6_204">
<rect width="53" height="48" fill="white"/>
</clipPath>
</defs>
</svg>
