<svg width="80" height="40" viewBox="0 0 80 40" fill="none" xmlns="http://www.w3.org/2000/svg">
<mask id="mask0_6_209" style="mask-type:luminance" maskUnits="userSpaceOnUse" x="0" y="0" width="80" height="40">
<path d="M80 0.000610352H0V39.9992H80V0.000610352Z" fill="white"/>
</mask>
<g mask="url(#mask0_6_209)">
<path d="M0 22.4305C0 22.4305 11.5318 21.1271 20.7603 18.9785C30.3872 16.7371 33.9136 8.76409 31.3703 3.86414C28.8244 -1.03855 21.1408 -2.05835 13.7432 5.45928C6.96862 12.3388 0 22.4305 0 22.4305Z" fill="#188F5A"/>
<path d="M5.8808 19.0115C5.8808 19.0115 14.5297 14.8642 24.7209 8.83262C30.0654 5.66687 29.2994 5.15152 29.2994 5.15152C29.2994 5.15152 29.0389 4.33077 23.9497 7.34382C13.7559 13.3781 5.8808 19.0115 5.8808 19.0115Z" fill="white"/>
<path d="M15.5638 33.1143C15.5638 33.1143 25.4997 26.731 33.0148 20.6176C40.8516 14.2425 40.8899 5.4242 36.6459 2.13029C32.3994 -1.16361 25.0324 1.38044 21.3017 11.5321C17.8876 20.8248 15.5638 33.1143 15.5638 33.1143Z" fill="#68B336"/>
<path d="M19.5397 27.3609C19.5397 27.3609 25.7372 19.6987 32.5858 9.63159C36.1786 4.35262 35.2772 4.22992 35.2772 4.22992C35.2772 4.22992 34.718 3.60549 31.2988 8.63361C24.4476 18.7007 19.5397 27.3609 19.5397 27.3609Z" fill="white"/>
<path d="M80 22.4308C80 22.4308 68.4682 21.1274 59.2397 18.9787C49.6128 16.7373 46.0864 8.76433 48.6297 3.86438C51.1756 -1.0383 58.8592 -2.0581 66.2568 5.45952C73.0314 12.3391 80 22.4308 80 22.4308Z" fill="#188F5A"/>
<path d="M74.1217 19.0115C74.1217 19.0115 65.4729 14.8642 55.2817 8.83262C49.9371 5.66687 50.7032 5.15152 50.7032 5.15152C50.7032 5.15152 50.9636 4.33077 56.0529 7.34382C66.2466 13.3781 74.1217 19.0115 74.1217 19.0115Z" fill="white"/>
<path d="M64.4387 33.1143C64.4387 33.1143 54.5029 26.731 46.9878 20.6176C39.151 14.2425 39.1127 5.4242 43.3566 2.13029C47.6032 -1.16361 54.9702 1.38044 58.7009 11.5321C62.115 20.8248 64.4387 33.1143 64.4387 33.1143Z" fill="#68B336"/>
<path d="M60.4628 27.3609C60.4628 27.3609 54.2654 19.6987 47.4168 9.63159C43.8239 4.35262 44.7253 4.22992 44.7253 4.22992C44.7253 4.22992 45.2846 3.60549 48.7037 8.63361C55.5549 18.7007 60.4628 27.3609 60.4628 27.3609Z" fill="white"/>
<path d="M39.9502 39.9993C39.9502 39.9993 44.4751 28.5988 47.1895 18.9379C50.0188 8.85989 45.1977 1.69946 39.9502 1.69946C34.7027 1.69946 30.142 8.38271 32.7109 18.9379C35.0653 28.5988 39.9502 39.9993 39.9502 39.9993Z" fill="#188F5A"/>
<path d="M40.0013 32.8498C40.0013 32.8498 40.798 22.7636 40.798 10.3187C40.798 3.79363 40.0013 4.25717 40.0013 4.25717C40.0013 4.25717 39.2046 4.10448 39.2046 10.3187C39.2046 22.7636 40.0013 32.8498 40.0013 32.8498Z" fill="white"/>
</g>
</svg>
