<svg width="56" height="47" viewBox="0 0 56 47" fill="none" xmlns="http://www.w3.org/2000/svg">
<g style="mix-blend-mode:multiply" clip-path="url(#clip0_6_188)">
<path d="M35.3438 15.2667C35.3438 10.8905 31.7988 7.3432 27.4253 7.3432C26.7625 7.3432 26.1346 7.45447 25.5285 7.61372C25.3563 3.39018 21.9355 0 17.6732 0C13.4109 0 9.98793 3.39018 9.81569 7.61372C9.20959 7.45447 8.58169 7.3432 7.9189 7.3432C3.54539 7.3432 0.000366211 10.8905 0.000366211 15.2667C0.000366211 18.6852 2.19148 21.5344 5.22198 22.6448C4.40222 23.8927 3.80484 25.302 3.80484 26.9076C3.80484 31.2839 7.34987 34.8311 11.7234 34.8311C14.1347 34.8311 16.2212 33.6945 17.6732 31.9929C19.1252 33.6945 21.2095 34.8311 23.6208 34.8311C27.9943 34.8311 31.5393 31.2839 31.5393 26.9076C31.5393 25.2933 30.9768 23.8643 30.1353 22.6426C33.1614 21.5279 35.3438 18.6809 35.3438 15.2667Z" fill="#F19EC2"/>
<path d="M17.6756 16.5124C18.0681 16.5124 18.9467 15.2166 19.071 13.7331C19.2476 11.6366 18.7788 10.6178 17.6756 10.6178C16.6269 10.6178 16.0732 11.665 16.2803 13.7331C16.4264 15.1948 17.2745 16.5124 17.6756 16.5124Z" fill="white"/>
<path d="M16.7206 19.1804C16.4023 18.9492 14.9329 19.4815 13.9583 20.6094C12.5848 22.1998 12.3667 23.2993 13.2585 23.9494C14.1066 24.5646 15.1705 24.0454 16.217 22.2499C16.9583 20.9803 17.0455 19.4161 16.7206 19.1804Z" fill="white"/>
<path d="M18.6414 19.1804C18.3231 19.4117 18.3755 20.9759 19.1451 22.2499C20.233 24.0497 21.2119 24.5973 22.1036 23.9494C22.9517 23.332 22.786 22.1583 21.4038 20.6094C20.4249 19.512 18.9663 18.9448 18.6414 19.1804Z" fill="white"/>
<path d="M16.1364 17.625C16.2585 17.2519 15.297 16.015 13.9257 15.439C11.9897 14.6231 10.8756 14.754 10.5333 15.8034C10.2106 16.8004 11.0347 17.6534 13.0623 18.094C14.4991 18.406 16.0121 18.0068 16.1364 17.625Z" fill="white"/>
<path d="M19.2017 17.6163C19.3238 17.9894 20.826 18.4257 22.2758 18.0854C24.3208 17.6054 25.145 16.8441 24.8048 15.7947C24.48 14.7977 23.3136 14.5927 21.4124 15.4304C20.0672 16.0216 19.0774 17.2346 19.2017 17.6163Z" fill="white"/>
<path d="M25.1603 27.3941L28.2518 31.91L41.8476 23.2534L52.3519 21.8289L52.6615 20.0378L44.6667 20.3018L55.9994 11.2547L55.4435 9.89343L25.1603 27.3941Z" fill="#7F5B2E"/>
<path d="M45.0744 32.5536C45.0744 29.3227 42.4559 26.7026 39.227 26.7026C38.7387 26.7026 38.2743 26.7855 37.8273 26.9033C37.7009 23.7836 35.174 21.2814 32.0258 21.2814C28.8775 21.2814 26.3529 23.7836 26.2264 26.9033C25.7773 26.7855 25.3151 26.7026 24.8245 26.7026C21.5956 26.7026 18.9794 29.3227 18.9794 32.5536C18.9794 35.0777 20.5949 37.1807 22.834 38.001C22.2279 38.9238 21.7875 39.9623 21.7875 41.149C21.7875 44.38 24.4059 47 27.6348 47C29.4161 47 30.9553 46.1601 32.0258 44.9035C33.0984 46.1601 34.6377 47 36.4189 47C39.6478 47 42.2641 44.38 42.2641 41.149C42.2641 39.9557 41.8498 38.902 41.2285 37.9988C43.4632 37.1764 45.0744 35.0733 45.0744 32.5536Z" fill="#EB6D8E"/>
<path d="M32.0301 33.472C32.3201 33.472 32.9676 32.5143 33.0613 31.4191C33.1921 29.8724 32.8455 29.1198 32.0301 29.1198C31.2561 29.1198 30.8462 29.8942 30.9989 31.4191C31.1079 32.499 31.7336 33.472 32.0301 33.472Z" fill="white"/>
<path d="M31.3237 35.4442C31.0883 35.274 30.0025 35.6667 29.2852 36.4979C28.2693 37.6738 28.1079 38.4853 28.7663 38.9652C29.3942 39.4212 30.1791 39.0351 30.9509 37.7108C31.4982 36.7728 31.5636 35.6187 31.3237 35.4442Z" fill="white"/>
<path d="M32.7431 35.442C32.5076 35.6122 32.5468 36.7684 33.1159 37.7087C33.9182 39.0372 34.6398 39.4408 35.3004 38.9631C35.9262 38.5071 35.8019 37.641 34.7816 36.4957C34.0599 35.6863 32.9829 35.2675 32.7431 35.442Z" fill="white"/>
<path d="M30.8943 34.2945C30.9836 34.0174 30.2751 33.1055 29.2613 32.6801C27.8311 32.078 27.0091 32.174 26.7584 32.9506C26.5186 33.6858 27.1268 34.3141 28.6247 34.6413C29.6842 34.8726 30.8027 34.5759 30.8943 34.2945Z" fill="white"/>
<path d="M33.1573 34.2858C33.2467 34.5629 34.3564 34.8836 35.4269 34.6327C36.9378 34.2793 37.5461 33.7164 37.2932 32.942C37.0533 32.2046 36.1921 32.0541 34.7903 32.6715C33.7961 33.1078 33.0657 34.0044 33.1573 34.2858Z" fill="white"/>
</g>
<defs>
<clipPath id="clip0_6_188">
<rect width="56" height="47" fill="white"/>
</clipPath>
</defs>
</svg>
