<svg width="42" height="38" viewBox="0 0 42 38" fill="none" xmlns="http://www.w3.org/2000/svg">
<g clip-path="url(#clip0_6_223)">
<path d="M35.2008 20.741C31.001 19.734 28.83 21.3644 28.0899 22.1114C27.1311 22.5393 24.6265 24.1531 24.0305 28.4801C23.2722 33.9874 25.1697 35.7672 25.5452 36.2136C27.3827 35.0608 29.2328 31.9272 29.2328 31.9272C29.2328 31.9272 32.4811 37.0435 38.8301 38.0008C41.0375 34.7952 36.7174 26.7482 36.7174 26.7482C36.7174 26.7482 39.4918 26.8091 42.0018 24.8263C40.9956 23.7087 39.6813 21.7665 35.2026 20.7429" fill="#008842"/>
<path d="M36.6645 24.1476C30.6091 22.5209 29.1399 22.8935 28.7862 23.1351C28.7789 23.1388 28.7698 23.1461 28.7644 23.1498H28.7607L28.7534 23.1535C28.7534 23.1535 28.7498 23.159 28.7461 23.1627H28.7425C28.3907 23.4117 27.5139 24.6622 26.8176 30.9626C28.4071 27.3458 28.9302 25.4 29.0578 24.3413C29.6302 25.5162 31.1286 27.8198 34.9766 32.333C32.2095 27.0396 30.6109 24.8024 29.7286 23.8507C30.7403 24.1181 32.7217 24.3376 36.6682 24.1476" fill="white"/>
<path d="M31.2235 10.389C31.2235 10.389 33.4711 6.59875 27.226 2.28658C22.5286 -0.959533 18.7827 -0.0447193 16.9562 0.796319C15.1279 -0.0447193 11.3819 -0.959533 6.68449 2.28658C0.439452 6.59875 2.68701 10.389 2.68701 10.389C2.68701 10.389 -2.05784 12.8733 1.06286 20.3228C4.0031 27.337 7.93131 26.0736 7.93131 26.0736C7.93131 26.0736 7.91855 26.3004 7.99876 26.6453C8.08808 27.6044 8.97033 30.5185 16.4841 30.5185C16.6499 30.5185 16.7921 30.5075 16.9525 30.5056C17.1148 30.5093 17.2551 30.5185 17.421 30.5185C24.9384 30.5185 25.8188 27.6044 25.9081 26.6435C25.9883 26.3004 25.9756 26.0736 25.9756 26.0736C25.9756 26.0736 29.9056 27.337 32.844 20.3228C35.9666 12.8733 31.2235 10.389 31.2235 10.389Z" fill="#CA67A4"/>
<path d="M16.956 1.91364L15.217 13.0353C13.6184 12.4321 8.42698 10.6191 3.58188 10.6191C3.58188 10.6191 11.0737 13.7546 13.3997 16.3699C13.3997 16.3699 9.91259 20.813 8.74962 25.127C8.74962 25.127 12.8291 21.3442 16.956 18.1792C21.0811 21.3442 25.1606 25.127 25.1606 25.127C23.9977 20.813 20.5106 16.3699 20.5106 16.3699C22.8365 13.7546 30.3284 10.6191 30.3284 10.6191C25.4815 10.6191 20.29 12.4321 18.6932 13.0353L16.956 1.91364Z" fill="white"/>
<path d="M16.956 16.9988C17.9823 16.9988 18.8153 16.2389 18.8153 15.3001C18.8153 14.3613 17.9823 13.6014 16.956 13.6014C15.9298 13.6014 15.0949 14.3613 15.0949 15.3001C15.0949 16.2389 15.9279 16.9988 16.956 16.9988Z" fill="#FCC800"/>
</g>
<defs>
<clipPath id="clip0_6_223">
<rect width="42" height="38" fill="white"/>
</clipPath>
</defs>
</svg>
