<svg xmlns="http://www.w3.org/2000/svg" xmlns:xlink="http://www.w3.org/1999/xlink"
    preserveAspectRatio="xMidYMid meet" width="600" height="600" viewBox="0 0 600 600"
    style="width:100%;height:100%">
    <defs>
        <animate repeatCount="1" dur="4s" begin="0s" xlink:href="#_R_G_L_7_C_0_P_0"
            fill="freeze" attributeName="d" attributeType="XML"
            from="M15.07 41.5 C15.07,41.5 15.07,163.43 15.07,163.43 C15.07,163.43 17.5,163.5 17.5,163.5 C17.5,163.5 17.5,41.57 17.5,41.57 C17.5,41.57 15.07,41.5 15.07,41.5z "
            to="M15.07 41.5 C15.07,41.5 15.07,163.43 15.07,163.43 C15.07,163.43 582.93,163.5 582.93,163.5 C582.93,163.5 582.93,41.57 582.93,41.57 C582.93,41.57 15.07,41.5 15.07,41.5z "
            keyTimes="0;0.0833333;0.1666667;1"
            values="M15.07 41.5 C15.07,41.5 15.07,163.43 15.07,163.43 C15.07,163.43 17.5,163.5 17.5,163.5 C17.5,163.5 17.5,41.57 17.5,41.57 C17.5,41.57 15.07,41.5 15.07,41.5z ;M15.07 41.5 C15.07,41.5 15.07,163.43 15.07,163.43 C15.07,163.43 17.5,163.5 17.5,163.5 C17.5,163.5 17.5,41.57 17.5,41.57 C17.5,41.57 15.07,41.5 15.07,41.5z ;M15.07 41.5 C15.07,41.5 15.07,163.43 15.07,163.43 C15.07,163.43 582.93,163.5 582.93,163.5 C582.93,163.5 582.93,41.57 582.93,41.57 C582.93,41.57 15.07,41.5 15.07,41.5z ;M15.07 41.5 C15.07,41.5 15.07,163.43 15.07,163.43 C15.07,163.43 582.93,163.5 582.93,163.5 C582.93,163.5 582.93,41.57 582.93,41.57 C582.93,41.57 15.07,41.5 15.07,41.5z "
            keySplines="0.167 0.167 0.833 0.833;0.167 0.167 0.833 0.833;0 0 0 0" calcMode="spline" />
        <clipPath id="_R_G_L_7_C_0">
            <path id="_R_G_L_7_C_0_P_0" fill-rule="nonzero" />
        </clipPath>
        <animate repeatCount="1" dur="4s" begin="0s" xlink:href="#_R_G_L_6_C_0_P_0"
            fill="freeze" attributeName="d" attributeType="XML"
            from="M583 439 C583,439 583,556 583,556 C583,556 585,556 585,556 C585,556 585,439 585,439 C585,439 583,439 583,439z "
            to="M14 439 C14,439 14,556 14,556 C14,556 585,556 585,556 C585,556 585,439 585,439 C585,439 14,439 14,439z "
            keyTimes="0;0.2083333;0.2916667;1"
            values="M583 439 C583,439 583,556 583,556 C583,556 585,556 585,556 C585,556 585,439 585,439 C585,439 583,439 583,439z ;M583 439 C583,439 583,556 583,556 C583,556 585,556 585,556 C585,556 585,439 585,439 C585,439 583,439 583,439z ;M14 439 C14,439 14,556 14,556 C14,556 585,556 585,556 C585,556 585,439 585,439 C585,439 14,439 14,439z ;M14 439 C14,439 14,556 14,556 C14,556 585,556 585,556 C585,556 585,439 585,439 C585,439 14,439 14,439z "
            keySplines="0.167 0.167 0.833 0.833;0.167 0.167 0.833 0.833;0 0 0 0" calcMode="spline" />
        <clipPath id="_R_G_L_6_C_0">
            <path id="_R_G_L_6_C_0_P_0" fill-rule="nonzero" />
        </clipPath>
        <animate repeatCount="1" dur="4s" begin="0s" xlink:href="#_R_G_L_6_G_M"
            fill="freeze" attributeName="opacity" from="0" to="1" keyTimes="0;0.0833333;0.0833342;1"
            values="0;0;1;1" keySplines="0 0 0 0;0 0 0 0;0 0 0 0" calcMode="spline" />
        <animate repeatCount="1" dur="4s" begin="0s" xlink:href="#_R_G_L_5_G_M"
            fill="freeze" attributeName="opacity" from="0" to="1" keyTimes="0;0.375;0.3750008;1"
            values="0;0;1;1" keySplines="0 0 0 0;0 0 0 0;0 0 0 0" calcMode="spline" />
        <animate repeatCount="1" dur="4s" begin="0s" xlink:href="#_R_G_L_4_G_M"
            fill="freeze" attributeName="opacity" from="0" to="1" keyTimes="0;0.375;0.3750008;1"
            values="0;0;1;1" keySplines="0 0 0 0;0 0 0 0;0 0 0 0" calcMode="spline" />
        <animate repeatCount="1" dur="4s" begin="0s" xlink:href="#_R_G_L_3_G_M"
            fill="freeze" attributeName="opacity" from="0" to="1" keyTimes="0;0.375;0.3750008;1"
            values="0;0;1;1" keySplines="0 0 0 0;0 0 0 0;0 0 0 0" calcMode="spline" />
        <animate repeatCount="1" dur="4s" begin="0s" xlink:href="#_R_G_L_2_G_M"
            fill="freeze" attributeName="opacity" from="0" to="1" keyTimes="0;0.4583333;0.4583342;1"
            values="0;0;1;1" keySplines="0 0 0 0;0 0 0 0;0 0 0 0" calcMode="spline" />
        <animate repeatCount="1" dur="4s" begin="0s" xlink:href="#_R_G_L_1_G_M"
            fill="freeze" attributeName="opacity" from="0" to="1" keyTimes="0;0.5333333;0.5333342;1"
            values="0;0;1;1" keySplines="0 0 0 0;0 0 0 0;0 0 0 0" calcMode="spline" />
        <animate repeatCount="1" dur="4s" begin="0s" xlink:href="#_R_G_L_0_G_M"
            fill="freeze" attributeName="opacity" from="0" to="1" keyTimes="0;0.6083333;0.6083342;1"
            values="0;0;1;1" keySplines="0 0 0 0;0 0 0 0;0 0 0 0" calcMode="spline" />
        <animate attributeType="XML" attributeName="opacity" dur="4s" from="0" to="1"
            xlink:href="#time_group" />
    </defs>
    <g id="_R_G">
        <g id="_R_G_L_7_G">
            <g clip-path="url(#_R_G_L_7_C_0)">
                <path id="_R_G_L_7_G_G_0_D_0_P_0" fill="#ffffff" fill-opacity="1"
                    fill-rule="nonzero"
                    d=" M37.88 152.94 C37.89,152.93 37.91,152.92 37.92,152.92 C37.88,152.93 37.85,152.94 37.82,152.95 C37.85,152.94 37.86,152.94 37.88,152.94z " />
                <path id="_R_G_L_7_G_G_0_D_1_P_0" fill="#ffffff" fill-opacity="1"
                    fill-rule="nonzero"
                    d=" M172.42 108.86 C172.42,108.86 172.66,108.12 172.66,108.12 C179.28,106.01 174.81,108.2 180.89,106.11 C183.01,104.49 191.1,102.98 193.07,101.85 C193.05,101.93 196.05,101.01 195.95,101.34 C196.72,100.58 199,100.25 200.86,99.53 C201.5,99.18 200.31,99.55 199.75,99.57 C199.75,99.57 204.04,98.03 204.04,98.03 C205.78,97.65 206.28,97.79 204.46,98.42 C215.84,95 277.14,75.69 275.53,75.59 C278.66,74.26 280.32,74.2 281.64,73.42 C283.14,73.85 288.79,71.37 291.5,71.43 C291.5,71.43 292.28,70.67 292.28,70.67 C292.28,70.67 293.97,70.45 293.97,70.45 C296.69,69.48 298.48,68.84 299.69,68.41 C300.82,68 301.73,67.69 301.49,67.75 C301.52,67.72 301.54,67.76 301.62,67.79 C301.63,67.81 301.66,67.84 301.69,67.87 C301.26,67.75 302.86,68.27 304.17,68.7 C311.47,70.93 317,71.91 318.92,72.39 C319.11,72.9 324.03,73.69 324.82,74.39 C326.69,74.92 336.37,77.94 336.37,77.94 C342.48,79.78 345.66,81.26 349.78,82.01 C349.78,82.01 354.31,83.12 355.56,84.12 C355.56,84.12 364.79,86.84 364.79,86.84 C371.37,88.31 410.87,100.22 410.41,99.92 C421.3,103.33 477.98,120.91 487.93,124.39 C491.91,125.91 495.57,126.36 495.57,126.36 C495.57,126.36 500.95,128.11 500.95,128.11 C500.95,128.11 500.61,128.37 500.61,128.37 C501.8,128.76 503.95,128.42 509.19,130.28 C518.08,133.25 527.83,136.21 536.79,139.14 C536.59,139.29 540.7,140.71 539.05,140.02 C545.9,141.29 561.12,146.72 567.11,148 C567.85,147.42 576.65,137.23 576.93,136.34 C576.63,136.18 577.13,136.19 575.21,135.71 C575.21,135.71 570.76,133.63 569.37,133.65 C566.52,132.57 569.84,133.28 566.4,132.01 C563.87,131.33 560.48,130.68 557.69,129.54 C557.69,129.54 557.76,129.49 557.76,129.49 C550.93,126.89 546.93,126.7 540.7,124.29 C540.7,124.29 541.42,124.38 541.42,124.38 C539.25,123.45 534.73,122.35 530.75,120.82 C531.88,121.27 532.8,121.87 530.35,121.14 C525.77,119.42 522.51,118.66 519.2,117.28 C519.2,117.28 515.81,116.62 515.81,116.62 C499.61,111.41 435.35,91.64 419.03,86.54 C419.03,86.54 419.69,86.68 419.69,86.68 C394.79,79.01 343.83,62.83 317.99,55.22 C316.07,54.41 313.73,53.59 311.36,52.79 C308.26,51.78 305.14,50.75 302.44,49.87 C306.69,51.38 305.14,51.18 301.91,50.14 C301.78,50.1 301.66,50.06 301.62,50.05 C299.07,50.85 297.14,51.46 295.68,51.93 C294.79,52.22 294.19,52.42 293.77,52.56 C292.93,52.86 292.83,52.93 292.73,53.01 C292.52,53.18 292.28,53.38 285.96,55.47 C271.37,60.47 215.01,77.89 201.87,81.7 C195.03,84.47 186.16,86.83 179.4,89.35 C179.4,89.35 180.05,89 180.05,89 C172.74,91.54 130.85,104.25 122.34,107.16 C122.34,107.16 123.52,106.88 123.52,106.88 C116.16,109.58 116.98,108.66 111.04,110.34 C112.01,110.71 105.71,113.09 103.29,113.91 C103.29,113.91 103.34,113.74 103.34,113.74 C99.69,115.01 91.52,118.19 85.46,120.2 C85.46,120.2 85.59,119.79 85.59,119.79 C80.63,121.76 71.05,124.63 67.42,125.82 C59.04,128.32 46,131.8 34.99,135.78 C34.99,135.78 24.1,139.36 24.1,139.36 C24.1,139.36 23.07,139.79 23.07,139.79 C23.07,139.79 33.65,153.43 33.65,153.43 C33.65,153.43 37.95,152.32 37.95,152.32 C41.49,151.38 42.98,150.48 42.85,150.89 C42.85,150.89 94.85,133.28 117.17,126.12 C117.72,126.1 117.12,126.29 116.49,126.55 C123.2,124.33 129.15,122.36 135.26,120.34 C137.01,119.95 137.54,120.01 138.09,119.99 C137.54,120.01 145.98,117.25 154.63,114.48 C158.96,113.1 163.33,111.71 166.66,110.65 C169.99,109.6 172.28,108.89 172.42,108.86z " />
            </g>
        </g>
        <g id="_R_G_L_6_G_M">
            <g id="_R_G_L_6_G">
                <g clip-path="url(#_R_G_L_6_C_0)">
                    <path id="_R_G_L_6_G_G_0_D_0_P_0" fill="#ffffff" fill-opacity="1"
                        fill-rule="nonzero"
                        d=" M37.88 447.06 C37.89,447.07 37.91,447.08 37.92,447.08 C37.88,447.07 37.85,447.06 37.82,447.05 C37.85,447.06 37.86,447.06 37.88,447.06z " />
                    <path id="_R_G_L_6_G_G_0_D_1_P_0" fill="#ffffff" fill-opacity="1"
                        fill-rule="nonzero"
                        d=" M172.42 491.14 C172.42,491.14 172.66,491.88 172.66,491.88 C179.28,493.99 174.81,491.8 180.89,493.89 C183.01,495.51 191.1,497.03 193.07,498.15 C193.05,498.07 196.05,498.99 195.95,498.67 C196.72,499.42 199,499.75 200.86,500.47 C201.5,500.82 200.31,500.45 199.75,500.43 C199.75,500.43 204.04,501.97 204.04,501.97 C205.78,502.35 206.28,502.21 204.46,501.58 C215.84,505 277.14,524.31 275.53,524.41 C278.66,525.74 280.32,525.8 281.64,526.58 C283.14,526.15 288.79,528.63 291.5,528.57 C291.5,528.57 292.28,529.33 292.28,529.33 C292.28,529.33 293.97,529.55 293.97,529.55 C296.69,530.52 298.48,531.16 299.69,531.59 C300.82,532 301.73,532.31 301.49,532.25 C301.52,532.28 301.54,532.24 301.62,532.21 C301.63,532.19 301.66,532.17 301.69,532.13 C301.26,532.25 302.86,531.73 304.17,531.3 C311.47,529.07 317,528.09 318.92,527.61 C319.11,527.1 324.03,526.31 324.82,525.61 C326.69,525.08 336.37,522.06 336.37,522.06 C342.48,520.22 345.66,518.74 349.78,517.99 C349.78,517.99 354.31,516.88 355.56,515.88 C355.56,515.88 364.79,513.16 364.79,513.16 C371.37,511.69 410.87,499.78 410.41,500.08 C421.3,496.67 477.98,479.09 487.93,475.61 C491.91,474.09 495.57,473.64 495.57,473.64 C495.57,473.64 500.95,471.89 500.95,471.89 C500.95,471.89 500.61,471.63 500.61,471.63 C501.8,471.24 503.95,471.58 509.19,469.72 C518.08,466.75 527.83,463.79 536.79,460.86 C536.59,460.71 540.7,459.29 539.05,459.98 C545.9,458.72 561.12,453.28 567.11,452 C567.85,452.58 576.65,462.78 576.93,463.66 C576.63,463.82 577.13,463.81 575.21,464.29 C575.21,464.29 570.76,466.37 569.37,466.35 C566.52,467.43 569.84,466.72 566.4,467.99 C563.87,468.67 560.48,469.32 557.69,470.46 C557.69,470.46 557.76,470.51 557.76,470.51 C550.93,473.11 546.93,473.3 540.7,475.71 C540.7,475.71 541.42,475.62 541.42,475.62 C539.25,476.55 534.73,477.65 530.75,479.17 C531.88,478.73 532.8,478.13 530.35,478.86 C525.77,480.58 522.51,481.34 519.2,482.72 C519.2,482.72 515.81,483.38 515.81,483.38 C499.61,488.59 435.35,508.36 419.03,513.46 C419.03,513.46 419.69,513.32 419.69,513.32 C394.79,520.99 343.83,537.17 317.99,544.78 C316.07,545.6 313.73,546.41 311.36,547.21 C308.26,548.22 305.14,549.25 302.44,550.13 C306.69,548.62 305.14,548.82 301.91,549.86 C301.78,549.9 301.66,549.94 301.62,549.95 C299.07,549.15 297.14,548.54 295.68,548.07 C294.79,547.78 294.19,547.58 293.77,547.44 C292.93,547.14 292.83,547.07 292.73,546.99 C292.52,546.82 292.28,546.62 285.96,544.53 C271.37,539.53 215.01,522.11 201.87,518.3 C195.03,515.53 186.16,513.17 179.4,510.65 C179.4,510.65 180.05,511 180.05,511 C172.74,508.46 130.85,495.75 122.34,492.84 C122.34,492.84 123.52,493.12 123.52,493.12 C116.16,490.42 116.98,491.34 111.04,489.66 C112.01,489.29 105.71,486.91 103.29,486.09 C103.29,486.09 103.34,486.26 103.34,486.26 C99.69,484.99 91.52,481.81 85.46,479.8 C85.46,479.8 85.59,480.21 85.59,480.21 C80.63,478.24 71.05,475.37 67.42,474.18 C59.04,471.68 46,468.2 34.99,464.22 C34.99,464.22 24.1,460.64 24.1,460.64 C24.1,460.64 23.07,460.21 23.07,460.21 C23.07,460.21 33.65,446.57 33.65,446.57 C33.65,446.57 37.95,447.68 37.95,447.68 C41.49,448.62 42.98,449.52 42.85,449.11 C42.85,449.11 94.85,466.73 117.17,473.88 C117.72,473.9 117.12,473.71 116.49,473.45 C123.2,475.67 129.15,477.64 135.26,479.66 C137.01,480.05 137.54,479.99 138.09,480.01 C137.54,479.99 145.98,482.75 154.63,485.52 C158.96,486.9 163.33,488.29 166.66,489.35 C169.99,490.4 172.28,491.11 172.42,491.14z " />
                </g>
            </g>
        </g>
        <g id="_R_G_L_5_G_M">
            <g id="_R_G_L_5_G" transform=" translate(178.736, 175.737) translate(0, 0)">
                <path id="_R_G_L_5_G_D_0_P_0" fill="#ffffff" fill-opacity="1" fill-rule="nonzero"
                    d=" M-47.82 -8.41 C-47.82,-8.41 -37.48,-10.18 -37.48,-10.18 C-37.48,-10.18 -29.8,-12.37 -29.8,-12.37 C-29.8,-12.37 -22.2,-14.47 -22.2,-14.47 C-22.2,-14.47 -21.85,-20.65 -21.85,-20.65 C-21.85,-20.65 -21.26,-24.85 -21.26,-24.85 C-21.26,-24.85 -20.9,-29.27 -20.9,-29.27 C-20.9,-29.27 -20.51,-31.59 -20.51,-31.59 C-20.51,-31.59 -20.74,-32.2 -20.74,-32.2 C-20.74,-32.2 -20.63,-32.28 -20.63,-32.28 C-20.63,-32.28 -20.74,-32.39 -20.74,-32.39 C-20.74,-32.39 -20.38,-32.49 -20.38,-32.49 C-20.38,-32.49 -19.6,-36.17 -19.6,-36.17 C-19.6,-36.17 -15.74,-28.4 -15.74,-28.4 C-15.74,-28.4 -13.23,-17.4 -13.23,-17.4 C-13.23,-17.4 -10.4,-16.72 -10.4,-16.72 C-10.4,-16.72 0.82,-17.98 0.82,-17.98 C0.82,-17.98 10.14,-19.36 10.14,-19.36 C10.14,-19.36 9.81,-30.6 9.81,-30.6 C9.81,-30.6 8.69,-34.91 8.69,-34.91 C8.69,-34.91 5.54,-37.11 5.54,-37.11 C5.54,-37.11 5.44,-37.72 5.44,-37.72 C5.44,-37.72 13.97,-40.46 13.97,-40.46 C13.97,-40.46 18.99,-38.52 18.99,-38.52 C18.99,-38.52 20.96,-33.61 20.96,-33.61 C20.96,-33.61 20.34,-29.54 20.34,-29.54 C20.34,-29.54 20,-27.44 20,-27.44 C20,-27.44 20.24,-22.53 20.24,-22.53 C20.24,-22.53 20.12,-20.76 20.12,-20.76 C20.12,-20.76 19.96,-20.16 19.96,-20.16 C19.96,-20.16 27.6,-20.63 27.6,-20.63 C27.6,-20.63 31.15,-20.9 31.15,-20.9 C31.15,-20.9 33.45,-21.51 33.45,-21.51 C33.45,-21.51 34.29,-21.33 34.29,-21.33 C34.29,-21.33 34.48,-21.88 34.48,-21.88 C34.48,-21.88 34.59,-21.45 34.59,-21.45 C34.59,-21.45 37.61,-20.59 37.61,-20.59 C37.61,-20.59 38.72,-20.27 38.72,-20.27 C38.72,-20.27 47.94,-14.66 47.94,-14.66 C47.94,-14.66 44.56,-12.02 44.56,-12.02 C44.56,-12.02 44.45,-12.04 44.45,-12.04 C44.45,-12.04 44.34,-11.87 44.34,-11.87 C44.34,-11.87 44.23,-12.14 44.23,-12.14 C44.23,-12.14 44.08,-12.06 44.08,-12.06 C44.08,-12.06 44.01,-12.09 44.01,-12.09 C44.01,-12.09 43.9,-11.97 43.9,-11.97 C43.9,-11.97 43.78,-11.99 43.78,-11.99 C43.78,-11.99 43.67,-12.07 43.67,-12.07 C43.67,-12.07 33.5,-13.35 33.5,-13.35 C33.5,-13.35 23.28,-13.66 23.28,-13.66 C23.28,-13.66 19.33,-13.88 19.33,-13.88 C19.33,-13.88 18.5,1.62 18.5,1.62 C18.5,1.62 18.45,14.28 18.45,14.28 C18.45,14.28 18.31,26.93 18.31,26.93 C18.31,26.93 18.02,32.8 18.02,32.8 C18.02,32.8 14.64,40.46 14.64,40.46 C14.64,40.46 2.38,31.29 2.38,31.29 C2.38,31.29 -4.18,30.9 -4.18,30.9 C-4.18,30.9 -8.41,31.45 -8.41,31.45 C-8.41,31.45 -8.52,31.64 -8.52,31.64 C-8.52,31.64 -8.63,31.23 -8.63,31.23 C-8.63,31.23 -8.85,31.71 -8.85,31.71 C-8.85,31.71 -9.42,31.64 -9.42,31.64 C-9.42,31.64 -10.6,31.41 -10.6,31.41 C-10.6,31.41 -12.13,36.85 -12.13,36.85 C-12.13,36.85 -17.85,33.36 -17.85,33.36 C-17.85,33.36 -20.95,27.16 -20.95,27.16 C-20.95,27.16 -20.83,19.1 -20.83,19.1 C-20.83,19.1 -20.49,11.04 -20.49,11.04 C-20.49,11.04 -21.21,3.01 -21.21,3.01 C-21.21,3.01 -22.04,-5.01 -22.04,-5.01 C-22.04,-5.01 -22.02,-7.76 -22.02,-7.76 C-22.02,-7.76 -28.47,-5.12 -28.47,-5.12 C-28.47,-5.12 -31.79,-3.8 -31.79,-3.8 C-31.79,-3.8 -36.78,-2.67 -36.78,-2.67 C-36.78,-2.67 -47.94,-7.94 -47.94,-7.94 C-47.94,-7.94 -47.82,-8.41 -47.82,-8.41z  M-5.69 -1.55 C-5.69,-1.55 -0.55,-3.54 -0.55,-3.54 C-0.55,-3.54 2.78,-4.31 2.78,-4.31 C2.78,-4.31 7.54,-1.36 7.54,-1.36 C7.54,-1.36 6.01,1.47 6.01,1.47 C6.01,1.47 1.63,9.69 1.63,9.69 C1.63,9.69 -2.33,18.1 -2.33,18.1 C-2.33,18.1 -6.8,23.37 -6.8,23.37 C-6.8,23.37 -7.3,24.24 -7.3,24.24 C-7.3,24.24 -1.66,23.36 -1.66,23.36 C-1.66,23.36 2.4,22.03 2.4,22.03 C2.4,22.03 3.67,22.17 3.67,22.17 C3.67,22.17 6.88,22.27 6.88,22.27 C6.88,22.27 6.98,22.41 6.98,22.41 C6.98,22.41 8.72,22.73 8.72,22.73 C8.72,22.73 8.82,17.5 8.82,17.5 C8.82,17.5 9.77,7.1 9.77,7.1 C9.77,7.1 9.9,-3.35 9.9,-3.35 C9.9,-3.35 10.25,-13.77 10.25,-13.77 C10.25,-13.77 7.88,-13.92 7.88,-13.92 C7.88,-13.92 2.42,-13.75 2.42,-13.75 C2.42,-13.75 -10.84,-11.22 -10.84,-11.22 C-10.84,-11.22 -11.31,-5.24 -11.31,-5.24 C-11.31,-5.24 -11.4,0.57 -11.4,0.57 C-11.4,0.57 -5.69,-1.55 -5.69,-1.55z  M-3.26 4.58 C-3.26,4.58 -6.53,4.78 -6.53,4.78 C-6.53,4.78 -11.55,3.14 -11.55,3.14 C-11.55,3.14 -10.91,12.94 -10.91,12.94 C-10.91,12.94 -10.72,22.69 -10.72,22.69 C-10.72,22.69 -6.25,14.04 -6.25,14.04 C-6.25,14.04 -3.26,4.58 -3.26,4.58z " />
            </g>
        </g>
        <g id="_R_G_L_4_G_M">
            <g id="_R_G_L_4_G" transform=" translate(291.492, 174.621) translate(0, 0)">
                <path id="_R_G_L_4_G_D_0_P_0" fill="#ffffff" fill-opacity="1" fill-rule="nonzero"
                    d=" M-35.19 3.91 C-35.19,3.91 -33.53,9.5 -33.53,9.5 C-33.53,9.5 -35.73,12.25 -35.73,12.25 C-35.73,12.25 -45.44,2.84 -45.44,2.84 C-45.44,2.84 -47.92,-9.67 -47.92,-9.67 C-47.92,-9.67 -48.18,-17.55 -48.18,-17.55 C-48.18,-17.55 -47.73,-20.71 -47.73,-20.71 C-47.73,-20.71 -44.16,-16.75 -44.16,-16.75 C-44.16,-16.75 -39.47,-6.56 -39.47,-6.56 C-39.47,-6.56 -35.19,3.91 -35.19,3.91z  M-39.88 -15.85 C-39.88,-15.85 -31.44,-20.16 -31.44,-20.16 C-31.44,-20.16 -24.53,-22.06 -24.53,-22.06 C-24.53,-22.06 -19.46,-20.71 -19.46,-20.71 C-19.46,-20.71 -17.44,-17.87 -17.44,-17.87 C-17.44,-17.87 -18.76,-14.09 -18.76,-14.09 C-18.76,-14.09 -18.85,-13.79 -18.85,-13.79 C-18.85,-13.79 -19.87,-11.76 -19.87,-11.76 C-19.87,-11.76 -12.76,-19.17 -12.76,-19.17 C-12.76,-19.17 -12.61,-18.09 -12.61,-18.09 C-12.61,-18.09 -13.67,-15.55 -13.67,-15.55 C-13.67,-15.55 -17.7,-7.98 -17.7,-7.98 C-17.7,-7.98 -26.4,1.64 -26.4,1.64 C-26.4,1.64 -31.07,4.83 -31.07,4.83 C-31.07,4.83 -35.22,-1.11 -35.22,-1.11 C-35.22,-1.11 -30.26,-7.26 -30.26,-7.26 C-30.26,-7.26 -28.32,-14.75 -28.32,-14.75 C-28.32,-14.75 -35.28,-13.15 -35.28,-13.15 C-35.28,-13.15 -41.86,-14.06 -41.86,-14.06 C-41.86,-14.06 -39.88,-15.85 -39.88,-15.85z  M-20.23 17.82 C-20.23,17.82 -11.19,8.56 -11.19,8.56 C-11.19,8.56 -4.62,0.61 -4.62,0.61 C-4.62,0.61 -12.34,3.7 -12.34,3.7 C-12.34,3.7 -18,-4.04 -18,-4.04 C-18,-4.04 -17.93,-4.49 -17.93,-4.49 C-17.93,-4.49 -9.4,-7.56 -9.4,-7.56 C-9.4,-7.56 -3.26,-12.53 -3.26,-12.53 C-3.26,-12.53 2.04,-18.31 2.04,-18.31 C2.04,-18.31 2.43,-20.69 2.43,-20.69 C2.43,-20.69 -0.28,-20.67 -0.28,-20.67 C-0.28,-20.67 -2.15,-20.59 -2.15,-20.59 C-2.15,-20.59 -6.99,-21.11 -6.99,-21.11 C-6.99,-21.11 -9.56,-22.19 -9.56,-22.19 C-9.56,-22.19 -5.63,-24.02 -5.63,-24.02 C-5.63,-24.02 -2.86,-25.14 -2.86,-25.14 C-2.86,-25.14 -1.04,-25.69 -1.04,-25.69 C-1.04,-25.69 2.1,-27.14 2.1,-27.14 C2.1,-27.14 1.74,-39.15 1.74,-39.15 C1.74,-39.15 -1.04,-47.38 -1.04,-47.38 C-1.04,-47.38 -0.91,-47.67 -0.91,-47.67 C-0.91,-47.67 9.19,-45.23 9.19,-45.23 C9.19,-45.23 12.94,-38.81 12.94,-38.81 C12.94,-38.81 13.07,-36.47 13.07,-36.47 C13.07,-36.47 12.95,-35.93 12.95,-35.93 C12.95,-35.93 12.95,-35.14 12.95,-35.14 C12.95,-35.14 12.59,-34.29 12.59,-34.29 C12.59,-34.29 12.71,-32.61 12.71,-32.61 C12.71,-32.61 12.48,-30.59 12.48,-30.59 C12.48,-30.59 19.24,-31.77 19.24,-31.77 C19.24,-31.77 24.27,-30.29 24.27,-30.29 C24.27,-30.29 25.77,-27.95 25.77,-27.95 C25.77,-27.95 22.49,-24.67 22.49,-24.67 C22.49,-24.67 20.99,-23.59 20.99,-23.59 C20.99,-23.59 18.17,-22.01 18.17,-22.01 C18.17,-22.01 11.08,-18.28 11.08,-18.28 C11.08,-18.28 10.71,-10.22 10.71,-10.22 C10.71,-10.22 17.14,-10.76 17.14,-10.76 C17.14,-10.76 23.09,-11.92 23.09,-11.92 C23.09,-11.92 20.45,-15.87 20.45,-15.87 C20.45,-15.87 20.57,-15.7 20.57,-15.7 C20.57,-15.7 20.81,-15.75 20.81,-15.75 C20.81,-15.75 20.48,-16.18 20.48,-16.18 C20.48,-16.18 20.79,-16.14 20.79,-16.14 C20.79,-16.14 20.9,-16.05 20.9,-16.05 C20.9,-16.05 21.01,-16.08 21.01,-16.08 C21.01,-16.08 23.46,-14.9 23.46,-14.9 C23.46,-14.9 31.14,-10.85 31.14,-10.85 C31.14,-10.85 34.77,-6.45 34.77,-6.45 C34.77,-6.45 30.99,-3.56 30.99,-3.56 C30.99,-3.56 27.25,-4.43 27.25,-4.43 C27.25,-4.43 26.91,-4.52 26.91,-4.52 C26.91,-4.52 23.69,-4.85 23.69,-4.85 C23.69,-4.85 20.46,-4.96 20.46,-4.96 C20.46,-4.96 10.25,-3.8 10.25,-3.8 C10.25,-3.8 10.45,7.4 10.45,7.4 C10.45,7.4 14.4,8.6 14.4,8.6 C14.4,8.6 17.53,9.97 17.53,9.97 C17.53,9.97 20.48,10.77 20.48,10.77 C20.48,10.77 30.64,14.45 30.64,14.45 C30.64,14.45 40.37,19.14 40.37,19.14 C40.37,19.14 48.18,27.23 48.18,27.23 C48.18,27.23 45.06,30.6 45.06,30.6 C45.06,30.6 35.21,28.51 35.21,28.51 C35.21,28.51 34.72,28.68 34.72,28.68 C34.72,28.68 33.09,28.38 33.09,28.38 C33.09,28.38 25.33,29.43 25.33,29.43 C25.33,29.43 25.34,28.9 25.34,28.9 C25.34,28.9 27.77,28 27.77,28 C27.77,28 30.25,27.29 30.25,27.29 C30.25,27.29 32.64,25.58 32.64,25.58 C32.64,25.58 22.49,18.95 22.49,18.95 C22.49,18.95 10.85,13.43 10.85,13.43 C10.85,13.43 11.02,20.14 11.02,20.14 C11.02,20.14 11.81,28.27 11.81,28.27 C11.81,28.27 12.02,36.45 12.02,36.45 C12.02,36.45 12.6,38.53 12.6,38.53 C12.6,38.53 12.65,40.75 12.65,40.75 C12.65,40.75 12.73,42.63 12.73,42.63 C12.73,42.63 9.38,47.67 9.38,47.67 C9.38,47.67 3.5,45.21 3.5,45.21 C3.5,45.21 -3.74,38.84 -3.74,38.84 C-3.74,38.84 -12.89,32.25 -12.89,32.25 C-12.89,32.25 -14.16,30.69 -14.16,30.69 C-14.16,30.69 -16.44,29.01 -16.44,29.01 C-16.44,29.01 -16.54,28.36 -16.54,28.36 C-16.54,28.36 -15.4,28.41 -15.4,28.41 C-15.4,28.41 -6.96,31.31 -6.96,31.31 C-6.96,31.31 -1.37,32.33 -1.37,32.33 C-1.37,32.33 1.73,31.36 1.73,31.36 C1.73,31.36 2.67,27.35 2.67,27.35 C2.67,27.35 2.69,16.15 2.69,16.15 C2.69,16.15 3.08,14.04 3.08,14.04 C3.08,14.04 2.56,10.49 2.56,10.49 C2.56,10.49 -0.09,9.48 -0.09,9.48 C-0.09,9.48 -7.25,16.76 -7.25,16.76 C-7.25,16.76 -15.35,23.1 -15.35,23.1 C-15.35,23.1 -26.97,26.78 -26.97,26.78 C-26.97,26.78 -31.49,25.38 -31.49,25.38 C-31.49,25.38 -20.23,17.82 -20.23,17.82z  M2.69 -8.66 C2.69,-8.66 2.38,-11.8 2.38,-11.8 C2.38,-11.8 -1.15,-9.28 -1.15,-9.28 C-1.15,-9.28 -5.48,-6.86 -5.48,-6.86 C-5.48,-6.86 2.69,-8.66 2.69,-8.66z " />
            </g>
        </g>
        <g id="_R_G_L_3_G_M">
            <g id="_R_G_L_3_G" transform=" translate(400.485, 172.024) translate(0, 0)">
                <path id="_R_G_L_3_G_D_0_P_0" fill="#ffffff" fill-opacity="1" fill-rule="nonzero"
                    d=" M-52 28.78 C-52,28.78 -41.38,25.53 -41.38,25.53 C-41.38,25.53 -32.19,16.92 -32.19,16.92 C-32.19,16.92 -26.97,10.05 -26.97,10.05 C-26.97,10.05 -21.85,2.99 -21.85,2.99 C-21.85,2.99 -32.32,-3.3 -32.32,-3.3 C-32.32,-3.3 -35.68,-1.54 -35.68,-1.54 C-35.68,-1.54 -38.27,-3.15 -38.27,-3.15 C-38.27,-3.15 -40.57,-8.29 -40.57,-8.29 C-40.57,-8.29 -37.3,-13.27 -37.3,-13.27 C-37.3,-13.27 -28.66,-22.72 -28.66,-22.72 C-28.66,-22.72 -23.03,-31.29 -23.03,-31.29 C-23.03,-31.29 -17.77,-40.33 -17.77,-40.33 C-17.77,-40.33 -15.49,-33.45 -15.49,-33.45 C-15.49,-33.45 -19.27,-19.95 -19.27,-19.95 C-19.27,-19.95 -8.19,-23.43 -8.19,-23.43 C-8.19,-23.43 -2.85,-21.24 -2.85,-21.24 C-2.85,-21.24 -0.83,-19.37 -0.83,-19.37 C-0.83,-19.37 -1.61,-18.02 -1.61,-18.02 C-1.61,-18.02 -2.05,-17.24 -2.05,-17.24 C-2.05,-17.24 -5,-10.46 -5,-10.46 C-5,-10.46 -11.54,3.08 -11.54,3.08 C-11.54,3.08 -0.16,11.55 -0.16,11.55 C-0.16,11.55 10.03,19.73 10.03,19.73 C10.03,19.73 16.71,24.24 16.71,24.24 C16.71,24.24 21.85,27.07 21.85,27.07 C21.85,27.07 27.89,28.87 27.89,28.87 C27.89,28.87 37.72,31.67 37.72,31.67 C37.72,31.67 46.03,33.83 46.03,33.83 C46.03,33.83 46.49,38.38 46.49,38.38 C46.49,38.38 46.4,38.36 46.4,38.36 C46.4,38.36 38.01,39.63 38.01,39.63 C38.01,39.63 27.93,40.33 27.93,40.33 C27.93,40.33 16.1,38.1 16.1,38.1 C16.1,38.1 5.59,28.59 5.59,28.59 C5.59,28.59 0.35,22.74 0.35,22.74 C0.35,22.74 -5.29,17.29 -5.29,17.29 C-5.29,17.29 -15.07,8.43 -15.07,8.43 C-15.07,8.43 -21.74,18.13 -21.74,18.13 C-21.74,18.13 -29.84,26.31 -29.84,26.31 C-29.84,26.31 -37.12,30.03 -37.12,30.03 C-37.12,30.03 -45.32,31.13 -45.32,31.13 C-45.32,31.13 -51.78,29.18 -51.78,29.18 C-51.78,29.18 -52,28.78 -52,28.78z  M-19.34 -2.24 C-19.34,-2.24 -15.02,-9.6 -15.02,-9.6 C-15.02,-9.6 -12.25,-17.12 -12.25,-17.12 C-12.25,-17.12 -19.28,-14.01 -19.28,-14.01 C-19.28,-14.01 -30.33,-5.53 -30.33,-5.53 C-30.33,-5.53 -19.34,-2.24 -19.34,-2.24z  M4.28 -20.37 C4.28,-20.37 7.42,-21.97 7.42,-21.97 C7.42,-21.97 15.92,-25.21 15.92,-25.21 C15.92,-25.21 24.83,-27.09 24.83,-27.09 C24.83,-27.09 31.29,-22.36 31.29,-22.36 C31.29,-22.36 28.48,-12.52 28.48,-12.52 C28.48,-12.52 26.6,-5.08 26.6,-5.08 C26.6,-5.08 32.92,3.62 32.92,3.62 C32.92,3.62 33.8,3.55 33.8,3.55 C33.8,3.55 37.22,3.28 37.22,3.28 C37.22,3.28 42.21,2.89 42.21,2.89 C42.21,2.89 47.53,4.76 47.53,4.76 C47.53,4.76 52,9 52,9 C52,9 49.94,11.02 49.94,11.02 C49.94,11.02 46.11,11.86 46.11,11.86 C46.11,11.86 40.47,11.5 40.47,11.5 C40.47,11.5 31.58,13.27 31.58,13.27 C31.58,13.27 23.54,17.46 23.54,17.46 C23.54,17.46 26.8,14.38 26.8,14.38 C26.8,14.38 30.22,11.58 30.22,11.58 C30.22,11.58 22.1,7.63 22.1,7.63 C22.1,7.63 19.75,0.13 19.75,0.13 C19.75,0.13 20.24,-6.55 20.24,-6.55 C20.24,-6.55 21.39,-13.04 21.39,-13.04 C21.39,-13.04 21.69,-17.05 21.69,-17.05 C21.69,-17.05 21.48,-20.64 21.48,-20.64 C21.48,-20.64 19.25,-20.08 19.25,-20.08 C19.25,-20.08 14.36,-18.22 14.36,-18.22 C14.36,-18.22 11.64,-18.23 11.64,-18.23 C11.64,-18.23 12.8,-12.17 12.8,-12.17 C12.8,-12.17 11.32,-2.04 11.32,-2.04 C11.32,-2.04 10.36,1.56 10.36,1.56 C10.36,1.56 9.95,4.45 9.95,4.45 C9.95,4.45 6.77,10.75 6.77,10.75 C6.77,10.75 3.83,8.22 3.83,8.22 C3.83,8.22 2.31,3.68 2.31,3.68 C2.31,3.68 3.33,-4.11 3.33,-4.11 C3.33,-4.11 8.88,-18.6 8.88,-18.6 C8.88,-18.6 4.28,-20.37 4.28,-20.37z " />
            </g>
        </g>
        <g id="_R_G_L_2_G_M">
            <g id="_R_G_L_2_G" transform=" translate(102.726, 333.866) translate(0, 0)">
                <path id="_R_G_L_2_G_D_0_P_0" fill="#ffffff" fill-opacity="1" fill-rule="nonzero"
                    d=" M-14.23 -50.63 C-14.23,-50.63 -4.14,-59.1 -4.14,-59.1 C-4.14,-59.1 4.62,-68.92 4.62,-68.92 C4.62,-68.92 12.87,-80.59 12.87,-80.59 C12.87,-80.59 6.5,-85.46 6.5,-85.46 C6.5,-85.46 -2.73,-87.75 -2.73,-87.75 C-2.73,-87.75 -11.95,-90.58 -11.95,-90.58 C-11.95,-90.58 0.24,-96.79 0.24,-96.79 C0.24,-96.79 14.16,-97.1 14.16,-97.1 C14.16,-97.1 26.19,-95.84 26.19,-95.84 C26.19,-95.84 37.82,-92.41 37.82,-92.41 C37.82,-92.41 48.26,-80.33 48.26,-80.33 C48.26,-80.33 42.85,-72.76 42.85,-72.76 C42.85,-72.76 31.2,-69.5 31.2,-69.5 C31.2,-69.5 19.45,-66.58 19.45,-66.58 C19.45,-66.58 8.92,-62.42 8.92,-62.42 C8.92,-62.42 -1.34,-57.48 -1.34,-57.48 C-1.34,-57.48 -10.34,-50.48 -10.34,-50.48 C-10.34,-50.48 -23.69,-40.12 -23.69,-40.12 C-23.69,-40.12 -30.36,-34.73 -30.36,-34.73 C-30.36,-34.73 -16.96,-37.4 -16.96,-37.4 C-16.96,-37.4 -3.57,-39.91 -3.57,-39.91 C-3.57,-39.91 6.02,-41.55 6.02,-41.55 C6.02,-41.55 15.75,-41.8 15.75,-41.8 C15.75,-41.8 28.18,-39.94 28.18,-39.94 C28.18,-39.94 39.07,-33.92 39.07,-33.92 C39.07,-33.92 44.56,-23.65 44.56,-23.65 C44.56,-23.65 48.21,-12.6 48.21,-12.6 C48.21,-12.6 49.91,-2.47 49.91,-2.47 C49.91,-2.47 51.29,7.7 51.29,7.7 C51.29,7.7 51.15,17.96 51.15,17.96 C51.15,17.96 51.13,30.19 51.13,30.19 C51.13,30.19 49.65,42.34 49.65,42.34 C49.65,42.34 46.3,54.1 46.3,54.1 C46.3,54.1 42.28,65.65 42.28,65.65 C42.28,65.65 35.79,76.07 35.79,76.07 C35.79,76.07 26.89,84.48 26.89,84.48 C26.89,84.48 19.25,89.44 19.25,89.44 C19.25,89.44 11.27,93.81 11.27,93.81 C11.27,93.81 0.93,96.42 0.93,96.42 C0.93,96.42 -9.53,97.1 -9.53,97.1 C-9.53,97.1 -9.55,95.46 -9.55,95.46 C-9.55,95.46 1.37,88.12 1.37,88.12 C1.37,88.12 10.28,78.48 10.28,78.48 C10.28,78.48 18.16,67.95 18.16,67.95 C18.16,67.95 23.52,55.04 23.52,55.04 C23.52,55.04 25.28,41.2 25.28,41.2 C25.28,41.2 27.13,31 27.13,31 C27.13,31 28.42,20.7 28.42,20.7 C28.42,20.7 28.24,10.31 28.24,10.31 C28.24,10.31 28.86,-0.05 28.86,-0.05 C28.86,-0.05 28.02,-11.14 28.02,-11.14 C28.02,-11.14 23.35,-21.19 23.35,-21.19 C23.35,-21.19 9.39,-29.12 9.39,-29.12 C9.39,-29.12 -2.11,-25.48 -2.11,-25.48 C-2.11,-25.48 -11.59,-20.44 -11.59,-20.44 C-11.59,-20.44 -21.15,-15.52 -21.15,-15.52 C-21.15,-15.52 -34.85,-11.42 -34.85,-11.42 C-34.85,-11.42 -45.9,-20.65 -45.9,-20.65 C-45.9,-20.65 -50.49,-26.91 -50.49,-26.91 C-50.49,-26.91 -51.14,-29.99 -51.14,-29.99 C-51.14,-29.99 -51.24,-30.19 -51.24,-30.19 C-51.24,-30.19 -51.29,-31.34 -51.29,-31.34 C-51.29,-31.34 -41.26,-34.44 -41.26,-34.44 C-41.26,-34.44 -31.72,-38.89 -31.72,-38.89 C-31.72,-38.89 -22.78,-44.47 -22.78,-44.47 C-22.78,-44.47 -14.23,-50.63 -14.23,-50.63z " />
            </g>
        </g>
        <g id="_R_G_L_1_G_M">
            <g id="_R_G_L_1_G" transform=" translate(263.478, 358.63) translate(0, 0)">
                <path id="_R_G_L_1_G_D_0_P_0" fill="#ffffff" fill-opacity="1" fill-rule="nonzero"
                    d=" M-35.71 -28.59 C-35.71,-28.59 -33.01,-39.4 -33.01,-39.4 C-33.01,-39.4 -31.31,-50.36 -31.31,-50.36 C-31.31,-50.36 -29.53,-51.19 -29.53,-51.19 C-29.53,-51.19 -26.64,-50.48 -26.64,-50.48 C-26.64,-50.48 -23.95,-39.73 -23.95,-39.73 C-23.95,-39.73 -22.78,-28.77 -22.78,-28.77 C-22.78,-28.77 -21.81,-25.29 -21.81,-25.29 C-21.81,-25.29 -11.23,-27.53 -11.23,-27.53 C-11.23,-27.53 -0.46,-30 -0.46,-30 C-0.46,-30 10.33,-31.72 10.33,-31.72 C10.33,-31.72 16.13,-46.07 16.13,-46.07 C16.13,-46.07 18.48,-55.48 18.48,-55.48 C18.48,-55.48 20.2,-65.03 20.2,-65.03 C20.2,-65.03 21.75,-74.58 21.75,-74.58 C21.75,-74.58 23.18,-74.83 23.18,-74.83 C23.18,-74.83 28.59,-63.81 28.59,-63.81 C28.59,-63.81 30.78,-51.81 30.78,-51.81 C30.78,-51.81 30.96,-39.65 30.96,-39.65 C30.96,-39.65 29.28,-30.76 29.28,-30.76 C29.28,-30.76 45.75,-28.13 45.75,-28.13 C45.75,-28.13 55.47,-23.34 55.47,-23.34 C55.47,-23.34 64.88,-18.15 64.88,-18.15 C64.88,-18.15 72.42,-10.2 72.42,-10.2 C72.42,-10.2 77.54,-0.48 77.54,-0.48 C77.54,-0.48 80.49,10.2 80.49,10.2 C80.49,10.2 81.53,21.28 81.53,21.28 C81.53,21.28 79.59,33.74 79.59,33.74 C79.59,33.74 75.36,45.53 75.36,45.53 C75.36,45.53 67.85,55.54 67.85,55.54 C67.85,55.54 58.64,63.98 58.64,63.98 C58.64,63.98 48.88,70.19 48.88,70.19 C48.88,70.19 38.22,74.83 38.22,74.83 C38.22,74.83 23.67,74.14 23.67,74.14 C23.67,74.14 18.68,72.86 18.68,72.86 C18.68,72.86 22.51,69.75 22.51,69.75 C22.51,69.75 34.56,63.12 34.56,63.12 C34.56,63.12 43.45,52.56 43.45,52.56 C43.45,52.56 51.08,42.25 51.08,42.25 C51.08,42.25 56.37,30.55 56.37,30.55 C56.37,30.55 58.16,17.84 58.16,17.84 C58.16,17.84 55.48,5.75 55.48,5.75 C55.48,5.75 48.71,-4.68 48.71,-4.68 C48.71,-4.68 37.46,-10.4 37.46,-10.4 C37.46,-10.4 24.95,-12.78 24.95,-12.78 C24.95,-12.78 20.22,-2.74 20.22,-2.74 C20.22,-2.74 14.48,6.68 14.48,6.68 C14.48,6.68 7.85,15.85 7.85,15.85 C7.85,15.85 1.18,24.98 1.18,24.98 C1.18,24.98 -3.87,32.42 -3.87,32.42 C-3.87,32.42 1.95,47.51 1.95,47.51 C1.95,47.51 -4.82,56.03 -4.82,56.03 C-4.82,56.03 -12.48,52.45 -12.48,52.45 C-12.48,52.45 -20.11,46.48 -20.11,46.48 C-20.11,46.48 -31.22,53.53 -31.22,53.53 C-31.22,53.53 -43.18,58.46 -43.18,58.46 C-43.18,58.46 -55.95,60.6 -55.95,60.6 C-55.95,60.6 -65.52,58.57 -65.52,58.57 C-65.52,58.57 -74.09,53.84 -74.09,53.84 C-74.09,53.84 -78.53,45.04 -78.53,45.04 C-78.53,45.04 -81.53,34.15 -81.53,34.15 C-81.53,34.15 -81.3,22.8 -81.3,22.8 C-81.3,22.8 -78.17,11.93 -78.17,11.93 C-78.17,11.93 -73.07,1.88 -73.07,1.88 C-73.07,1.88 -65.65,-6.64 -65.65,-6.64 C-65.65,-6.64 -56.36,-13.01 -56.36,-13.01 C-56.36,-13.01 -46.49,-18.42 -46.49,-18.42 C-46.49,-18.42 -36.18,-22.41 -36.18,-22.41 C-36.18,-22.41 -35.71,-28.59 -35.71,-28.59z  M-35.59 -3.77 C-35.59,-3.77 -45.36,-0.15 -45.36,-0.15 C-45.36,-0.15 -53.35,6.98 -53.35,6.98 C-53.35,6.98 -58.87,16.14 -58.87,16.14 C-58.87,16.14 -60.32,26.68 -60.32,26.68 C-60.32,26.68 -59.2,37.2 -59.2,37.2 C-59.2,37.2 -54.1,43.75 -54.1,43.75 C-54.1,43.75 -44.94,40.76 -44.94,40.76 C-44.94,40.76 -36.43,36.25 -36.43,36.25 C-36.43,36.25 -28.78,30.63 -28.78,30.63 C-28.78,30.63 -31.23,19.26 -31.23,19.26 C-31.23,19.26 -33.53,7.57 -33.53,7.57 C-33.53,7.57 -35.59,-3.77 -35.59,-3.77z  M-11.07 14.45 C-11.07,14.45 -4.85,5.69 -4.85,5.69 C-4.85,5.69 0.77,-3.91 0.77,-3.91 C0.77,-3.91 6.24,-13.95 6.24,-13.95 C6.24,-13.95 -5.86,-11.5 -5.86,-11.5 C-5.86,-11.5 -17.69,-8.78 -17.69,-8.78 C-17.69,-8.78 -14.73,3 -14.73,3 C-14.73,3 -11.07,14.45 -11.07,14.45z " />
            </g>
        </g>
        <g id="_R_G_L_0_G_M">
            <g id="_R_G_L_0_G">
                <path id="_R_G_L_0_G_D_0_P_0" fill="#ffffff" fill-opacity="1" fill-rule="nonzero"
                    d=" M554.79 403.89 C554.79,403.89 546.66,397.2 546.66,397.2 C546.66,397.2 535.37,392.73 535.37,392.73 C535.37,392.73 523.23,392.23 523.23,392.23 C523.23,392.23 513.74,395.04 513.74,395.04 C513.74,395.04 504.51,398.94 504.51,398.94 C504.51,398.94 494.8,401.13 494.8,401.13 C494.8,401.13 480.03,401.82 480.03,401.82 C480.03,401.82 481.57,391.46 481.57,391.46 C481.57,391.46 483.5,381.11 483.5,381.11 C483.5,381.11 495.63,379.69 495.63,379.69 C495.63,379.69 504.2,378.46 504.2,378.46 C504.2,378.46 517.55,372.96 517.55,372.96 C517.55,372.96 512.34,367.62 512.34,367.62 C512.34,367.62 502.63,364.16 502.63,364.16 C502.63,364.16 485.66,367.04 485.66,367.04 C485.66,367.04 485.57,363.04 485.57,363.04 C485.57,363.04 487.29,361.99 487.29,361.99 C487.29,361.99 497.41,357.72 497.41,357.72 C497.41,357.72 507.38,353.12 507.38,353.12 C507.38,353.12 517.01,347.82 517.01,347.82 C517.01,347.82 526.88,343.01 526.88,343.01 C526.88,343.01 535.81,335.17 535.81,335.17 C535.81,335.17 528.6,329.46 528.6,329.46 C528.6,329.46 519.15,326.86 519.15,326.86 C519.15,326.86 515.43,327.42 515.43,327.42 C515.43,327.42 507.49,327.95 507.49,327.95 C507.49,327.95 497.54,331 497.54,331 C497.54,331 487.88,334.9 487.88,334.9 C487.88,334.9 476.47,336.89 476.47,336.89 C476.47,336.89 465.65,340.11 465.65,340.11 C465.65,340.11 473.94,333.6 473.94,333.6 C473.94,333.6 482.83,327.78 482.83,327.78 C482.83,327.78 492.09,322.47 492.09,322.47 C492.09,322.47 501.03,316.65 501.03,316.65 C501.03,316.65 510.03,310.92 510.03,310.92 C510.03,310.92 519.25,305.52 519.25,305.52 C519.25,305.52 520.74,303.98 520.74,303.98 C520.74,303.98 514.76,297.18 514.76,297.18 C514.76,297.18 506.03,295.2 506.03,295.2 C506.03,295.2 493.46,297.48 493.46,297.48 C493.46,297.48 481.07,300.92 481.07,300.92 C481.07,300.92 470.44,305.61 470.44,305.61 C470.44,305.61 459.33,308.98 459.33,308.98 C459.33,308.98 448.26,312.46 448.26,312.46 C448.26,312.46 436.83,314.43 436.83,314.43 C436.83,314.43 423.56,319.08 423.56,319.08 C423.56,319.08 440.25,322.77 440.25,322.77 C440.25,322.77 450.68,323.58 450.68,323.58 C450.68,323.58 467.41,319.53 467.41,319.53 C467.41,319.53 459.71,327.16 459.71,327.16 C459.71,327.16 452.5,334.84 452.5,334.84 C452.5,334.84 444.15,341.29 444.15,341.29 C444.15,341.29 432.06,346.29 432.06,346.29 C432.06,346.29 419.36,349.96 419.36,349.96 C419.36,349.96 424.27,360.77 424.27,360.77 C424.27,360.77 433.97,366.2 433.97,366.2 C433.97,366.2 449.15,359.57 449.15,359.57 C449.15,359.57 454.41,358.03 454.41,358.03 C454.41,358.03 461.44,370.74 461.44,370.74 C461.44,370.74 456.37,373.98 456.37,373.98 C456.37,373.98 443.81,378.88 443.81,378.88 C443.81,378.88 430.78,381.93 430.78,381.93 C430.78,381.93 430.24,382.74 430.24,382.74 C430.24,382.74 438.05,388.5 438.05,388.5 C438.05,388.5 447.28,391.1 447.28,391.1 C447.28,391.1 462.68,387.38 462.68,387.38 C462.68,387.38 460.47,403.96 460.47,403.96 C460.47,403.96 446.72,405.96 446.72,405.96 C446.72,405.96 435.82,407.74 435.82,407.74 C435.82,407.74 425,410.08 425,410.08 C425,410.08 414.13,412.1 414.13,412.1 C414.13,412.1 402.89,413.04 402.89,413.04 C402.89,413.04 394.69,413.56 394.69,413.56 C394.69,413.56 395.08,414.72 395.08,414.72 C395.08,414.72 402.57,420.59 402.57,420.59 C402.57,420.59 412.14,423.45 412.14,423.45 C412.14,423.45 421.96,424.9 421.96,424.9 C421.96,424.9 430.65,423.72 430.65,423.72 C430.65,423.72 439.13,420.85 439.13,420.85 C439.13,420.85 447.61,417.98 447.61,417.98 C447.61,417.98 458.62,416.21 458.62,416.21 C458.62,416.21 469.83,415.75 469.83,415.75 C469.83,415.75 481.04,414.83 481.04,414.83 C481.04,414.83 492.27,414.5 492.27,414.5 C492.27,414.5 503.47,415.61 503.47,415.61 C503.47,415.61 513.81,415.77 513.81,415.77 C513.81,415.77 524.13,416.62 524.13,416.62 C524.13,416.62 534.38,418.17 534.38,418.17 C534.38,418.17 544.69,418.94 544.69,418.94 C544.69,418.94 545.42,419.53 545.42,419.53 C545.42,419.53 548.59,419.16 548.59,419.16 C548.59,419.16 558.79,413.84 558.79,413.84 C558.79,413.84 554.79,403.89 554.79,403.89z  M464.94 353.53 C464.94,353.53 474.01,349.24 474.01,349.24 C474.01,349.24 490.45,345.83 490.45,345.83 C490.45,345.83 480.24,357.04 480.24,357.04 C480.24,357.04 464.94,353.53 464.94,353.53z " />
                <path id="_R_G_L_0_G_D_1_P_0" fill="#ffffff" fill-opacity="1" fill-rule="nonzero"
                    d=" M398.82 387.03 C398.82,387.03 398.67,386.3 398.67,386.3 C398.67,386.3 402.39,376.99 402.39,376.99 C402.39,376.99 405,367.91 405,367.91 C405,367.91 407.37,362.76 407.37,362.76 C407.37,362.76 410.02,350.81 410.02,350.81 C410.02,350.81 411.99,338.71 411.99,338.71 C411.99,338.71 414.67,326.78 414.67,326.78 C414.67,326.78 419.41,314.79 419.41,314.79 C419.41,314.79 425.64,303.47 425.64,303.47 C425.64,303.47 430.86,291.6 430.86,291.6 C430.86,291.6 428.4,282.83 428.4,282.83 C428.4,282.83 427.01,273.98 427.01,273.98 C427.01,273.98 427.16,271.85 427.16,271.85 C427.16,271.85 427.55,267.78 427.55,267.78 C427.55,267.78 432.44,268.07 432.44,268.07 C432.44,268.07 442.58,266.2 442.58,266.2 C442.58,266.2 452.32,263.13 452.32,263.13 C452.32,263.13 460.01,257.26 460.01,257.26 C460.01,257.26 471.26,252.66 471.26,252.66 C471.26,252.66 483.3,250.2 483.3,250.2 C483.3,250.2 487.51,250.68 487.51,250.68 C487.51,250.68 478.35,259.81 478.35,259.81 C478.35,259.81 469.12,268.94 469.12,268.94 C469.12,268.94 458.4,276.3 458.4,276.3 C458.4,276.3 449.37,281.09 449.37,281.09 C449.37,281.09 440.19,283.93 440.19,283.93 C440.19,283.93 434.42,284.3 434.42,284.3 C434.42,284.3 433.72,286.02 433.72,286.02 C433.72,286.02 435,288.11 435,288.11 C435,288.11 438.76,292.92 438.76,292.92 C438.76,292.92 449.04,299.26 449.04,299.26 C449.04,299.26 453.65,297.25 453.65,297.25 C453.65,297.25 469.39,292.71 469.39,292.71 C469.39,292.71 485.28,290.5 485.28,290.5 C485.28,290.5 499.37,286.99 499.37,286.99 C499.37,286.99 503.35,279.53 503.35,279.53 C503.35,279.53 497.82,269.71 497.82,269.71 C497.82,269.71 506.19,265.84 506.19,265.84 C506.19,265.84 514.24,261.05 514.24,261.05 C514.24,261.05 522.16,247.77 522.16,247.77 C522.16,247.77 515.95,239.64 515.95,239.64 C515.95,239.64 504.96,238.18 504.96,238.18 C504.96,238.18 494.1,238.45 494.1,238.45 C494.1,238.45 483.37,240.01 483.37,240.01 C483.37,240.01 472.58,241.33 472.58,241.33 C472.58,241.33 462.04,243.97 462.04,243.97 C462.04,243.97 451.79,247.59 451.79,247.59 C451.79,247.59 443.16,250.4 443.16,250.4 C443.16,250.4 434.51,253.22 434.51,253.22 C434.51,253.22 422.09,254.79 422.09,254.79 C422.09,254.79 412.81,257.28 412.81,257.28 C412.81,257.28 412.52,256.98 412.52,256.98 C412.52,256.98 416.09,261.85 416.09,261.85 C416.09,261.85 420.4,265.78 420.4,265.78 C420.4,265.78 420.16,267.37 420.16,267.37 C420.16,267.37 416.46,274.01 416.46,274.01 C416.46,274.01 414.71,285.62 414.71,285.62 C414.71,285.62 412.13,297.09 412.13,297.09 C412.13,297.09 406.05,308.21 406.05,308.21 C406.05,308.21 399.44,319.06 399.44,319.06 C399.44,319.06 393.95,330.5 393.95,330.5 C393.95,330.5 390.1,340.79 390.1,340.79 C390.1,340.79 388.17,351.71 388.17,351.71 C388.17,351.71 384.92,362.27 384.92,362.27 C384.92,362.27 382.29,373 382.29,373 C382.29,373 377.98,382.98 377.98,382.98 C377.98,382.98 371.59,388.85 371.59,388.85 C371.59,388.85 366.57,395.93 366.57,395.93 C366.57,395.93 361.58,408.09 361.58,408.09 C361.58,408.09 355.63,419.95 355.63,419.95 C355.63,419.95 366.23,420.31 366.23,420.31 C366.23,420.31 377.21,414.54 377.21,414.54 C377.21,414.54 385.37,407.36 385.37,407.36 C385.37,407.36 392.4,398.89 392.4,398.89 C392.4,398.89 397.5,389.15 397.5,389.15 C397.5,389.15 398.82,387.03 398.82,387.03z " />
            </g>
        </g>
    </g>
    <g id="time_group" />
</svg>
