<svg width="110" height="100" viewBox="0 0 110 100" fill="none" xmlns="http://www.w3.org/2000/svg">
<g clip-path="url(#clip0_9_267)">
<path d="M2.94029 20.4706C2.9421 20.4697 2.94604 20.4682 2.94816 20.467C2.94089 20.4691 2.93544 20.4706 2.92938 20.4724C2.93362 20.4718 2.93695 20.4712 2.94029 20.4706Z" fill="black"/>
<path d="M29.6624 11.7167L29.7086 11.5694C31.0246 11.1506 30.1357 11.5862 31.3436 11.1706C31.7655 10.849 33.371 10.5477 33.7632 10.3238C33.7582 10.3402 34.3556 10.1568 34.3347 10.2221C34.4877 10.0716 34.9411 10.0063 35.3095 9.86347C35.4375 9.79441 35.2008 9.86727 35.09 9.8717L35.9405 9.56632C36.2868 9.48934 36.3869 9.51785 36.0242 9.64361C38.2851 8.9641 50.4598 5.12933 50.1404 5.10937C50.7617 4.84453 51.0908 4.83218 51.3528 4.67758C51.6506 4.76343 52.7736 4.2705 53.3115 4.28286L53.4661 4.13175L53.8025 4.08772C54.3433 3.89479 54.6984 3.76839 54.9376 3.68317C55.1629 3.60207 55.3444 3.53903 55.2959 3.55265C55.3029 3.54663 55.3048 3.55487 55.3209 3.56057C55.3244 3.56374 55.3292 3.56849 55.3358 3.57483C55.2509 3.55107 55.5683 3.65466 55.8278 3.73956C57.2784 4.18339 58.3761 4.3779 58.7581 4.47294C58.7961 4.57463 59.7738 4.73049 59.9303 4.87051C60.3006 4.97632 62.2238 5.57442 62.2238 5.57442C63.4375 5.94095 64.0685 6.23588 64.8874 6.38446C64.8874 6.38446 65.7865 6.60368 66.0352 6.80357L67.8684 7.34275C69.1755 7.63579 77.0196 10.001 76.9284 9.9414C79.0911 10.6178 90.3489 14.1107 92.3257 14.8004C93.1158 15.1026 93.8425 15.1916 93.8425 15.1916L94.9111 15.5401L94.8423 15.592C95.0806 15.6696 95.506 15.6009 96.5473 15.9703C98.3137 16.5617 100.25 17.149 102.03 17.73C101.989 17.7614 102.806 18.0427 102.479 17.9062C103.838 18.1568 106.86 19.2361 108.05 19.4908C108.197 19.3755 109.945 17.3505 110.001 17.1753C109.941 17.1437 110.041 17.144 109.659 17.0489C109.659 17.0489 108.775 16.6362 108.499 16.6409C107.932 16.4264 108.593 16.5674 107.908 16.3146C107.407 16.1806 106.733 16.0498 106.179 15.8242L106.193 15.8138C104.837 15.2968 104.042 15.2607 102.805 14.7823L102.949 14.7997C102.517 14.6141 101.619 14.3955 100.829 14.093C101.054 14.181 101.236 14.2998 100.749 14.1557C99.8391 13.8142 99.1922 13.6624 98.5345 13.3884L97.8614 13.2579C94.6437 12.2226 81.8811 8.29757 78.6403 7.28415L78.7708 7.31234C73.8267 5.78762 63.7039 2.57472 58.5734 1.06362C58.1911 0.901739 57.7267 0.739224 57.2556 0.581779C56.6404 0.379665 56.0201 0.175968 55.485 0.000465393C56.3287 0.301735 56.0201 0.261502 55.3792 0.0552704C55.3542 0.0473506 55.3292 0.0394308 55.3203 0.0365797C54.815 0.19656 54.4323 0.317891 54.1412 0.410077C53.9657 0.468367 53.8453 0.508283 53.7614 0.536161C53.5947 0.59445 53.576 0.608706 53.5555 0.625179C53.5143 0.657809 53.4658 0.698041 52.2104 1.11304C49.3136 2.10618 38.1201 5.56587 35.5094 6.32332C34.1523 6.87327 32.389 7.34085 31.0477 7.8417L31.1769 7.77232C29.7257 8.27729 21.4052 10.8015 19.7157 11.3796L19.9492 11.3229C18.4869 11.8608 18.651 11.6774 17.47 12.0107C17.6623 12.0845 16.4129 12.5568 15.9307 12.7197L15.9405 12.687C15.2157 12.9392 13.5928 13.5703 12.3902 13.9694L12.4162 13.8874C11.4319 14.2783 9.52865 14.8482 8.80699 15.0848C7.14257 15.5816 4.55279 16.2738 2.36693 17.0632L0.202923 17.7744L-0.000457764 17.8596L2.10114 20.5688L2.95331 20.3483C3.65722 20.1614 3.95342 19.9824 3.92745 20.0642C3.92745 20.0642 14.2542 16.5658 18.6877 15.145C18.7973 15.1409 18.677 15.178 18.5528 15.2309C19.8852 14.7899 21.0672 14.3987 22.2805 13.997C22.628 13.9197 22.7335 13.9317 22.8421 13.9279C22.7329 13.932 24.409 13.3843 26.127 12.8331C26.9864 12.5594 27.8557 12.2828 28.5168 12.0721C29.1786 11.8634 29.6326 11.7221 29.6614 11.717L29.6624 11.7167Z" fill="black"/>
<path d="M2.94029 78.8865C2.9421 78.8874 2.94604 78.8889 2.94816 78.8901C2.94089 78.888 2.93544 78.8865 2.92938 78.8847C2.93362 78.8853 2.93695 78.8859 2.94029 78.8865Z" fill="black"/>
<path d="M29.6625 87.6405L29.7088 87.7878C31.0247 88.2066 30.1358 87.771 31.3437 88.1867C31.7657 88.5082 33.3712 88.8095 33.7634 89.0334C33.7583 89.017 34.3558 89.2004 34.3349 89.1351C34.4879 89.2856 34.9412 89.3509 35.3097 89.4937C35.4376 89.5628 35.201 89.4899 35.0901 89.4855L35.9407 89.7909C36.287 89.8679 36.3871 89.8394 36.0243 89.7136C38.2853 90.3931 50.4599 94.2279 50.1406 94.2478C50.7618 94.5127 51.091 94.525 51.3529 94.6796C51.6507 94.5938 52.7738 95.0867 53.3117 95.0744L53.4663 95.2255L53.8027 95.2695C54.3435 95.4624 54.6986 95.5888 54.9378 95.674C55.163 95.7551 55.3445 95.8182 55.2961 95.8046C55.303 95.8106 55.3049 95.8023 55.3211 95.7966C55.3246 95.7935 55.3293 95.7887 55.336 95.7824C55.2511 95.8061 55.5685 95.7025 55.828 95.6176C57.2785 95.1738 58.3762 94.9793 58.7583 94.8843C58.7963 94.7826 59.7739 94.6267 59.9304 94.4867C60.3007 94.3809 62.224 93.7828 62.224 93.7828C63.4376 93.4163 64.0687 93.1213 64.8876 92.9728C64.8876 92.9728 65.7866 92.7535 66.0353 92.5536L67.8686 92.0145C69.1757 91.7214 77.0198 89.3563 76.9285 89.4158C79.0913 88.7395 90.3491 85.2465 92.3259 84.5569C93.116 84.2546 93.8427 84.1656 93.8427 84.1656L94.9112 83.8171L94.8425 83.7652C95.0807 83.6876 95.5061 83.7563 96.5474 83.3869C98.3139 82.7955 100.25 82.2082 102.03 81.6272C101.99 81.5958 102.807 81.3145 102.479 81.451C103.838 81.2004 106.86 80.1211 108.05 79.8664C108.197 79.9817 109.945 82.0067 110.001 82.1819C109.941 82.2135 110.041 82.2132 109.659 82.3083C109.659 82.3083 108.776 82.721 108.499 82.7163C107.933 82.9308 108.593 82.7898 107.909 83.0426C107.407 83.1766 106.733 83.3074 106.179 83.533L106.193 83.5434C104.837 84.0604 104.042 84.0966 102.805 84.5749L102.949 84.5575C102.517 84.7431 101.62 84.9617 100.83 85.2642C101.054 85.1762 101.236 85.0574 100.749 85.2015C99.8392 85.543 99.1923 85.6948 98.5347 85.9688L97.8615 86.0993C94.6438 87.1346 81.8812 91.0596 78.6405 92.0731L78.771 92.0449C73.8268 93.5696 63.704 96.7825 58.5736 98.2936C58.1912 98.4555 57.7268 98.618 57.2557 98.7754C56.6405 98.9775 56.0202 99.1812 55.4852 99.3567C56.3288 99.0555 56.0202 99.0957 55.3794 99.3019C55.3544 99.3099 55.3293 99.3178 55.3205 99.3206C54.8152 99.1606 54.4325 99.0393 54.1414 98.9471C53.9659 98.8888 53.8455 98.8489 53.7615 98.821C53.5949 98.7628 53.5762 98.7485 53.5556 98.732C53.5144 98.6994 53.466 98.6592 52.2105 98.2442C49.3138 97.251 38.1202 93.7913 35.5095 93.0339C34.1524 92.4839 32.3891 92.0164 31.0478 91.5155L31.1771 91.5849C29.7259 91.0799 21.4053 88.5557 19.7159 87.9776L19.9494 88.0343C18.487 87.4964 18.6511 87.6798 17.4701 87.3465C17.6624 87.2727 16.413 86.8004 15.9308 86.6375L15.9407 86.6702C15.2158 86.418 13.5929 85.787 12.3904 85.3878L12.4164 85.4699C11.4321 85.0789 9.5288 84.509 8.80715 84.2724C7.14272 83.7756 4.55295 83.0835 2.36708 82.294L0.203075 81.5828L-0.000305176 81.4976L2.10129 78.7884L2.95346 79.0089C3.65738 79.1958 3.95358 79.3748 3.9276 79.293C3.9276 79.293 14.2544 82.7914 18.6879 84.2122C18.7975 84.2163 18.6771 84.1792 18.5529 84.1263C19.8854 84.5673 21.0673 84.9585 22.2806 85.3602C22.6281 85.4375 22.7336 85.4255 22.8423 85.4293C22.733 85.4252 24.4092 85.9729 26.1271 86.5241C26.9866 86.7978 27.8558 87.0744 28.517 87.2851C29.1788 87.4938 29.6327 87.6351 29.6616 87.6402L29.6625 87.6405Z" fill="black"/>
<path d="M21.4186 23.3289L23.473 22.9782L24.9977 22.5429L26.5063 22.1257L26.5773 20.8969L26.6942 20.064L26.7654 19.1862L26.8434 18.7249L26.7965 18.6027L26.8196 18.5871L26.7965 18.565L26.8697 18.545L27.0242 17.8154L27.7896 19.3588L28.2889 21.5431L28.8512 21.679L31.0792 21.4281L32.9293 21.1541L32.8646 18.921L32.6426 18.0667L32.0175 17.6295L31.996 17.5078L33.6918 16.9633L34.6884 17.3485L35.0796 18.3236L34.9567 19.133L34.8892 19.5502L34.9364 20.5246L34.9124 20.8769L34.8807 20.996L36.3978 20.9019L37.1024 20.8494L37.5604 20.7277L37.7271 20.7622L37.7632 20.6545L37.7854 20.7397L38.3854 20.9099L38.6065 20.9742L40.4369 22.0877L39.7663 22.6123L39.7444 22.6085L39.7222 22.6418L39.7 22.5879L39.6712 22.6041L39.656 22.5993L39.6342 22.6218L39.612 22.619L39.5889 22.6022L37.5696 22.3487L35.5403 22.2873L34.7546 22.2426L34.5899 25.3225L34.581 27.8359L34.5525 30.3487L34.4948 31.5148L33.8239 33.036L31.3887 31.2138L30.0873 31.1375L29.2459 31.2465L29.2241 31.2838L29.2019 31.2024L29.1578 31.2972L29.0447 31.2838L28.8113 31.2376L28.5072 32.3191L27.3711 31.626L26.7553 30.3933L26.7791 28.7929L26.8465 27.1931L26.704 25.5981L26.5377 24.0052L26.5424 23.4581L25.2619 23.9824L24.6017 24.2454L23.6108 24.4703L21.3952 23.422L21.4183 23.3295L21.4186 23.3289ZM29.7864 24.692L30.8074 24.297L31.4682 24.1427L32.4129 24.7282L32.1088 25.2911L31.2401 26.9242L30.4532 28.594L29.5659 29.64L29.4667 29.8127L30.5869 29.6387L31.3938 29.3749L31.6447 29.4024L32.2833 29.4217L32.3033 29.4493L32.6473 29.5139L32.6676 28.4739L32.857 26.4087L32.883 24.3344L32.9527 22.2645L32.4813 22.2356L31.3969 22.2683L28.7625 22.771L28.6693 23.9577L28.6526 25.1137L29.7867 24.6924L29.7864 24.692ZM30.2676 25.9085L29.6197 25.9475L28.6212 25.6237L28.7482 27.5701L28.7875 29.5047L29.6752 27.788L30.2672 25.9088L30.2676 25.9085Z" fill="black"/>
<path d="M46.3204 25.554L46.6501 26.6647L46.2145 27.2108L44.2847 25.3405L43.793 22.8575L43.7417 21.2919L43.8294 20.6647L44.539 21.45L45.4717 23.474L46.32 25.5543L46.3204 25.554ZM45.3906 21.6287L47.0655 20.7727L48.4375 20.3963L49.4461 20.6631L49.8466 21.2282L49.5843 21.9778L49.5665 22.0392L49.3638 22.4415L50.7754 20.971L50.8058 21.1845L50.5948 21.6892L49.794 23.193L48.0665 25.1023L47.1386 25.7375L46.3147 24.5574L47.2999 23.3343L47.6848 21.8472L46.3026 22.1659L44.9971 21.985L45.3906 21.6287ZM49.2922 28.3155L51.0878 26.4768L52.3923 24.8989L50.8584 25.5122L49.7351 23.9755L49.7493 23.8845L51.4438 23.2753L52.6625 22.2892L53.7143 21.1402L53.7928 20.6681L53.2549 20.6726L52.8833 20.6881L51.9216 20.5842L51.4115 20.37L52.1918 20.006L52.7411 19.784L53.1029 19.6744L53.7273 19.3867L53.6554 17.0025L53.1029 15.3679L53.1298 15.309L55.1338 15.7943L55.8792 17.0684L55.9049 17.5341L55.8811 17.6409L55.8821 17.7983L55.8095 17.9672L55.8339 18.3011L55.7883 18.7012L57.1306 18.4674L58.1307 18.7614L58.4275 19.2252L57.7771 19.8777L57.4784 20.0916L56.9193 20.4055L55.5095 21.1468L55.4376 22.7463L56.713 22.6408L57.8963 22.4086L57.372 21.6249L57.3948 21.6584L57.442 21.6496L57.3773 21.5628L57.4388 21.5704L57.461 21.5894L57.4828 21.583L57.9698 21.8172L59.4942 22.6209L60.2158 23.4949L59.4637 24.0695L58.7215 23.8972L58.6543 23.8785L58.0154 23.8142L57.3726 23.7914L55.3445 24.022L55.3844 26.2472L56.1701 26.4857L56.7903 26.7566L57.3758 26.9169L59.3934 27.6468L61.3262 28.5775L62.8775 30.1858L62.2582 30.8543L60.3017 30.4383L60.2038 30.4729L59.881 30.4127L58.3394 30.6217L58.342 30.5172L58.8238 30.3376L59.3168 30.196L59.7916 29.857L57.7749 28.5407L55.4649 27.444L55.4972 28.7771L55.6556 30.3921L55.6958 32.0163L55.8124 32.4287L55.8213 32.8707L55.8384 33.2435L55.1718 34.2449L54.0045 33.7551L52.5675 32.4899L50.7501 31.1825L50.4979 30.8733L50.0442 30.5381L50.0256 30.4095L50.2517 30.4187L51.9279 30.9952L53.037 31.1977L53.6531 31.0057L53.8404 30.2083L53.8439 27.9835L53.9208 27.5657L53.8188 26.8611L53.2923 26.6606L51.8693 28.1061L50.26 29.3657L47.9528 30.0952L47.0559 29.8177L49.2912 28.3155H49.2922ZM53.8454 23.0574L53.783 22.4339L53.081 22.9345L52.2219 23.4147L53.8454 23.0574Z" fill="black"/>
<path d="M64.6297 29.978L66.7392 29.3321L68.5639 27.6224L69.6008 26.2567L70.6167 24.8542L68.5382 23.6061L67.872 23.9558L67.3563 23.6352L66.9001 22.6148L67.5483 21.6255L69.265 19.7485L70.3842 18.0476L71.4271 16.2514L71.8804 17.6187L71.1309 20.2988L73.3304 19.6088L74.3903 20.0422L74.7924 20.4141L74.6381 20.683L74.55 20.8364L73.9646 22.1834L72.6651 24.8736L74.9251 26.556L76.9488 28.179L78.2752 29.0755L79.2962 29.6375L80.4956 29.9951L82.4495 30.5505L84.0988 30.9791L84.1903 31.8829L84.1729 31.8804L82.5069 32.1325L80.5054 32.2713L78.1542 31.8281L76.0678 29.9391L75.0271 28.7777L73.9076 27.6943L71.965 25.9358L70.6386 27.8631L69.0318 29.4867L67.5857 30.2245L65.9573 30.4443L64.6731 30.056L64.63 29.9774L64.6297 29.978ZM71.1166 23.8171L71.9748 22.3541L72.5235 20.862L71.1271 21.4791L68.9336 23.1632L71.1166 23.8171ZM75.8064 20.2158L76.4311 19.8971L78.1196 19.2546L79.8886 18.8805L81.1706 19.8195L80.6125 21.7744L80.2396 23.2528L81.4957 24.979L81.6709 24.9661L82.3501 24.9125L83.341 24.8352L84.3959 25.2059L85.2848 26.0479L84.8755 26.449L84.1155 26.6156L82.9941 26.5449L81.2289 26.8953L79.6333 27.7288L80.2801 27.1171L80.96 26.5611L79.3462 25.7755L78.8809 24.2872L78.9781 22.9595L79.2065 21.6705L79.2648 20.876L79.2236 20.1619L78.7811 20.2737L77.8104 20.6418H77.2703L77.5 21.8441L77.2054 23.8563L77.0162 24.5717L76.9348 25.145L76.3025 26.3957L75.7196 25.8933L75.4171 24.9914L75.6189 23.4436L76.7229 20.5664L75.8077 20.2151L75.8064 20.2158Z" fill="black"/>
<path d="M12.9942 46.3486L14.9969 44.6667L16.7361 42.7172L18.3746 40.3986L17.1106 39.432L15.2776 38.9765L13.4466 38.4142L15.8659 37.1812L18.6318 37.1207L21.0217 37.3694L23.3308 38.0515L25.4039 40.4515L24.329 41.9547L22.0148 42.6012L19.6826 43.1806L17.5924 44.0062L15.5529 44.9879L13.7656 46.3796L11.1143 48.4359L9.78951 49.5079L12.4493 48.9767L15.1097 48.4774L17.0152 48.1527L18.947 48.1023L21.4164 48.4717L23.5785 49.6682L24.6676 51.7071L25.3928 53.9025L25.7305 55.9138L26.0055 57.934L25.9773 59.9725L25.9744 62.4011L25.6792 64.8141L25.0145 67.1488L24.2165 69.443L22.9262 71.512L21.1589 73.1824L19.6414 74.1673L18.0571 75.035L16.0034 75.5533L13.9249 75.6886L13.9217 75.3629L16.0902 73.906L17.8595 71.991L19.4244 69.9002L20.4898 67.337L20.8402 64.5863L21.2073 62.5613L21.4627 60.5165L21.4275 58.4526L21.5517 56.3947L21.3838 54.1914L20.4568 52.1959L17.6843 50.6205L15.3993 51.3447L13.5169 52.3445L11.6183 53.3215L8.89679 54.1363L6.70173 52.3039L5.79191 51.0596L5.66266 50.4488L5.64238 50.4083L5.63193 50.1808L7.62455 49.5646L9.5196 48.6814L11.2936 47.5733L12.9932 46.3489L12.9942 46.3486Z" fill="black"/>
<path d="M40.6549 55.6455L41.1896 53.4986L41.5276 51.3203L41.8812 51.1565L42.4555 51.2965L42.9899 53.4314L43.2228 55.6097L43.4148 56.3009L45.5164 55.8561L47.6553 55.3651L49.7972 55.0233L50.9506 52.1722L51.4172 50.3047L51.7588 48.4077L52.0667 46.5101L52.3499 46.461L53.4241 48.6482L53.8594 51.0317L53.8946 53.4472L53.5616 55.2143L56.8331 55.7364L58.7627 56.6868L60.6315 57.7189L62.1293 59.2965L63.1465 61.227L63.7316 63.3486L63.9381 65.5493L63.5542 68.0235L62.7128 70.3662L61.222 72.3528L59.3928 74.0295L57.454 75.2631L55.3375 76.1844L52.4468 76.0466L51.4568 75.7941L52.2175 75.1754L54.6115 73.8582L56.376 71.7607L57.8909 69.7132L58.9423 67.3896L59.2978 64.8654L58.7662 62.4638L57.4211 60.3939L55.1861 59.2572L52.7028 58.7842L51.7632 60.7784L50.6215 62.6491L49.3068 64.4707L47.9813 66.2837L46.978 67.7621L48.134 70.7587L46.7899 72.4513L45.2683 71.7404L43.7518 70.555L41.546 71.9549L39.1698 72.9341L36.6345 73.3586L34.7343 72.955L33.031 72.0166L32.1493 70.268L31.555 68.1065L31.6006 65.8528L32.2203 63.6945L33.2347 61.6981L34.7071 60.0058L36.5521 58.7386L38.5137 57.6647L40.5608 56.8721L40.6552 55.6455H40.6549ZM40.6777 60.5735L38.7373 61.2935L37.1508 62.7099L36.0538 64.5293L35.7671 66.622L35.9882 68.7115L37.0026 70.0114L38.8206 69.4177L40.5117 68.5221L42.0313 67.4057L41.5432 65.147L41.0873 62.8265L40.678 60.5735H40.6777ZM45.5477 64.1928L46.7838 62.4533L47.8999 60.5462L48.9849 58.5527L46.5836 59.0393L44.2334 59.5794L44.8213 61.9186L45.5477 64.1928Z" fill="black"/>
<path d="M103.988 68.9824L101.746 68.0957L99.3342 67.9959L97.4503 68.5541L95.617 69.328L93.6878 69.7646L90.7558 69.9005L91.0603 67.8423L91.4449 65.7872L93.8541 65.5047L95.5559 65.2604L98.2081 64.1697L97.1725 63.1072L95.2448 62.4213L91.8741 62.9922L91.8567 62.1986L92.1972 61.9892L94.2063 61.1428L96.186 60.2285L98.0997 59.1764L100.061 58.2207L101.834 56.6627L100.402 55.5286L98.5242 55.0138L97.7858 55.125L96.2088 55.2286L94.2345 55.8352L92.3138 56.6104L90.0497 57.0045L87.899 57.6438L89.5466 56.3516L91.3112 55.1959L93.1492 54.1413L94.9248 52.986L96.7128 51.8474L98.5448 50.7745L98.8407 50.4688L97.654 49.1176L95.9189 48.7251L93.4232 49.1778L90.9611 49.8612L88.8503 50.7935L86.6448 51.4613L84.4447 52.1528L82.1749 52.5447L79.5395 53.4682L82.8547 54.2009L84.9259 54.3618L88.2494 53.5562L86.718 55.0733L85.2877 56.5987L83.6296 57.8788L81.2296 58.8723L78.7063 59.6003L79.6817 61.7472L81.6075 62.8262L84.6234 61.5083L85.6675 61.2039L87.0633 63.7271L86.0575 64.3702L83.5628 65.3441L80.9749 65.9488L80.8684 66.1104L82.4188 67.2549L84.2527 67.7716L87.3107 67.0322L86.8723 70.3256L84.1419 70.7222L81.9756 71.0758L79.8275 71.5396L77.6679 71.9416L75.4351 72.1285L73.8065 72.2314L73.8841 72.462L75.3715 73.6272L77.2725 74.1962L79.223 74.4848L80.9486 74.2491L82.633 73.6801L84.3174 73.1099L86.5045 72.7586L88.7296 72.6661L90.9561 72.4836L93.1882 72.4193L95.4111 72.6385L97.4668 72.6695L99.5161 72.8397L101.551 73.1463L103.598 73.3003L103.743 73.4172L104.373 73.3427L106.399 72.2872L105.605 70.3104L103.99 68.9815L103.988 68.9824ZM89.5593 59.4577L92.8254 58.7801L90.7967 61.0078L87.7571 60.3102L89.559 59.4574L89.5593 59.4577Z" fill="black"/>
<path d="M77.2694 49.0996L77.7813 46.8231L78.1301 44.5159L78.8651 43.1987L78.9119 42.8822L78.0557 42.1013L77.3473 41.1339L77.404 41.1934L79.2481 40.6995L81.7155 40.3872L83.4335 39.8271L85.147 39.2686L87.1821 38.5495L89.2761 38.0264L91.4189 37.7629L93.5496 37.4534L95.7057 37.4001L97.89 37.6906L99.1233 39.3044L97.5504 41.9426L95.9506 42.8943L94.2884 43.6634L95.387 45.6136L94.5963 47.0952L91.7981 47.7925L88.6413 48.2309L85.5152 49.1316L84.6006 49.5314L82.5592 48.2728L81.8128 47.3167L81.5568 46.903L81.6975 46.5599L82.8424 46.4867L84.6658 45.9231L86.4601 44.9708L88.588 43.5101L90.421 41.6965L92.241 39.8828L91.4049 39.7872L89.0132 40.2766L86.7782 41.1896L85.2522 42.3564L83.3172 42.9655L81.3044 43.3378L80.3331 43.2792L80.2542 44.0873L80.2247 44.5105L80.5013 46.2678L80.9888 48.0101L79.9532 50.3674L78.7165 52.6166L77.7747 54.9964L77.2415 57.3656L76.8506 59.7688L76.3244 62.1438L75.8546 63.1661L75.3344 64.9693L74.5957 66.8178L74.6261 66.9641L74.3634 67.3839L73.3507 69.3195L71.9542 71L70.3348 72.4278L68.1505 73.5746L66.0489 73.5018L67.2293 71.1451L68.2221 68.7312L69.2178 67.3249L70.4865 66.1585L71.3438 64.1789L71.8643 62.0478L72.5099 59.9503L72.8942 57.7806L73.6599 55.7367L74.7502 53.4644L76.0621 51.3095L77.2694 49.0996Z" fill="black"/>
</g>
<defs>
<clipPath id="clip0_9_267">
<rect width="110" height="99.3571" fill="white"/>
</clipPath>
</defs>
</svg>
