<svg width="171" height="155" viewBox="0 0 171 155" fill="none" xmlns="http://www.w3.org/2000/svg">
<g clip-path="url(#clip0_10_373)">
<path d="M33.2963 36.3266L36.49 35.7804L38.8602 35.1028L41.2051 34.453L41.3153 32.5396L41.4969 31.2429L41.6077 29.876L41.7288 29.1578L41.6556 28.9676L41.6917 28.9435L41.6556 28.9092L41.7692 28.878L42.0097 27.7417L43.1996 30.145L43.9758 33.546L44.8499 33.7575L48.3137 33.3666L51.1896 32.9398L51.089 29.4625L50.7435 28.132L49.7719 27.4513L49.7382 27.2621L52.3743 26.4141L53.9233 27.014L54.5315 28.5325L54.3404 29.7928L54.2357 30.4425L54.3092 31.9598L54.2715 32.5081L54.2224 32.6933L56.5809 32.5467L57.6764 32.4648L58.3886 32.2755L58.6477 32.3293L58.7042 32.1614L58.7384 32.2938L59.6709 32.5585L60.0148 32.6587L62.8602 34.3924L61.8176 35.2095L61.7836 35.2036L61.7493 35.2553L61.7151 35.1715L61.6703 35.1968L61.6465 35.1894L61.6126 35.2243L61.5783 35.22L61.5425 35.1937L58.4038 34.7994L55.2487 34.7035L54.0273 34.634L53.771 39.4297L53.7575 43.3437L53.713 47.2565L53.6235 49.0722L52.5802 51.4408L48.7947 48.6034L46.7715 48.4843L45.4636 48.6541L45.4297 48.7125L45.3954 48.586L45.3272 48.7336L45.1515 48.7128L44.7884 48.6408L44.316 50.3247L42.55 49.2454L41.5929 47.3258L41.63 44.8338L41.7349 42.3423L41.5132 39.8586L41.2548 37.3787L41.2622 36.5266L39.2718 37.3431L38.2455 37.7523L36.7052 38.1027L33.2608 36.4701L33.2966 36.3262L33.2963 36.3266ZM46.3044 38.4493L47.8913 37.8339L48.9188 37.5933L50.3872 38.505L49.9148 39.3815L48.5647 41.9245L47.3411 44.5248L45.9616 46.1534L45.8073 46.4224L47.5486 46.1515L48.803 45.7405L49.1933 45.7835L50.1862 45.8138L50.2171 45.8568L50.7521 45.9576L50.7836 44.3383L51.0779 41.1223L51.118 37.892L51.2261 34.6689L50.4934 34.6241L48.8077 34.6748L44.7125 35.4578L44.568 37.3057L44.5417 39.1056L46.3047 38.4496L46.3044 38.4493ZM47.0521 40.3436L46.045 40.4039L44.4929 39.8998L44.6905 42.9302L44.7517 45.9428L46.1318 43.2698L47.0521 40.3436Z" fill="white"/>
<path d="M72.0074 39.7916L72.5199 41.521L71.8428 42.3715L68.8428 39.4592L68.0786 35.5928L67.999 33.1546L68.1354 32.1779L69.2386 33.4007L70.6888 36.5524L72.0077 39.792L72.0074 39.7916ZM70.5619 33.6791L73.1655 32.3461L75.2986 31.7604L76.8667 32.1757L77.4889 33.0559L77.0813 34.2231L77.0538 34.3186L76.7386 34.9449L78.9332 32.6548L78.9804 32.9876L78.6525 33.7734L77.4077 36.1151L74.7225 39.0881L73.2797 40.0774L71.9988 38.2401L73.5301 36.3356L74.1285 34.0202L71.9799 34.5162L69.9502 34.2345L70.5619 33.6791ZM76.6268 44.0916L79.4182 41.2285L81.4464 38.7714L79.0619 39.7264L77.3157 37.3333L77.3379 37.1917L79.9721 36.2429L81.8662 34.7074L83.5014 32.918L83.6233 32.1829L82.7872 32.19L82.2096 32.2141L80.7146 32.0523L79.9218 31.7187L81.1345 31.1518L81.9885 30.806L82.551 30.6353L83.522 30.1872L83.4103 26.4745L82.5517 23.9289L82.5937 23.8374L85.7092 24.5929L86.8679 26.5772L86.9081 27.3021L86.871 27.4681L86.8725 27.7134L86.7595 27.9763L86.7972 28.4964L86.7262 29.1193L88.813 28.7553L90.3675 29.2133L90.8291 29.9358L89.818 30.952L89.3536 31.2851L88.4845 31.774L86.2933 32.9282L86.1816 35.4187L88.164 35.2545L90.0032 34.8929L89.1884 33.6726L89.224 33.7248L89.2974 33.7109L89.1968 33.5758L89.2925 33.5878L89.3268 33.6175L89.3607 33.6079L90.1178 33.9726L92.4874 35.2241L93.6094 36.5849L92.4402 37.4796L91.2864 37.2112L91.1823 37.1821L90.1891 37.0822L89.19 37.0469L86.0374 37.406L86.0998 40.8707L87.3212 41.2421L88.2857 41.6639L89.1959 41.9135L92.3324 43.05L95.3368 44.4992L97.7484 47.004L96.7857 48.0449L93.7443 47.3974L93.5921 47.4509L93.0904 47.3571L90.6939 47.6828L90.6979 47.5201L91.4469 47.2402L92.2129 47.0197L92.9508 46.4921L89.8158 44.4427L86.2245 42.7352L86.2748 44.8107L86.5209 47.3253L86.5833 49.8541L86.7642 50.4965L86.7781 51.1849L86.8046 51.7654L85.7685 53.3247L83.9534 52.5617L81.7196 50.5914L78.8943 48.5555L78.5025 48.074L77.7973 47.552L77.7683 47.3519L78.1199 47.3661L80.7254 48.2639L82.4495 48.579L83.4072 48.2803L83.6983 47.0389L83.7039 43.5749L83.8234 42.9242L83.665 41.8272L82.8465 41.5149L80.6344 43.7657L78.1326 45.727L74.5459 46.8629L73.1519 46.4306L76.6268 44.0913V44.0916ZM83.7048 35.9039L83.6079 34.9331L82.5165 35.7128L81.1808 36.4606L83.7048 35.9039Z" fill="white"/>
<path d="M100.47 46.6804L103.749 45.6747L106.586 43.0122L108.198 40.8858L109.777 38.7017L106.545 36.7583L105.51 37.3029L104.708 36.8038L103.999 35.2148L105.007 33.6744L107.675 30.7518L109.415 28.1036L111.036 25.3066L111.741 27.4356L110.576 31.6088L113.995 30.5344L115.643 31.2092L116.268 31.7882L116.029 32.2072L115.892 32.446L114.982 34.5434L112.961 38.7327L116.475 41.3527L119.621 43.8797L121.683 45.2757L123.27 46.151L125.134 46.7076L128.172 47.5726L130.736 48.2403L130.878 49.6475L130.851 49.6435L128.261 50.0359L125.15 50.2518L121.495 49.5618L118.251 46.6204L116.633 44.8122L114.893 43.1251L111.873 40.3869L109.813 43.3858L107.314 45.9162L105.066 47.0648L102.534 47.4075L100.538 46.8029L100.471 46.6807L100.47 46.6804ZM110.554 37.0871L111.888 34.8094L112.741 32.4859L110.571 33.4467L107.16 36.069L110.554 37.0871ZM117.845 31.4795L118.816 30.9835L121.44 29.9833L124.191 29.4007L126.184 30.8632L125.316 33.9072L124.736 36.2094L126.689 38.8975L126.961 38.8774L128.017 38.7942L129.558 38.6739L131.198 39.251L132.579 40.562L131.943 41.1867L130.762 41.4461L129.018 41.336L126.275 41.8816L123.794 43.1792L124.8 42.2264L125.856 41.3608L123.347 40.1373L122.624 37.82L122.775 35.7526L123.13 33.7455L123.22 32.5081L123.157 31.3963L122.468 31.5704L120.96 32.1438L120.12 32.1432L120.477 34.0161L120.018 37.1492L119.725 38.2629L119.598 39.156L118.615 41.1038L117.708 40.3217L117.238 38.9173L117.552 36.5072L119.268 32.0272L117.845 31.4801L117.845 31.4795Z" fill="white"/>
<path d="M20.2003 72.1723L23.314 69.5532L26.018 66.5174L28.5651 62.9068L26.6003 61.4016L23.7512 60.6925L20.9048 59.817L24.666 57.8967L28.9655 57.8027L32.6807 58.1899L36.2705 59.2519L39.4934 62.9891L37.8225 65.3299L34.225 66.3365L30.5994 67.239L27.3477 68.5258L24.1788 70.0542L21.4016 72.2206L17.2805 75.4227L15.2211 77.0921L19.3559 76.2648L23.4915 75.4873L26.4536 74.9817L29.4568 74.9031L33.2945 75.4777L36.6567 77.3413L38.3502 80.5168L39.4771 83.9345L40.0023 87.0664L40.4299 90.2122L40.386 93.3865L40.3817 97.1682L39.9226 100.926L38.8892 104.561L37.649 108.134L35.6434 111.355L32.8959 113.956L30.5368 115.49L28.0736 116.841L24.8812 117.648L21.6501 117.859L21.6452 117.352L25.0167 115.083L27.7667 112.101L30.1993 108.846L31.856 104.852L32.4 100.571L32.9706 97.4177L33.3673 94.2323L33.3127 91.0191L33.5056 87.8151L33.2448 84.3845L31.8035 81.277L27.4935 78.8239L23.9413 79.9515L21.0144 81.5087L18.0638 83.0296L13.833 84.2982L10.4208 81.4449L9.00672 79.5074L8.80573 78.5564L8.77424 78.493L8.75787 78.1389L11.8552 77.1793L14.8009 75.804L17.5599 74.0777L20.2009 72.172L20.2003 72.1723Z" fill="white"/>
<path d="M63.1995 86.6485L64.0306 83.3056L64.5561 79.9136L65.1057 79.6588L65.9986 79.8772L66.8294 83.2014L67.1913 86.5931L67.4898 87.6693L70.757 86.9766L74.0821 86.2121L77.4116 85.6799L79.2045 81.2404L79.9304 78.3311L80.4614 75.3783L80.9397 72.4242L81.3803 72.3481L83.0506 75.755L83.7267 79.4658L83.7814 83.2265L83.2639 85.9783L88.3496 86.791L91.3493 88.2709L94.2543 89.8781L96.5829 92.3346L98.1643 95.3412L99.0735 98.6448L99.3943 102.072L98.7975 105.924L97.4896 109.572L95.1719 112.666L92.3287 115.277L89.315 117.197L86.0247 118.632L81.5309 118.417L79.9918 118.024L81.1743 117.061L84.8956 115.01L87.6388 111.743L89.9936 108.555L91.6278 104.937L92.1805 101.006L91.354 97.267L89.2631 94.0435L85.7888 92.274L81.9283 91.5376L80.4676 94.6432L78.6926 97.5565L76.6487 100.393L74.5885 103.216L73.029 105.518L74.8259 110.184L72.7363 112.819L70.371 111.712L68.0134 109.866L64.5845 112.046L60.8907 113.571L56.9493 114.232L53.9952 113.603L51.3471 112.142L49.9772 109.419L49.0528 106.052L49.1238 102.542L50.0874 99.1816L51.6642 96.0736L53.9532 93.4389L56.8211 91.4662L59.8703 89.794L63.0525 88.56L63.1995 86.65V86.6485ZM63.235 94.3219L60.2192 95.4427L57.7526 97.648L56.0471 100.481L55.6013 103.74L55.9452 106.994L57.522 109.018L60.3479 108.094L62.9766 106.699L65.3391 104.961L64.5805 101.445L63.8716 97.8308L63.235 94.3219ZM70.806 99.9579L72.7274 97.2497L74.4622 94.2795L76.1489 91.1751L72.4137 91.9331L68.7625 92.7737L69.6767 96.4162L70.806 99.9579Z" fill="white"/>
<path d="M164.165 109.486L161.654 107.416L158.169 106.035L154.42 105.88L151.491 106.749L148.641 107.955L145.642 108.634L141.084 108.846L141.557 105.641L142.156 102.441L145.901 102.001L148.546 101.621L152.669 99.9221L151.059 98.2678L148.062 97.1999L142.822 98.0888L142.795 96.853L143.325 96.527L146.451 95.2074L149.527 93.7841L152.502 92.1463L155.549 90.6584L158.306 88.2323L156.079 86.4664L153.16 85.6648L152.012 85.8379L149.561 85.9994L146.49 86.9442L143.506 88.1509L139.985 88.7651L136.643 89.76L139.204 87.7479L141.947 85.9483L144.807 84.3046L147.566 82.5059L150.345 80.7336L153.192 79.0635L153.652 78.5876L151.807 76.4834L149.11 75.8726L145.23 76.5774L141.403 77.6412L138.121 79.0929L134.693 80.133L131.274 81.2092L127.744 81.8197L123.647 83.2574L128.801 84.3986L132.021 84.6494L137.187 83.3951L134.808 85.756L132.584 88.132L130.005 90.1265L126.274 91.6737L122.352 92.8072L123.868 96.1503L126.862 97.8305L131.55 95.7783L133.174 95.3039L135.343 99.233L133.78 100.235L129.901 101.751L125.878 102.693L125.712 102.944L128.122 104.727L130.973 105.531L135.727 104.38L135.045 109.509L130.8 110.126L127.433 110.677L124.094 111.399L120.737 112.025L117.266 112.316L114.734 112.476L114.854 112.835L117.167 114.649L120.122 115.536L123.154 115.985L125.836 115.618L128.454 114.732L131.073 113.844L134.474 113.297L137.935 113.153L141.395 112.869L144.862 112.769L148.319 113.11L151.514 113.159L154.698 113.424L157.862 113.901L161.046 114.141L161.271 114.323L162.25 114.208L165.4 112.564L164.165 109.486ZM136.423 93.9125L139.224 92.5848L144.302 91.5299L141.148 94.9989L136.423 93.9125Z" fill="white"/>
<path d="M116.009 104.273L115.962 104.046L117.111 101.167L117.919 98.3594L118.65 96.7679L119.468 93.0694L120.075 89.3274L120.904 85.6382L122.368 81.932L124.291 78.4299L125.901 74.7592L125.143 72.0464L124.713 69.31L124.759 68.6507L124.881 67.3923L126.391 67.4838L129.52 66.9043L132.529 65.9551L134.901 64.1388L138.375 62.7168L142.093 61.9551L143.393 62.1039L140.564 64.9281L137.714 67.7526L134.406 70.0266L131.617 71.5095L128.783 72.3869L127.003 72.5013L126.784 73.0351L127.182 73.6793L128.342 75.1681L131.515 77.1282L132.937 76.5053L137.797 75.1031L142.704 74.4206L147.054 73.3348L148.283 71.0277L146.576 67.9907L149.159 66.7929L151.647 65.3109L154.091 61.203L152.175 58.6902L148.779 58.2378L145.428 58.3204L142.114 58.8028L138.784 59.2132L135.529 60.0278L132.365 61.147L129.701 62.017L127.03 62.8894L123.195 63.3756L120.328 64.1444L120.24 64.0519L121.341 65.558L122.672 66.7741L122.599 67.267L121.456 69.3184L120.914 72.9108L120.119 76.4558L118.242 79.897L116.203 83.2525L114.508 86.7908L113.317 89.9731L112.721 93.3496L111.717 96.6148L110.908 99.9341L109.574 103.019L107.602 104.835L106.054 107.025L104.511 110.784L102.676 114.454L105.947 114.565L109.339 112.782L111.856 110.558L114.027 107.941L115.601 104.927L116.009 104.273Z" fill="white"/>
<path d="M4.57192 31.876C4.57501 31.8744 4.58118 31.872 4.58489 31.8701C4.57285 31.8735 4.5642 31.876 4.55432 31.8788C4.56142 31.8775 4.56667 31.8766 4.57192 31.876Z" fill="white"/>
<path d="M46.1112 18.2451L46.1832 18.0156C48.2289 17.3633 46.847 18.0416 48.7244 17.3946C49.3805 16.8939 51.8764 16.4247 52.4856 16.0759C52.4775 16.1016 53.4066 15.8158 53.3741 15.9175C53.6122 15.6831 54.3164 15.5817 54.8891 15.3593C55.0883 15.252 54.72 15.3655 54.548 15.3723L55.8703 14.8967C56.4085 14.777 56.5644 14.8212 56.0003 15.0173C59.5151 13.959 78.4411 7.98774 77.945 7.95681C78.9108 7.54456 79.4223 7.52508 79.8296 7.28478C80.2927 7.41838 82.0383 6.6511 82.8744 6.66997L83.1146 6.43493L83.6376 6.36627C84.4783 6.06598 85.0304 5.86898 85.4021 5.7363C85.7519 5.60982 86.0344 5.51209 85.9591 5.53281C85.9696 5.52322 85.973 5.53621 85.9977 5.54549C86.0029 5.55075 86.0103 5.55786 86.0208 5.56776C85.8887 5.53095 86.3821 5.69208 86.7856 5.82444C89.0407 6.51565 90.7468 6.81872 91.3408 6.96655C91.4001 7.12489 92.9201 7.36736 93.163 7.5857C93.7385 7.75053 96.7284 8.68172 96.7284 8.68172C98.6149 9.25262 99.5961 9.71157 100.869 9.94289C100.869 9.94289 102.267 10.284 102.654 10.5957L105.503 11.4351C107.535 11.8913 119.729 15.5743 119.587 15.4815C122.949 16.5345 140.45 21.9738 143.523 23.0476C144.751 23.5183 145.881 23.6565 145.881 23.6565L147.542 24.1993L147.435 24.28C147.806 24.4009 148.467 24.2936 150.085 24.8688C152.831 25.7898 155.841 26.7043 158.609 27.6092C158.546 27.6581 159.816 28.0963 159.306 27.8835C161.419 28.2735 166.118 29.9544 167.967 30.3508C168.196 30.1715 170.913 27.0179 171 26.7451C170.907 26.696 171.062 26.6963 170.468 26.5485C170.468 26.5485 169.095 25.9055 168.666 25.9132C167.785 25.5789 168.812 25.7988 167.748 25.4051C166.968 25.1964 165.921 24.9929 165.059 24.6415L165.081 24.6255C162.973 23.8204 161.738 23.7642 159.814 23.0195L160.038 23.0467C159.366 22.7575 157.971 22.417 156.743 21.9463C157.092 22.0836 157.375 22.2686 156.618 22.044C155.203 21.5121 154.198 21.2761 153.175 20.8494L152.129 20.6462C147.127 19.034 127.287 12.922 122.249 11.3439L122.452 11.3878C114.766 9.01356 99.0295 4.01031 91.0543 1.65744C90.4597 1.40539 89.7378 1.1521 89.0058 0.907165C88.0493 0.592645 87.0851 0.275341 86.2533 0.00195312C87.5649 0.471105 87.0851 0.408634 86.0888 0.0873097C86.0495 0.0749391 86.011 0.0625686 85.9974 0.058239C85.2119 0.307505 84.617 0.496464 84.1644 0.639962C83.8914 0.730576 83.7043 0.792738 83.574 0.836344C83.315 0.926958 83.286 0.949534 83.2539 0.974894C83.19 1.02561 83.1143 1.08839 81.163 1.73444C76.66 3.28107 59.2588 8.66811 55.2004 9.84795C53.0907 10.7043 50.3497 11.4326 48.2641 12.2126L48.4648 12.1046C46.2088 12.8908 33.2742 16.8215 30.6477 17.7218L31.0108 17.6333C28.7375 18.4708 28.9928 18.1851 27.1567 18.704C27.4559 18.8187 25.5133 19.5542 24.764 19.8078L24.7794 19.757C23.6528 20.1498 21.1297 21.1326 19.2606 21.7536L19.301 21.6259C17.7706 22.2349 14.8119 23.1224 13.6902 23.4905C11.1029 24.2639 7.07688 25.3417 3.67914 26.5713L0.315056 27.6788L-0.00109863 27.8115L3.26604 32.0304L4.59087 31.6872C5.68537 31.3965 6.14571 31.1175 6.10526 31.2446C6.10526 31.2446 22.1588 25.7973 29.0509 23.5845C29.2213 23.578 29.0339 23.6355 28.8409 23.7184C30.9123 23.0315 32.7493 22.4226 34.6361 21.7969C35.1764 21.6766 35.3403 21.6952 35.5095 21.6893C35.3397 21.6958 37.9455 20.8429 40.6159 19.9847C41.9521 19.5585 43.3032 19.1277 44.331 18.7999C45.3597 18.4745 46.0655 18.2546 46.11 18.2469L46.1112 18.2451Z" fill="white"/>
<path d="M4.57192 122.839C4.57501 122.84 4.58118 122.843 4.58489 122.845C4.57285 122.841 4.5642 122.839 4.55432 122.836C4.56142 122.837 4.56667 122.838 4.57192 122.839Z" fill="white"/>
<path d="M46.1114 136.47L46.1833 136.699C48.2291 137.352 46.8471 136.673 48.7246 137.32C49.3807 137.821 51.8766 138.29 52.4857 138.639C52.4777 138.613 53.4067 138.899 53.3743 138.797C53.6124 139.032 54.3166 139.133 54.8893 139.356C55.0885 139.463 54.7201 139.349 54.5482 139.343L55.8705 139.818C56.4087 139.938 56.5646 139.894 56.0005 139.698C59.5153 140.756 78.4413 146.727 77.9452 146.758C78.9109 147.17 79.4225 147.19 79.8298 147.43C80.2929 147.297 82.0385 148.064 82.8746 148.045L83.1148 148.28L83.6378 148.349C84.4785 148.649 85.0306 148.846 85.4023 148.979C85.7521 149.105 86.0346 149.203 85.9593 149.182C85.9698 149.192 85.9732 149.179 85.9979 149.17C86.0031 149.164 86.0105 149.157 86.021 149.147C85.8889 149.184 86.3823 149.023 86.7858 148.891C89.0409 148.199 90.747 147.896 91.341 147.748C91.4003 147.59 92.9202 147.348 93.1632 147.129C93.7387 146.964 96.7286 146.033 96.7286 146.033C98.615 145.462 99.5962 145.003 100.869 144.772C100.869 144.772 102.267 144.431 102.654 144.119L105.503 143.28C107.535 142.824 119.729 139.141 119.587 139.234C122.949 138.18 140.45 132.741 143.523 131.667C144.751 131.197 145.881 131.058 145.881 131.058L147.542 130.516L147.435 130.435C147.806 130.314 148.467 130.421 150.086 129.846C152.832 128.925 155.841 128.011 158.609 127.106C158.546 127.057 159.816 126.619 159.306 126.831C161.42 126.441 166.118 124.761 167.967 124.364C168.196 124.544 170.914 127.697 171 127.97C170.907 128.019 171.062 128.019 170.469 128.167C170.469 128.167 169.096 128.81 168.666 128.802C167.785 129.136 168.812 128.916 167.748 129.31C166.968 129.519 165.921 129.722 165.059 130.073L165.082 130.09C162.973 130.895 161.738 130.951 159.814 131.696L160.038 131.668C159.366 131.957 157.971 132.298 156.743 132.769C157.092 132.631 157.375 132.446 156.618 132.671C155.203 133.203 154.198 133.439 153.176 133.866L152.129 134.069C147.127 135.681 127.287 141.793 122.249 143.371L122.452 143.327C114.766 145.701 99.0297 150.705 91.0545 153.058C90.4598 153.31 89.738 153.563 89.006 153.808C88.0495 154.122 87.0853 154.44 86.2535 154.713C87.5651 154.244 87.0853 154.306 86.0889 154.628C86.0497 154.64 86.0111 154.652 85.9976 154.657C85.2121 154.408 84.6171 154.219 84.1645 154.075C83.8916 153.984 83.7045 153.922 83.5742 153.879C83.3152 153.788 83.2862 153.765 83.2541 153.74C83.1901 153.689 83.1145 153.627 81.1632 152.981C76.6602 151.434 59.259 146.047 55.2005 144.867C53.0909 144.011 50.3499 143.282 48.2643 142.502L48.465 142.61C46.209 141.824 33.2744 137.893 30.6479 136.993L31.011 137.082C28.7377 136.244 28.993 136.53 27.1569 136.011C27.4561 135.896 25.5135 135.161 24.7641 134.907L24.7796 134.958C23.653 134.565 21.1299 133.582 19.2608 132.961L19.3012 133.089C17.7708 132.48 14.8121 131.593 13.6904 131.225C11.1031 130.451 7.07707 129.373 3.67933 128.144L0.315239 127.036L-0.000915527 126.904L3.26623 122.685L4.59105 123.028C5.68555 123.319 6.14589 123.598 6.10544 123.47C6.10544 123.47 22.159 128.918 29.0511 131.131C29.2215 131.137 29.0341 131.08 28.8411 130.997C30.9125 131.683 32.7495 132.292 34.6363 132.918C35.1766 133.038 35.3405 133.02 35.5097 133.026C35.3399 133.019 37.9457 133.872 40.616 134.73C41.9523 135.157 43.3034 135.587 44.3312 135.915C45.3599 136.24 46.0657 136.46 46.1102 136.468L46.1114 136.47Z" fill="white"/>
</g>
<defs>
<clipPath id="clip0_10_373">
<rect width="171" height="154.714" fill="white"/>
</clipPath>
</defs>
</svg>
