<svg width="85" height="16" viewBox="0 0 85 16" fill="none" xmlns="http://www.w3.org/2000/svg">
<path d="M6.27 14.1C5.802 14.1 5.334 14.1 4.866 14.064C3.966 13.992 2.814 13.884 1.914 13.47C1.086 13.092 0.474 12.444 0.474 11.364C0.474 10.392 0.888 9.456 1.572 8.772C1.662 8.682 1.752 8.556 1.896 8.556C1.95 8.556 2.04 8.574 2.166 8.646C2.436 8.79 2.724 8.916 2.976 9.078C3.138 9.204 3.264 9.294 3.264 9.366C3.264 9.528 3.048 9.654 2.94 9.762C2.562 10.14 2.238 10.608 2.238 11.148C2.238 11.562 2.67 11.814 3.246 11.958C4.11 12.174 5.28 12.228 5.712 12.228C6.45 12.228 7.188 12.138 7.908 12.03C8.754 11.904 9.564 11.688 10.374 11.4C10.5 11.346 10.644 11.256 10.788 11.256C10.932 11.256 10.95 11.544 10.968 11.652C11.004 12.156 11.04 12.678 11.04 13.2C11.04 13.488 10.896 13.578 10.626 13.632C9.564 13.848 6.9 14.1 6.27 14.1ZM9.816 5.802C9.69 5.802 9.492 5.766 9.348 5.748C8.862 5.694 8.43 5.676 7.962 5.64C7.386 5.604 6.792 5.55 6.198 5.55C5.046 5.55 3.84 5.568 2.688 5.694C2.526 5.712 2.364 5.748 2.202 5.748C2.022 5.748 1.968 5.658 1.95 5.478C1.914 5.046 1.824 4.326 1.824 4.146C1.824 3.948 1.968 3.912 2.148 3.876C2.994 3.714 5.442 3.678 5.82 3.678C6.45 3.678 7.08 3.678 7.71 3.696C8.322 3.714 9.204 3.696 9.798 3.786C10.086 3.84 10.14 3.894 10.14 4.182C10.14 4.578 10.086 4.938 10.032 5.406C10.032 5.568 10.014 5.784 9.816 5.802ZM11.958 4.38C11.886 4.38 11.814 4.272 11.706 4.146C11.49 3.894 11.184 3.552 10.986 3.354C10.716 3.084 10.572 2.958 10.356 2.778C10.212 2.652 10.086 2.616 10.086 2.544C10.068 2.49 10.122 2.436 10.176 2.382L10.518 2.058C10.608 1.968 10.662 1.914 10.734 1.896C10.806 1.896 10.914 1.986 11.04 2.076C11.238 2.22 11.472 2.418 11.688 2.616C11.958 2.85 12.174 3.03 12.372 3.228C12.48 3.354 12.642 3.48 12.642 3.606C12.642 3.66 12.588 3.732 12.516 3.804C12.408 3.93 12.282 4.074 12.156 4.236C12.084 4.308 12.012 4.38 11.958 4.38ZM13.524 3.264C13.452 3.264 13.38 3.156 13.272 3.03C13.056 2.778 12.75 2.436 12.552 2.238C12.282 1.968 12.138 1.842 11.922 1.662C11.778 1.536 11.652 1.518 11.652 1.428C11.634 1.374 11.67 1.32 11.742 1.266L12.084 0.942C12.174 0.87 12.228 0.797999 12.3 0.797999C12.408 0.797999 12.48 0.87 12.606 0.959999C12.804 1.122 13.038 1.302 13.254 1.5C13.524 1.734 13.758 1.932 13.956 2.148C14.046 2.256 14.208 2.382 14.208 2.49C14.208 2.544 14.154 2.616 14.082 2.706C13.974 2.814 13.848 2.958 13.704 3.12C13.65 3.192 13.578 3.264 13.524 3.264ZM25.512 15.36C25.35 15.36 25.314 15.324 25.206 15.198C25.116 15.072 24.756 14.64 24.504 14.28C24.36 14.064 24.216 13.938 24.234 13.812C24.252 13.722 24.396 13.686 24.612 13.632C24.864 13.578 25.206 13.524 25.314 13.488C26.754 13.002 28.554 12.174 28.554 10.392C28.554 9.006 27.744 7.962 26.34 7.764C25.764 8.934 25.008 10.194 24.144 11.166C23.856 11.49 23.568 11.796 23.262 12.102C23.334 12.444 23.388 12.804 23.46 13.146C23.55 13.542 23.604 13.614 23.604 13.83C23.604 13.974 23.442 14.01 23.334 14.064C23.01 14.19 22.632 14.316 22.326 14.424C22.164 14.478 22.056 14.496 21.948 14.496C21.876 14.496 21.858 14.334 21.804 14.118C21.732 13.794 21.678 13.38 21.66 13.29C20.994 13.668 20.238 13.974 19.464 13.974C18.204 13.974 17.592 12.768 17.592 11.652C17.592 10.536 18.114 9.654 18.852 8.862C19.59 8.07 20.562 7.602 21.516 7.17L21.624 5.28C20.868 5.28 19.914 5.208 19.176 5.046C19.014 5.01 18.87 4.992 18.87 4.794C18.87 4.416 18.96 4.002 19.014 3.624C19.032 3.516 19.05 3.264 19.194 3.264C19.302 3.264 19.446 3.3 19.554 3.336C19.806 3.408 19.986 3.462 20.13 3.48C20.688 3.57 21.246 3.624 21.822 3.606C21.876 2.958 21.948 2.328 21.984 1.662C22.002 1.5 22.002 1.356 22.002 1.194C22.002 0.977999 22.056 0.923999 22.254 0.923999C22.452 0.923999 23.226 1.032 23.676 1.104C23.802 1.122 23.964 1.158 23.964 1.32C23.964 1.428 23.928 1.5 23.892 1.626C23.838 1.824 23.784 2.058 23.748 2.256C23.658 2.652 23.604 3.048 23.55 3.462C24.234 3.408 24.882 3.3 25.548 3.156C25.71 3.12 26.34 2.922 26.718 2.796C26.772 2.778 26.934 2.688 27.042 2.688C27.15 2.706 27.15 2.832 27.168 3.03C27.186 3.408 27.204 3.75 27.204 4.11C27.222 4.344 27.24 4.488 26.934 4.596C26.556 4.758 25.8 4.866 25.08 4.974C24.306 5.082 23.55 5.172 23.316 5.19C23.28 5.658 23.226 6.144 23.19 6.612C23.838 6.45 24.486 6.378 25.152 6.306C25.17 6.198 25.26 5.82 25.314 5.532C25.35 5.334 25.386 5.19 25.404 5.172C25.458 5.136 25.512 5.1 25.566 5.1C25.656 5.1 25.764 5.118 25.89 5.136C26.16 5.19 26.646 5.298 26.862 5.352C27.006 5.388 27.15 5.442 27.15 5.55C27.15 5.622 27.114 5.712 27.078 5.838C27.024 6.036 26.934 6.27 26.898 6.36C29.04 6.774 30.372 8.25 30.372 10.464C30.372 12.93 28.392 14.316 26.322 15.144C26.106 15.216 25.728 15.36 25.512 15.36ZM19.77 12.192C19.986 12.192 20.256 12.084 20.526 11.958C20.886 11.76 21.264 11.508 21.48 11.346C21.462 10.86 21.444 10.392 21.444 9.906C21.444 9.546 21.444 9.186 21.48 8.844C20.472 9.366 19.284 10.374 19.284 11.598C19.284 11.958 19.374 12.192 19.77 12.192ZM23.01 10.32C23.694 9.546 24.27 8.628 24.702 7.692C24.144 7.818 23.568 7.944 23.028 8.124C22.992 8.556 22.992 8.988 22.992 9.42C22.992 9.726 22.992 10.032 23.01 10.32ZM39.336 14.388C38.634 14.388 38.112 13.992 37.716 13.488C36.456 11.904 36.294 9.474 36.294 7.53C36.294 6.27 36.42 5.01 36.528 3.768C36.546 3.66 36.546 3.426 36.6 3.21C36.636 3.048 36.69 2.904 36.834 2.904C36.888 2.904 37.032 2.922 37.194 2.976L38.436 3.3C38.562 3.336 38.832 3.408 38.832 3.57C38.832 3.714 38.706 4.02 38.67 4.164C38.544 4.614 38.4 5.1 38.328 5.568C38.22 6.306 38.148 7.062 38.148 7.8C38.148 8.466 38.292 10.896 38.94 11.886C39.12 12.156 39.336 12.318 39.606 12.318C39.768 12.318 40.002 12.21 40.236 12.066C40.848 11.67 41.55 10.95 41.82 10.626C41.928 10.482 42.036 10.284 42.234 10.284C42.306 10.284 42.396 10.428 42.486 10.662C42.612 11.004 42.72 11.4 42.81 11.724C42.864 11.94 42.882 12.12 42.882 12.192C42.882 12.318 42.81 12.462 42.666 12.624C42.108 13.29 40.542 14.118 40.074 14.262C39.84 14.334 39.588 14.388 39.336 14.388ZM46.914 11.814C46.734 11.796 46.734 11.562 46.662 11.346C46.356 10.302 46.158 9.366 45.672 8.358C45.186 7.35 44.574 6.414 43.89 5.514C43.8 5.424 43.656 5.244 43.656 5.118C43.656 5.028 43.764 4.956 43.962 4.884C44.304 4.758 44.61 4.668 44.898 4.596C45.06 4.56 45.204 4.506 45.276 4.506C45.456 4.506 45.51 4.578 45.618 4.704C45.798 4.902 46.014 5.208 46.104 5.334C47.238 6.9 48.21 8.61 48.678 10.5C48.714 10.59 48.75 10.806 48.75 10.914C48.75 11.094 48.624 11.13 48.39 11.274C48.228 11.364 47.742 11.562 47.4 11.706C47.238 11.76 47.004 11.814 46.914 11.814ZM61.692 15.144C60.99 15.144 60.306 15.144 59.622 15.072C58.29 14.928 56.778 14.424 55.932 13.578C55.392 13.038 55.068 12.372 55.068 11.454C55.068 10.338 55.59 9.564 56.346 9.132C57.12 8.682 58.128 8.52 59.064 8.52C59.91 8.52 60.756 8.754 61.548 9.078C61.206 8.646 60.882 8.178 60.612 7.728C60.342 7.278 60.144 6.774 59.91 6.306C59.028 6.432 58.128 6.468 57.246 6.54C56.814 6.576 56.382 6.594 55.95 6.594C55.536 6.594 54.942 6.612 54.528 6.558C54.366 6.54 54.276 6.54 54.276 6.306L54.294 5.046C54.294 4.83 54.294 4.632 54.456 4.632C54.654 4.632 54.96 4.722 55.158 4.74C55.662 4.794 56.184 4.812 56.706 4.812C57.57 4.812 58.416 4.74 59.28 4.668C59.082 3.984 58.812 3.336 58.632 2.652C58.578 2.454 58.524 2.238 58.452 2.022C58.434 1.914 58.38 1.77 58.38 1.644C58.38 1.428 58.722 1.392 58.866 1.356L59.82 1.104C60 1.068 60.198 1.014 60.27 1.014C60.522 1.014 60.522 1.284 60.558 1.482C60.666 2.454 60.828 3.39 61.098 4.326C62.16 4.164 63.204 3.93 64.23 3.606C64.32 3.57 64.626 3.462 64.86 3.354C64.95 3.3 65.13 3.21 65.256 3.21C65.382 3.228 65.364 3.372 65.382 3.516C65.418 3.948 65.4 4.326 65.436 4.722C65.436 4.812 65.454 4.92 65.454 5.028C65.454 5.28 65.184 5.334 64.986 5.388C64.122 5.622 61.998 5.892 61.548 5.982C62.034 7.26 63.24 8.862 64.338 9.672L64.698 9.942C64.824 10.032 64.95 10.068 64.968 10.212C64.986 10.392 64.77 10.554 64.68 10.662C64.482 10.932 64.266 11.184 63.906 11.508C63.78 11.616 63.798 11.688 63.618 11.688C63.474 11.706 63.366 11.598 63.222 11.49C62.844 11.22 62.502 10.986 62.34 10.914C61.44 10.392 60.018 9.996 58.974 9.996C58.56 9.996 58.092 10.05 57.678 10.212C57.192 10.41 56.796 10.752 56.796 11.382C56.796 11.814 57.066 12.192 57.462 12.48C57.93 12.822 58.56 13.038 59.01 13.11C59.514 13.182 60.018 13.218 60.54 13.218C61.278 13.218 62.016 13.128 62.79 13.038C62.934 13.02 63.078 12.966 63.222 12.966C63.384 12.966 63.474 13.002 63.474 13.164C63.474 13.308 63.438 13.452 63.402 13.614C63.348 13.974 63.312 14.352 63.222 14.712C63.15 15.054 63.06 15.036 62.772 15.09C62.466 15.144 61.872 15.144 61.692 15.144ZM75.426 13.794C75.174 13.794 75.066 13.668 74.94 13.434C74.778 13.146 74.562 12.678 74.328 12.264C74.256 12.12 74.202 12.012 74.202 11.958C74.202 11.832 74.292 11.796 74.418 11.796C74.688 11.778 75.174 11.796 75.3 11.796C76.344 11.796 77.676 11.706 78.9 11.418C79.998 11.166 81.024 10.734 81.69 9.996C82.14 9.492 82.392 8.88 82.392 8.196C82.392 6.342 81.096 5.784 79.44 5.784C77.91 5.784 76.38 6.306 74.958 6.846C74.148 7.152 73.338 7.458 72.564 7.8C72.438 7.854 72.276 7.962 72.132 7.962C71.952 7.962 71.862 7.746 71.79 7.602C71.682 7.44 71.43 6.9 71.268 6.486C71.178 6.288 71.124 6.162 71.124 6C71.124 5.802 71.232 5.784 71.412 5.748C72.042 5.622 72.852 5.442 73.41 5.28C75.39 4.704 77.424 4.056 79.476 4.056C82.086 4.056 84.39 5.226 84.39 8.142C84.39 10.158 83.4 11.454 81.996 12.282C80.664 13.074 78.954 13.47 77.388 13.65C76.776 13.722 76.038 13.794 75.426 13.794Z" fill="black"/>
</svg>
