<svg width="64" height="16" viewBox="0 0 64 16" fill="none" xmlns="http://www.w3.org/2000/svg">
<path d="M6.27 14.1C5.802 14.1 5.334 14.1 4.866 14.064C3.966 13.992 2.814 13.884 1.914 13.47C1.086 13.092 0.474 12.444 0.474 11.364C0.474 10.392 0.888 9.456 1.572 8.772C1.662 8.682 1.752 8.556 1.896 8.556C1.95 8.556 2.04 8.574 2.166 8.646C2.436 8.79 2.724 8.916 2.976 9.078C3.138 9.204 3.264 9.294 3.264 9.366C3.264 9.528 3.048 9.654 2.94 9.762C2.562 10.14 2.238 10.608 2.238 11.148C2.238 11.562 2.67 11.814 3.246 11.958C4.11 12.174 5.28 12.228 5.712 12.228C6.45 12.228 7.188 12.138 7.908 12.03C8.754 11.904 9.564 11.688 10.374 11.4C10.5 11.346 10.644 11.256 10.788 11.256C10.932 11.256 10.95 11.544 10.968 11.652C11.004 12.156 11.04 12.678 11.04 13.2C11.04 13.488 10.896 13.578 10.626 13.632C9.564 13.848 6.9 14.1 6.27 14.1ZM9.816 5.802C9.69 5.802 9.492 5.766 9.348 5.748C8.862 5.694 8.43 5.676 7.962 5.64C7.386 5.604 6.792 5.55 6.198 5.55C5.046 5.55 3.84 5.568 2.688 5.694C2.526 5.712 2.364 5.748 2.202 5.748C2.022 5.748 1.968 5.658 1.95 5.478C1.914 5.046 1.824 4.326 1.824 4.146C1.824 3.948 1.968 3.912 2.148 3.876C2.994 3.714 5.442 3.678 5.82 3.678C6.45 3.678 7.08 3.678 7.71 3.696C8.322 3.714 9.204 3.696 9.798 3.786C10.086 3.84 10.14 3.894 10.14 4.182C10.14 4.578 10.086 4.938 10.032 5.406C10.032 5.568 10.014 5.784 9.816 5.802ZM19.572 14.91C19.392 14.91 18.564 14.658 18.006 14.514C17.826 14.478 17.718 14.37 17.718 14.298C17.7 14.19 17.754 14.1 17.826 13.938C17.916 13.704 18.042 13.434 18.078 13.308C18.906 10.986 19.644 8.412 20.22 6C19.572 6.108 18.924 6.162 18.276 6.252C18.114 6.288 17.952 6.306 17.808 6.306C17.592 6.306 17.61 6.162 17.61 5.982C17.592 5.586 17.592 4.812 17.592 4.668C17.592 4.416 17.664 4.362 17.808 4.362C17.916 4.344 18.078 4.38 18.24 4.38C19.104 4.38 19.752 4.29 20.598 4.182C20.778 3.372 20.904 2.562 21.066 1.734L21.138 1.284C21.138 1.14 21.138 0.887999 21.336 0.887999C21.426 0.887999 21.534 0.887999 21.678 0.923999L22.812 1.122C23.028 1.176 23.19 1.194 23.208 1.374C23.208 1.428 23.154 1.59 23.1 1.806C22.92 2.436 22.614 3.552 22.542 3.894C22.866 3.84 23.118 3.768 23.388 3.696C23.55 3.642 23.712 3.57 23.874 3.516C23.982 3.48 24.198 3.354 24.306 3.372C24.45 3.39 24.486 3.534 24.486 3.696C24.504 4.038 24.558 4.596 24.558 4.938C24.558 5.316 24.36 5.352 24.144 5.424C23.532 5.586 22.65 5.694 22.092 5.784C21.354 8.412 20.706 11.058 20.076 13.722C20.058 13.83 19.968 14.244 19.878 14.568C19.842 14.766 19.806 14.91 19.572 14.91ZM28.554 13.92C28.284 13.92 27.996 13.902 27.726 13.884C26.592 13.794 25.512 13.56 24.702 13.002C24.036 12.534 23.568 11.85 23.388 10.842C23.352 10.68 23.334 10.5 23.334 10.338C23.334 10.086 23.406 10.05 23.622 9.96C23.802 9.87 24.288 9.636 24.63 9.51C24.774 9.438 24.882 9.402 24.936 9.402C25.08 9.402 25.116 9.546 25.116 9.708C25.116 9.87 25.098 10.05 25.098 10.14C25.098 10.32 25.116 10.482 25.152 10.662C25.206 11.022 25.296 11.22 25.602 11.472C26.142 11.904 27.078 11.976 27.762 11.976C28.212 11.976 28.662 11.94 29.13 11.868C29.328 11.85 29.562 11.76 29.796 11.724C29.904 11.688 30.012 11.688 30.12 11.688C30.264 11.688 30.282 11.778 30.282 11.886C30.282 12.12 30.246 12.408 30.21 12.66C30.174 12.966 30.156 13.164 30.102 13.488C30.066 13.722 29.976 13.83 29.814 13.848C29.472 13.902 28.734 13.92 28.554 13.92ZM29.778 7.206C29.724 7.206 29.616 7.17 29.472 7.116L28.878 6.882C27.69 6.45 26.502 6.198 25.278 5.964C25.152 5.928 25.026 5.892 25.026 5.802C25.026 5.748 25.062 5.64 25.098 5.514C25.206 5.226 25.476 4.704 25.53 4.578C25.62 4.398 25.71 4.38 25.872 4.362C25.98 4.362 26.178 4.38 26.43 4.416C26.988 4.488 27.816 4.632 28.59 4.812C29.274 4.956 29.85 5.118 30.282 5.298C30.426 5.352 30.588 5.442 30.588 5.622C30.588 5.676 30.552 5.82 30.48 5.982C30.336 6.342 30.12 6.81 30.048 6.972C29.994 7.08 29.904 7.206 29.778 7.206ZM29.094 3.804C29.022 3.804 28.95 3.696 28.842 3.57C28.626 3.318 28.302 2.976 28.104 2.778C27.852 2.526 27.708 2.382 27.492 2.202C27.348 2.076 27.222 2.04 27.204 1.968C27.204 1.914 27.24 1.86 27.312 1.806L27.654 1.482C27.744 1.41 27.798 1.338 27.87 1.338C27.942 1.32 28.05 1.41 28.176 1.5C28.374 1.662 28.608 1.842 28.824 2.04C29.094 2.274 29.31 2.436 29.508 2.652C29.616 2.778 29.778 2.922 29.778 3.03C29.778 3.084 29.706 3.156 29.634 3.228C29.544 3.354 29.4 3.498 29.274 3.66C29.22 3.732 29.148 3.804 29.094 3.804ZM30.66 2.688C30.588 2.688 30.516 2.58 30.408 2.454C30.192 2.22 29.868 1.86 29.67 1.662C29.418 1.428 29.274 1.266 29.058 1.086C28.914 0.959999 28.788 0.942 28.77 0.852C28.77 0.797999 28.806 0.743999 28.878 0.69C28.968 0.581999 29.13 0.455999 29.22 0.366C29.292 0.293999 29.364 0.221999 29.436 0.221999C29.544 0.221999 29.616 0.293999 29.742 0.383999C29.94 0.545999 30.174 0.725999 30.39 0.923999C30.66 1.176 30.894 1.356 31.092 1.572C31.182 1.68 31.344 1.806 31.344 1.914C31.344 1.986 31.29 2.04 31.2 2.13C31.11 2.238 30.966 2.382 30.84 2.544C30.786 2.616 30.714 2.688 30.66 2.688ZM39.858 15.27C39.498 15.27 38.976 15.27 38.598 15.252C38.364 15.234 38.22 15.234 38.22 15C38.22 14.892 38.256 14.766 38.274 14.622C38.328 14.298 38.4 13.956 38.436 13.686C38.616 12.57 38.67 11.454 38.724 10.338C37.986 11.148 37.374 12.066 36.798 13.002C36.708 13.128 36.6 13.398 36.42 13.398C36.348 13.398 36.222 13.308 36.078 13.2C35.808 12.966 35.448 12.66 35.214 12.39C35.106 12.246 35.034 12.192 35.034 12.066C35.034 11.958 35.16 11.814 35.304 11.652C35.484 11.436 35.7 11.22 35.772 11.13C36.942 9.798 37.968 8.322 38.94 6.846C38.94 6.594 38.958 6.324 38.958 6.072C38.328 6.216 37.806 6.378 37.176 6.54C37.014 6.576 36.744 6.666 36.582 6.72C36.456 6.756 36.348 6.81 36.204 6.81C36.06 6.81 35.97 6.504 35.934 6.378C35.898 6.234 35.736 5.748 35.646 5.37C35.61 5.172 35.574 5.01 35.574 4.956C35.574 4.902 35.574 4.848 35.61 4.812C35.664 4.758 35.916 4.758 36.006 4.758C37.032 4.686 38.058 4.524 39.066 4.344C39.102 3.768 39.138 3.192 39.138 2.616C39.138 2.238 39.156 1.77 39.084 1.41C39.066 1.32 39.03 1.14 39.048 1.014C39.066 0.905999 39.264 0.887999 39.444 0.887999C39.804 0.87 40.614 0.87 40.866 0.87C41.082 0.87 41.136 0.959999 41.136 1.176C41.136 1.374 41.064 1.77 41.028 2.184C40.956 2.778 40.902 3.354 40.848 3.948C40.956 3.93 41.064 3.93 41.172 3.894C41.262 3.858 41.37 3.768 41.46 3.768C41.586 3.768 41.694 3.858 41.784 3.948L42.324 4.416C42.468 4.542 42.576 4.668 42.594 4.812C42.612 4.938 42.306 5.154 42.198 5.262C41.64 5.766 41.1 6.234 40.524 6.756V7.152C40.866 6.99 41.244 6.846 41.604 6.702C42.648 6.27 43.62 5.982 44.754 5.982C46.878 5.982 48.66 7.332 48.66 9.564C48.66 11.724 47.112 13.2 45.24 14.01C44.808 14.19 43.926 14.514 43.296 14.64C43.134 14.658 42.918 14.712 42.774 14.712C42.612 14.712 42.522 14.604 42.396 14.46C42.126 14.136 41.964 13.92 41.694 13.614C41.496 13.38 41.352 13.29 41.352 13.146C41.37 13.002 41.676 13.002 41.784 12.984C42.576 12.858 43.458 12.66 44.16 12.426C45.474 11.976 46.77 11.022 46.77 9.492C46.77 8.25 45.87 7.638 44.7 7.638C43.188 7.638 41.676 8.286 40.38 9.042C40.272 10.428 40.254 11.832 40.254 13.236V14.28L40.272 15C40.272 15.234 40.146 15.27 39.858 15.27ZM58.6902 15.432C58.5642 15.432 58.4742 15.324 58.3122 15.162L57.4302 14.262C57.3402 14.154 57.1422 14.046 57.1422 13.866C57.1602 13.74 57.4122 13.722 57.4842 13.704C57.9162 13.542 58.2942 13.416 58.6902 13.236C59.4642 12.894 60.1302 12.282 60.6342 11.598C61.5702 10.32 61.7142 9.132 61.7142 7.602C61.7142 6.18 61.7142 4.74 61.6242 3.336C61.6062 3.03 61.5882 2.724 61.5522 2.4C61.5342 2.22 61.4802 2.022 61.4802 1.842C61.4802 1.626 61.6602 1.608 61.8402 1.59C62.3262 1.572 62.9022 1.536 63.3882 1.536C63.6222 1.536 63.7482 1.536 63.7482 1.77C63.7482 2.166 63.6222 2.58 63.6042 2.976C63.5862 3.534 63.5322 4.074 63.5322 4.632C63.5322 5.838 63.5682 7.044 63.5682 8.25C63.5682 9.438 63.4422 10.518 62.9562 11.634C62.3622 13.002 61.1202 14.316 59.7702 15C59.6082 15.072 59.3022 15.252 59.0322 15.342C58.9062 15.396 58.7982 15.432 58.6902 15.432ZM57.6282 11.85C57.4662 11.85 57.2682 11.796 57.0702 11.724C56.8902 11.652 56.5122 11.508 56.2422 11.328C56.0982 11.22 55.9542 11.112 55.9182 11.04C55.8642 10.95 55.8462 10.752 55.8282 10.5C55.7922 9.888 55.7562 8.97 55.7562 8.646C55.7562 6.774 55.8822 4.902 56.0262 3.03C56.0442 2.886 56.0262 2.364 56.0442 2.094C56.0622 1.932 56.0622 1.824 56.2782 1.824C56.7102 1.824 57.3762 1.878 57.8262 1.932C58.0062 1.95 58.1322 1.986 58.1322 2.112C58.1322 2.22 58.1142 2.418 58.0782 2.508C57.9702 3.066 57.8622 3.624 57.8082 4.182C57.6822 5.46 57.5022 6.756 57.5022 8.034C57.5022 8.214 57.5022 8.394 57.5202 8.592C57.6282 8.448 57.8982 7.944 58.1142 7.638C58.2042 7.512 58.2942 7.422 58.3662 7.422C58.4022 7.422 58.5102 7.458 58.6182 7.53C58.7802 7.62 58.9782 7.764 59.1222 7.89C59.1942 7.962 59.3202 8.016 59.3202 8.124C59.3202 8.196 59.2122 8.376 59.1762 8.448C58.6542 9.402 58.2762 10.392 57.9702 11.436C57.8802 11.688 57.8442 11.85 57.6282 11.85Z" fill="black"/>
</svg>
