<svg width="69" height="18" viewBox="0 0 69 18" fill="none" xmlns="http://www.w3.org/2000/svg">
<path d="M3.14 16.666C2.888 16.666 2.924 16.414 2.888 16.09C2.798 15.316 2.762 14.524 2.636 13.732C2.582 13.318 2.546 12.904 2.474 12.49C2.456 12.328 2.402 12.166 2.402 12.004C2.402 11.752 2.636 11.734 2.834 11.734C3.086 11.734 3.338 11.77 3.572 11.77C4.04 11.788 4.508 11.788 4.976 11.788C5.678 11.788 6.362 11.806 7.046 11.806C7.118 11.464 7.172 11.14 7.208 10.816C6.632 10.816 6.056 10.834 5.48 10.852C5.102 10.87 4.724 10.942 4.346 10.942C4.166 10.942 4.166 10.852 4.13 10.636C4.112 10.402 4.076 10.078 4.076 9.988C4.022 9.142 3.95 8.044 3.824 7.216C3.788 7.09 3.752 6.946 3.752 6.82C3.752 6.622 3.914 6.586 4.076 6.586C4.274 6.586 4.454 6.622 4.634 6.622C5.966 6.658 7.298 6.64 8.63 6.64C9.62 6.64 10.592 6.676 11.654 6.622C11.762 6.604 11.888 6.586 11.996 6.586C12.176 6.586 12.338 6.604 12.338 6.82C12.338 6.982 12.176 7.648 12.14 7.882L11.78 10.438C11.744 10.762 11.78 10.942 11.582 10.942C11.348 10.942 10.772 10.888 10.376 10.87C9.944 10.852 9.494 10.834 9.062 10.834C8.99 11.158 8.936 11.482 8.864 11.806H12.464C12.788 11.806 13.112 11.77 13.436 11.77C13.652 11.77 13.796 11.77 13.796 12.022C13.796 12.13 13.76 12.292 13.724 12.472C13.652 12.76 13.562 13.102 13.544 13.282C13.472 13.66 13.382 14.038 13.31 14.416C13.22 14.992 13.112 15.514 13.022 16.072C12.986 16.45 13.004 16.666 12.518 16.666C12.068 16.666 11.636 16.612 11.186 16.576C9.998 16.522 9.224 16.468 8.018 16.468C7.046 16.468 5.714 16.504 4.706 16.558C4.238 16.576 3.698 16.666 3.14 16.666ZM4.652 14.848C5.57 14.83 7.082 14.83 8 14.83H11.366C11.402 14.362 11.528 13.858 11.6 13.372C10.25 13.354 9.332 13.354 8 13.354L4.508 13.372C4.58 13.84 4.616 14.38 4.652 14.848ZM5.642 9.34C7.172 9.322 8.702 9.322 10.25 9.34C10.268 8.98 10.376 8.44 10.412 8.08H5.534C5.588 8.422 5.606 8.998 5.642 9.34ZM1.232 8.764C1.088 8.764 0.836 8.746 0.836 8.548C0.836 8.422 0.854 8.314 0.854 8.206C0.854 7.378 0.926 6.568 0.926 5.758C0.926 5.506 0.908 5.254 0.89 5.002C0.89 4.84 0.854 4.678 0.854 4.498C0.854 4.3 0.962 4.21 1.16 4.21C1.682 4.21 2.204 4.264 2.726 4.264C3.122 4.264 3.518 4.246 3.914 4.246C3.788 3.814 3.662 3.382 3.536 3.004C3.5 2.896 3.41 2.662 3.32 2.464C3.212 2.266 3.14 2.176 3.14 2.068C3.14 1.924 3.482 1.87 3.644 1.834C4.004 1.78 4.652 1.636 5.012 1.636C5.084 1.636 5.156 1.654 5.21 1.708C5.246 1.726 5.3 2.014 5.39 2.41C5.516 2.932 5.66 3.652 5.768 4.21C6.272 4.21 6.758 4.192 7.244 4.192C7.136 3.724 7.028 3.274 6.866 2.842C6.83 2.734 6.758 2.5 6.668 2.302C6.596 2.14 6.524 2.014 6.524 1.96C6.524 1.744 6.902 1.726 7.046 1.69C7.406 1.636 8.072 1.492 8.414 1.492C8.486 1.492 8.558 1.51 8.612 1.546C8.648 1.582 8.702 1.87 8.774 2.302C8.882 2.842 9.008 3.616 9.098 4.174C9.458 4.174 9.836 4.156 10.196 4.156C10.376 3.58 10.52 2.986 10.664 2.374C10.682 2.284 10.7 2.086 10.718 1.906C10.736 1.78 10.754 1.672 10.79 1.618C10.844 1.564 10.934 1.546 11.006 1.546C11.384 1.546 12.014 1.762 12.41 1.852C12.59 1.888 12.824 1.924 12.824 2.176C12.824 2.23 12.68 2.464 12.554 2.788L11.996 4.156C12.752 4.156 13.49 4.138 14.246 4.102C14.408 4.102 14.57 4.084 14.732 4.084C15.074 4.084 15.128 4.228 15.128 4.534C15.128 4.66 15.11 4.786 15.11 4.912C15.056 6.118 15.128 7.306 15.128 8.512C15.128 8.836 14.984 8.764 14.732 8.764H13.526C13.22 8.764 13.184 8.728 13.184 8.386C13.184 7.738 13.202 7.504 13.22 6.82V5.776C9.728 5.794 6.236 5.794 2.744 5.812V6.712C2.762 7.324 2.762 7.936 2.762 8.53C2.762 8.746 2.438 8.764 2.24 8.764H1.232ZM25.154 17.044C25.046 17.044 24.92 17.044 24.92 16.918C24.92 16.81 24.956 16.72 24.956 16.63C24.992 16.378 25.01 16.144 25.028 15.892C25.1 15.226 25.118 14.542 25.154 13.858C23.516 14.56 21.86 15.19 20.132 15.676C19.844 15.766 18.818 16.126 18.62 16.126C18.512 16.126 18.368 15.946 18.224 15.784L17.756 15.208C17.684 15.118 17.396 14.902 17.396 14.776C17.396 14.65 17.684 14.65 17.756 14.65C18.044 14.596 18.332 14.542 18.62 14.47C19.538 14.236 20.474 14.038 21.356 13.786C22.544 13.444 23.732 13.084 24.866 12.634C23.948 12.634 23.012 12.652 22.076 12.67C21.5 12.688 20.924 12.706 20.348 12.76C20.096 12.778 19.754 12.85 19.502 12.85C19.358 12.85 19.394 12.76 19.394 12.616L19.376 11.644C19.376 11.464 19.376 11.32 19.592 11.32C19.682 11.32 19.772 11.32 19.862 11.338C20.924 11.428 22.022 11.392 23.102 11.392C23.768 11.392 24.434 11.392 25.1 11.374V10.636C24.164 10.654 23.174 10.672 22.274 10.708C22.04 10.708 21.698 10.744 21.464 10.78C21.302 10.798 21.032 10.834 20.888 10.834C20.708 10.834 20.744 10.69 20.762 10.546V9.61C20.762 9.448 20.816 9.376 20.96 9.376C21.212 9.376 21.464 9.43 21.716 9.43H25.1V8.62C24.002 8.62 22.886 8.638 21.788 8.674C21.482 8.692 21.194 8.71 20.888 8.746C20.708 8.782 20.51 8.836 20.312 8.836C20.15 8.836 20.132 8.746 20.114 8.602V7.648C20.114 7.396 20.114 7.27 20.276 7.27C20.402 7.27 20.69 7.306 20.834 7.324C21.482 7.324 22.13 7.342 22.76 7.342C22.616 6.964 22.436 6.604 22.256 6.226C21.392 6.244 20.564 6.262 19.826 6.316C19.466 6.334 18.926 6.424 18.728 6.424C18.53 6.424 18.602 6.262 18.584 6.046C18.566 5.74 18.584 5.398 18.584 5.092C18.584 4.93 18.584 4.732 18.746 4.732C18.908 4.732 19.322 4.786 19.574 4.786C20.996 4.876 22.418 4.84 23.84 4.84C23.786 4.03 23.75 3.238 23.624 2.428C23.606 2.284 23.48 1.672 23.498 1.51C23.516 1.33 23.75 1.33 23.912 1.33C24.272 1.33 24.632 1.294 25.01 1.294C25.298 1.294 25.478 1.294 25.478 1.546C25.478 1.942 25.442 2.356 25.442 2.77C25.442 3.454 25.478 4.156 25.478 4.84H26.486C26.612 3.796 26.666 2.752 26.666 1.708C26.666 1.492 26.63 1.294 26.918 1.294C27.314 1.294 27.89 1.33 28.358 1.384C28.556 1.402 28.628 1.402 28.646 1.618C28.664 1.744 28.592 2.104 28.538 2.572C28.43 3.346 28.34 4.012 28.214 4.822C29.438 4.822 30.626 4.804 31.796 4.786C32.318 4.768 33.146 4.66 33.362 4.66C33.452 4.66 33.524 4.66 33.524 4.786C33.524 4.912 33.488 5.056 33.47 5.182L33.344 5.956C33.308 6.262 33.308 6.388 33.11 6.388C32.786 6.388 32.372 6.334 32.03 6.334L30.518 6.262C30.014 6.244 29.726 6.226 29.438 6.226C29.33 6.478 29.096 6.946 28.898 7.342C29.33 7.342 29.78 7.324 30.212 7.306C30.662 7.288 31.112 7.216 31.562 7.216C31.706 7.216 31.778 7.216 31.778 7.396C31.778 7.486 31.706 7.792 31.652 8.098C31.634 8.242 31.616 8.404 31.58 8.512C31.562 8.638 31.526 8.728 31.328 8.728C30.644 8.728 29.96 8.638 29.294 8.638C28.502 8.638 27.71 8.62 26.918 8.62V9.412H28.862C29.294 9.412 29.744 9.394 30.176 9.376C30.428 9.358 30.68 9.322 30.914 9.322C31.04 9.322 31.166 9.304 31.166 9.466C31.166 9.574 31.094 9.916 31.04 10.222L30.986 10.618C30.95 10.726 30.914 10.798 30.77 10.798C30.482 10.798 30.212 10.744 29.924 10.726C29.492 10.708 29.078 10.672 28.646 10.654C27.998 10.636 27.602 10.636 26.936 10.636V11.374C27.584 11.392 28.214 11.41 28.826 11.41C29.726 11.41 30.608 11.374 31.508 11.32C31.832 11.302 32.138 11.212 32.462 11.212C32.588 11.212 32.624 11.266 32.606 11.392C32.606 11.536 32.534 11.986 32.48 12.346C32.426 12.616 32.426 12.778 32.282 12.796C32.192 12.796 31.868 12.76 31.418 12.742C30.77 12.706 29.888 12.67 29.312 12.67C28.664 12.652 28.016 12.652 27.386 12.634C28.502 13.102 29.564 13.48 30.716 13.804C31.616 14.074 32.552 14.29 33.452 14.47C33.74 14.542 34.028 14.596 34.316 14.632C34.388 14.65 34.676 14.65 34.676 14.776C34.676 14.938 34.424 15.136 34.316 15.244C34.208 15.37 33.992 15.64 33.812 15.874C33.686 16.018 33.596 16.27 33.47 16.252C33.362 16.252 33.182 16.216 32.93 16.144C32.516 16.018 32.21 15.946 31.778 15.802C30.896 15.532 30.05 15.19 29.204 14.848C28.412 14.542 27.656 14.2 26.9 13.84C26.918 14.434 26.954 15.028 26.972 15.604C26.99 16.036 27.08 16.486 27.08 16.9C27.08 17.044 26.864 17.044 26.774 17.044H25.154ZM21.428 4.552C21.302 4.534 21.248 4.372 21.212 4.264C20.996 3.76 20.762 3.184 20.546 2.716C20.456 2.536 20.33 2.374 20.312 2.266C20.312 2.194 20.348 2.122 20.528 2.068C20.816 1.996 21.14 1.888 21.428 1.834C21.608 1.798 21.698 1.78 21.806 1.78C21.896 1.762 21.986 1.87 22.058 2.014C22.112 2.158 22.22 2.356 22.256 2.464C22.328 2.644 22.652 3.256 22.814 3.688C22.886 3.85 22.922 4.012 22.922 4.066C22.922 4.264 22.724 4.282 22.58 4.3C22.418 4.336 22.076 4.426 21.824 4.48C21.68 4.516 21.5 4.57 21.428 4.552ZM26.918 7.36C27.116 6.964 27.278 6.604 27.422 6.208C26.414 6.208 25.298 6.19 24.182 6.208C24.344 6.568 24.524 7 24.65 7.342C25.406 7.342 26.162 7.342 26.918 7.36ZM30.464 4.534C30.356 4.534 30.158 4.498 29.996 4.462C29.69 4.39 29.33 4.3 29.222 4.282C29.132 4.264 28.88 4.246 28.88 4.12C28.88 4.012 28.97 3.868 29.024 3.796C29.312 3.274 29.456 2.932 29.672 2.446C29.708 2.338 29.78 2.176 29.834 2.032C29.87 1.87 29.906 1.762 29.978 1.762C30.032 1.762 30.176 1.798 30.374 1.834C30.716 1.924 31.166 2.068 31.31 2.104C31.454 2.158 31.688 2.212 31.67 2.356C31.652 2.5 31.562 2.644 31.472 2.824C31.346 3.04 31.04 3.724 30.77 4.228C30.698 4.336 30.608 4.552 30.464 4.534ZM43.28 17.26C43.064 17.26 42.938 17.26 42.938 17.044C42.938 16.828 43.01 16.414 43.028 16.108C43.064 15.856 43.064 15.586 43.082 15.334C43.118 14.938 43.118 14.56 43.136 14.164C41.498 14.938 39.86 15.64 38.132 16.198C37.934 16.252 37.394 16.468 36.998 16.594C36.818 16.648 36.674 16.702 36.62 16.702C36.512 16.702 36.386 16.558 36.26 16.378C36.062 16.126 35.828 15.784 35.72 15.658C35.54 15.406 35.396 15.316 35.396 15.172C35.396 15.064 35.684 15.046 35.756 15.028C36.044 14.992 36.332 14.92 36.62 14.866C37.538 14.65 38.474 14.398 39.356 14.128C40.616 13.75 41.858 13.246 43.064 12.706C42.146 12.706 41.21 12.742 40.292 12.778C39.806 12.796 39.284 12.814 38.78 12.868C38.654 12.886 38.294 12.958 38.15 12.958C38.024 12.958 38.006 12.796 38.006 12.688C37.988 12.346 38.006 11.968 38.006 11.626C38.006 11.518 37.97 11.194 38.132 11.194C38.24 11.194 38.402 11.23 38.528 11.248C38.888 11.266 39.23 11.284 39.59 11.284C40.76 11.284 41.93 11.302 43.082 11.302V10.816C43.082 10.654 43.01 10.222 43.028 10.096C43.046 9.97 43.388 10.006 43.478 10.006C43.946 9.988 44.486 10.006 44.738 10.006C44.828 10.006 44.99 10.006 44.99 10.132C44.99 10.33 44.936 10.69 44.936 10.924V11.302C45.926 11.284 46.898 11.302 47.888 11.23C48.41 11.194 48.95 11.176 49.472 11.122C49.634 11.104 49.778 11.05 49.94 11.05C50.066 11.05 50.084 11.068 50.084 11.176C50.084 11.212 50.03 11.356 50.012 11.554L49.904 12.436C49.886 12.616 49.904 12.76 49.85 12.832C49.796 12.904 49.652 12.886 49.562 12.886C49.058 12.832 48.59 12.76 48.05 12.76C47.078 12.76 46.124 12.724 45.152 12.706C46.304 13.228 47.492 13.714 48.716 14.11C49.616 14.398 50.534 14.65 51.452 14.866C51.74 14.92 51.974 14.974 52.262 15.01C52.352 15.028 52.64 15.046 52.64 15.19C52.64 15.334 52.406 15.55 52.316 15.658C52.154 15.856 51.974 16.054 51.812 16.324C51.686 16.486 51.578 16.738 51.452 16.738C51.29 16.738 51.038 16.648 50.894 16.612C49.634 16.216 48.41 15.784 47.204 15.262C46.412 14.92 45.656 14.524 44.9 14.128L44.972 15.802C44.99 16.162 45.008 16.486 45.044 16.828L45.062 17.08C45.08 17.188 44.918 17.26 44.738 17.26H43.28ZM43.982 8.242C44.27 8.026 44.558 7.792 44.792 7.522C43.982 7.522 43.154 7.522 42.326 7.54L41.984 7.936C42.668 8.044 43.334 8.134 43.982 8.242ZM39.068 10.96C38.942 10.96 38.924 10.798 38.852 10.654C38.744 10.456 38.618 10.15 38.51 9.916C38.438 9.772 38.348 9.646 38.348 9.61C38.348 9.466 38.69 9.52 38.798 9.52C39.968 9.52 41.354 9.34 42.524 8.926C41.75 8.89 40.58 8.818 40.238 8.8C39.662 8.8 39.41 8.8 39.41 8.71C39.41 8.638 39.536 8.494 39.572 8.458C39.878 8.152 40.13 7.882 40.364 7.594C39.986 7.612 39.626 7.612 39.248 7.63C38.636 7.666 38.042 7.684 37.448 7.756C37.178 7.774 36.998 7.828 36.818 7.828C36.674 7.828 36.656 7.774 36.656 7.63V6.37C36.656 6.19 36.71 6.154 36.89 6.154C37.214 6.154 37.556 6.208 37.916 6.208H41.408C41.498 6.064 41.606 5.902 41.696 5.74C41.786 5.596 41.894 5.362 41.984 5.218C42.128 4.984 42.128 4.714 42.308 4.714C42.362 4.714 42.488 4.75 42.65 4.786C42.974 4.858 43.352 4.966 43.496 4.984C43.622 5.02 44.018 5.092 44.036 5.2C44.054 5.29 43.856 5.542 43.82 5.596L43.388 6.19H45.728C45.818 6.01 45.908 5.812 45.98 5.596C46.034 5.416 46.07 5.236 46.196 5.218C46.304 5.218 46.484 5.254 46.61 5.272L47.528 5.38C47.744 5.398 47.888 5.434 47.888 5.56C47.888 5.65 47.852 5.74 47.762 5.884C47.726 5.992 47.672 6.082 47.618 6.19C48.572 6.172 49.526 6.154 50.48 6.082C50.732 6.082 51.002 5.992 51.254 5.992C51.362 5.992 51.398 6.082 51.398 6.172C51.398 6.226 51.362 6.37 51.344 6.532C51.308 6.856 51.218 7.252 51.2 7.576C51.182 7.702 51.128 7.828 51.002 7.846C50.858 7.846 50.696 7.81 50.552 7.792C50.336 7.774 50.138 7.738 49.94 7.738C48.86 7.738 47.798 7.63 46.736 7.576C46.448 7.936 46.124 8.26 45.782 8.548C46.196 8.62 46.61 8.692 47.042 8.8C47.42 8.89 47.78 8.962 48.158 9.07C48.482 9.142 48.788 9.214 49.112 9.304C49.238 9.322 49.67 9.394 49.67 9.484C49.688 9.61 49.526 9.736 49.4 9.898C49.238 10.078 49.112 10.24 48.932 10.474C48.842 10.582 48.662 10.852 48.554 10.852C48.428 10.834 48.284 10.744 48.158 10.69C47.798 10.528 47.69 10.474 47.348 10.348C46.52 10.006 45.692 9.7 44.828 9.43C44.756 9.412 44.666 9.376 44.558 9.358C43.298 10.06 41.858 10.42 40.418 10.726C40.076 10.798 39.734 10.888 39.392 10.924C39.248 10.942 39.158 10.96 39.068 10.96ZM38.24 5.704C38.096 5.704 37.97 5.686 37.952 5.506C37.952 5.362 38.024 4.75 38.024 4.372C38.024 4.12 38.042 3.85 38.006 3.598C38.006 3.472 37.97 3.328 37.97 3.22C37.97 3.04 38.096 3.04 38.24 3.04C38.618 3.04 39.014 3.112 39.392 3.112C40.256 3.112 41.12 3.148 41.984 3.148C43.568 3.148 45.152 3.166 46.736 3.13C47.546 3.112 48.356 3.076 49.166 3.058C49.31 3.04 49.526 3.022 49.688 3.022C49.904 3.022 49.994 3.004 49.994 3.256L49.976 3.796C49.976 4.084 49.994 4.372 49.994 4.66C49.994 4.93 50.03 5.218 50.03 5.506C50.03 5.686 49.706 5.686 49.58 5.686C49.04 5.686 48.788 5.668 48.626 5.686C48.302 5.704 48.23 5.632 48.248 5.434V4.642C45.314 4.678 42.56 4.642 39.716 4.642V5.506C39.716 5.74 39.572 5.704 39.41 5.704H38.24ZM43.118 2.716L42.488 2.68C42.362 2.68 42.164 2.698 42.164 2.536C42.164 2.482 42.164 2.374 42.2 2.248C42.254 1.87 42.416 1.258 42.56 0.862C42.596 0.789999 42.722 0.501999 42.812 0.501999C42.902 0.501999 43.01 0.538 43.208 0.627999C43.838 0.879999 44.972 1.366 45.584 1.762C45.836 1.924 45.998 2.032 45.998 2.14C45.998 2.302 45.8 2.356 45.746 2.374C44.882 2.662 44.018 2.716 43.118 2.716ZM56.942 16.306C56.816 16.306 55.754 16.27 55.412 16.234C55.178 16.198 55.034 16.234 55.034 16.018C55.034 15.928 55.07 15.802 55.106 15.604C55.178 15.226 55.214 14.74 55.232 14.596C55.358 13.624 55.484 12.526 55.52 11.428C55.556 10.114 55.538 6.658 55.43 5.452C55.412 5.236 55.376 5.092 55.358 4.93C55.34 4.822 55.304 4.696 55.304 4.624C55.286 4.372 55.412 4.39 55.61 4.39C55.754 4.39 55.934 4.39 56.024 4.408C56.294 4.444 56.456 4.444 56.654 4.444C57.266 4.48 57.914 4.552 58.922 4.552H60.92C60.956 3.958 60.974 3.364 60.974 2.896C60.974 2.428 60.902 1.996 60.902 1.618C60.902 1.348 60.938 1.294 61.19 1.294C61.406 1.294 62.216 1.312 62.648 1.366C62.81 1.384 63.026 1.384 63.026 1.636C63.026 1.87 62.99 2.284 62.972 2.554C62.936 3.184 62.9 3.85 62.846 4.552C64.07 4.552 65.564 4.516 66.662 4.516C66.95 4.516 67.31 4.48 67.634 4.48C67.796 4.48 68.174 4.444 68.318 4.444C68.534 4.444 68.552 4.552 68.552 4.75C68.552 4.858 68.516 5.272 68.48 5.434C68.462 5.74 68.462 6.46 68.462 6.802C68.462 7.738 68.498 10.618 68.534 11.554L68.624 14.47C68.642 14.938 68.696 15.496 68.696 15.622C68.696 16.18 68.678 16.306 68.282 16.306C68.048 16.324 67.67 16.342 67.436 16.342C67.274 16.342 67.058 16.324 66.932 16.306C66.554 16.252 66.518 16.144 66.518 15.694C66.536 15.298 66.554 14.884 66.554 14.524C66.572 14.074 66.59 13.606 66.572 13.012C66.536 12.004 66.572 10.942 66.572 9.88L66.554 6.388C65.384 6.388 64.088 6.388 62.612 6.406C62.558 6.676 62.486 6.946 62.432 7.198C63.638 8.26 63.926 8.458 65.366 9.556C65.6 9.736 65.672 9.79 65.96 9.97C66.068 10.024 66.356 10.096 66.338 10.312C66.32 10.474 66.212 10.528 66.122 10.6C66.014 10.69 65.888 10.762 65.834 10.816C65.456 11.068 65.258 11.266 64.952 11.464C64.79 11.59 64.628 11.788 64.412 11.788C64.322 11.788 64.196 11.68 64.052 11.536C63.926 11.392 63.764 11.212 63.602 11.014C63.026 10.384 62.774 10.096 62.522 9.808C62.324 9.592 62.108 9.376 61.73 9.016C61.406 9.664 60.992 10.294 60.398 10.888C60.272 11.014 59.858 11.356 59.534 11.59C59.372 11.698 59.264 11.824 59.174 11.824C58.94 11.824 58.85 11.608 58.688 11.5C58.418 11.266 58.184 11.068 57.932 10.87C57.806 10.762 57.572 10.672 57.572 10.474C57.572 10.402 57.662 10.33 57.824 10.24L58.292 9.97C58.778 9.664 59.228 9.25 59.606 8.818C60.128 8.206 60.488 7.36 60.686 6.424C59.39 6.424 58.184 6.406 57.464 6.424C57.446 7.054 57.446 9.502 57.446 9.88C57.446 11.446 57.428 12.994 57.41 14.542C57.392 14.866 57.392 15.532 57.392 15.838C57.392 16.198 57.41 16.306 56.942 16.306Z" fill="black"/>
</svg>
