<svg width="104" height="16" viewBox="0 0 104 16" fill="none" xmlns="http://www.w3.org/2000/svg">
<path d="M3.94 14.676C3.13 14.676 1.96 14.118 1.258 13.344C0.862 12.912 0.592 12.426 0.592 11.94C0.592 11.49 0.88 11.04 1.276 10.644C1.816 10.104 2.5 9.654 2.95 9.366C3.256 9.168 3.598 9.024 3.94 8.862V6C3.616 6.018 3.346 6.036 3.004 6.036C2.536 6.018 1.492 5.964 0.952 5.856C0.808 5.82 0.772 5.784 0.772 5.64C0.772 5.352 0.844 4.506 0.898 4.218C0.916 4.128 0.97 4.11 1.06 4.11C1.168 4.11 1.276 4.146 1.384 4.146C2.05 4.236 2.716 4.326 3.382 4.326C3.562 4.326 3.742 4.308 3.922 4.308C3.922 3.714 3.904 3.12 3.904 2.508C3.904 2.31 3.886 2.094 3.886 1.878C3.868 1.752 3.832 1.644 3.832 1.518C3.832 1.32 3.922 1.284 4.102 1.284H5.524C5.686 1.284 5.848 1.284 5.848 1.5C5.848 1.572 5.848 1.662 5.83 1.752C5.776 2.22 5.758 2.706 5.722 3.192C5.686 3.498 5.704 3.804 5.668 4.11C6.352 4.002 6.91 3.786 7.54 3.516C7.648 3.462 7.81 3.372 7.936 3.39C8.044 3.39 8.044 3.57 8.08 3.75L8.188 4.848C8.206 4.938 8.206 5.028 8.206 5.1C8.206 5.298 8.116 5.334 7.954 5.388C7.36 5.586 5.848 5.838 5.596 5.874V8.25C6.784 7.818 8.008 7.476 9.268 7.476C11.41 7.476 13.12 8.646 13.12 10.932C13.12 11.868 12.886 12.768 12.166 13.416C11.482 14.046 10.69 14.388 9.736 14.388C8.89 14.388 8.116 14.136 7.504 13.524C6.982 13.002 6.766 12.408 6.568 11.724C6.532 11.598 6.514 11.364 6.514 11.238C6.514 11.094 6.748 11.004 6.874 10.932C7.054 10.824 7.414 10.662 7.72 10.536C7.882 10.464 8.026 10.41 8.098 10.41C8.224 10.41 8.26 10.554 8.26 10.698C8.296 11.67 8.674 12.588 9.808 12.588C10.744 12.588 11.356 11.922 11.356 10.986C11.356 9.69 10.582 9.006 9.304 9.006C8.152 9.006 6.712 9.474 5.668 9.924C5.668 10.446 5.722 10.95 5.722 11.472C5.74 11.958 5.74 12.444 5.74 12.93C5.74 14.046 5.038 14.676 3.94 14.676ZM3.67 12.75C3.886 12.75 3.958 12.588 3.976 12.408C3.994 12.246 3.994 12.084 3.994 11.958C3.994 11.544 3.976 11.094 3.976 10.644C3.724 10.752 3.202 11.04 2.86 11.382C2.68 11.562 2.536 11.742 2.536 11.922C2.536 12.12 2.698 12.318 2.896 12.462C3.148 12.642 3.454 12.75 3.67 12.75ZM12.994 7.35C12.922 7.35 12.76 7.26 12.688 7.224C11.968 6.864 11.5 6.522 10.762 6.198C10.258 5.982 9.718 5.784 9.178 5.64C9.124 5.622 8.998 5.586 8.89 5.568C8.782 5.532 8.692 5.496 8.692 5.442C8.692 5.406 8.728 5.298 8.8 5.154C8.962 4.812 9.196 4.416 9.286 4.254C9.34 4.164 9.394 4.038 9.484 4.038C9.538 4.038 9.61 4.056 9.736 4.092C10.618 4.308 12.814 5.19 13.552 5.658C13.714 5.748 13.804 5.838 13.804 5.892C13.804 5.928 13.768 6.054 13.696 6.216C13.57 6.504 13.372 6.882 13.192 7.152C13.12 7.278 13.066 7.35 12.994 7.35ZM18.214 15.774C17.998 15.774 17.926 15.612 17.692 15.414C17.368 15.144 17.08 14.91 16.936 14.802C16.828 14.712 16.612 14.568 16.612 14.406C16.612 14.316 16.81 14.154 16.882 14.064C17.08 13.812 17.296 13.524 17.458 13.236C18.376 11.49 18.484 9.366 18.502 8.034C18.502 7.152 18.484 6.27 18.484 5.388C18.484 4.344 18.394 3.282 18.34 2.238C18.34 2.022 18.286 1.806 18.286 1.59C18.286 1.41 18.412 1.41 18.556 1.41C18.826 1.41 19.114 1.446 19.384 1.446C20.05 1.464 20.716 1.464 21.382 1.464H23.236C23.506 1.446 23.848 1.392 24.136 1.392C24.334 1.392 24.388 1.464 24.388 1.662C24.388 1.95 24.334 2.238 24.316 2.526C24.226 3.678 24.19 4.848 24.172 6.018C24.172 6.36 24.154 6.756 24.154 7.08C24.172 7.494 24.046 7.674 23.65 7.674C23.254 7.656 22.84 7.638 22.444 7.638H20.14C20.14 8.412 20.122 9.186 20.068 10.014C19.924 11.868 19.546 13.65 18.646 15.288C18.574 15.396 18.358 15.774 18.214 15.774ZM21.994 14.352C21.652 14.352 21.688 14.082 21.688 13.848C21.67 13.164 21.616 12.066 21.562 11.382C21.508 10.806 21.454 10.248 21.418 9.672C21.4 9.528 21.346 9.366 21.346 9.222C21.346 9.06 21.472 9.042 21.598 9.042C21.796 9.042 21.976 9.078 22.156 9.078C22.624 9.096 23.092 9.132 23.578 9.132C24.388 9.15 25.18 9.15 25.99 9.15C26.692 9.15 27.358 9.06 28.114 9.06C28.33 9.042 28.726 8.988 28.726 9.222C28.744 9.366 28.708 9.546 28.69 9.762L28.546 10.572C28.366 11.724 28.294 12.696 28.186 13.866C28.15 14.19 28.15 14.352 27.808 14.334C27.502 14.334 27.142 14.316 26.89 14.298C26.278 14.244 25.738 14.208 25.018 14.208C24.388 14.208 23.416 14.226 22.804 14.262C22.534 14.28 22.246 14.352 21.994 14.352ZM23.2 12.48C24.37 12.462 25.54 12.408 26.71 12.462L26.872 10.842C25.576 10.806 24.352 10.824 23.11 10.824L23.2 12.48ZM20.14 6.126H22.588C22.588 5.838 22.606 5.532 22.606 5.244H20.14V6.126ZM20.14 3.876H22.66V3.066H20.14V3.876ZM30.418 15.702C30.13 15.702 29.896 15.774 29.842 15.558C29.824 15.432 29.878 15.18 29.878 15.036C29.878 14.154 29.842 13.254 29.842 12.372C29.842 10.788 29.806 9.204 29.806 7.638H26.89L25.99 7.656C25.702 7.656 25.666 7.602 25.648 7.422C25.63 7.188 25.666 6.81 25.666 6.522C25.666 6.108 25.666 5.694 25.648 5.28C25.63 4.344 25.576 3.408 25.504 2.472C25.486 2.22 25.414 1.788 25.414 1.572C25.414 1.374 25.558 1.374 25.702 1.374C25.882 1.374 26.044 1.392 26.224 1.392C27.07 1.428 27.934 1.428 28.798 1.428C29.41 1.428 30.004 1.41 30.616 1.41C30.886 1.41 31.156 1.356 31.426 1.356C31.588 1.356 31.624 1.428 31.624 1.59C31.624 1.914 31.588 2.238 31.588 2.562C31.534 3.822 31.516 5.082 31.516 6.342C31.516 9.348 31.66 12.03 32.056 14.928C32.092 15.108 32.146 15.27 32.146 15.468C32.146 15.702 31.894 15.702 31.714 15.702H30.418ZM27.196 6.108H29.806V5.244H27.196V6.108ZM27.16 3.876H29.806V3.066C28.906 3.066 28.006 3.048 27.106 3.066L27.16 3.876ZM40.336 14.388C39.634 14.388 39.112 13.992 38.716 13.488C37.456 11.904 37.294 9.474 37.294 7.53C37.294 6.27 37.42 5.01 37.528 3.768C37.546 3.66 37.546 3.426 37.6 3.21C37.636 3.048 37.69 2.904 37.834 2.904C37.888 2.904 38.032 2.922 38.194 2.976L39.436 3.3C39.562 3.336 39.832 3.408 39.832 3.57C39.832 3.714 39.706 4.02 39.67 4.164C39.544 4.614 39.4 5.1 39.328 5.568C39.22 6.306 39.148 7.062 39.148 7.8C39.148 8.466 39.292 10.896 39.94 11.886C40.12 12.156 40.336 12.318 40.606 12.318C40.768 12.318 41.002 12.21 41.236 12.066C41.848 11.67 42.55 10.95 42.82 10.626C42.928 10.482 43.036 10.284 43.234 10.284C43.306 10.284 43.396 10.428 43.486 10.662C43.612 11.004 43.72 11.4 43.81 11.724C43.864 11.94 43.882 12.12 43.882 12.192C43.882 12.318 43.81 12.462 43.666 12.624C43.108 13.29 41.542 14.118 41.074 14.262C40.84 14.334 40.588 14.388 40.336 14.388ZM47.914 11.814C47.734 11.796 47.734 11.562 47.662 11.346C47.356 10.302 47.158 9.366 46.672 8.358C46.186 7.35 45.574 6.414 44.89 5.514C44.8 5.424 44.656 5.244 44.656 5.118C44.656 5.028 44.764 4.956 44.962 4.884C45.304 4.758 45.61 4.668 45.898 4.596C46.06 4.56 46.204 4.506 46.276 4.506C46.456 4.506 46.51 4.578 46.618 4.704C46.798 4.902 47.014 5.208 47.104 5.334C48.238 6.9 49.21 8.61 49.678 10.5C49.714 10.59 49.75 10.806 49.75 10.914C49.75 11.094 49.624 11.13 49.39 11.274C49.228 11.364 48.742 11.562 48.4 11.706C48.238 11.76 48.004 11.814 47.914 11.814ZM54.304 8.718C54.25 8.718 54.07 8.574 53.854 8.394C53.476 8.106 53.17 7.818 52.846 7.602C52.684 7.512 52.486 7.35 52.486 7.188C52.486 7.134 52.666 7.062 52.882 6.99L53.512 6.72C55.006 6.126 56.59 5.172 57.742 4.038C58.48 3.318 59.218 2.4 59.722 1.518C59.92 1.176 60.01 1.032 60.136 0.797999C60.28 0.401999 60.298 0.348 60.478 0.348C60.658 0.348 60.676 0.348 60.838 0.419999C61.162 0.545999 61.738 0.815999 61.9 0.87C62.098 0.959999 62.26 1.032 62.242 1.194C62.224 1.32 62.026 1.518 61.954 1.608C61.792 1.878 61.648 2.112 61.486 2.346C62.116 2.706 62.746 3.102 63.358 3.444C64.582 4.128 65.77 4.83 66.958 5.568C67.516 5.91 68.128 6.198 68.74 6.468C68.866 6.522 69.712 6.81 69.712 6.954C69.712 7.188 69.37 7.314 69.208 7.422C68.992 7.548 68.38 7.962 67.894 8.322C67.696 8.466 67.606 8.556 67.444 8.538C67.282 8.52 67.012 8.25 66.904 8.16C66.274 7.62 65.59 7.08 64.888 6.54C64.852 6.9 64.78 7.53 64.726 7.89C64.708 8.088 64.726 8.232 64.492 8.232C64.276 8.232 64.042 8.196 63.826 8.178C63.124 8.124 61.72 8.106 61.018 8.106C59.722 8.106 59.218 8.07 57.922 8.178C57.742 8.178 57.508 8.214 57.346 8.214C57.202 8.214 57.238 7.962 57.22 7.872V6.828C56.5 7.404 55.726 7.998 54.988 8.394C54.79 8.502 54.52 8.718 54.304 8.718ZM65.05 15.288C64.906 15.288 64.762 15.252 64.618 15.234C63.268 15.18 62.17 15.126 60.964 15.126C59.884 15.126 58.552 15.108 57.49 15.198C57.274 15.216 57.076 15.27 56.86 15.27C56.464 15.27 56.5 15 56.482 14.676C56.428 13.722 56.428 12.93 56.338 11.976C56.284 11.382 56.23 10.806 56.158 10.212C56.14 10.068 56.104 9.942 56.104 9.798C56.104 9.51 56.086 9.456 56.338 9.42C56.464 9.402 57.328 9.474 57.526 9.474C58.678 9.474 59.812 9.51 60.964 9.51C62.17 9.51 63.484 9.582 64.708 9.474C64.906 9.456 65.338 9.42 65.554 9.42C65.788 9.42 65.878 9.456 65.878 9.636C65.878 9.834 65.788 10.122 65.77 10.32C65.698 11.058 65.608 11.814 65.572 12.552C65.536 13.416 65.428 14.118 65.428 14.982C65.428 15.252 65.302 15.288 65.05 15.288ZM58.192 13.326C60.01 13.29 61.846 13.326 63.664 13.326C63.718 12.606 63.808 12.03 63.808 11.31C61.9 11.238 60.01 11.274 58.048 11.31C58.102 12.03 58.12 12.624 58.192 13.326ZM60.982 6.342C62.044 6.342 63.106 6.342 64.168 6.306L64.51 6.252C63.844 5.766 63.16 5.298 62.476 4.884C61.774 4.47 61.162 4.074 60.46 3.678C60.118 4.11 59.776 4.578 59.416 4.92C58.984 5.298 58.444 5.802 57.814 6.324C58.858 6.396 59.92 6.342 60.982 6.342ZM76.858 15.27C76.498 15.27 75.976 15.27 75.598 15.252C75.364 15.234 75.22 15.234 75.22 15C75.22 14.892 75.256 14.766 75.274 14.622C75.328 14.298 75.4 13.956 75.436 13.686C75.616 12.57 75.67 11.454 75.724 10.338C74.986 11.148 74.374 12.066 73.798 13.002C73.708 13.128 73.6 13.398 73.42 13.398C73.348 13.398 73.222 13.308 73.078 13.2C72.808 12.966 72.448 12.66 72.214 12.39C72.106 12.246 72.034 12.192 72.034 12.066C72.034 11.958 72.16 11.814 72.304 11.652C72.484 11.436 72.7 11.22 72.772 11.13C73.942 9.798 74.968 8.322 75.94 6.846C75.94 6.594 75.958 6.324 75.958 6.072C75.328 6.216 74.806 6.378 74.176 6.54C74.014 6.576 73.744 6.666 73.582 6.72C73.456 6.756 73.348 6.81 73.204 6.81C73.06 6.81 72.97 6.504 72.934 6.378C72.898 6.234 72.736 5.748 72.646 5.37C72.61 5.172 72.574 5.01 72.574 4.956C72.574 4.902 72.574 4.848 72.61 4.812C72.664 4.758 72.916 4.758 73.006 4.758C74.032 4.686 75.058 4.524 76.066 4.344C76.102 3.768 76.138 3.192 76.138 2.616C76.138 2.238 76.156 1.77 76.084 1.41C76.066 1.32 76.03 1.14 76.048 1.014C76.066 0.905999 76.264 0.887999 76.444 0.887999C76.804 0.87 77.614 0.87 77.866 0.87C78.082 0.87 78.136 0.959999 78.136 1.176C78.136 1.374 78.064 1.77 78.028 2.184C77.956 2.778 77.902 3.354 77.848 3.948C77.956 3.93 78.064 3.93 78.172 3.894C78.262 3.858 78.37 3.768 78.46 3.768C78.586 3.768 78.694 3.858 78.784 3.948L79.324 4.416C79.468 4.542 79.576 4.668 79.594 4.812C79.612 4.938 79.306 5.154 79.198 5.262C78.64 5.766 78.1 6.234 77.524 6.756V7.152C77.866 6.99 78.244 6.846 78.604 6.702C79.648 6.27 80.62 5.982 81.754 5.982C83.878 5.982 85.66 7.332 85.66 9.564C85.66 11.724 84.112 13.2 82.24 14.01C81.808 14.19 80.926 14.514 80.296 14.64C80.134 14.658 79.918 14.712 79.774 14.712C79.612 14.712 79.522 14.604 79.396 14.46C79.126 14.136 78.964 13.92 78.694 13.614C78.496 13.38 78.352 13.29 78.352 13.146C78.37 13.002 78.676 13.002 78.784 12.984C79.576 12.858 80.458 12.66 81.16 12.426C82.474 11.976 83.77 11.022 83.77 9.492C83.77 8.25 82.87 7.638 81.7 7.638C80.188 7.638 78.676 8.286 77.38 9.042C77.272 10.428 77.254 11.832 77.254 13.236V14.28L77.272 15C77.272 15.234 77.146 15.27 76.858 15.27ZM98.17 14.118C97.216 14.118 96.208 14.01 95.236 13.704C94.498 13.47 93.868 12.966 93.508 12.192C93.292 11.724 93.22 11.13 93.184 10.5C93.13 9.618 93.184 8.718 93.166 7.836C92.23 7.926 91.276 7.944 90.358 8.088C89.998 8.142 89.62 8.268 89.26 8.268C89.26 8.268 89.224 8.268 89.224 8.25C89.044 8.214 89.062 8.052 89.044 7.908C89.008 7.44 89.008 6.954 89.008 6.486C89.008 6.27 89.062 6.162 89.296 6.162C89.566 6.162 89.854 6.216 90.142 6.216C91.168 6.216 92.176 6.108 93.202 6.036C93.22 5.442 93.22 4.83 93.184 4.218C93.166 3.894 93.094 3.57 93.094 3.264C93.094 3.048 93.148 2.976 93.364 2.976C93.544 2.976 94.282 2.976 94.804 3.03C94.948 3.03 95.182 3.048 95.182 3.228C95.182 3.48 95.11 3.768 95.092 4.02C95.038 4.668 95.02 5.298 94.984 5.946C96.046 5.856 97.108 5.802 98.152 5.73C98.17 4.884 98.152 4.02 98.152 3.156C98.152 2.922 98.116 2.67 98.098 2.436C98.098 2.274 98.044 2.13 98.044 1.986C98.044 1.734 98.152 1.698 98.368 1.698C98.764 1.698 99.25 1.716 99.754 1.752C99.934 1.752 100.132 1.806 100.132 2.022C100.132 2.184 100.114 2.346 100.096 2.508C100.06 2.778 100.06 3.048 100.042 3.318C99.988 4.092 99.952 4.866 99.934 5.64C100.51 5.622 101.086 5.622 101.662 5.604C102.148 5.568 102.652 5.55 103.12 5.478C103.336 5.442 103.552 5.37 103.768 5.37C103.966 5.37 103.984 5.532 103.984 5.712C103.984 5.892 103.966 6.45 103.912 6.882C103.858 7.35 103.912 7.44 103.426 7.44C102.58 7.44 101.752 7.368 100.906 7.368H99.916C99.916 7.764 99.934 8.214 99.88 8.628C99.772 9.438 99.556 10.212 98.764 10.608C98.368 10.806 97.324 11.076 96.874 11.076C96.784 11.076 96.694 11.058 96.604 11.022C96.442 10.968 96.388 10.752 96.298 10.608C96.226 10.464 95.992 10.104 95.83 9.78C95.74 9.564 95.65 9.456 95.668 9.33C95.686 9.24 95.776 9.186 95.848 9.204C95.992 9.204 96.334 9.222 96.586 9.222C96.802 9.222 97.162 9.24 97.468 9.168C97.756 9.114 97.99 8.988 98.062 8.754C98.134 8.538 98.152 8.178 98.152 7.944C98.152 7.782 98.134 7.602 98.134 7.422C97.054 7.494 95.974 7.53 94.894 7.62C94.894 8.286 94.876 8.97 94.876 9.636C94.876 10.248 94.84 10.968 95.164 11.526C95.362 11.868 95.758 12.048 96.226 12.156C96.802 12.282 97.432 12.3 97.864 12.3C98.944 12.3 100.294 12.192 101.32 11.868C101.464 11.814 102.112 11.562 102.184 11.562C102.364 11.562 102.382 11.778 102.382 11.904C102.364 12.3 102.346 12.804 102.346 13.308C102.328 13.704 102.22 13.812 102.022 13.866C101.158 14.1 98.818 14.118 98.17 14.118Z" fill="black"/>
</svg>
