<svg width="68" height="13" viewBox="0 0 68 13" fill="none" xmlns="http://www.w3.org/2000/svg">
<path d="M1.924 12.046C1.816 12.046 1.6 11.83 1.402 11.65C1.15 11.398 0.952 11.2 0.682 10.948C0.556 10.84 0.376 10.696 0.376 10.57C0.376 10.408 0.574 10.408 0.862 10.318C1.564 10.066 2.248 9.832 2.896 9.472C4.066 8.824 5.182 8.014 6.136 7.06C6.496 6.7 6.82 6.304 7.144 5.908C6.352 5.152 5.506 4.414 4.57 3.856C4.3 3.694 4.138 3.64 4.138 3.496C4.138 3.442 4.192 3.352 4.318 3.226C4.534 3.01 4.786 2.74 5.002 2.542C5.128 2.416 5.236 2.362 5.29 2.362C5.362 2.362 5.488 2.434 5.65 2.524C6.406 2.938 7.936 4.198 8.278 4.468C8.944 3.568 9.844 2.092 10.294 1.066C10.348 0.957999 10.438 0.669999 10.546 0.436C10.6 0.346 10.636 0.129999 10.762 0.129999C10.816 0.129999 10.978 0.184 11.122 0.274C11.482 0.508 12.022 0.85 12.148 0.975999C12.292 1.084 12.472 1.156 12.472 1.354C12.472 1.498 12.346 1.732 12.256 1.858C11.41 3.154 10.546 4.45 9.628 5.674C9.952 5.98 11.392 7.312 12.058 8.05C12.22 8.23 12.31 8.32 12.31 8.41C12.31 8.59 12.202 8.68 12.094 8.806C11.896 9.04 11.644 9.328 11.356 9.616C11.23 9.742 11.14 9.85 11.032 9.85C10.924 9.85 10.816 9.652 10.654 9.472C9.952 8.68 9.394 7.888 8.512 7.114C6.928 8.896 5.254 10.282 3.22 11.506C3.04 11.614 2.716 11.794 2.41 11.92C2.23 11.992 2.086 12.046 1.924 12.046ZM18.844 10.318C18.646 10.318 18.646 10.192 18.646 9.994V8.5C18.646 8.266 18.646 8.086 18.862 8.086C19.132 8.086 19.438 8.158 19.69 8.176C20.014 8.212 20.338 8.212 20.662 8.212L27.376 8.23C28.42 8.23 29.464 8.212 30.49 8.104C30.76 8.086 31.048 8.014 31.318 8.014C31.462 8.014 31.498 8.068 31.498 8.212C31.498 8.302 31.426 8.644 31.336 9.004C31.264 9.364 31.228 9.598 31.174 9.904C31.12 10.102 31.12 10.21 30.886 10.21C30.742 10.21 30.598 10.174 30.454 10.174C29.464 10.12 28.456 10.084 27.448 10.048C26.404 10.03 25.342 10.012 24.298 10.012C23.47 10.012 22.642 10.03 21.832 10.084C21.004 10.12 20.176 10.156 19.366 10.246L18.844 10.318ZM20.608 4.594C20.464 4.594 20.464 4.486 20.464 4.324V2.686C20.464 2.47 20.482 2.398 20.68 2.398C20.878 2.416 21.04 2.452 21.22 2.47C21.472 2.506 21.778 2.542 22.03 2.542C23.164 2.542 24.28 2.524 25.414 2.524C26.368 2.524 27.34 2.56 28.294 2.488C28.618 2.47 29.014 2.398 29.302 2.398C29.446 2.398 29.572 2.398 29.572 2.56C29.572 2.65 29.536 2.848 29.5 3.082C29.428 3.478 29.338 4.036 29.302 4.27C29.266 4.468 29.266 4.576 29.086 4.576C28.888 4.594 28.708 4.54 28.546 4.522C28.204 4.486 27.862 4.468 27.52 4.45C26.638 4.396 25.756 4.396 24.892 4.396C23.74 4.396 22.606 4.468 21.472 4.54C21.238 4.558 20.842 4.594 20.608 4.594ZM38.212 10.948C37.996 10.948 37.978 10.876 37.978 10.678C37.978 10.264 37.978 9.832 37.996 9.418C37.996 9.274 38.014 9.094 38.194 9.094C38.374 9.094 38.554 9.166 38.734 9.184C38.932 9.202 39.13 9.22 39.328 9.22C40.678 9.22 42.028 9.202 43.378 9.202C43.63 8.266 43.882 7.33 44.116 6.394C43.216 6.412 42.298 6.412 41.38 6.412C40.876 6.43 40.354 6.43 39.85 6.466C39.742 6.484 39.562 6.52 39.454 6.502C39.274 6.484 39.31 6.358 39.31 6.178V5.026C39.31 4.828 39.31 4.72 39.472 4.702C39.706 4.684 40.138 4.828 40.498 4.828H41.362C41.704 4.828 42.91 4.846 43.738 4.81C44.116 4.792 44.422 4.774 44.512 4.738C44.692 4.666 44.944 4.378 45.106 4.378C45.178 4.378 45.322 4.432 45.484 4.54C45.772 4.756 46.024 4.972 46.276 5.206C46.402 5.332 46.474 5.458 46.474 5.548C46.474 5.62 46.366 5.764 46.24 5.908C46.132 6.034 46.006 6.178 45.952 6.268C45.88 6.412 45.79 6.628 45.7 6.862C45.448 7.6 45.214 8.644 45.07 9.184C45.682 9.184 46.276 9.148 46.888 9.094C47.068 9.094 47.5 9.022 47.608 9.022C47.752 9.022 47.77 9.04 47.77 9.13C47.77 9.31 47.716 9.616 47.68 9.814L47.572 10.624C47.536 10.858 47.518 10.912 47.338 10.912C47.05 10.894 46.618 10.84 46.312 10.822C45.628 10.786 44.962 10.768 44.296 10.768C42.748 10.768 41.2 10.768 39.67 10.84C39.328 10.858 38.968 10.876 38.626 10.912C38.482 10.93 38.338 10.948 38.212 10.948ZM54.97 7.348C54.79 7.348 54.79 7.204 54.79 6.916V5.584C54.79 5.314 54.79 5.134 55.006 5.134C55.204 5.134 55.582 5.188 55.834 5.224C56.14 5.242 56.446 5.278 56.77 5.278H63.232C64.24 5.278 65.266 5.224 66.238 5.152C66.508 5.116 66.778 5.044 67.048 5.044C67.192 5.044 67.21 5.134 67.21 5.26C67.21 5.332 67.12 5.62 67.066 5.962C67.012 6.322 66.976 6.628 66.904 6.988C66.868 7.204 66.832 7.258 66.634 7.258C66.508 7.258 66.346 7.24 66.202 7.222C64.24 7.114 62.26 7.06 60.28 7.06C59.488 7.06 58.678 7.078 57.886 7.114C57.094 7.168 56.338 7.186 55.51 7.276C55.366 7.294 55.132 7.348 54.97 7.348Z" fill="black"/>
</svg>
