<svg width="50" height="14" viewBox="0 0 50 14" fill="none" xmlns="http://www.w3.org/2000/svg">
<path d="M4.984 13.388C4.822 13.388 4.606 13.388 4.444 13.352C4.318 13.298 4.3 13.19 4.246 12.992C4.21 12.866 4.066 12.29 3.958 11.948C3.922 11.768 3.85 11.588 3.85 11.534C3.85 11.39 3.94 11.372 4.066 11.372C4.462 11.372 4.876 11.444 5.272 11.444C5.434 11.444 5.848 11.444 5.938 11.318C6.01 11.228 6.01 10.994 6.01 10.886C6.028 9.176 6.01 7.52 6.01 5.738C4.714 5.738 3.4 5.756 2.086 5.846C1.816 5.882 1.528 5.936 1.258 5.936C1.042 5.936 1.024 5.846 1.024 5.612V4.19C1.024 4.01 1.06 3.902 1.258 3.902C1.438 3.902 1.6 3.956 1.78 3.974C2.122 4.01 2.446 4.046 2.788 4.046C3.868 4.046 4.93 4.028 5.992 4.01V3.182C5.992 2.822 5.974 2.39 5.938 1.868C5.92 1.616 5.848 1.328 5.848 1.076C5.848 0.877999 6.082 0.86 6.244 0.86H7.684C7.918 0.86 8.044 0.877999 8.044 1.112C8.044 1.31 7.99 1.598 7.972 1.814C7.936 2.282 7.9 2.732 7.882 3.2C7.882 3.47 7.9 3.722 7.882 3.992H8.71C9.862 3.992 11.014 3.956 12.148 3.848C12.364 3.848 12.562 3.794 12.778 3.794C12.904 3.794 12.958 3.83 12.958 3.956C12.958 4.082 12.922 4.334 12.868 4.64C12.814 5.018 12.76 5.486 12.724 5.666C12.688 5.9 12.634 5.954 12.49 5.954C12.274 5.972 12.004 5.9 11.752 5.864C11.428 5.846 11.104 5.828 10.762 5.792C9.808 5.738 8.836 5.738 7.864 5.738V8.852C7.882 9.662 7.882 10.472 7.882 11.282C7.882 13.01 6.46 13.388 4.984 13.388ZM1.51 11.336C1.438 11.336 1.258 11.156 1.096 11.012C0.844 10.778 0.628 10.598 0.376 10.346C0.25 10.22 0.16 10.202 0.142 10.058C0.142 9.968 0.394 9.842 0.466 9.806C0.97 9.518 1.438 9.158 1.87 8.78C2.356 8.348 2.734 7.844 3.04 7.268C3.076 7.214 3.148 7.016 3.202 6.872C3.256 6.746 3.31 6.656 3.382 6.656C3.436 6.656 3.58 6.692 3.706 6.782C4.03 6.998 4.498 7.25 4.642 7.358C4.75 7.43 4.93 7.538 4.93 7.664C4.93 7.862 4.57 8.366 4.444 8.546C3.76 9.554 2.968 10.508 1.906 11.156C1.78 11.246 1.672 11.336 1.51 11.336ZM12.328 11.678C12.238 11.678 12.094 11.408 12.04 11.336C11.698 10.778 11.284 10.184 10.834 9.626C10.384 9.068 9.898 8.528 9.412 8.096C9.34 8.042 8.998 7.79 8.998 7.718C8.998 7.664 9.07 7.538 9.196 7.412C9.448 7.16 9.718 6.89 9.952 6.71C10.078 6.602 10.15 6.548 10.222 6.548C10.348 6.548 10.402 6.62 10.564 6.746C10.96 7.052 11.608 7.682 12.22 8.33C12.778 8.924 13.3 9.536 13.57 9.932C13.66 10.058 13.822 10.238 13.822 10.4C13.804 10.598 13.732 10.598 13.606 10.724C13.444 10.868 12.958 11.336 12.652 11.534C12.526 11.624 12.418 11.678 12.328 11.678ZM18.97 8.348C18.79 8.348 18.79 8.204 18.79 7.916V6.584C18.79 6.314 18.79 6.134 19.006 6.134C19.204 6.134 19.582 6.188 19.834 6.224C20.14 6.242 20.446 6.278 20.77 6.278H27.232C28.24 6.278 29.266 6.224 30.238 6.152C30.508 6.116 30.778 6.044 31.048 6.044C31.192 6.044 31.21 6.134 31.21 6.26C31.21 6.332 31.12 6.62 31.066 6.962C31.012 7.322 30.976 7.628 30.904 7.988C30.868 8.204 30.832 8.258 30.634 8.258C30.508 8.258 30.346 8.24 30.202 8.222C28.24 8.114 26.26 8.06 24.28 8.06C23.488 8.06 22.678 8.078 21.886 8.114C21.094 8.168 20.338 8.186 19.51 8.276C19.366 8.294 19.132 8.348 18.97 8.348ZM47.4771 12.83C47.3151 12.83 47.2071 12.596 47.1171 12.488C46.9911 12.29 46.8831 12.092 46.7571 11.876C46.5771 11.588 46.3611 11.336 46.1631 11.066C43.9851 11.534 41.7531 11.786 39.5211 12.038C38.9271 12.092 38.2791 12.146 37.6671 12.236C37.1991 12.308 36.7131 12.38 36.3531 12.398C36.1551 12.416 35.9931 12.47 35.8851 12.452C35.6691 12.434 35.6871 12.236 35.6151 12.002C35.5431 11.768 35.4351 11.264 35.3091 10.85C35.2551 10.67 35.2191 10.508 35.2191 10.436C35.2191 10.22 35.4891 10.274 35.6151 10.274C36.4791 10.274 37.3431 10.274 38.1891 10.22C38.9631 8.456 39.6291 6.656 40.2951 4.856C40.4931 4.316 40.6731 3.776 40.8351 3.236C40.9611 2.84 41.0871 2.462 41.1771 2.048C41.1951 1.922 41.2311 1.688 41.3211 1.616C41.3571 1.58 41.4111 1.58 41.4651 1.58C41.5371 1.58 41.6991 1.634 41.8971 1.706C42.3291 1.886 42.9231 2.192 43.1031 2.282C43.2291 2.354 43.5171 2.498 43.5171 2.678C43.5171 2.858 43.3731 3.056 43.2651 3.2C43.1391 3.38 43.0671 3.578 42.9591 3.776C41.9691 5.864 41.0331 7.988 40.1511 10.13C41.7531 9.986 43.3551 9.806 44.9571 9.554C44.5071 9.068 44.0031 8.618 43.4811 8.222C43.3911 8.168 43.1391 8.006 43.1391 7.898C43.1391 7.736 43.2831 7.628 43.4631 7.484C43.5531 7.412 43.8951 7.178 44.1651 6.944C44.2911 6.854 44.3811 6.746 44.5251 6.764C44.6151 6.764 44.7411 6.836 44.9211 6.962C45.8751 7.61 47.7471 9.644 48.1251 10.112C48.3411 10.382 48.7191 10.832 48.9171 11.102C49.0071 11.228 49.0611 11.282 49.0611 11.426C49.0611 11.588 48.8451 11.75 48.7371 11.858C48.5751 12.002 48.1611 12.398 47.8371 12.632C47.6751 12.74 47.5671 12.83 47.4771 12.83Z" fill="black"/>
</svg>
