<svg width="286" height="27" viewBox="0 0 286 27" fill="none" xmlns="http://www.w3.org/2000/svg">
<g clip-path="url(#clip0_10_338)">
<path d="M13.433 17.4558C13.433 17.8218 12.635 18.1458 12.527 17.8448C11.966 16.1618 11.406 15.2358 10.479 15.2358H7.93501V24.8948C7.93501 25.2398 9.25001 25.2398 10.22 25.2608C10.565 25.2608 10.414 26.3388 10.026 26.3388H9.98301C8.19401 26.2528 5.71401 26.2528 3.10501 26.3598C2.82501 26.3598 2.99801 25.4548 3.23501 25.4328C4.91701 25.2828 5.47701 25.1528 5.47701 24.5278V15.2348H2.97601C2.04801 15.2348 1.46601 16.1618 0.906007 17.8438C0.799007 18.1458 0.00100708 17.8218 0.00100708 17.5638C0.108007 16.5068 0.324007 15.4078 0.519007 14.2868C0.540007 14.1358 0.648007 14.0068 0.864007 14.0068H0.907007C3.23601 14.1138 5.09001 14.1358 6.72801 14.1358C8.38801 14.1358 10.178 14.0928 12.549 14.0068C12.786 14.0068 12.895 14.0928 12.938 14.2868C13.154 15.3208 13.326 16.3778 13.434 17.4128V17.4558H13.433Z" fill="white"/>
<path d="M26.647 23.1048L26.626 23.1908L25.807 25.7988C25.656 26.2738 25.375 26.3378 25.095 26.3378C21.581 26.2738 16.881 26.2738 15.027 26.3378C14.747 26.3378 14.919 25.5188 15.156 25.4758C15.76 25.3468 16.364 25.2168 16.364 24.5918V15.5588C16.364 14.9978 15.803 14.9978 15.027 14.9768C14.897 14.9768 14.833 14.8268 14.833 14.6318C14.833 14.3518 14.984 14.0068 15.265 14.0068C18.477 14.0708 21.711 14.0708 24.924 14.0068C25.096 14.0068 25.247 14.1568 25.269 14.2868L25.635 16.5508C25.699 16.9818 25.031 17.3268 24.903 17.0038C24.191 15.5798 23.35 15.2568 22.79 15.1918C21.949 15.0848 20.332 15.0408 18.823 15.2348V19.7188L22.467 19.6978C23.049 19.6978 23.329 19.0938 23.502 18.4268C23.545 18.2328 24.234 18.2538 24.234 18.5338V21.6378C24.234 22.0698 23.415 21.8538 23.393 21.7028C23.264 20.9698 22.918 20.7968 22.035 20.7968H18.823V24.6348C18.823 25.0018 18.887 25.1738 19.491 25.1958C21.324 25.2388 22.294 25.2168 23.199 25.1098C24.321 24.9798 25.011 24.1608 25.808 22.7158C25.937 22.4788 26.649 22.7158 26.649 23.1048H26.647Z" fill="white"/>
<path d="M39.69 22.8678C39.69 22.8888 39.69 22.9108 39.669 22.9538L38.678 25.8208C38.527 26.2308 38.311 26.3388 38.139 26.3388C35.681 26.3178 33.568 26.2958 31.929 26.2958C29.924 26.2958 28.609 26.3168 28.264 26.3388C27.984 26.3388 28.156 25.5198 28.393 25.4768C28.997 25.3478 29.601 25.2178 29.601 24.5928V15.5588C29.601 14.9978 29.04 14.9978 28.264 14.9768C28.134 14.9768 28.07 14.8268 28.07 14.6318C28.07 14.3518 28.2 14.0068 28.459 14.0068H28.502C28.868 14.0278 31.196 14.1358 33.913 14.0068C34.193 14.0068 34.021 14.8258 33.784 14.8688C32.749 14.9978 32.059 15.1278 32.059 15.7528V24.6138C32.059 25.0028 32.62 25.2178 33.417 25.2178H35.292C36.715 25.2178 37.729 24.5288 38.807 22.5448C38.958 22.2648 39.691 22.5448 39.691 22.8678H39.69Z" fill="white"/>
<path d="M49.738 13.8841V13.6041C49.818 5.92207 53.46 1.60107 60.06 1.60107C66.022 1.60107 68.982 6.68207 68.982 13.1631V13.4031C68.903 21.0851 65.341 25.4061 58.9 25.4061C52.379 25.4061 49.738 20.2851 49.738 13.8841ZM54.34 12.2031C54.34 18.3241 55.981 23.4051 60.381 23.4051C62.821 23.4051 64.342 20.0851 64.342 14.5231C64.342 8.60207 62.541 3.56107 58.621 3.56107C55.94 3.56107 54.34 6.84107 54.34 12.2031Z" fill="white"/>
<path d="M89.144 18.004C89.144 23.886 83.703 26.727 77.421 26.727C75.7 26.727 73.981 26.527 72.26 26.126C71.98 26.046 71.86 25.846 71.86 25.605C71.86 25.005 72.461 24.205 72.781 24.245C78.181 24.846 84.583 23.485 84.583 18.604C84.583 14.843 81.982 13.403 76.542 14.563C75.741 14.723 75.501 14.283 75.501 13.763C75.501 12.523 75.861 12.323 76.542 12.202C81.503 11.362 83.343 9.561 83.303 7.281C83.303 5.56 81.943 4.12 79.622 4.12C77.902 4.12 76.142 4.841 74.621 5.801C73.981 6.241 72.94 4.761 73.381 4.28C75.461 2.32 78.302 1.479 81.103 1.479H81.183C85.464 1.479 87.785 4.04 87.785 6.76C87.825 9.16 86.425 11.322 83.384 12.201C87.265 12.721 89.146 15.361 89.146 18.002L89.144 18.004Z" fill="white"/>
<path d="M103.862 14.644C104.182 14.644 104.302 15.165 104.302 15.724C104.302 16.445 104.062 17.245 103.701 17.245H93.659C93.339 17.245 93.22 16.724 93.22 16.165C93.22 15.444 93.459 14.644 93.82 14.644H103.862Z" fill="white"/>
<path d="M121.063 23.686C121.063 24.166 120.824 24.766 120.503 24.766C116.982 24.646 112.581 24.646 108.7 24.766H108.62C107.98 24.766 108.46 23.045 108.98 23.005C111.06 22.886 112.861 22.686 112.861 21.485V7.48204C112.861 6.72104 112.821 6.60104 112.26 6.60104C111.74 6.60104 110.78 6.76104 108.94 6.92104C108.419 6.96104 108.1 6.44104 108.1 5.96104C108.1 5.64104 108.219 5.36004 108.499 5.28004C111.1 4.44004 113.141 3.20004 114.94 1.71904C115.06 1.59904 115.3 1.51904 115.541 1.51904C116.341 1.51904 117.421 2.04004 117.341 2.55904C117.181 3.83904 117.061 5.00004 117.061 6.28004V21.524C117.061 22.724 118.421 22.804 120.582 22.963C120.902 22.963 121.061 23.283 121.061 23.684L121.063 23.686Z" fill="white"/>
<path d="M142.506 18.8049C142.506 18.8449 142.506 18.8849 142.466 19.0049L140.905 23.2049C140.425 24.4849 140.225 24.7659 139.465 24.7659H139.265C135.464 24.6059 130.703 24.5659 124.542 24.7659C124.302 24.7659 124.142 24.3259 124.142 23.8859C124.142 23.6459 124.222 23.3649 124.342 23.1649C126.983 19.3239 135.904 13.7639 135.824 8.32188C135.784 5.32088 133.664 4.16088 131.344 4.16088C129.583 4.16088 128.063 4.84188 126.943 5.88188C126.422 6.36088 124.783 5.08088 125.463 4.44188C127.344 2.56088 130.224 1.40088 132.665 1.40088C136.665 1.40088 140.466 3.24188 140.586 7.76188C140.746 13.8839 131.984 18.4049 128.983 21.5659L136.665 21.2059C138.025 21.1259 139.706 20.3659 141.066 18.2049C141.386 17.7259 142.506 18.1639 142.506 18.8049Z" fill="white"/>
<path d="M162.347 18.004C162.347 23.886 156.906 26.727 150.624 26.727C148.903 26.727 147.184 26.527 145.463 26.126C145.183 26.046 145.063 25.846 145.063 25.605C145.063 25.005 145.664 24.205 145.984 24.245C151.384 24.846 157.786 23.485 157.786 18.604C157.786 14.843 155.185 13.403 149.745 14.563C148.944 14.723 148.704 14.283 148.704 13.763C148.704 12.523 149.064 12.323 149.745 12.202C154.706 11.362 156.546 9.561 156.506 7.281C156.506 5.56 155.146 4.12 152.825 4.12C151.105 4.12 149.345 4.841 147.824 5.801C147.184 6.241 146.143 4.761 146.584 4.28C148.664 2.32 151.505 1.479 154.306 1.479H154.386C158.667 1.479 160.988 4.04 160.988 6.76C161.028 9.16 159.628 11.322 156.587 12.201C160.468 12.721 162.349 15.361 162.349 18.002L162.347 18.004Z" fill="white"/>
<path d="M181.026 17.1642H184.827C185.067 17.1642 185.187 17.4442 185.187 17.8052C185.187 18.3652 184.867 19.1642 184.426 19.1642H181.066V21.6852C181.066 22.8462 181.866 22.8462 183.747 23.0452C184.387 23.1252 184.027 24.7662 183.587 24.7662C182.587 24.7262 180.547 24.6862 178.386 24.6862C176.626 24.6862 174.745 24.7262 173.265 24.7662H173.185C172.465 24.7662 172.945 23.1652 173.465 23.1252C175.785 22.9262 176.865 22.8062 176.865 21.4852V19.2042L166.023 19.2442C165.623 19.2442 165.222 18.7242 165.222 18.2042C165.222 18.0442 165.262 17.8842 165.342 17.7252C168.663 12.3642 174.744 4.64221 177.705 1.52121C177.865 1.36121 178.545 1.24121 179.265 1.24121C180.146 1.24121 181.106 1.44121 181.066 1.92221C181.026 3.48321 180.986 4.84321 180.986 6.16321L181.026 17.1652V17.1642ZM176.825 17.2042L176.785 6.20221C174.385 9.08221 170.744 13.8842 168.424 17.2442L176.825 17.2042Z" fill="white"/>
<path d="M198.906 14.644C199.226 14.644 199.346 15.165 199.346 15.724C199.346 16.445 199.106 17.245 198.745 17.245H188.703C188.383 17.245 188.264 16.724 188.264 16.165C188.264 15.444 188.503 14.644 188.864 14.644H198.906Z" fill="white"/>
<path d="M219.309 17.9239C219.309 24.2849 214.068 26.8059 207.987 26.8059C206.306 26.8059 204.546 26.6069 202.826 26.2459C202.426 26.1659 202.305 25.8859 202.305 25.6049C202.305 25.0449 202.745 24.4049 202.986 24.4449C209.667 25.0459 214.708 23.5649 214.708 18.6439C214.708 15.3629 212.988 13.6029 209.707 13.6029C208.387 13.6029 206.867 13.8829 205.467 14.4829C204.946 14.6829 203.706 14.0829 203.866 13.3629L205.667 3.44088C205.786 2.40088 205.866 1.87988 207.307 1.87988H218.709C219.189 1.87988 219.39 1.87988 219.39 2.23988C219.39 2.59988 219.19 3.23988 218.789 4.55988C218.509 5.47988 218.189 5.55988 217.789 5.55988H208.067L206.827 11.8009C208.347 11.4409 209.907 11.3219 211.267 11.3219C216.668 11.3219 219.309 14.2029 219.309 17.9239Z" fill="white"/>
<path d="M239.43 4.68751e-05C240.23 4.68751e-05 240.75 1.40005 240.23 1.60105C232.668 4.28205 227.988 8.48305 228.108 16.084C228.188 21.125 230.669 23.485 233.469 23.485C236.23 23.485 237.51 20.924 237.51 17.764C237.51 16.163 236.669 12.002 233.029 11.922C232.109 11.922 231.428 12.082 230.709 12.282C229.948 12.482 229.908 10.962 230.389 10.721C231.629 10.081 233.15 9.80105 234.55 9.84105C239.271 9.92105 242.112 12.761 242.112 17.242C242.112 21.642 238.752 25.404 232.83 25.404C226.749 25.404 223.508 21.483 223.469 16.202V16.042C223.469 7.36005 230.27 1.51905 239.352 -0.00195312H239.432L239.43 4.68751e-05Z" fill="white"/>
<path d="M263.592 1.96086C264.152 1.96086 264.552 2.64086 264.552 3.24086C264.552 3.40086 264.512 3.56086 264.432 3.71986C260.111 11.0419 255.951 19.1229 253.629 26.0849C253.51 26.4849 252.829 26.6859 252.15 26.6859C251.429 26.6859 250.71 26.4459 250.87 25.9649C252.99 19.5639 256.591 12.0019 260.191 5.64086L250.75 5.56086C249.39 5.56086 248.31 6.68086 247.109 9.44186C246.869 9.88186 245.428 9.80186 245.428 9.12186V9.04186L246.748 2.88086C246.908 2.16086 247.148 1.88086 247.908 1.88086L263.592 1.96086Z" fill="white"/>
<path d="M285.473 18.4039C285.473 22.0049 282.792 25.4459 275.911 25.4459H275.791C270.189 25.4059 267.229 22.9249 267.229 19.4439C267.229 16.4439 269.39 14.4429 272.031 13.4429C269.67 12.2029 268.349 10.0429 268.349 7.96186C268.349 4.84186 270.75 1.35986 276.351 1.35986C277.872 1.35986 284.313 1.71986 284.313 7.32186C284.313 9.52186 282.833 11.6019 280.112 12.5629C283.753 13.9229 285.473 15.6429 285.473 18.4039ZM281.112 19.6839C281.112 17.6439 280.472 17.0029 276.952 15.5229L274.271 14.4029C272.31 15.2439 271.23 16.6029 271.23 19.0049C271.23 20.7649 272.831 23.6059 276.511 23.6059C280.112 23.6059 281.112 20.9239 281.112 19.6839ZM272.151 7.00086C272.151 8.40086 273.151 10.1219 275.792 11.0419L278.112 11.8419C279.592 10.8019 280.312 9.00086 280.312 7.44186C280.312 5.20086 278.872 3.12086 276.191 3.12086C274.431 3.12086 272.151 4.07986 272.151 7.00086Z" fill="white"/>
</g>
<defs>
<clipPath id="clip0_10_338">
<rect width="285.473" height="26.806" fill="white"/>
</clipPath>
</defs>
</svg>
