<svg width="224" height="21" viewBox="0 0 224 21" fill="none" xmlns="http://www.w3.org/2000/svg">
<g clip-path="url(#clip0_9_286)">
<path d="M16.1648 13.6751C16.1648 13.9619 15.5396 14.2157 15.455 13.9799C15.0156 12.6614 14.5768 11.936 13.8506 11.936H11.8576V19.5029C11.8576 19.7732 12.8878 19.7732 13.6477 19.7896C13.918 19.7896 13.7997 20.6341 13.4957 20.6341H13.4621C12.0605 20.5668 10.1177 20.5668 8.07378 20.6506C7.85443 20.6506 7.98996 19.9416 8.17563 19.9244C9.49332 19.8069 9.93202 19.705 9.93202 19.2154V11.9352H7.97272C7.24572 11.9352 6.78978 12.6614 6.35107 13.9791C6.26725 14.2157 5.64209 13.9619 5.64209 13.7598C5.72591 12.9317 5.89513 12.0707 6.04789 11.1925C6.06435 11.0742 6.14895 10.9732 6.31817 10.9732H6.35186C8.17641 11.057 9.62885 11.0742 10.9121 11.0742C12.2125 11.0742 13.6148 11.0405 15.4723 10.9732C15.6579 10.9732 15.7433 11.0405 15.777 11.1925C15.9462 12.0026 16.081 12.8306 16.1656 13.6415V13.6751H16.1648Z" fill="black"/>
<path d="M26.5168 18.1006L26.5003 18.168L25.8587 20.2111C25.7404 20.5832 25.5203 20.6334 25.3009 20.6334C22.548 20.5832 18.866 20.5832 17.4136 20.6334C17.1942 20.6334 17.329 19.9918 17.5146 19.9581C17.9878 19.857 18.461 19.7552 18.461 19.2655V12.189C18.461 11.7495 18.0215 11.7495 17.4136 11.7331C17.3117 11.7331 17.2616 11.6156 17.2616 11.4628C17.2616 11.2435 17.3799 10.9732 17.6 10.9732C20.1163 11.0233 22.6499 11.0233 25.167 10.9732C25.3017 10.9732 25.42 11.0907 25.4372 11.1925L25.724 12.9662C25.7741 13.3038 25.2508 13.5741 25.1505 13.321C24.5927 12.2055 23.9339 11.9524 23.4952 11.9015C22.8363 11.8177 21.5696 11.7832 20.3874 11.9352V15.448L23.2421 15.4315C23.6981 15.4315 23.9174 14.9584 24.053 14.4358C24.0866 14.2839 24.6264 14.3003 24.6264 14.5197V16.9514C24.6264 17.2898 23.9848 17.1206 23.9676 17.0023C23.8665 16.428 23.5954 16.2925 22.9037 16.2925H20.3874V19.2992C20.3874 19.5867 20.4375 19.7215 20.9107 19.7387C22.3467 19.7724 23.1066 19.7552 23.8156 19.6713C24.6946 19.5695 25.2351 18.9279 25.8595 17.7959C25.9605 17.6102 26.5183 17.7959 26.5183 18.1006H26.5168Z" fill="black"/>
<path d="M36.7348 17.9149C36.7348 17.9314 36.7348 17.9486 36.7183 17.9823L35.942 20.2283C35.8237 20.5495 35.6545 20.6341 35.5197 20.6341C33.5941 20.6177 31.9388 20.6005 30.6548 20.6005C29.084 20.6005 28.0538 20.6169 27.7836 20.6341C27.5642 20.6341 27.699 19.9925 27.8846 19.9588C28.3578 19.8578 28.831 19.7559 28.831 19.2663V12.189C28.831 11.7495 28.3915 11.7495 27.7836 11.7331C27.6817 11.7331 27.6316 11.6156 27.6316 11.4628C27.6316 11.2435 27.7334 10.9732 27.9363 10.9732H27.97C28.2568 10.9896 30.0805 11.0742 32.209 10.9732C32.4284 10.9732 32.2936 11.6148 32.108 11.6485C31.2972 11.7495 30.7566 11.8514 30.7566 12.341V19.2828C30.7566 19.5875 31.1961 19.7559 31.8205 19.7559H33.2894C34.4041 19.7559 35.1985 19.2162 36.043 17.6619C36.1613 17.4425 36.7356 17.6619 36.7356 17.9149H36.7348Z" fill="black"/>
<path d="M39.3236 10.8768V10.6575C39.3863 4.63933 42.2395 1.25423 47.4099 1.25423C52.0806 1.25423 54.3995 5.23472 54.3995 10.312V10.5C54.3376 16.5181 51.5471 19.9032 46.5012 19.9032C41.3926 19.9032 39.3236 15.8914 39.3236 10.8768ZM42.9288 9.55991C42.9288 14.3551 44.2144 18.3356 47.6614 18.3356C49.5729 18.3356 50.7645 15.7347 50.7645 11.3774C50.7645 6.73886 49.3536 2.78971 46.2826 2.78971C44.1823 2.78971 42.9288 5.35929 42.9288 9.55991Z" fill="black"/>
<path d="M70.1946 14.1045C70.1946 18.7125 65.9321 20.9381 61.0107 20.9381C59.6625 20.9381 58.3158 20.7814 56.9675 20.4673C56.7482 20.4046 56.6542 20.2479 56.6542 20.0591C56.6542 19.5891 57.125 18.9624 57.3757 18.9937C61.6061 19.4645 66.6215 18.3983 66.6215 14.5745C66.6215 11.6281 64.5838 10.5 60.3221 11.4088C59.6946 11.5341 59.5066 11.1894 59.5066 10.782C59.5066 9.8106 59.7886 9.65392 60.3221 9.55913C64.2086 8.90107 65.65 7.49015 65.6187 5.70399C65.6187 4.35574 64.5533 3.22764 62.735 3.22764C61.3875 3.22764 60.0087 3.79247 58.8172 4.54454C58.3158 4.88924 57.5003 3.7298 57.8457 3.35298C59.4752 1.81751 61.7009 1.15866 63.8952 1.15866H63.9579C67.3116 1.15866 69.1299 3.16497 69.1299 5.29583C69.1613 7.17601 68.0645 8.86973 65.6822 9.55835C68.7226 9.96572 70.1961 12.0339 70.1961 14.1029L70.1946 14.1045Z" fill="black"/>
<path d="M81.7247 11.4722C81.9754 11.4722 82.0694 11.8804 82.0694 12.3183C82.0694 12.8831 81.8814 13.5099 81.5986 13.5099H73.7316C73.4809 13.5099 73.3877 13.1017 73.3877 12.6638C73.3877 12.0989 73.5749 11.4722 73.8577 11.4722H81.7247Z" fill="black"/>
<path d="M95.2001 18.5558C95.2001 18.9318 95.0129 19.4018 94.7614 19.4018C92.003 19.3078 88.5552 19.3078 85.5148 19.4018H85.4522C84.9508 19.4018 85.3268 18.0536 85.7342 18.0223C87.3637 17.929 88.7746 17.7724 88.7746 16.8315V5.86145C88.7746 5.26528 88.7433 5.17127 88.3038 5.17127C87.8964 5.17127 87.1443 5.29661 85.7029 5.42196C85.2947 5.45329 85.0448 5.04592 85.0448 4.66989C85.0448 4.4192 85.138 4.19906 85.3574 4.13639C87.395 3.47833 88.994 2.5069 90.4033 1.34668C90.4973 1.25267 90.6853 1.18999 90.8741 1.18999C91.5009 1.18999 92.3469 1.59815 92.2843 2.00474C92.1589 3.0075 92.0649 3.91703 92.0649 4.91979V16.862C92.0649 17.8021 93.1303 17.8648 94.8233 17.9894C95.074 17.9894 95.1985 18.2401 95.1985 18.5542L95.2001 18.5558Z" fill="black"/>
<path d="M111.999 14.732C111.999 14.7633 111.999 14.7946 111.967 14.8886L110.744 18.179C110.368 19.1817 110.212 19.4019 109.616 19.4019H109.46C106.482 19.2765 102.752 19.2452 97.9255 19.4019C97.7375 19.4019 97.6122 19.0572 97.6122 18.7125C97.6122 18.5244 97.6749 18.3043 97.7689 18.1476C99.8378 15.1386 106.827 10.7828 106.764 6.51951C106.733 4.16851 105.072 3.25976 103.254 3.25976C101.875 3.25976 100.684 3.79326 99.8065 4.608C99.3984 4.98325 98.1143 3.98049 98.6471 3.4799C100.121 2.00631 102.377 1.09756 104.289 1.09756C107.423 1.09756 110.401 2.53981 110.495 6.08081C110.62 10.8768 103.756 14.4186 101.405 16.895L107.423 16.6129C108.488 16.5503 109.805 15.9549 110.871 14.2619C111.121 13.8867 111.999 14.2298 111.999 14.732Z" fill="black"/>
<path d="M127.542 14.1045C127.542 18.7125 123.28 20.9381 118.358 20.9381C117.01 20.9381 115.663 20.7814 114.315 20.4673C114.096 20.4046 114.002 20.2479 114.002 20.0591C114.002 19.5891 114.473 18.9624 114.723 18.9937C118.954 19.4645 123.969 18.3983 123.969 14.5745C123.969 11.6281 121.931 10.5 117.67 11.4088C117.042 11.5341 116.854 11.1894 116.854 10.782C116.854 9.8106 117.136 9.65392 117.67 9.55913C121.556 8.90107 122.998 7.49015 122.966 5.70399C122.966 4.35574 121.901 3.22764 120.083 3.22764C118.735 3.22764 117.356 3.79247 116.165 4.54454C115.663 4.88924 114.848 3.7298 115.193 3.35298C116.823 1.81751 119.049 1.15866 121.243 1.15866H121.306C124.659 1.15866 126.478 3.16497 126.478 5.29583C126.509 7.17601 125.412 8.86973 123.03 9.55835C126.07 9.96572 127.544 12.0339 127.544 14.1029L127.542 14.1045Z" fill="black"/>
<path d="M142.176 13.4464H145.153C145.341 13.4464 145.435 13.6658 145.435 13.9486C145.435 14.3873 145.185 15.0132 144.839 15.0132H142.207V16.9882C142.207 17.8977 142.834 17.8977 144.307 18.0536C144.809 18.1163 144.527 19.4019 144.182 19.4019C143.398 19.3705 141.8 19.3392 140.107 19.3392C138.729 19.3392 137.255 19.3705 136.095 19.4019H136.033C135.469 19.4019 135.845 18.1476 136.252 18.1163C138.07 17.9604 138.916 17.8664 138.916 16.8315V15.0445L130.422 15.0759C130.109 15.0759 129.795 14.6685 129.795 14.2611C129.795 14.1358 129.826 14.0105 129.889 13.8859C132.49 9.68605 137.254 3.63658 139.574 1.19157C139.699 1.06622 140.232 0.972214 140.796 0.972214C141.486 0.972214 142.238 1.1289 142.207 1.50571C142.176 2.72861 142.144 3.79404 142.144 4.82814L142.176 13.4472V13.4464ZM138.884 13.4777L138.853 4.85869C136.973 7.1149 134.121 10.8768 132.303 13.5091L138.884 13.4777Z" fill="black"/>
<path d="M156.183 11.4722C156.434 11.4722 156.528 11.8804 156.528 12.3183C156.528 12.8831 156.34 13.5099 156.057 13.5099H148.19C147.939 13.5099 147.846 13.1017 147.846 12.6638C147.846 12.0989 148.033 11.4722 148.316 11.4722H156.183Z" fill="black"/>
<path d="M172.167 14.0418C172.167 19.025 168.061 21 163.297 21C161.98 21 160.601 20.8441 159.254 20.5613C158.94 20.4986 158.846 20.2793 158.846 20.0591C158.846 19.6204 159.19 19.119 159.379 19.1504C164.613 19.6212 168.562 18.461 168.562 14.6058C168.562 12.0355 167.215 10.6567 164.644 10.6567C163.61 10.6567 162.419 10.876 161.323 11.3461C160.915 11.5028 159.943 11.0327 160.068 10.4687L161.479 2.69571C161.573 1.88096 161.635 1.47281 162.764 1.47281H171.697C172.073 1.47281 172.23 1.47281 172.23 1.75484C172.23 2.03686 172.073 2.53824 171.759 3.57234C171.54 4.29307 171.289 4.35575 170.976 4.35575H163.36L162.388 9.24499C163.579 8.96296 164.801 8.86973 165.866 8.86973C170.098 8.86973 172.167 11.1267 172.167 14.0418Z" fill="black"/>
<path d="M187.93 2.7878e-06C188.556 2.7878e-06 188.964 1.09677 188.556 1.25424C182.632 3.35455 178.966 6.64564 179.06 12.6003C179.123 16.5495 181.066 18.3983 183.26 18.3983C185.423 18.3983 186.425 16.392 186.425 13.9164C186.425 12.6622 185.767 9.40245 182.915 9.33978C182.194 9.33978 181.661 9.46512 181.098 9.6218C180.501 9.77849 180.47 8.58771 180.847 8.39891C181.818 7.89753 183.01 7.67817 184.107 7.70951C187.805 7.77218 190.031 9.99706 190.031 13.5075C190.031 16.9545 187.398 19.9017 182.759 19.9017C177.995 19.9017 175.456 16.8299 175.426 12.6928V12.5674C175.426 5.76588 180.754 1.19 187.869 -0.00156403H187.931L187.93 2.7878e-06Z" fill="black"/>
<path d="M206.858 1.53626C207.297 1.53626 207.61 2.06898 207.61 2.53902C207.61 2.66437 207.579 2.78971 207.516 2.91427C204.131 8.65038 200.872 14.9811 199.053 20.4352C198.96 20.7485 198.426 20.906 197.894 20.906C197.33 20.906 196.766 20.718 196.892 20.3412C198.553 15.3266 201.374 9.40245 204.194 4.4192L196.798 4.35652C195.732 4.35652 194.886 5.23394 193.945 7.39693C193.757 7.74162 192.628 7.67895 192.628 7.14623V7.08356L193.663 2.25699C193.788 1.69294 193.976 1.47359 194.571 1.47359L206.858 1.53626Z" fill="black"/>
<path d="M224 14.4178C224 17.2389 221.9 19.9346 216.509 19.9346H216.415C212.026 19.9032 209.708 17.9596 209.708 15.2326C209.708 12.8823 211.4 11.3147 213.469 10.5313C211.62 9.55992 210.585 7.86776 210.585 6.23749C210.585 3.79326 212.466 1.06544 216.854 1.06544C218.045 1.06544 223.091 1.34746 223.091 5.73611C223.091 7.4596 221.932 9.08909 219.8 9.84194C222.653 10.9074 224 12.2548 224 14.4178ZM220.584 15.4206C220.584 13.8224 220.082 13.3203 217.325 12.1608L215.224 11.2834C213.688 11.9423 212.842 13.0069 212.842 14.8886C212.842 16.2674 214.096 18.4931 216.979 18.4931C219.8 18.4931 220.584 16.392 220.584 15.4206ZM213.563 5.48463C213.563 6.5814 214.347 7.92965 216.416 8.65038L218.233 9.27711C219.393 8.46236 219.957 7.05145 219.957 5.83012C219.957 4.0745 218.829 2.44502 216.728 2.44502C215.35 2.44502 213.563 3.1963 213.563 5.48463Z" fill="black"/>
</g>
<defs>
<clipPath id="clip0_9_286">
<rect width="223.641" height="21" fill="white" transform="translate(0.358521)"/>
</clipPath>
</defs>
</svg>
